<?xml version="1.0" encoding="UTF-8" standalone="no"?>
<!DOCTYPE svg PUBLIC "-//W3C//DTD SVG 1.1//EN"
 "http://www.w3.org/Graphics/SVG/1.1/DTD/svg11.dtd">
<!-- Generated by graphviz version 2.38.0 (20140413.2041)
 -->
<!-- Title: interface~~mixval~~CalledByGraph Pages: 1 -->
<svg width="574pt" height="622pt"
 viewBox="0.00 0.00 574.00 622.00" xmlns="http://www.w3.org/2000/svg" xmlns:xlink="http://www.w3.org/1999/xlink">
<g id="graph0" class="graph" transform="scale(1 1) rotate(0) translate(4 618)">
<title>interface~~mixval~~CalledByGraph</title>
<polygon fill="white" stroke="none" points="-4,4 -4,-618 570,-618 570,4 -4,4"/>
<!-- interface~mixval -->
<g id="node1" class="node"><title>interface~mixval</title>
<polygon fill="none" stroke="black" points="566,-315 512,-315 512,-291 566,-291 566,-315"/>
<text text-anchor="middle" x="539" y="-300.6" font-family="Helvetica,sans-Serif" font-size="10.50">mixval</text>
</g>
<!-- proc~barh -->
<g id="node2" class="node"><title>proc~barh</title>
<g id="a_node2"><a xlink:href="../proc/barh.html" xlink:title="barh">
<polygon fill="#d9534f" stroke="#d9534f" points="471.5,-614 417.5,-614 417.5,-590 471.5,-590 471.5,-614"/>
<text text-anchor="middle" x="444.5" y="-599.6" font-family="Helvetica,sans-Serif" font-size="10.50" fill="white">barh</text>
</a>
</g>
</g>
<!-- proc~barh&#45;&gt;interface~mixval -->
<g id="edge19" class="edge"><title>proc~barh&#45;&gt;interface~mixval</title>
<path fill="none" stroke="black" d="M463.571,-589.873C468.236,-585.948 472.83,-581.239 476,-576 526.066,-493.248 535.759,-374.186 537.594,-325.269"/>
<polygon fill="black" stroke="black" points="541.095,-325.264 537.895,-315.165 534.099,-325.056 541.095,-325.264"/>
</g>
<!-- proc~scatter -->
<g id="node3" class="node"><title>proc~scatter</title>
<g id="a_node3"><a xlink:href="../proc/scatter.html" xlink:title="scatter">
<polygon fill="#d9534f" stroke="#d9534f" points="373.5,-514 319.5,-514 319.5,-490 373.5,-490 373.5,-514"/>
<text text-anchor="middle" x="346.5" y="-499.6" font-family="Helvetica,sans-Serif" font-size="10.50" fill="white">scatter</text>
</a>
</g>
</g>
<!-- proc~scatter&#45;&gt;interface~mixval -->
<g id="edge20" class="edge"><title>proc~scatter&#45;&gt;interface~mixval</title>
<path fill="none" stroke="black" d="M373.511,-506.23C401.906,-509.31 447.163,-509.511 476,-486 525.324,-445.785 535.593,-364.67 537.603,-325.362"/>
<polygon fill="black" stroke="black" points="541.105,-325.362 537.982,-315.238 534.11,-325.1 541.105,-325.362"/>
</g>
<!-- proc~dosurface -->
<g id="node4" class="node"><title>proc~dosurface</title>
<g id="a_node4"><a xlink:href="../proc/dosurface.html" xlink:title="doSurface">
<polygon fill="#d9534f" stroke="#d9534f" points="377,-454 316,-454 316,-430 377,-430 377,-454"/>
<text text-anchor="middle" x="346.5" y="-439.6" font-family="Helvetica,sans-Serif" font-size="10.50" fill="white">doSurface</text>
</a>
</g>
</g>
<!-- proc~dosurface&#45;&gt;interface~mixval -->
<g id="edge21" class="edge"><title>proc~dosurface&#45;&gt;interface~mixval</title>
<path fill="none" stroke="black" d="M367.204,-454.206C394.146,-469.163 442.906,-489.869 476,-467 522.75,-434.695 534.287,-362.291 537.107,-325.452"/>
<polygon fill="black" stroke="black" points="540.614,-325.44 537.732,-315.245 533.628,-325.012 540.614,-325.44"/>
</g>
<!-- proc~dobar -->
<g id="node5" class="node"><title>proc~dobar</title>
<g id="a_node5"><a xlink:href="../proc/dobar.html" xlink:title="doBar">
<polygon fill="#d9534f" stroke="#d9534f" points="373.5,-565 319.5,-565 319.5,-541 373.5,-541 373.5,-565"/>
<text text-anchor="middle" x="346.5" y="-550.6" font-family="Helvetica,sans-Serif" font-size="10.50" fill="white">doBar</text>
</a>
</g>
</g>
<!-- proc~dobar&#45;&gt;interface~mixval -->
<g id="edge22" class="edge"><title>proc~dobar&#45;&gt;interface~mixval</title>
<path fill="none" stroke="black" d="M373.644,-551.224C402.589,-547.862 448.749,-538.135 476,-510 526.208,-458.164 535.968,-367.351 537.719,-325.405"/>
<polygon fill="black" stroke="black" points="541.224,-325.267 538.023,-315.167 534.227,-325.059 541.224,-325.267"/>
</g>
<!-- proc~dobar&#45;&gt;proc~barh -->
<g id="edge1" class="edge"><title>proc~dobar&#45;&gt;proc~barh</title>
<path fill="none" stroke="black" d="M371.23,-565.112C383.115,-571.179 397.694,-578.62 410.637,-585.226"/>
<polygon fill="black" stroke="black" points="409.212,-588.428 419.71,-589.857 412.394,-582.193 409.212,-588.428"/>
</g>
<!-- proc~bar -->
<g id="node9" class="node"><title>proc~bar</title>
<g id="a_node9"><a xlink:href="../proc/bar.html" xlink:title="bar">
<polygon fill="#d9534f" stroke="#d9534f" points="471.5,-374 417.5,-374 417.5,-350 471.5,-350 471.5,-374"/>
<text text-anchor="middle" x="444.5" y="-359.6" font-family="Helvetica,sans-Serif" font-size="10.50" fill="white">bar</text>
</a>
</g>
</g>
<!-- proc~dobar&#45;&gt;proc~bar -->
<g id="edge8" class="edge"><title>proc~dobar&#45;&gt;proc~bar</title>
<path fill="none" stroke="black" d="M362.397,-540.826C367.693,-535.805 373.263,-529.614 377,-523 408.607,-467.066 376.208,-435.669 413,-383 413.442,-382.368 413.909,-381.748 414.399,-381.142"/>
<polygon fill="black" stroke="black" points="416.996,-383.499 421.742,-374.027 412.125,-378.472 416.996,-383.499"/>
</g>
<!-- proc~makelogo -->
<g id="node6" class="node"><title>proc~makelogo</title>
<g id="a_node6"><a xlink:href="../proc/makelogo.html" xlink:title="makeLogo">
<polygon fill="#d9534f" stroke="#d9534f" points="476,-458 413,-458 413,-434 476,-434 476,-458"/>
<text text-anchor="middle" x="444.5" y="-443.6" font-family="Helvetica,sans-Serif" font-size="10.50" fill="white">makeLogo</text>
</a>
</g>
</g>
<!-- proc~makelogo&#45;&gt;interface~mixval -->
<g id="edge23" class="edge"><title>proc~makelogo&#45;&gt;interface~mixval</title>
<path fill="none" stroke="black" d="M466.029,-433.98C469.619,-431.313 473.121,-428.29 476,-425 502.544,-394.674 521.133,-350.972 530.654,-324.935"/>
<polygon fill="black" stroke="black" points="534.041,-325.855 534.071,-315.26 527.441,-323.524 534.041,-325.855"/>
</g>
<!-- program~basic_prg -->
<g id="node7" class="node"><title>program~basic_prg</title>
<g id="a_node7"><a xlink:href="../program/basic_prg.html" xlink:title="basic_prg">
<polygon fill="#f0ad4e" stroke="#f0ad4e" points="474,-416 415,-416 415,-392 474,-392 474,-416"/>
<text text-anchor="middle" x="444.5" y="-401.6" font-family="Helvetica,sans-Serif" font-size="10.50" fill="white">basic_prg</text>
</a>
</g>
</g>
<!-- program~basic_prg&#45;&gt;interface~mixval -->
<g id="edge24" class="edge"><title>program~basic_prg&#45;&gt;interface~mixval</title>
<path fill="none" stroke="black" d="M464.906,-391.977C468.752,-389.232 472.636,-386.18 476,-383 495.071,-364.974 512.991,-340.754 524.613,-323.701"/>
<polygon fill="black" stroke="black" points="527.747,-325.31 530.389,-315.05 521.925,-321.423 527.747,-325.31"/>
</g>
<!-- proc~hist -->
<g id="node8" class="node"><title>proc~hist</title>
<g id="a_node8"><a xlink:href="../proc/hist.html" xlink:title="hist">
<polygon fill="#d9534f" stroke="#d9534f" points="373.5,-338 319.5,-338 319.5,-314 373.5,-314 373.5,-338"/>
<text text-anchor="middle" x="346.5" y="-323.6" font-family="Helvetica,sans-Serif" font-size="10.50" fill="white">hist</text>
</a>
</g>
</g>
<!-- proc~hist&#45;&gt;interface~mixval -->
<g id="edge25" class="edge"><title>proc~hist&#45;&gt;interface~mixval</title>
<path fill="none" stroke="black" d="M373.589,-322.85C406.841,-318.835 464.492,-311.875 501.934,-307.354"/>
<polygon fill="black" stroke="black" points="502.413,-310.822 511.921,-306.149 501.574,-303.873 502.413,-310.822"/>
</g>
<!-- proc~hist&#45;&gt;proc~bar -->
<g id="edge10" class="edge"><title>proc~hist&#45;&gt;proc~bar</title>
<path fill="none" stroke="black" d="M373.732,-335.837C384.209,-339.766 396.441,-344.353 407.711,-348.579"/>
<polygon fill="black" stroke="black" points="406.707,-351.941 417.299,-352.175 409.165,-345.386 406.707,-351.941"/>
</g>
<!-- proc~bar&#45;&gt;interface~mixval -->
<g id="edge26" class="edge"><title>proc~bar&#45;&gt;interface~mixval</title>
<path fill="none" stroke="black" d="M464.666,-349.775C477.9,-341.334 495.703,-329.979 510.453,-320.57"/>
<polygon fill="black" stroke="black" points="512.626,-323.336 519.175,-315.007 508.862,-317.434 512.626,-323.336"/>
</g>
<!-- proc~dolegend -->
<g id="node10" class="node"><title>proc~dolegend</title>
<g id="a_node10"><a xlink:href="../proc/dolegend.html" xlink:title="doLegend">
<polygon fill="#d9534f" stroke="#d9534f" points="377,-258 316,-258 316,-234 377,-234 377,-258"/>
<text text-anchor="middle" x="346.5" y="-243.6" font-family="Helvetica,sans-Serif" font-size="10.50" fill="white">doLegend</text>
</a>
</g>
</g>
<!-- proc~dolegend&#45;&gt;interface~mixval -->
<g id="edge27" class="edge"><title>proc~dolegend&#45;&gt;interface~mixval</title>
<path fill="none" stroke="black" d="M377.251,-248.955C403.73,-252.192 443.229,-258.522 476,-270 487.542,-274.043 499.557,-279.983 509.903,-285.713"/>
<polygon fill="black" stroke="black" points="508.457,-288.919 518.873,-290.857 511.939,-282.846 508.457,-288.919"/>
</g>
<!-- proc~doerror -->
<g id="node11" class="node"><title>proc~doerror</title>
<g id="a_node11"><a xlink:href="../proc/doerror.html" xlink:title="doError">
<polygon fill="#d9534f" stroke="#d9534f" points="471.5,-218 417.5,-218 417.5,-194 471.5,-194 471.5,-218"/>
<text text-anchor="middle" x="444.5" y="-203.6" font-family="Helvetica,sans-Serif" font-size="10.50" fill="white">doError</text>
</a>
</g>
</g>
<!-- proc~doerror&#45;&gt;interface~mixval -->
<g id="edge28" class="edge"><title>proc~doerror&#45;&gt;interface~mixval</title>
<path fill="none" stroke="black" d="M460.47,-218.01C465.543,-222.274 471.15,-227.207 476,-232 492.542,-248.346 509.824,-268.423 521.927,-283.052"/>
<polygon fill="black" stroke="black" points="519.365,-285.448 528.41,-290.966 524.781,-281.012 519.365,-285.448"/>
</g>
<!-- proc~dofillbetween -->
<g id="node12" class="node"><title>proc~dofillbetween</title>
<g id="a_node12"><a xlink:href="../proc/dofillbetween.html" xlink:title="doFillBetween">
<polygon fill="#d9534f" stroke="#d9534f" points="280,-181 201,-181 201,-157 280,-157 280,-181"/>
<text text-anchor="middle" x="240.5" y="-166.6" font-family="Helvetica,sans-Serif" font-size="10.50" fill="white">doFillBetween</text>
</a>
</g>
</g>
<!-- proc~dofillbetween&#45;&gt;interface~mixval -->
<g id="edge29" class="edge"><title>proc~dofillbetween&#45;&gt;interface~mixval</title>
<path fill="none" stroke="black" d="M280.385,-160.87C330.058,-152.736 416.685,-146.344 476,-185 509.547,-206.863 526.07,-253.079 533.255,-280.74"/>
<polygon fill="black" stroke="black" points="529.903,-281.768 535.641,-290.674 536.709,-280.133 529.903,-281.768"/>
</g>
<!-- proc~doplot -->
<g id="node13" class="node"><title>proc~doplot</title>
<g id="a_node13"><a xlink:href="../proc/doplot.html" xlink:title="doPlot">
<polygon fill="#d9534f" stroke="#d9534f" points="267.5,-139 213.5,-139 213.5,-115 267.5,-115 267.5,-139"/>
<text text-anchor="middle" x="240.5" y="-124.6" font-family="Helvetica,sans-Serif" font-size="10.50" fill="white">doPlot</text>
</a>
</g>
</g>
<!-- proc~doplot&#45;&gt;interface~mixval -->
<g id="edge30" class="edge"><title>proc~doplot&#45;&gt;interface~mixval</title>
<path fill="none" stroke="black" d="M267.827,-122.565C314.774,-116.197 413.836,-109.916 476,-157 515.84,-187.175 530.352,-247.942 535.425,-280.761"/>
<polygon fill="black" stroke="black" points="531.968,-281.31 536.807,-290.735 538.902,-280.349 531.968,-281.31"/>
</g>
<!-- proc~docontour -->
<g id="node14" class="node"><title>proc~docontour</title>
<g id="a_node14"><a xlink:href="../proc/docontour.html" xlink:title="doContour">
<polygon fill="#d9534f" stroke="#d9534f" points="272,-97 209,-97 209,-73 272,-73 272,-97"/>
<text text-anchor="middle" x="240.5" y="-82.6" font-family="Helvetica,sans-Serif" font-size="10.50" fill="white">doContour</text>
</a>
</g>
</g>
<!-- proc~docontour&#45;&gt;interface~mixval -->
<g id="edge31" class="edge"><title>proc~docontour&#45;&gt;interface~mixval</title>
<path fill="none" stroke="black" d="M272.149,-81.1347C321.185,-76.7343 417.675,-75.6452 476,-125 523.063,-164.825 534.435,-242.44 537.159,-280.652"/>
<polygon fill="black" stroke="black" points="533.67,-280.959 537.738,-290.742 540.659,-280.557 533.67,-280.959"/>
</g>
<!-- proc~doquiver -->
<g id="node15" class="node"><title>proc~doquiver</title>
<g id="a_node15"><a xlink:href="../proc/doquiver.html" xlink:title="doQuiver">
<polygon fill="#d9534f" stroke="#d9534f" points="374.5,-57 318.5,-57 318.5,-33 374.5,-33 374.5,-57"/>
<text text-anchor="middle" x="346.5" y="-42.6" font-family="Helvetica,sans-Serif" font-size="10.50" fill="white">doQuiver</text>
</a>
</g>
</g>
<!-- proc~doquiver&#45;&gt;interface~mixval -->
<g id="edge32" class="edge"><title>proc~doquiver&#45;&gt;interface~mixval</title>
<path fill="none" stroke="black" d="M374.631,-43.9734C403.576,-44.4052 448.91,-49.708 476,-76 533.43,-131.738 539.272,-235.097 538.849,-280.556"/>
<polygon fill="black" stroke="black" points="535.345,-280.731 538.634,-290.802 542.343,-280.877 535.345,-280.731"/>
</g>
<!-- proc~quiver -->
<g id="node17" class="node"><title>proc~quiver</title>
<g id="a_node17"><a xlink:href="../proc/quiver.html" xlink:title="quiver">
<polygon fill="#d9534f" stroke="#d9534f" points="471.5,-24 417.5,-24 417.5,-0 471.5,-0 471.5,-24"/>
<text text-anchor="middle" x="444.5" y="-9.6" font-family="Helvetica,sans-Serif" font-size="10.50" fill="white">quiver</text>
</a>
</g>
</g>
<!-- proc~doquiver&#45;&gt;proc~quiver -->
<g id="edge18" class="edge"><title>proc~doquiver&#45;&gt;proc~quiver</title>
<path fill="none" stroke="black" d="M374.753,-35.6318C384.939,-32.1304 396.668,-28.0985 407.521,-24.3677"/>
<polygon fill="black" stroke="black" points="408.853,-27.6109 417.172,-21.0501 406.578,-20.9911 408.853,-27.6109"/>
</g>
<!-- proc~dohist -->
<g id="node16" class="node"><title>proc~dohist</title>
<g id="a_node16"><a xlink:href="../proc/dohist.html" xlink:title="doHist">
<polygon fill="#d9534f" stroke="#d9534f" points="267.5,-318 213.5,-318 213.5,-294 267.5,-294 267.5,-318"/>
<text text-anchor="middle" x="240.5" y="-303.6" font-family="Helvetica,sans-Serif" font-size="10.50" fill="white">doHist</text>
</a>
</g>
</g>
<!-- proc~dohist&#45;&gt;interface~mixval -->
<g id="edge33" class="edge"><title>proc~dohist&#45;&gt;interface~mixval</title>
<path fill="none" stroke="black" d="M267.703,-305.62C281.981,-305.42 299.961,-305.18 316,-305 381.335,-304.267 457.489,-303.628 501.483,-303.28"/>
<polygon fill="black" stroke="black" points="501.714,-306.778 511.686,-303.2 501.659,-299.778 501.714,-306.778"/>
</g>
<!-- proc~dohist&#45;&gt;proc~hist -->
<g id="edge7" class="edge"><title>proc~dohist&#45;&gt;proc~hist</title>
<path fill="none" stroke="black" d="M267.744,-311.047C280.307,-313.463 295.554,-316.395 309.206,-319.02"/>
<polygon fill="black" stroke="black" points="308.784,-322.503 319.265,-320.955 310.106,-315.629 308.784,-322.503"/>
</g>
<!-- proc~dohist&#45;&gt;proc~bar -->
<g id="edge9" class="edge"><title>proc~dohist&#45;&gt;proc~bar</title>
<path fill="none" stroke="black" d="M258.981,-318.174C273.544,-327.671 295.192,-340.332 316,-347 345.848,-356.564 381.377,-360.147 407.339,-361.434"/>
<polygon fill="black" stroke="black" points="407.352,-364.937 417.485,-361.845 407.635,-357.943 407.352,-364.937"/>
</g>
<!-- proc~quiver&#45;&gt;interface~mixval -->
<g id="edge34" class="edge"><title>proc~quiver&#45;&gt;interface~mixval</title>
<path fill="none" stroke="black" d="M463.549,-24.1402C468.214,-28.0653 472.813,-32.7715 476,-38 524.717,-117.933 535.163,-232.859 537.396,-280.743"/>
<polygon fill="black" stroke="black" points="533.906,-281.057 537.79,-290.914 540.9,-280.786 533.906,-281.057"/>
</g>
<!-- proc~doscatter -->
<g id="node18" class="node"><title>proc~doscatter</title>
<g id="a_node18"><a xlink:href="../proc/doscatter.html" xlink:title="doScatter">
<polygon fill="#d9534f" stroke="#d9534f" points="269.5,-480 211.5,-480 211.5,-456 269.5,-456 269.5,-480"/>
<text text-anchor="middle" x="240.5" y="-465.6" font-family="Helvetica,sans-Serif" font-size="10.50" fill="white">doScatter</text>
</a>
</g>
</g>
<!-- proc~doscatter&#45;&gt;proc~scatter -->
<g id="edge4" class="edge"><title>proc~doscatter&#45;&gt;proc~scatter</title>
<path fill="none" stroke="black" d="M269.644,-477.201C282.012,-481.244 296.678,-486.039 309.803,-490.33"/>
<polygon fill="black" stroke="black" points="308.883,-493.711 319.475,-493.492 311.058,-487.058 308.883,-493.711"/>
</g>
<!-- proc~doexamples -->
<g id="node19" class="node"><title>proc~doexamples</title>
<g id="a_node19"><a xlink:href="../proc/doexamples.html" xlink:title="doExamples">
<polygon fill="#d9534f" stroke="#d9534f" points="165,-240 94,-240 94,-216 165,-216 165,-240"/>
<text text-anchor="middle" x="129.5" y="-225.6" font-family="Helvetica,sans-Serif" font-size="10.50" fill="white">doExamples</text>
</a>
</g>
</g>
<!-- proc~doexamples&#45;&gt;proc~dosurface -->
<g id="edge5" class="edge"><title>proc~doexamples&#45;&gt;proc~dosurface</title>
<path fill="none" stroke="black" d="M137.563,-240.084C149.286,-259.585 174.144,-298.671 201,-327 237.94,-365.967 288.388,-403.165 318.862,-424.233"/>
<polygon fill="black" stroke="black" points="317.041,-427.228 327.27,-429.987 320.994,-421.451 317.041,-427.228"/>
</g>
<!-- proc~doexamples&#45;&gt;proc~dobar -->
<g id="edge6" class="edge"><title>proc~doexamples&#45;&gt;proc~dobar</title>
<path fill="none" stroke="black" d="M130.291,-240.045C130.232,-280.369 135.31,-412.395 201,-489 228.8,-521.42 276.215,-538.076 309.114,-546.152"/>
<polygon fill="black" stroke="black" points="308.712,-549.651 319.242,-548.482 310.282,-542.83 308.712,-549.651"/>
</g>
<!-- proc~doexamples&#45;&gt;proc~dolegend -->
<g id="edge11" class="edge"><title>proc~doexamples&#45;&gt;proc~dolegend</title>
<path fill="none" stroke="black" d="M165.043,-230.892C203.481,-234.11 265.479,-239.301 305.863,-242.682"/>
<polygon fill="black" stroke="black" points="305.63,-246.174 315.887,-243.521 306.214,-239.199 305.63,-246.174"/>
</g>
<!-- proc~doexamples&#45;&gt;proc~doerror -->
<g id="edge12" class="edge"><title>proc~doexamples&#45;&gt;proc~doerror</title>
<path fill="none" stroke="black" d="M165.192,-225.562C224.803,-221.372 346.115,-212.845 406.969,-208.568"/>
<polygon fill="black" stroke="black" points="407.52,-212.038 417.249,-207.845 407.029,-205.055 407.52,-212.038"/>
</g>
<!-- proc~doexamples&#45;&gt;proc~dofillbetween -->
<g id="edge13" class="edge"><title>proc~doexamples&#45;&gt;proc~dofillbetween</title>
<path fill="none" stroke="black" d="M152.821,-215.918C168.838,-207.248 190.634,-195.451 208.362,-185.855"/>
<polygon fill="black" stroke="black" points="210.081,-188.904 217.209,-181.066 206.749,-182.748 210.081,-188.904"/>
</g>
<!-- proc~doexamples&#45;&gt;proc~doplot -->
<g id="edge14" class="edge"><title>proc~doexamples&#45;&gt;proc~doplot</title>
<path fill="none" stroke="black" d="M138.975,-215.972C151.225,-199.207 175.251,-168.563 201,-148 202.517,-146.788 204.114,-145.61 205.76,-144.47"/>
<polygon fill="black" stroke="black" points="207.66,-147.409 214.252,-139.115 203.926,-141.488 207.66,-147.409"/>
</g>
<!-- proc~doexamples&#45;&gt;proc~docontour -->
<g id="edge15" class="edge"><title>proc~doexamples&#45;&gt;proc~docontour</title>
<path fill="none" stroke="black" d="M134.925,-215.83C144.06,-192.115 167.032,-139.142 201,-106 202.056,-104.97 203.172,-103.975 204.334,-103.017"/>
<polygon fill="black" stroke="black" points="206.372,-105.863 212.502,-97.222 202.321,-100.154 206.372,-105.863"/>
</g>
<!-- proc~doexamples&#45;&gt;proc~doquiver -->
<g id="edge16" class="edge"><title>proc~doexamples&#45;&gt;proc~doquiver</title>
<path fill="none" stroke="black" d="M131.747,-215.631C135.606,-184.44 150.337,-102.336 201,-64 231.546,-40.8864 276.496,-38.4652 308.133,-40.3461"/>
<polygon fill="black" stroke="black" points="308.074,-43.8517 318.312,-41.1252 308.608,-36.8721 308.074,-43.8517"/>
</g>
<!-- proc~doexamples&#45;&gt;proc~dohist -->
<g id="edge17" class="edge"><title>proc~doexamples&#45;&gt;proc~dohist</title>
<path fill="none" stroke="black" d="M147.531,-240.188C165.449,-253.009 193.839,-273.325 214.339,-287.995"/>
<polygon fill="black" stroke="black" points="212.419,-290.925 222.588,-293.898 216.493,-285.232 212.419,-290.925"/>
</g>
<!-- proc~doexamples&#45;&gt;proc~doscatter -->
<g id="edge3" class="edge"><title>proc~doexamples&#45;&gt;proc~doscatter</title>
<path fill="none" stroke="black" d="M134.332,-240.148C143.846,-269.689 170.03,-347.316 201,-408 207.925,-421.57 217.092,-435.962 224.744,-447.249"/>
<polygon fill="black" stroke="black" points="221.921,-449.32 230.483,-455.559 227.68,-445.342 221.921,-449.32"/>
</g>
<!-- program~main_prg -->
<g id="node20" class="node"><title>program~main_prg</title>
<g id="a_node20"><a xlink:href="../program/main_prg.html" xlink:title="main_prg">
<polygon fill="#f0ad4e" stroke="#f0ad4e" points="58,-240 3.55271e-15,-240 3.55271e-15,-216 58,-216 58,-240"/>
<text text-anchor="middle" x="29" y="-225.6" font-family="Helvetica,sans-Serif" font-size="10.50" fill="white">main_prg</text>
</a>
</g>
</g>
<!-- program~main_prg&#45;&gt;proc~doexamples -->
<g id="edge2" class="edge"><title>program~main_prg&#45;&gt;proc~doexamples</title>
<path fill="none" stroke="black" d="M58.2261,-228C66.2347,-228 75.1563,-228 83.8823,-228"/>
<polygon fill="black" stroke="black" points="83.9695,-231.5 93.9695,-228 83.9695,-224.5 83.9695,-231.5"/>
</g>
</g>
</svg>
