<?xml version="1.0" encoding="UTF-8" standalone="no"?>
<!DOCTYPE svg PUBLIC "-//W3C//DTD SVG 1.1//EN"
 "http://www.w3.org/Graphics/SVG/1.1/DTD/svg11.dtd">
<!-- Generated by graphviz version 2.38.0 (20140413.2041)
 -->
<!-- Title: module~~kinds_mod~~UsedByGraph Pages: 1 -->
<svg width="399pt" height="150pt"
 viewBox="0.00 0.00 399.00 149.67" xmlns="http://www.w3.org/2000/svg" xmlns:xlink="http://www.w3.org/1999/xlink">
<g id="graph0" class="graph" transform="scale(1 1) rotate(0) translate(4 145.672)">
<title>module~~kinds_mod~~UsedByGraph</title>
<polygon fill="white" stroke="none" points="-4,4 -4,-145.672 395,-145.672 395,4 -4,4"/>
<!-- module~kinds_mod -->
<g id="node1" class="node"><title>module~kinds_mod</title>
<polygon fill="none" stroke="black" points="64,-101.672 0,-101.672 0,-77.6719 64,-77.6719 64,-101.672"/>
<text text-anchor="middle" x="32" y="-87.2719" font-family="Helvetica,sans-Serif" font-size="10.50">kinds_mod</text>
</g>
<!-- module~examples_mod -->
<g id="node2" class="node"><title>module~examples_mod</title>
<g id="a_node2"><a xlink:href="../module/examples_mod.html" xlink:title="examples_mod">
<polygon fill="#337ab7" stroke="#337ab7" points="297,-141.672 212,-141.672 212,-117.672 297,-117.672 297,-141.672"/>
<text text-anchor="middle" x="254.5" y="-127.272" font-family="Helvetica,sans-Serif" font-size="10.50" fill="white">examples_mod</text>
</a>
</g>
</g>
<!-- module~kinds_mod&#45;&gt;module~examples_mod -->
<g id="edge5" class="edge"><title>module~kinds_mod&#45;&gt;module~examples_mod</title>
<path fill="none" stroke="black" stroke-dasharray="5,2" d="M64.0453,-100.686C75.2573,-104.321 88.0867,-108.09 100,-110.672 133.453,-117.923 171.649,-122.663 201.571,-125.596"/>
<polygon fill="black" stroke="black" points="201.504,-129.105 211.789,-126.559 202.161,-122.136 201.504,-129.105"/>
</g>
<!-- program~main_prg -->
<g id="node3" class="node"><title>program~main_prg</title>
<g id="a_node3"><a xlink:href="../program/main_prg.html" xlink:title="main_prg">
<polygon fill="#f0ad4e" stroke="#f0ad4e" points="391,-101.672 333,-101.672 333,-77.6719 391,-77.6719 391,-101.672"/>
<text text-anchor="middle" x="362" y="-87.2719" font-family="Helvetica,sans-Serif" font-size="10.50" fill="white">main_prg</text>
</a>
</g>
</g>
<!-- module~kinds_mod&#45;&gt;program~main_prg -->
<g id="edge6" class="edge"><title>module~kinds_mod&#45;&gt;program~main_prg</title>
<path fill="none" stroke="black" stroke-dasharray="5,2" d="M42.5716,-77.5605C59.1931,-57.7779 95.6056,-19.725 137,-9.67193"/>
<path fill="none" stroke="black" stroke-dasharray="5,2" d="M139,-9.67193C207.73,7.01996 233.025,1.48856 297,-28.6719 316.661,-37.941 334.154,-55.6207 345.861,-69.57"/>
<polygon fill="black" stroke="black" points="343.376,-72.0652 352.371,-77.6648 348.831,-67.6785 343.376,-72.0652"/>
</g>
<!-- module~plplotlib_mod -->
<g id="node4" class="node"><title>module~plplotlib_mod</title>
<g id="a_node4"><a xlink:href="../module/plplotlib_mod.html" xlink:title="plplotlib_mod">
<polygon fill="#337ab7" stroke="#337ab7" points="176,-101.672 100,-101.672 100,-77.6719 176,-77.6719 176,-101.672"/>
<text text-anchor="middle" x="138" y="-87.2719" font-family="Helvetica,sans-Serif" font-size="10.50" fill="white">plplotlib_mod</text>
</a>
</g>
</g>
<!-- module~kinds_mod&#45;&gt;module~plplotlib_mod -->
<g id="edge7" class="edge"><title>module~kinds_mod&#45;&gt;module~plplotlib_mod</title>
<path fill="none" stroke="black" stroke-dasharray="5,2" d="M64.2034,-89.6719C72.2882,-89.6719 81.176,-89.6719 89.8798,-89.6719"/>
<polygon fill="black" stroke="black" points="89.9537,-93.172 99.9536,-89.6719 89.9536,-86.172 89.9537,-93.172"/>
</g>
<!-- program~basic_prg -->
<g id="node5" class="node"><title>program~basic_prg</title>
<g id="a_node5"><a xlink:href="../program/basic_prg.html" xlink:title="basic_prg">
<polygon fill="#f0ad4e" stroke="#f0ad4e" points="284,-61.6719 225,-61.6719 225,-37.6719 284,-37.6719 284,-61.6719"/>
<text text-anchor="middle" x="254.5" y="-47.2719" font-family="Helvetica,sans-Serif" font-size="10.50" fill="white">basic_prg</text>
</a>
</g>
</g>
<!-- module~kinds_mod&#45;&gt;program~basic_prg -->
<g id="edge8" class="edge"><title>module~kinds_mod&#45;&gt;program~basic_prg</title>
<path fill="none" stroke="black" stroke-dasharray="5,2" d="M139,-9.67193C154.467,-5.9157 191.595,-20.5448 219.408,-33.155"/>
<polygon fill="black" stroke="black" points="218.261,-36.4804 228.807,-37.4978 221.197,-30.1259 218.261,-36.4804"/>
</g>
<!-- module~examples_mod&#45;&gt;program~main_prg -->
<g id="edge1" class="edge"><title>module~examples_mod&#45;&gt;program~main_prg</title>
<path fill="none" stroke="black" stroke-dasharray="5,2" d="M287.153,-117.671C298.534,-113.356 311.482,-108.446 323.325,-103.956"/>
<polygon fill="black" stroke="black" points="324.843,-107.124 332.953,-100.306 322.362,-100.578 324.843,-107.124"/>
</g>
<!-- module~plplotlib_mod&#45;&gt;module~examples_mod -->
<g id="edge2" class="edge"><title>module~plplotlib_mod&#45;&gt;module~examples_mod</title>
<path fill="none" stroke="black" stroke-dasharray="5,2" d="M173.354,-101.673C184.573,-105.593 197.196,-110.002 209.048,-114.143"/>
<polygon fill="black" stroke="black" points="208.18,-117.547 218.775,-117.541 210.489,-110.939 208.18,-117.547"/>
</g>
<!-- module~plplotlib_mod&#45;&gt;program~main_prg -->
<g id="edge3" class="edge"><title>module~plplotlib_mod&#45;&gt;program~main_prg</title>
<path fill="none" stroke="black" stroke-dasharray="5,2" d="M176.158,-89.6719C216.808,-89.6719 281.641,-89.6719 322.727,-89.6719"/>
<polygon fill="black" stroke="black" points="322.885,-93.172 332.885,-89.6719 322.885,-86.172 322.885,-93.172"/>
</g>
<!-- module~plplotlib_mod&#45;&gt;program~basic_prg -->
<g id="edge4" class="edge"><title>module~plplotlib_mod&#45;&gt;program~basic_prg</title>
<path fill="none" stroke="black" stroke-dasharray="5,2" d="M173.354,-77.6706C186.605,-73.0412 201.817,-67.7272 215.402,-62.9814"/>
<polygon fill="black" stroke="black" points="216.669,-66.2462 224.955,-59.6439 214.36,-59.6378 216.669,-66.2462"/>
</g>
</g>
</svg>
