<?xml version="1.0" encoding="UTF-8" standalone="no"?>
<!DOCTYPE svg PUBLIC "-//W3C//DTD SVG 1.1//EN"
 "http://www.w3.org/Graphics/SVG/1.1/DTD/svg11.dtd">
<!-- Generated by graphviz version 2.38.0 (20140413.2041)
 -->
<!-- Title: module~~graph~~ModuleGraph Pages: 1 -->
<svg width="399pt" height="117pt"
 viewBox="0.00 0.00 399.00 117.18" xmlns="http://www.w3.org/2000/svg" xmlns:xlink="http://www.w3.org/1999/xlink">
<g id="graph0" class="graph" transform="scale(1 1) rotate(0) translate(4 113.184)">
<title>module~~graph~~ModuleGraph</title>
<polygon fill="white" stroke="none" points="-4,4 -4,-113.184 395,-113.184 395,4 -4,4"/>
<!-- module~kinds_mod -->
<g id="node1" class="node"><title>module~kinds_mod</title>
<g id="a_node1"><a xlink:href="../module/kinds_mod.html" xlink:title="kinds_mod">
<polygon fill="#337ab7" stroke="#337ab7" points="64,-100.258 0,-100.258 0,-76.2582 64,-76.2582 64,-100.258"/>
<text text-anchor="middle" x="32" y="-85.8582" font-family="Helvetica,sans-Serif" font-size="10.50" fill="white">kinds_mod</text>
</a>
</g>
</g>
<!-- module~examples_mod -->
<g id="node2" class="node"><title>module~examples_mod</title>
<g id="a_node2"><a xlink:href="../module/examples_mod.html" xlink:title="examples_mod">
<polygon fill="#337ab7" stroke="#337ab7" points="297,-38.2582 212,-38.2582 212,-14.2582 297,-14.2582 297,-38.2582"/>
<text text-anchor="middle" x="254.5" y="-23.8582" font-family="Helvetica,sans-Serif" font-size="10.50" fill="white">examples_mod</text>
</a>
</g>
</g>
<!-- module~kinds_mod&#45;&gt;module~examples_mod -->
<g id="edge1" class="edge"><title>module~kinds_mod&#45;&gt;module~examples_mod</title>
<path fill="none" stroke="black" stroke-dasharray="5,2" d="M64.1492,-98.6799C84.6797,-104.447 112.248,-110.11 137,-108.258"/>
<path fill="none" stroke="black" stroke-dasharray="5,2" d="M139,-108.258C181.163,-105.104 176.686,-70.5092 212,-47.2582 213.918,-45.9955 215.922,-44.7541 217.969,-43.545"/>
<polygon fill="black" stroke="black" points="220.043,-46.3969 227.088,-38.4839 216.646,-40.2763 220.043,-46.3969"/>
</g>
<!-- module~plplotlib_mod -->
<g id="node3" class="node"><title>module~plplotlib_mod</title>
<g id="a_node3"><a xlink:href="../module/plplotlib_mod.html" xlink:title="plplotlib_mod">
<polygon fill="#337ab7" stroke="#337ab7" points="176,-48.2582 100,-48.2582 100,-24.2582 176,-24.2582 176,-48.2582"/>
<text text-anchor="middle" x="138" y="-33.8582" font-family="Helvetica,sans-Serif" font-size="10.50" fill="white">plplotlib_mod</text>
</a>
</g>
</g>
<!-- module~kinds_mod&#45;&gt;module~plplotlib_mod -->
<g id="edge4" class="edge"><title>module~kinds_mod&#45;&gt;module~plplotlib_mod</title>
<path fill="none" stroke="black" stroke-dasharray="5,2" d="M57.1211,-76.1977C70.9354,-69.2905 88.4767,-60.5199 103.6,-52.9581"/>
<polygon fill="black" stroke="black" points="105.27,-56.0362 112.649,-48.4335 102.14,-49.7752 105.27,-56.0362"/>
</g>
<!-- program~basic_prg -->
<g id="node4" class="node"><title>program~basic_prg</title>
<g id="a_node4"><a xlink:href="../program/basic_prg.html" xlink:title="basic_prg">
<polygon fill="#f0ad4e" stroke="#f0ad4e" points="284,-80.2582 225,-80.2582 225,-56.2582 284,-56.2582 284,-80.2582"/>
<text text-anchor="middle" x="254.5" y="-65.8582" font-family="Helvetica,sans-Serif" font-size="10.50" fill="white">basic_prg</text>
</a>
</g>
</g>
<!-- module~kinds_mod&#45;&gt;program~basic_prg -->
<g id="edge5" class="edge"><title>module~kinds_mod&#45;&gt;program~basic_prg</title>
<path fill="none" stroke="black" stroke-dasharray="5,2" d="M139,-108.258C167.9,-106.096 198.821,-94.6969 221.236,-84.618"/>
<polygon fill="black" stroke="black" points="223.004,-87.6559 230.594,-80.2644 220.051,-81.3091 223.004,-87.6559"/>
</g>
<!-- program~main_prg -->
<g id="node5" class="node"><title>program~main_prg</title>
<g id="a_node5"><a xlink:href="../program/main_prg.html" xlink:title="main_prg">
<polygon fill="#f0ad4e" stroke="#f0ad4e" points="391,-38.2582 333,-38.2582 333,-14.2582 391,-14.2582 391,-38.2582"/>
<text text-anchor="middle" x="362" y="-23.8582" font-family="Helvetica,sans-Serif" font-size="10.50" fill="white">main_prg</text>
</a>
</g>
</g>
<!-- module~kinds_mod&#45;&gt;program~main_prg -->
<g id="edge8" class="edge"><title>module~kinds_mod&#45;&gt;program~main_prg</title>
<path fill="none" stroke="black" stroke-dasharray="5,2" d="M139,-108.258C209.531,-102.981 233.27,-119.933 297,-89.2582 317.199,-79.5357 334.897,-60.8614 346.532,-46.3576"/>
<polygon fill="black" stroke="black" points="349.331,-48.4591 352.655,-38.3991 343.783,-44.1907 349.331,-48.4591"/>
</g>
<!-- module~examples_mod&#45;&gt;program~main_prg -->
<g id="edge7" class="edge"><title>module~examples_mod&#45;&gt;program~main_prg</title>
<path fill="none" stroke="black" stroke-dasharray="5,2" d="M297.196,-26.2582C305.62,-26.2582 314.437,-26.2582 322.736,-26.2582"/>
<polygon fill="black" stroke="black" points="322.901,-29.7583 332.901,-26.2582 322.901,-22.7583 322.901,-29.7583"/>
</g>
<!-- module~plplotlib_mod&#45;&gt;module~examples_mod -->
<g id="edge2" class="edge"><title>module~plplotlib_mod&#45;&gt;module~examples_mod</title>
<path fill="none" stroke="black" stroke-dasharray="5,2" d="M176.175,-33.0115C184.341,-32.2983 193.132,-31.5305 201.754,-30.7775"/>
<polygon fill="black" stroke="black" points="202.094,-34.2612 211.752,-29.9044 201.485,-27.2878 202.094,-34.2612"/>
</g>
<!-- module~plplotlib_mod&#45;&gt;program~basic_prg -->
<g id="edge6" class="edge"><title>module~plplotlib_mod&#45;&gt;program~basic_prg</title>
<path fill="none" stroke="black" stroke-dasharray="5,2" d="M176.175,-46.6477C188.644,-50.1325 202.568,-54.0239 215.127,-57.5339"/>
<polygon fill="black" stroke="black" points="214.28,-60.9311 224.853,-60.252 216.164,-54.1894 214.28,-60.9311"/>
</g>
<!-- module~plplotlib_mod&#45;&gt;program~main_prg -->
<g id="edge9" class="edge"><title>module~plplotlib_mod&#45;&gt;program~main_prg</title>
<path fill="none" stroke="black" stroke-dasharray="5,2" d="M160.935,-24.1954C175.052,-17.1352 194.055,-8.91059 212,-5.25822 249.019,2.27633 259.696,0.705562 297,-5.25822 305.632,-6.63815 314.679,-9.00267 323.164,-11.6591"/>
<polygon fill="black" stroke="black" points="322.213,-15.0315 332.807,-14.8702 324.425,-8.39001 322.213,-15.0315"/>
</g>
<!-- plplot -->
<g id="node6" class="node"><title>plplot</title>
<polygon fill="#337ab7" stroke="#337ab7" points="59,-48.2582 5,-48.2582 5,-24.2582 59,-24.2582 59,-48.2582"/>
<text text-anchor="middle" x="32" y="-33.8582" font-family="Helvetica,sans-Serif" font-size="10.50" fill="white">plplot</text>
</g>
<!-- plplot&#45;&gt;module~plplotlib_mod -->
<g id="edge3" class="edge"><title>plplot&#45;&gt;module~plplotlib_mod</title>
<path fill="none" stroke="black" stroke-dasharray="5,2" d="M59.2436,-36.2582C68.4502,-36.2582 79.098,-36.2582 89.5034,-36.2582"/>
<polygon fill="black" stroke="black" points="89.7657,-39.7583 99.7657,-36.2582 89.7657,-32.7583 89.7657,-39.7583"/>
</g>
</g>
</svg>
