<?xml version="1.0" encoding="UTF-8" standalone="no"?>
<!DOCTYPE svg PUBLIC "-//W3C//DTD SVG 1.1//EN"
 "http://www.w3.org/Graphics/SVG/1.1/DTD/svg11.dtd">
<!-- Generated by graphviz version 2.38.0 (20140413.2041)
 -->
<!-- Title: module~~plplotlib_mod~~UsedByGraph Pages: 1 -->
<svg width="299pt" height="112pt"
 viewBox="0.00 0.00 299.00 112.00" xmlns="http://www.w3.org/2000/svg" xmlns:xlink="http://www.w3.org/1999/xlink">
<g id="graph0" class="graph" transform="scale(1 1) rotate(0) translate(4 108)">
<title>module~~plplotlib_mod~~UsedByGraph</title>
<polygon fill="white" stroke="none" points="-4,4 -4,-108 295,-108 295,4 -4,4"/>
<!-- module~plplotlib_mod -->
<g id="node1" class="node"><title>module~plplotlib_mod</title>
<polygon fill="none" stroke="black" points="76,-64 0,-64 0,-40 76,-40 76,-64"/>
<text text-anchor="middle" x="38" y="-49.6" font-family="Helvetica,sans-Serif" font-size="10.50">plplotlib_mod</text>
</g>
<!-- module~examples_mod -->
<g id="node2" class="node"><title>module~examples_mod</title>
<g id="a_node2"><a xlink:href="../module/examples_mod.html" xlink:title="examples_mod">
<polygon fill="#337ab7" stroke="#337ab7" points="197,-104 112,-104 112,-80 197,-80 197,-104"/>
<text text-anchor="middle" x="154.5" y="-89.6" font-family="Helvetica,sans-Serif" font-size="10.50" fill="white">examples_mod</text>
</a>
</g>
</g>
<!-- module~plplotlib_mod&#45;&gt;module~examples_mod -->
<g id="edge2" class="edge"><title>module~plplotlib_mod&#45;&gt;module~examples_mod</title>
<path fill="none" stroke="black" stroke-dasharray="5,2" d="M73.3538,-64.0013C84.5727,-67.9206 97.196,-72.3305 109.048,-76.471"/>
<polygon fill="black" stroke="black" points="108.18,-79.875 118.775,-79.8689 110.489,-73.2667 108.18,-79.875"/>
</g>
<!-- program~main_prg -->
<g id="node3" class="node"><title>program~main_prg</title>
<g id="a_node3"><a xlink:href="../program/main_prg.html" xlink:title="main_prg">
<polygon fill="#f0ad4e" stroke="#f0ad4e" points="291,-84 233,-84 233,-60 291,-60 291,-84"/>
<text text-anchor="middle" x="262" y="-69.6" font-family="Helvetica,sans-Serif" font-size="10.50" fill="white">main_prg</text>
</a>
</g>
</g>
<!-- module~plplotlib_mod&#45;&gt;program~main_prg -->
<g id="edge3" class="edge"><title>module~plplotlib_mod&#45;&gt;program~main_prg</title>
<path fill="none" stroke="black" stroke-dasharray="5,2" d="M76.1578,-55.3476C116.808,-59.0098 181.641,-64.8505 222.727,-68.552"/>
<polygon fill="black" stroke="black" points="222.612,-72.0557 232.885,-69.4671 223.24,-65.0839 222.612,-72.0557"/>
</g>
<!-- program~basic_prg -->
<g id="node4" class="node"><title>program~basic_prg</title>
<g id="a_node4"><a xlink:href="../program/basic_prg.html" xlink:title="basic_prg">
<polygon fill="#f0ad4e" stroke="#f0ad4e" points="184,-24 125,-24 125,-0 184,-0 184,-24"/>
<text text-anchor="middle" x="154.5" y="-9.6" font-family="Helvetica,sans-Serif" font-size="10.50" fill="white">basic_prg</text>
</a>
</g>
</g>
<!-- module~plplotlib_mod&#45;&gt;program~basic_prg -->
<g id="edge4" class="edge"><title>module~plplotlib_mod&#45;&gt;program~basic_prg</title>
<path fill="none" stroke="black" stroke-dasharray="5,2" d="M73.3538,-39.9987C86.6055,-35.3693 101.817,-30.0553 115.402,-25.3094"/>
<polygon fill="black" stroke="black" points="116.669,-28.5742 124.955,-21.972 114.36,-21.9659 116.669,-28.5742"/>
</g>
<!-- module~examples_mod&#45;&gt;program~main_prg -->
<g id="edge1" class="edge"><title>module~examples_mod&#45;&gt;program~main_prg</title>
<path fill="none" stroke="black" stroke-dasharray="5,2" d="M197.196,-84.0955C205.713,-82.4809 214.633,-80.79 223.012,-79.2015"/>
<polygon fill="black" stroke="black" points="223.728,-82.6282 232.901,-77.3268 222.424,-75.7507 223.728,-82.6282"/>
</g>
</g>
</svg>
