<?xml version="1.0" encoding="UTF-8" standalone="no"?>
<!DOCTYPE svg PUBLIC "-//W3C//DTD SVG 1.1//EN"
 "http://www.w3.org/Graphics/SVG/1.1/DTD/svg11.dtd">
<!-- Generated by graphviz version 2.38.0 (20140413.2041)
 -->
<!-- Title: module~~plplotlib_mod~~UsesGraph Pages: 1 -->
<svg width="184pt" height="74pt"
 viewBox="0.00 0.00 184.00 74.00" xmlns="http://www.w3.org/2000/svg" xmlns:xlink="http://www.w3.org/1999/xlink">
<g id="graph0" class="graph" transform="scale(1 1) rotate(0) translate(4 70)">
<title>module~~plplotlib_mod~~UsesGraph</title>
<polygon fill="white" stroke="none" points="-4,4 -4,-70 180,-70 180,4 -4,4"/>
<!-- module~plplotlib_mod -->
<g id="node1" class="node"><title>module~plplotlib_mod</title>
<polygon fill="none" stroke="black" points="176,-45 100,-45 100,-21 176,-21 176,-45"/>
<text text-anchor="middle" x="138" y="-30.6" font-family="Helvetica,sans-Serif" font-size="10.50">plplotlib_mod</text>
</g>
<!-- plplot -->
<g id="node2" class="node"><title>plplot</title>
<polygon fill="#337ab7" stroke="#337ab7" points="59,-66 5,-66 5,-42 59,-42 59,-66"/>
<text text-anchor="middle" x="32" y="-51.6" font-family="Helvetica,sans-Serif" font-size="10.50" fill="white">plplot</text>
</g>
<!-- plplot&#45;&gt;module~plplotlib_mod -->
<g id="edge1" class="edge"><title>plplot&#45;&gt;module~plplotlib_mod</title>
<path fill="none" stroke="black" stroke-dasharray="5,2" d="M59.2436,-48.7008C68.5461,-46.8224 79.32,-44.6469 89.8285,-42.525"/>
<polygon fill="black" stroke="black" points="90.6563,-45.9286 99.7657,-40.5185 89.2708,-39.0671 90.6563,-45.9286"/>
</g>
<!-- module~kinds_mod -->
<g id="node3" class="node"><title>module~kinds_mod</title>
<g id="a_node3"><a xlink:href="../module/kinds_mod.html" xlink:title="kinds_mod">
<polygon fill="#337ab7" stroke="#337ab7" points="64,-24 0,-24 0,-0 64,-0 64,-24"/>
<text text-anchor="middle" x="32" y="-9.6" font-family="Helvetica,sans-Serif" font-size="10.50" fill="white">kinds_mod</text>
</a>
</g>
</g>
<!-- module~kinds_mod&#45;&gt;module~plplotlib_mod -->
<g id="edge2" class="edge"><title>module~kinds_mod&#45;&gt;module~plplotlib_mod</title>
<path fill="none" stroke="black" stroke-dasharray="5,2" d="M64.2034,-18.3007C72.2882,-19.9332 81.176,-21.7278 89.8798,-23.4853"/>
<polygon fill="black" stroke="black" points="89.4587,-26.9709 99.9536,-25.5195 90.8442,-20.1094 89.4587,-26.9709"/>
</g>
</g>
</svg>
