<?xml version="1.0" encoding="UTF-8" standalone="no"?>
<!DOCTYPE svg PUBLIC "-//W3C//DTD SVG 1.1//EN"
 "http://www.w3.org/Graphics/SVG/1.1/DTD/svg11.dtd">
<!-- Generated by graphviz version 2.38.0 (20140413.2041)
 -->
<!-- Title: module~~examples_mod~~UsesGraph Pages: 1 -->
<svg width="305pt" height="74pt"
 viewBox="0.00 0.00 305.00 74.00" xmlns="http://www.w3.org/2000/svg" xmlns:xlink="http://www.w3.org/1999/xlink">
<g id="graph0" class="graph" transform="scale(1 1) rotate(0) translate(4 70)">
<title>module~~examples_mod~~UsesGraph</title>
<polygon fill="white" stroke="none" points="-4,4 -4,-70 301,-70 301,4 -4,4"/>
<!-- module~examples_mod -->
<g id="node1" class="node"><title>module~examples_mod</title>
<polygon fill="none" stroke="black" points="297,-46 212,-46 212,-22 297,-22 297,-46"/>
<text text-anchor="middle" x="254.5" y="-31.6" font-family="Helvetica,sans-Serif" font-size="10.50">examples_mod</text>
</g>
<!-- module~kinds_mod -->
<g id="node2" class="node"><title>module~kinds_mod</title>
<g id="a_node2"><a xlink:href="../module/kinds_mod.html" xlink:title="kinds_mod">
<polygon fill="#337ab7" stroke="#337ab7" points="64,-66 0,-66 0,-42 64,-42 64,-66"/>
<text text-anchor="middle" x="32" y="-51.6" font-family="Helvetica,sans-Serif" font-size="10.50" fill="white">kinds_mod</text>
</a>
</g>
</g>
<!-- module~kinds_mod&#45;&gt;module~examples_mod -->
<g id="edge3" class="edge"><title>module~kinds_mod&#45;&gt;module~examples_mod</title>
<path fill="none" stroke="black" stroke-dasharray="5,2" d="M64.1246,-51.1769C99.7674,-47.944 158.73,-42.5959 201.405,-38.7251"/>
<polygon fill="black" stroke="black" points="201.964,-42.1889 211.607,-37.7998 201.332,-35.2175 201.964,-42.1889"/>
</g>
<!-- module~plplotlib_mod -->
<g id="node3" class="node"><title>module~plplotlib_mod</title>
<g id="a_node3"><a xlink:href="../module/plplotlib_mod.html" xlink:title="plplotlib_mod">
<polygon fill="#337ab7" stroke="#337ab7" points="176,-26 100,-26 100,-2 176,-2 176,-26"/>
<text text-anchor="middle" x="138" y="-11.6" font-family="Helvetica,sans-Serif" font-size="10.50" fill="white">plplotlib_mod</text>
</a>
</g>
</g>
<!-- module~kinds_mod&#45;&gt;module~plplotlib_mod -->
<g id="edge2" class="edge"><title>module~kinds_mod&#45;&gt;module~plplotlib_mod</title>
<path fill="none" stroke="black" stroke-dasharray="5,2" d="M64.2034,-41.9987C74.1897,-38.1578 85.4012,-33.8457 95.9778,-29.7778"/>
<polygon fill="black" stroke="black" points="97.3821,-32.9877 105.459,-26.1311 94.8692,-26.4542 97.3821,-32.9877"/>
</g>
<!-- module~plplotlib_mod&#45;&gt;module~examples_mod -->
<g id="edge4" class="edge"><title>module~plplotlib_mod&#45;&gt;module~examples_mod</title>
<path fill="none" stroke="black" stroke-dasharray="5,2" d="M176.175,-20.4934C184.341,-21.9199 193.132,-23.4553 201.754,-24.9614"/>
<polygon fill="black" stroke="black" points="201.298,-28.4347 211.752,-26.7077 202.503,-21.5391 201.298,-28.4347"/>
</g>
<!-- plplot -->
<g id="node4" class="node"><title>plplot</title>
<polygon fill="#337ab7" stroke="#337ab7" points="59,-24 5,-24 5,-0 59,-0 59,-24"/>
<text text-anchor="middle" x="32" y="-9.6" font-family="Helvetica,sans-Serif" font-size="10.50" fill="white">plplot</text>
</g>
<!-- plplot&#45;&gt;module~plplotlib_mod -->
<g id="edge1" class="edge"><title>plplot&#45;&gt;module~plplotlib_mod</title>
<path fill="none" stroke="black" stroke-dasharray="5,2" d="M59.2436,-12.5047C68.4502,-12.6817 79.098,-12.8865 89.5034,-13.0866"/>
<polygon fill="black" stroke="black" points="89.7002,-16.5909 99.7657,-13.284 89.8349,-9.59224 89.7002,-16.5909"/>
</g>
</g>
</svg>
