<?xml version="1.0" encoding="UTF-8" standalone="no"?>
<!DOCTYPE svg PUBLIC "-//W3C//DTD SVG 1.1//EN"
 "http://www.w3.org/Graphics/SVG/1.1/DTD/svg11.dtd">
<!-- Generated by graphviz version 2.38.0 (20140413.2041)
 -->
<!-- Title: proc~~barh~~CallsGraph Pages: 1 -->
<svg width="152pt" height="158pt"
 viewBox="0.00 0.00 152.00 158.00" xmlns="http://www.w3.org/2000/svg" xmlns:xlink="http://www.w3.org/1999/xlink">
<g id="graph0" class="graph" transform="scale(1 1) rotate(0) translate(4 154)">
<title>proc~~barh~~CallsGraph</title>
<polygon fill="white" stroke="none" points="-4,4 -4,-154 148,-154 148,4 -4,4"/>
<!-- proc~barh -->
<g id="node1" class="node"><title>proc~barh</title>
<polygon fill="none" stroke="black" points="54,-87 0,-87 0,-63 54,-63 54,-87"/>
<text text-anchor="middle" x="27" y="-72.6" font-family="Helvetica,sans-Serif" font-size="10.50">barh</text>
</g>
<!-- plline -->
<g id="node2" class="node"><title>plline</title>
<polygon fill="#777777" stroke="#777777" points="144,-150 90,-150 90,-126 144,-126 144,-150"/>
<text text-anchor="middle" x="117" y="-135.6" font-family="Helvetica,sans-Serif" font-size="10.50" fill="white">plline</text>
</g>
<!-- proc~barh&#45;&gt;plline -->
<g id="edge1" class="edge"><title>proc~barh&#45;&gt;plline</title>
<path fill="none" stroke="black" d="M44.9673,-87.147C57.9935,-96.4726 76.1808,-109.493 90.8908,-120.024"/>
<polygon fill="black" stroke="black" points="88.9163,-122.915 99.0848,-125.89 92.9911,-117.223 88.9163,-122.915"/>
</g>
<!-- plfill -->
<g id="node3" class="node"><title>plfill</title>
<polygon fill="#777777" stroke="#777777" points="144,-108 90,-108 90,-84 144,-84 144,-108"/>
<text text-anchor="middle" x="117" y="-93.6" font-family="Helvetica,sans-Serif" font-size="10.50" fill="white">plfill</text>
</g>
<!-- proc~barh&#45;&gt;plfill -->
<g id="edge2" class="edge"><title>proc~barh&#45;&gt;plfill</title>
<path fill="none" stroke="black" d="M54.4029,-81.3007C62.481,-83.2284 71.5067,-85.3823 80.1046,-87.4341"/>
<polygon fill="black" stroke="black" points="79.3797,-90.8593 89.919,-89.7761 81.0046,-84.0505 79.3797,-90.8593"/>
</g>
<!-- interface~mixval -->
<g id="node4" class="node"><title>interface~mixval</title>
<g id="a_node4"><a xlink:href="../interface/mixval.html" xlink:title="mixval">
<polygon fill="#a7506f" stroke="#a7506f" points="144,-66 90,-66 90,-42 144,-42 144,-66"/>
<text text-anchor="middle" x="117" y="-51.6" font-family="Helvetica,sans-Serif" font-size="10.50" fill="white">mixval</text>
</a>
</g>
</g>
<!-- proc~barh&#45;&gt;interface~mixval -->
<g id="edge3" class="edge"><title>proc~barh&#45;&gt;interface~mixval</title>
<path fill="none" stroke="black" d="M54.4029,-68.6993C62.481,-66.7716 71.5067,-64.6177 80.1046,-62.5659"/>
<polygon fill="black" stroke="black" points="81.0046,-65.9495 89.919,-60.2239 79.3797,-59.1407 81.0046,-65.9495"/>
</g>
<!-- plcol1 -->
<g id="node5" class="node"><title>plcol1</title>
<polygon fill="#777777" stroke="#777777" points="144,-24 90,-24 90,-0 144,-0 144,-24"/>
<text text-anchor="middle" x="117" y="-9.6" font-family="Helvetica,sans-Serif" font-size="10.50" fill="white">plcol1</text>
</g>
<!-- proc~barh&#45;&gt;plcol1 -->
<g id="edge4" class="edge"><title>proc~barh&#45;&gt;plcol1</title>
<path fill="none" stroke="black" d="M44.9673,-62.853C57.9935,-53.5274 76.1808,-40.5069 90.8908,-29.9759"/>
<polygon fill="black" stroke="black" points="92.9911,-32.7768 99.0848,-24.1097 88.9163,-27.085 92.9911,-32.7768"/>
</g>
</g>
</svg>
