<?xml version="1.0" encoding="UTF-8" standalone="no"?>
<!DOCTYPE svg PUBLIC "-//W3C//DTD SVG 1.1//EN"
 "http://www.w3.org/Graphics/SVG/1.1/DTD/svg11.dtd">
<!-- Generated by graphviz version 2.38.0 (20140413.2041)
 -->
<!-- Title: proc~~setup~~CalledByGraph Pages: 1 -->
<svg width="468pt" height="514pt"
 viewBox="0.00 0.00 468.00 513.99" xmlns="http://www.w3.org/2000/svg" xmlns:xlink="http://www.w3.org/1999/xlink">
<g id="graph0" class="graph" transform="scale(1 1) rotate(0) translate(4 509.987)">
<title>proc~~setup~~CalledByGraph</title>
<polygon fill="white" stroke="none" points="-4,4 -4,-509.987 464,-509.987 464,4 -4,4"/>
<!-- proc~setup -->
<g id="node1" class="node"><title>proc~setup</title>
<polygon fill="none" stroke="black" points="460,-486 406,-486 406,-462 460,-462 460,-486"/>
<text text-anchor="middle" x="433" y="-471.6" font-family="Helvetica,sans-Serif" font-size="10.50">setup</text>
</g>
<!-- program~basic_prg -->
<g id="node2" class="node"><title>program~basic_prg</title>
<g id="a_node2"><a xlink:href="../program/basic_prg.html" xlink:title="basic_prg">
<polygon fill="#f0ad4e" stroke="#f0ad4e" points="270,-486 211,-486 211,-462 270,-462 270,-486"/>
<text text-anchor="middle" x="240.5" y="-471.6" font-family="Helvetica,sans-Serif" font-size="10.50" fill="white">basic_prg</text>
</a>
</g>
</g>
<!-- program~basic_prg&#45;&gt;proc~setup -->
<g id="edge24" class="edge"><title>program~basic_prg&#45;&gt;proc~setup</title>
<path fill="none" stroke="black" d="M270.02,-474C303.462,-474 358.959,-474 395.511,-474"/>
<polygon fill="black" stroke="black" points="395.741,-477.5 405.741,-474 395.741,-470.5 395.741,-477.5"/>
</g>
<!-- proc~figure -->
<g id="node3" class="node"><title>proc~figure</title>
<g id="a_node3"><a xlink:href="../proc/figure.html" xlink:title="figure">
<polygon fill="#d9534f" stroke="#d9534f" points="370,-276 316,-276 316,-252 370,-252 370,-276"/>
<text text-anchor="middle" x="343" y="-261.6" font-family="Helvetica,sans-Serif" font-size="10.50" fill="white">figure</text>
</a>
</g>
</g>
<!-- program~basic_prg&#45;&gt;proc~figure -->
<g id="edge15" class="edge"><title>program~basic_prg&#45;&gt;proc~figure</title>
<path fill="none" stroke="black" d="M269.897,-461.836C273.653,-459.328 277.175,-456.394 280,-453 321.625,-402.997 335.563,-324.227 340.021,-286.115"/>
<polygon fill="black" stroke="black" points="343.511,-286.396 341.082,-276.084 336.549,-285.66 343.511,-286.396"/>
</g>
<!-- proc~figure&#45;&gt;proc~setup -->
<g id="edge25" class="edge"><title>proc~figure&#45;&gt;proc~setup</title>
<path fill="none" stroke="black" d="M349.112,-276.198C363.511,-310.559 404.551,-408.496 422.919,-452.33"/>
<polygon fill="black" stroke="black" points="419.781,-453.898 426.874,-461.768 426.237,-451.192 419.781,-453.898"/>
</g>
<!-- program~main_prg -->
<g id="node4" class="node"><title>program~main_prg</title>
<g id="a_node4"><a xlink:href="../program/main_prg.html" xlink:title="main_prg">
<polygon fill="#f0ad4e" stroke="#f0ad4e" points="58,-380 3.55271e-15,-380 3.55271e-15,-356 58,-356 58,-380"/>
<text text-anchor="middle" x="29" y="-365.6" font-family="Helvetica,sans-Serif" font-size="10.50" fill="white">main_prg</text>
</a>
</g>
</g>
<!-- program~main_prg&#45;&gt;proc~setup -->
<g id="edge26" class="edge"><title>program~main_prg&#45;&gt;proc~setup</title>
<path fill="none" stroke="black" d="M40.8878,-380.239C65.9093,-407.325 130.781,-471.777 201,-495 267.43,-516.97 350.097,-499.444 396.359,-485.914"/>
<polygon fill="black" stroke="black" points="397.376,-489.263 405.934,-483.017 395.349,-482.563 397.376,-489.263"/>
</g>
<!-- proc~doexamples -->
<g id="node16" class="node"><title>proc~doexamples</title>
<g id="a_node16"><a xlink:href="../proc/doexamples.html" xlink:title="doExamples">
<polygon fill="#d9534f" stroke="#d9534f" points="165,-234 94,-234 94,-210 165,-210 165,-234"/>
<text text-anchor="middle" x="129.5" y="-219.6" font-family="Helvetica,sans-Serif" font-size="10.50" fill="white">doExamples</text>
</a>
</g>
</g>
<!-- program~main_prg&#45;&gt;proc~doexamples -->
<g id="edge1" class="edge"><title>program~main_prg&#45;&gt;proc~doexamples</title>
<path fill="none" stroke="black" d="M38.2286,-355.803C55.0734,-330.835 93.6509,-273.655 114.505,-242.744"/>
<polygon fill="black" stroke="black" points="117.673,-244.307 120.364,-234.059 111.87,-240.392 117.673,-244.307"/>
</g>
<!-- proc~dosurface -->
<g id="node5" class="node"><title>proc~dosurface</title>
<g id="a_node5"><a xlink:href="../proc/dosurface.html" xlink:title="doSurface">
<polygon fill="#d9534f" stroke="#d9534f" points="271,-234 210,-234 210,-210 271,-210 271,-234"/>
<text text-anchor="middle" x="240.5" y="-219.6" font-family="Helvetica,sans-Serif" font-size="10.50" fill="white">doSurface</text>
</a>
</g>
</g>
<!-- proc~dosurface&#45;&gt;proc~figure -->
<g id="edge12" class="edge"><title>proc~dosurface&#45;&gt;proc~figure</title>
<path fill="none" stroke="black" d="M270.299,-234.036C281.65,-238.779 294.798,-244.274 306.711,-249.252"/>
<polygon fill="black" stroke="black" points="305.367,-252.484 315.943,-253.111 308.066,-246.025 305.367,-252.484"/>
</g>
<!-- proc~dobar -->
<g id="node6" class="node"><title>proc~dobar</title>
<g id="a_node6"><a xlink:href="../proc/dobar.html" xlink:title="doBar">
<polygon fill="#d9534f" stroke="#d9534f" points="267.5,-192 213.5,-192 213.5,-168 267.5,-168 267.5,-192"/>
<text text-anchor="middle" x="240.5" y="-177.6" font-family="Helvetica,sans-Serif" font-size="10.50" fill="white">doBar</text>
</a>
</g>
</g>
<!-- proc~dobar&#45;&gt;proc~figure -->
<g id="edge13" class="edge"><title>proc~dobar&#45;&gt;proc~figure</title>
<path fill="none" stroke="black" d="M266.201,-192.065C270.939,-194.765 275.746,-197.79 280,-201 296.84,-213.706 313.472,-230.932 325.264,-244.161"/>
<polygon fill="black" stroke="black" points="322.725,-246.574 331.939,-251.804 327.998,-241.97 322.725,-246.574"/>
</g>
<!-- proc~makelogo -->
<g id="node7" class="node"><title>proc~makelogo</title>
<g id="a_node7"><a xlink:href="../proc/makelogo.html" xlink:title="makeLogo">
<polygon fill="#d9534f" stroke="#d9534f" points="272,-402 209,-402 209,-378 272,-378 272,-402"/>
<text text-anchor="middle" x="240.5" y="-387.6" font-family="Helvetica,sans-Serif" font-size="10.50" fill="white">makeLogo</text>
</a>
</g>
</g>
<!-- proc~makelogo&#45;&gt;proc~figure -->
<g id="edge14" class="edge"><title>proc~makelogo&#45;&gt;proc~figure</title>
<path fill="none" stroke="black" d="M268.072,-377.996C272.338,-375.392 276.496,-372.386 280,-369 305.061,-344.778 323.531,-308.284 333.522,-285.32"/>
<polygon fill="black" stroke="black" points="336.75,-286.673 337.394,-276.098 330.296,-283.963 336.75,-286.673"/>
</g>
<!-- proc~dohist -->
<g id="node8" class="node"><title>proc~dohist</title>
<g id="a_node8"><a xlink:href="../proc/dohist.html" xlink:title="doHist">
<polygon fill="#d9534f" stroke="#d9534f" points="267.5,-150 213.5,-150 213.5,-126 267.5,-126 267.5,-150"/>
<text text-anchor="middle" x="240.5" y="-135.6" font-family="Helvetica,sans-Serif" font-size="10.50" fill="white">doHist</text>
</a>
</g>
</g>
<!-- proc~dohist&#45;&gt;proc~figure -->
<g id="edge16" class="edge"><title>proc~dohist&#45;&gt;proc~figure</title>
<path fill="none" stroke="black" d="M267.672,-149.761C272.078,-152.42 276.387,-155.508 280,-159 305.061,-183.222 323.531,-219.716 333.522,-242.68"/>
<polygon fill="black" stroke="black" points="330.296,-244.037 337.394,-251.902 336.75,-241.327 330.296,-244.037"/>
</g>
<!-- proc~dolegend -->
<g id="node9" class="node"><title>proc~dolegend</title>
<g id="a_node9"><a xlink:href="../proc/dolegend.html" xlink:title="doLegend">
<polygon fill="#d9534f" stroke="#d9534f" points="271,-108 210,-108 210,-84 271,-84 271,-108"/>
<text text-anchor="middle" x="240.5" y="-93.6" font-family="Helvetica,sans-Serif" font-size="10.50" fill="white">doLegend</text>
</a>
</g>
</g>
<!-- proc~dolegend&#45;&gt;proc~figure -->
<g id="edge17" class="edge"><title>proc~dolegend&#45;&gt;proc~figure</title>
<path fill="none" stroke="black" d="M269.258,-108.122C273.193,-110.659 276.936,-113.612 280,-117 313.24,-153.751 330.301,-210.929 337.562,-242.034"/>
<polygon fill="black" stroke="black" points="334.16,-242.861 339.732,-251.873 340.996,-241.353 334.16,-242.861"/>
</g>
<!-- proc~dofillbetween -->
<g id="node10" class="node"><title>proc~dofillbetween</title>
<g id="a_node10"><a xlink:href="../proc/dofillbetween.html" xlink:title="doFillBetween">
<polygon fill="#d9534f" stroke="#d9534f" points="280,-66 201,-66 201,-42 280,-42 280,-66"/>
<text text-anchor="middle" x="240.5" y="-51.6" font-family="Helvetica,sans-Serif" font-size="10.50" fill="white">doFillBetween</text>
</a>
</g>
</g>
<!-- proc~dofillbetween&#45;&gt;proc~figure -->
<g id="edge18" class="edge"><title>proc~dofillbetween&#45;&gt;proc~figure</title>
<path fill="none" stroke="black" d="M269.897,-66.1639C273.653,-68.6721 277.175,-71.6061 280,-75 321.625,-125.003 335.563,-203.773 340.021,-241.885"/>
<polygon fill="black" stroke="black" points="336.549,-242.34 341.082,-251.916 343.511,-241.604 336.549,-242.34"/>
</g>
<!-- proc~doplot -->
<g id="node11" class="node"><title>proc~doplot</title>
<g id="a_node11"><a xlink:href="../proc/doplot.html" xlink:title="doPlot">
<polygon fill="#d9534f" stroke="#d9534f" points="267.5,-24 213.5,-24 213.5,-0 267.5,-0 267.5,-24"/>
<text text-anchor="middle" x="240.5" y="-9.6" font-family="Helvetica,sans-Serif" font-size="10.50" fill="white">doPlot</text>
</a>
</g>
</g>
<!-- proc~doplot&#45;&gt;proc~figure -->
<g id="edge19" class="edge"><title>proc~doplot&#45;&gt;proc~figure</title>
<path fill="none" stroke="black" d="M267.718,-22.516C272.331,-25.3443 276.704,-28.8121 280,-33 330.075,-96.618 339.838,-197.327 341.647,-241.725"/>
<polygon fill="black" stroke="black" points="338.149,-241.855 341.955,-251.742 345.146,-241.639 338.149,-241.855"/>
</g>
<!-- proc~docontour -->
<g id="node12" class="node"><title>proc~docontour</title>
<g id="a_node12"><a xlink:href="../proc/docontour.html" xlink:title="doContour">
<polygon fill="#d9534f" stroke="#d9534f" points="272,-444 209,-444 209,-420 272,-420 272,-444"/>
<text text-anchor="middle" x="240.5" y="-429.6" font-family="Helvetica,sans-Serif" font-size="10.50" fill="white">doContour</text>
</a>
</g>
</g>
<!-- proc~docontour&#45;&gt;proc~figure -->
<g id="edge20" class="edge"><title>proc~docontour&#45;&gt;proc~figure</title>
<path fill="none" stroke="black" d="M269.258,-419.878C273.193,-417.341 276.936,-414.388 280,-411 313.24,-374.249 330.301,-317.071 337.562,-285.966"/>
<polygon fill="black" stroke="black" points="340.996,-286.647 339.732,-276.127 334.16,-285.139 340.996,-286.647"/>
</g>
<!-- proc~doquiver -->
<g id="node13" class="node"><title>proc~doquiver</title>
<g id="a_node13"><a xlink:href="../proc/doquiver.html" xlink:title="doQuiver">
<polygon fill="#d9534f" stroke="#d9534f" points="268.5,-360 212.5,-360 212.5,-336 268.5,-336 268.5,-360"/>
<text text-anchor="middle" x="240.5" y="-345.6" font-family="Helvetica,sans-Serif" font-size="10.50" fill="white">doQuiver</text>
</a>
</g>
</g>
<!-- proc~doquiver&#45;&gt;proc~figure -->
<g id="edge21" class="edge"><title>proc~doquiver&#45;&gt;proc~figure</title>
<path fill="none" stroke="black" d="M266.201,-335.935C270.939,-333.235 275.746,-330.21 280,-327 296.84,-314.294 313.472,-297.068 325.264,-283.839"/>
<polygon fill="black" stroke="black" points="327.998,-286.03 331.939,-276.196 322.725,-281.426 327.998,-286.03"/>
</g>
<!-- proc~doscatter -->
<g id="node14" class="node"><title>proc~doscatter</title>
<g id="a_node14"><a xlink:href="../proc/doscatter.html" xlink:title="doScatter">
<polygon fill="#d9534f" stroke="#d9534f" points="269.5,-318 211.5,-318 211.5,-294 269.5,-294 269.5,-318"/>
<text text-anchor="middle" x="240.5" y="-303.6" font-family="Helvetica,sans-Serif" font-size="10.50" fill="white">doScatter</text>
</a>
</g>
</g>
<!-- proc~doscatter&#45;&gt;proc~figure -->
<g id="edge22" class="edge"><title>proc~doscatter&#45;&gt;proc~figure</title>
<path fill="none" stroke="black" d="M269.762,-294.189C281.123,-289.441 294.352,-283.912 306.362,-278.894"/>
<polygon fill="black" stroke="black" points="307.796,-282.088 315.673,-275.002 305.096,-275.629 307.796,-282.088"/>
</g>
<!-- proc~doerror -->
<g id="node15" class="node"><title>proc~doerror</title>
<g id="a_node15"><a xlink:href="../proc/doerror.html" xlink:title="doError">
<polygon fill="#d9534f" stroke="#d9534f" points="267.5,-276 213.5,-276 213.5,-252 267.5,-252 267.5,-276"/>
<text text-anchor="middle" x="240.5" y="-261.6" font-family="Helvetica,sans-Serif" font-size="10.50" fill="white">doError</text>
</a>
</g>
</g>
<!-- proc~doerror&#45;&gt;proc~figure -->
<g id="edge23" class="edge"><title>proc~doerror&#45;&gt;proc~figure</title>
<path fill="none" stroke="black" d="M267.643,-264C279.275,-264 293.165,-264 305.775,-264"/>
<polygon fill="black" stroke="black" points="305.988,-267.5 315.988,-264 305.988,-260.5 305.988,-267.5"/>
</g>
<!-- proc~doexamples&#45;&gt;proc~dosurface -->
<g id="edge2" class="edge"><title>proc~doexamples&#45;&gt;proc~dosurface</title>
<path fill="none" stroke="black" d="M165.288,-222C176.259,-222 188.462,-222 199.752,-222"/>
<polygon fill="black" stroke="black" points="199.802,-225.5 209.802,-222 199.802,-218.5 199.802,-225.5"/>
</g>
<!-- proc~doexamples&#45;&gt;proc~dobar -->
<g id="edge3" class="edge"><title>proc~doexamples&#45;&gt;proc~dobar</title>
<path fill="none" stroke="black" d="M161.735,-209.964C174.897,-204.893 190.287,-198.963 203.887,-193.723"/>
<polygon fill="black" stroke="black" points="205.343,-196.912 213.416,-190.051 202.826,-190.381 205.343,-196.912"/>
</g>
<!-- proc~doexamples&#45;&gt;proc~dohist -->
<g id="edge4" class="edge"><title>proc~doexamples&#45;&gt;proc~dohist</title>
<path fill="none" stroke="black" d="M142.258,-209.939C155.701,-196.533 178.734,-174.706 201,-159 202.82,-157.716 204.726,-156.452 206.676,-155.219"/>
<polygon fill="black" stroke="black" points="208.558,-158.172 215.366,-150.054 204.981,-152.155 208.558,-158.172"/>
</g>
<!-- proc~doexamples&#45;&gt;proc~dolegend -->
<g id="edge5" class="edge"><title>proc~doexamples&#45;&gt;proc~dolegend</title>
<path fill="none" stroke="black" d="M136.159,-209.935C146.524,-188.869 170.338,-144.964 201,-117 202.125,-115.974 203.309,-114.98 204.537,-114.019"/>
<polygon fill="black" stroke="black" points="206.807,-116.707 213.091,-108.178 202.859,-110.927 206.807,-116.707"/>
</g>
<!-- proc~doexamples&#45;&gt;proc~dofillbetween -->
<g id="edge6" class="edge"><title>proc~doexamples&#45;&gt;proc~dofillbetween</title>
<path fill="none" stroke="black" d="M133.55,-209.869C140.921,-182.685 162.029,-116.058 201,-75 201.914,-74.0371 202.882,-73.1079 203.893,-72.2123"/>
<polygon fill="black" stroke="black" points="206.325,-74.7662 212.28,-66.0027 202.16,-69.1403 206.325,-74.7662"/>
</g>
<!-- proc~doexamples&#45;&gt;proc~doplot -->
<g id="edge7" class="edge"><title>proc~doexamples&#45;&gt;proc~doplot</title>
<path fill="none" stroke="black" d="M132.041,-209.898C136.727,-177.541 153.514,-87.7754 201,-33 202.166,-31.6553 203.44,-30.381 204.792,-29.1756"/>
<polygon fill="black" stroke="black" points="207.2,-31.7499 213.193,-23.0129 203.06,-26.1057 207.2,-31.7499"/>
</g>
<!-- proc~doexamples&#45;&gt;proc~docontour -->
<g id="edge8" class="edge"><title>proc~doexamples&#45;&gt;proc~docontour</title>
<path fill="none" stroke="black" d="M132.041,-234.102C136.727,-266.459 153.514,-356.225 201,-411 201.842,-411.971 202.74,-412.905 203.683,-413.803"/>
<polygon fill="black" stroke="black" points="201.578,-416.6 211.615,-419.99 205.883,-411.08 201.578,-416.6"/>
</g>
<!-- proc~doexamples&#45;&gt;proc~doquiver -->
<g id="edge9" class="edge"><title>proc~doexamples&#45;&gt;proc~doquiver</title>
<path fill="none" stroke="black" d="M136.159,-234.065C146.524,-255.131 170.338,-299.036 201,-327 202.125,-328.026 203.309,-329.02 204.537,-329.981"/>
<polygon fill="black" stroke="black" points="202.859,-333.073 213.091,-335.822 206.807,-327.293 202.859,-333.073"/>
</g>
<!-- proc~doexamples&#45;&gt;proc~doscatter -->
<g id="edge10" class="edge"><title>proc~doexamples&#45;&gt;proc~doscatter</title>
<path fill="none" stroke="black" d="M142.258,-234.061C155.701,-247.467 178.734,-269.294 201,-285 202.82,-286.284 204.726,-287.548 206.676,-288.781"/>
<polygon fill="black" stroke="black" points="204.981,-291.845 215.366,-293.946 208.558,-285.828 204.981,-291.845"/>
</g>
<!-- proc~doexamples&#45;&gt;proc~doerror -->
<g id="edge11" class="edge"><title>proc~doexamples&#45;&gt;proc~doerror</title>
<path fill="none" stroke="black" d="M161.735,-234.036C174.897,-239.107 190.287,-245.037 203.887,-250.277"/>
<polygon fill="black" stroke="black" points="202.826,-253.619 213.416,-253.949 205.343,-247.088 202.826,-253.619"/>
</g>
</g>
</svg>
