<?xml version="1.0" encoding="UTF-8" standalone="no"?>
<!DOCTYPE svg PUBLIC "-//W3C//DTD SVG 1.1//EN"
 "http://www.w3.org/Graphics/SVG/1.1/DTD/svg11.dtd">
<!-- Generated by graphviz version 2.38.0 (20140413.2041)
 -->
<!-- Title: proc~~doscatter~~CallsGraph Pages: 1 -->
<svg width="336pt" height="662pt"
 viewBox="0.00 0.00 336.00 662.00" xmlns="http://www.w3.org/2000/svg" xmlns:xlink="http://www.w3.org/1999/xlink">
<g id="graph0" class="graph" transform="scale(1 1) rotate(0) translate(4 658)">
<title>proc~~doscatter~~CallsGraph</title>
<polygon fill="white" stroke="none" points="-4,4 -4,-658 332,-658 332,4 -4,4"/>
<!-- proc~doscatter -->
<g id="node1" class="node"><title>proc~doscatter</title>
<polygon fill="none" stroke="black" points="58,-244 3.55271e-15,-244 3.55271e-15,-220 58,-220 58,-244"/>
<text text-anchor="middle" x="29" y="-229.6" font-family="Helvetica,sans-Serif" font-size="10.50">doScatter</text>
</g>
<!-- proc~figure -->
<g id="node2" class="node"><title>proc~figure</title>
<g id="a_node2"><a xlink:href="../proc/figure.html" xlink:title="figure">
<polygon fill="#d9534f" stroke="#d9534f" points="148,-423 94,-423 94,-399 148,-399 148,-423"/>
<text text-anchor="middle" x="121" y="-408.6" font-family="Helvetica,sans-Serif" font-size="10.50" fill="white">figure</text>
</a>
</g>
</g>
<!-- proc~doscatter&#45;&gt;proc~figure -->
<g id="edge25" class="edge"><title>proc~doscatter&#45;&gt;proc~figure</title>
<path fill="none" stroke="black" d="M36.0449,-244.023C51.0231,-273.813 90.0213,-351.376 109.129,-389.378"/>
<polygon fill="black" stroke="black" points="106.124,-391.194 113.743,-398.556 112.378,-388.05 106.124,-391.194"/>
</g>
<!-- proc~ticks -->
<g id="node3" class="node"><title>proc~ticks</title>
<g id="a_node3"><a xlink:href="../proc/ticks.html" xlink:title="ticks">
<polygon fill="#d9534f" stroke="#d9534f" points="148,-276 94,-276 94,-252 148,-252 148,-276"/>
<text text-anchor="middle" x="121" y="-261.6" font-family="Helvetica,sans-Serif" font-size="10.50" fill="white">ticks</text>
</a>
</g>
</g>
<!-- proc~doscatter&#45;&gt;proc~ticks -->
<g id="edge26" class="edge"><title>proc~doscatter&#45;&gt;proc~ticks</title>
<path fill="none" stroke="black" d="M58.4766,-242.125C66.7083,-245.052 75.7966,-248.283 84.4044,-251.344"/>
<polygon fill="black" stroke="black" points="83.2527,-254.649 93.8474,-254.701 85.5978,-248.053 83.2527,-254.649"/>
</g>
<!-- proc~scatter -->
<g id="node4" class="node"><title>proc~scatter</title>
<g id="a_node4"><a xlink:href="../proc/scatter.html" xlink:title="scatter">
<polygon fill="#d9534f" stroke="#d9534f" points="148,-213 94,-213 94,-189 148,-189 148,-213"/>
<text text-anchor="middle" x="121" y="-198.6" font-family="Helvetica,sans-Serif" font-size="10.50" fill="white">scatter</text>
</a>
</g>
</g>
<!-- proc~doscatter&#45;&gt;proc~scatter -->
<g id="edge27" class="edge"><title>proc~doscatter&#45;&gt;proc~scatter</title>
<path fill="none" stroke="black" d="M58.4766,-222.191C66.6197,-219.387 75.6012,-216.293 84.1265,-213.356"/>
<polygon fill="black" stroke="black" points="85.5324,-216.574 93.8474,-210.008 83.2527,-209.956 85.5324,-216.574"/>
</g>
<!-- proc~xylim -->
<g id="node5" class="node"><title>proc~xylim</title>
<g id="a_node5"><a xlink:href="../proc/xylim.html" xlink:title="xylim">
<polygon fill="#d9534f" stroke="#d9534f" points="148,-150 94,-150 94,-126 148,-126 148,-150"/>
<text text-anchor="middle" x="121" y="-135.6" font-family="Helvetica,sans-Serif" font-size="10.50" fill="white">xylim</text>
</a>
</g>
</g>
<!-- proc~doscatter&#45;&gt;proc~xylim -->
<g id="edge28" class="edge"><title>proc~doscatter&#45;&gt;proc~xylim</title>
<path fill="none" stroke="black" d="M41.7659,-219.711C56.8583,-203.948 83.2194,-176.415 101.13,-157.709"/>
<polygon fill="black" stroke="black" points="103.844,-159.935 108.231,-150.292 98.7874,-155.094 103.844,-159.935"/>
</g>
<!-- proc~subplot -->
<g id="node6" class="node"><title>proc~subplot</title>
<g id="a_node6"><a xlink:href="../proc/subplot.html" xlink:title="subplot">
<polygon fill="#d9534f" stroke="#d9534f" points="148,-549 94,-549 94,-525 148,-525 148,-549"/>
<text text-anchor="middle" x="121" y="-534.6" font-family="Helvetica,sans-Serif" font-size="10.50" fill="white">subplot</text>
</a>
</g>
</g>
<!-- proc~doscatter&#45;&gt;proc~subplot -->
<g id="edge29" class="edge"><title>proc~doscatter&#45;&gt;proc~subplot</title>
<path fill="none" stroke="black" d="M33.6396,-244.334C47.3234,-290.707 95.8048,-455.005 113.486,-514.925"/>
<polygon fill="black" stroke="black" points="110.227,-516.246 116.414,-524.847 116.94,-514.265 110.227,-516.246"/>
</g>
<!-- proc~labels -->
<g id="node7" class="node"><title>proc~labels</title>
<g id="a_node7"><a xlink:href="../proc/labels.html" xlink:title="labels">
<polygon fill="#d9534f" stroke="#d9534f" points="148,-66 94,-66 94,-42 148,-42 148,-66"/>
<text text-anchor="middle" x="121" y="-51.6" font-family="Helvetica,sans-Serif" font-size="10.50" fill="white">labels</text>
</a>
</g>
</g>
<!-- proc~doscatter&#45;&gt;proc~labels -->
<g id="edge30" class="edge"><title>proc~doscatter&#45;&gt;proc~labels</title>
<path fill="none" stroke="black" d="M36.1861,-219.765C51.2789,-189.915 90.1438,-113.049 109.175,-75.4096"/>
<polygon fill="black" stroke="black" points="112.382,-76.8237 113.771,-66.3203 106.135,-73.6651 112.382,-76.8237"/>
</g>
<!-- pladv -->
<g id="node8" class="node"><title>pladv</title>
<polygon fill="#777777" stroke="#777777" points="238,-528 184,-528 184,-504 238,-504 238,-528"/>
<text text-anchor="middle" x="211" y="-513.6" font-family="Helvetica,sans-Serif" font-size="10.50" fill="white">pladv</text>
</g>
<!-- proc~figure&#45;&gt;pladv -->
<g id="edge7" class="edge"><title>proc~figure&#45;&gt;pladv</title>
<path fill="none" stroke="black" d="M129.546,-423.152C140.43,-440.188 161.689,-471.695 184,-495 184.65,-495.678 185.321,-496.355 186.009,-497.027"/>
<polygon fill="black" stroke="black" points="183.974,-499.902 193.764,-503.953 188.636,-494.681 183.974,-499.902"/>
</g>
<!-- pleop -->
<g id="node9" class="node"><title>pleop</title>
<polygon fill="#777777" stroke="#777777" points="238,-444 184,-444 184,-420 238,-420 238,-444"/>
<text text-anchor="middle" x="211" y="-429.6" font-family="Helvetica,sans-Serif" font-size="10.50" fill="white">pleop</text>
</g>
<!-- proc~figure&#45;&gt;pleop -->
<g id="edge8" class="edge"><title>proc~figure&#45;&gt;pleop</title>
<path fill="none" stroke="black" d="M148.403,-417.301C156.481,-419.228 165.507,-421.382 174.105,-423.434"/>
<polygon fill="black" stroke="black" points="173.38,-426.859 183.919,-425.776 175.005,-420.05 173.38,-426.859"/>
</g>
<!-- plssub -->
<g id="node10" class="node"><title>plssub</title>
<polygon fill="#777777" stroke="#777777" points="238,-486 184,-486 184,-462 238,-462 238,-486"/>
<text text-anchor="middle" x="211" y="-471.6" font-family="Helvetica,sans-Serif" font-size="10.50" fill="white">plssub</text>
</g>
<!-- proc~figure&#45;&gt;plssub -->
<g id="edge9" class="edge"><title>proc~figure&#45;&gt;plssub</title>
<path fill="none" stroke="black" d="M138.967,-423.147C151.994,-432.473 170.181,-445.493 184.891,-456.024"/>
<polygon fill="black" stroke="black" points="182.916,-458.915 193.085,-461.89 186.991,-453.223 182.916,-458.915"/>
</g>
<!-- proc~setup -->
<g id="node11" class="node"><title>proc~setup</title>
<g id="a_node11"><a xlink:href="../proc/setup.html" xlink:title="setup">
<polygon fill="#d9534f" stroke="#d9534f" points="238,-402 184,-402 184,-378 238,-378 238,-402"/>
<text text-anchor="middle" x="211" y="-387.6" font-family="Helvetica,sans-Serif" font-size="10.50" fill="white">setup</text>
</a>
</g>
</g>
<!-- proc~figure&#45;&gt;proc~setup -->
<g id="edge10" class="edge"><title>proc~figure&#45;&gt;proc~setup</title>
<path fill="none" stroke="black" d="M148.403,-404.699C156.481,-402.772 165.507,-400.618 174.105,-398.566"/>
<polygon fill="black" stroke="black" points="175.005,-401.95 183.919,-396.224 173.38,-395.141 175.005,-401.95"/>
</g>
<!-- plbop -->
<g id="node12" class="node"><title>plbop</title>
<polygon fill="#777777" stroke="#777777" points="238,-360 184,-360 184,-336 238,-336 238,-360"/>
<text text-anchor="middle" x="211" y="-345.6" font-family="Helvetica,sans-Serif" font-size="10.50" fill="white">plbop</text>
</g>
<!-- proc~figure&#45;&gt;plbop -->
<g id="edge11" class="edge"><title>proc~figure&#45;&gt;plbop</title>
<path fill="none" stroke="black" d="M138.967,-398.853C151.994,-389.527 170.181,-376.507 184.891,-365.976"/>
<polygon fill="black" stroke="black" points="186.991,-368.777 193.085,-360.11 182.916,-363.085 186.991,-368.777"/>
</g>
<!-- plbox -->
<g id="node19" class="node"><title>plbox</title>
<polygon fill="#777777" stroke="#777777" points="238,-318 184,-318 184,-294 238,-294 238,-318"/>
<text text-anchor="middle" x="211" y="-303.6" font-family="Helvetica,sans-Serif" font-size="10.50" fill="white">plbox</text>
</g>
<!-- proc~ticks&#45;&gt;plbox -->
<g id="edge12" class="edge"><title>proc~ticks&#45;&gt;plbox</title>
<path fill="none" stroke="black" d="M147.453,-276.148C156.21,-280.327 166.165,-285.079 175.518,-289.543"/>
<polygon fill="black" stroke="black" points="174.072,-292.73 184.604,-293.879 177.087,-286.413 174.072,-292.73"/>
</g>
<!-- plptex -->
<g id="node20" class="node"><title>plptex</title>
<polygon fill="#777777" stroke="#777777" points="238,-150 184,-150 184,-126 238,-126 238,-150"/>
<text text-anchor="middle" x="211" y="-135.6" font-family="Helvetica,sans-Serif" font-size="10.50" fill="white">plptex</text>
</g>
<!-- proc~scatter&#45;&gt;plptex -->
<g id="edge13" class="edge"><title>proc~scatter&#45;&gt;plptex</title>
<path fill="none" stroke="black" d="M138.967,-188.853C151.994,-179.527 170.181,-166.507 184.891,-155.976"/>
<polygon fill="black" stroke="black" points="186.991,-158.777 193.085,-150.11 182.916,-153.085 186.991,-158.777"/>
</g>
<!-- plssym -->
<g id="node21" class="node"><title>plssym</title>
<polygon fill="#777777" stroke="#777777" points="238,-108 184,-108 184,-84 238,-84 238,-108"/>
<text text-anchor="middle" x="211" y="-93.6" font-family="Helvetica,sans-Serif" font-size="10.50" fill="white">plssym</text>
</g>
<!-- proc~scatter&#45;&gt;plssym -->
<g id="edge14" class="edge"><title>proc~scatter&#45;&gt;plssym</title>
<path fill="none" stroke="black" d="M129.546,-188.848C140.43,-171.812 161.689,-140.305 184,-117 184.65,-116.322 185.321,-115.645 186.009,-114.973"/>
<polygon fill="black" stroke="black" points="188.636,-117.319 193.764,-108.047 183.974,-112.098 188.636,-117.319"/>
</g>
<!-- plschr -->
<g id="node22" class="node"><title>plschr</title>
<polygon fill="#777777" stroke="#777777" points="238,-276 184,-276 184,-252 238,-252 238,-276"/>
<text text-anchor="middle" x="211" y="-261.6" font-family="Helvetica,sans-Serif" font-size="10.50" fill="white">plschr</text>
</g>
<!-- proc~scatter&#45;&gt;plschr -->
<g id="edge15" class="edge"><title>proc~scatter&#45;&gt;plschr</title>
<path fill="none" stroke="black" d="M138.967,-213.147C151.994,-222.473 170.181,-235.493 184.891,-246.024"/>
<polygon fill="black" stroke="black" points="182.916,-248.915 193.085,-251.89 186.991,-243.223 182.916,-248.915"/>
</g>
<!-- plcol1 -->
<g id="node23" class="node"><title>plcol1</title>
<polygon fill="#777777" stroke="#777777" points="238,-234 184,-234 184,-210 238,-210 238,-234"/>
<text text-anchor="middle" x="211" y="-219.6" font-family="Helvetica,sans-Serif" font-size="10.50" fill="white">plcol1</text>
</g>
<!-- proc~scatter&#45;&gt;plcol1 -->
<g id="edge16" class="edge"><title>proc~scatter&#45;&gt;plcol1</title>
<path fill="none" stroke="black" d="M148.403,-207.301C156.481,-209.228 165.507,-211.382 174.105,-213.434"/>
<polygon fill="black" stroke="black" points="173.38,-216.859 183.919,-215.776 175.005,-210.05 173.38,-216.859"/>
</g>
<!-- interface~mixval -->
<g id="node24" class="node"><title>interface~mixval</title>
<g id="a_node24"><a xlink:href="../interface/mixval.html" xlink:title="mixval">
<polygon fill="#a7506f" stroke="#a7506f" points="238,-192 184,-192 184,-168 238,-168 238,-192"/>
<text text-anchor="middle" x="211" y="-177.6" font-family="Helvetica,sans-Serif" font-size="10.50" fill="white">mixval</text>
</a>
</g>
</g>
<!-- proc~scatter&#45;&gt;interface~mixval -->
<g id="edge17" class="edge"><title>proc~scatter&#45;&gt;interface~mixval</title>
<path fill="none" stroke="black" d="M148.403,-194.699C156.481,-192.772 165.507,-190.618 174.105,-188.566"/>
<polygon fill="black" stroke="black" points="175.005,-191.95 183.919,-186.224 173.38,-185.141 175.005,-191.95"/>
</g>
<!-- plwind -->
<g id="node25" class="node"><title>plwind</title>
<polygon fill="#777777" stroke="#777777" points="238,-66 184,-66 184,-42 238,-42 238,-66"/>
<text text-anchor="middle" x="211" y="-51.6" font-family="Helvetica,sans-Serif" font-size="10.50" fill="white">plwind</text>
</g>
<!-- proc~xylim&#45;&gt;plwind -->
<g id="edge18" class="edge"><title>proc~xylim&#45;&gt;plwind</title>
<path fill="none" stroke="black" d="M133.042,-125.988C145.153,-113.004 165.354,-91.9029 184,-75 184.817,-74.2596 185.656,-73.5134 186.509,-72.7663"/>
<polygon fill="black" stroke="black" points="188.966,-75.2728 194.36,-66.1537 184.456,-69.9188 188.966,-75.2728"/>
</g>
<!-- proc~subplot&#45;&gt;pladv -->
<g id="edge23" class="edge"><title>proc~subplot&#45;&gt;pladv</title>
<path fill="none" stroke="black" d="M148.403,-530.699C156.481,-528.772 165.507,-526.618 174.105,-524.566"/>
<polygon fill="black" stroke="black" points="175.005,-527.95 183.919,-522.224 173.38,-521.141 175.005,-527.95"/>
</g>
<!-- proc~subplot&#45;&gt;plssub -->
<g id="edge21" class="edge"><title>proc~subplot&#45;&gt;plssub</title>
<path fill="none" stroke="black" d="M138.967,-524.853C151.994,-515.527 170.181,-502.507 184.891,-491.976"/>
<polygon fill="black" stroke="black" points="186.991,-494.777 193.085,-486.11 182.916,-489.085 186.991,-494.777"/>
</g>
<!-- plvasp -->
<g id="node26" class="node"><title>plvasp</title>
<polygon fill="#777777" stroke="#777777" points="238,-654 184,-654 184,-630 238,-630 238,-654"/>
<text text-anchor="middle" x="211" y="-639.6" font-family="Helvetica,sans-Serif" font-size="10.50" fill="white">plvasp</text>
</g>
<!-- proc~subplot&#45;&gt;plvasp -->
<g id="edge19" class="edge"><title>proc~subplot&#45;&gt;plvasp</title>
<path fill="none" stroke="black" d="M129.546,-549.152C140.43,-566.188 161.689,-597.695 184,-621 184.65,-621.678 185.321,-622.355 186.009,-623.027"/>
<polygon fill="black" stroke="black" points="183.974,-625.902 193.764,-629.953 188.636,-620.681 183.974,-625.902"/>
</g>
<!-- plvpor -->
<g id="node27" class="node"><title>plvpor</title>
<polygon fill="#777777" stroke="#777777" points="238,-612 184,-612 184,-588 238,-588 238,-612"/>
<text text-anchor="middle" x="211" y="-597.6" font-family="Helvetica,sans-Serif" font-size="10.50" fill="white">plvpor</text>
</g>
<!-- proc~subplot&#45;&gt;plvpor -->
<g id="edge20" class="edge"><title>proc~subplot&#45;&gt;plvpor</title>
<path fill="none" stroke="black" d="M138.967,-549.147C151.994,-558.473 170.181,-571.493 184.891,-582.024"/>
<polygon fill="black" stroke="black" points="182.916,-584.915 193.085,-587.89 186.991,-579.223 182.916,-584.915"/>
</g>
<!-- plvsta -->
<g id="node28" class="node"><title>plvsta</title>
<polygon fill="#777777" stroke="#777777" points="238,-570 184,-570 184,-546 238,-546 238,-570"/>
<text text-anchor="middle" x="211" y="-555.6" font-family="Helvetica,sans-Serif" font-size="10.50" fill="white">plvsta</text>
</g>
<!-- proc~subplot&#45;&gt;plvsta -->
<g id="edge22" class="edge"><title>proc~subplot&#45;&gt;plvsta</title>
<path fill="none" stroke="black" d="M148.403,-543.301C156.481,-545.228 165.507,-547.382 174.105,-549.434"/>
<polygon fill="black" stroke="black" points="173.38,-552.859 183.919,-551.776 175.005,-546.05 173.38,-552.859"/>
</g>
<!-- pllab -->
<g id="node29" class="node"><title>pllab</title>
<polygon fill="#777777" stroke="#777777" points="238,-24 184,-24 184,-0 238,-0 238,-24"/>
<text text-anchor="middle" x="211" y="-9.6" font-family="Helvetica,sans-Serif" font-size="10.50" fill="white">pllab</text>
</g>
<!-- proc~labels&#45;&gt;pllab -->
<g id="edge24" class="edge"><title>proc~labels&#45;&gt;pllab</title>
<path fill="none" stroke="black" d="M147.453,-41.8519C156.21,-37.6727 166.165,-32.9211 175.518,-28.4571"/>
<polygon fill="black" stroke="black" points="177.087,-31.5869 184.604,-24.1208 174.072,-25.2695 177.087,-31.5869"/>
</g>
<!-- figsize -->
<g id="node13" class="node"><title>figsize</title>
<polygon fill="#777777" stroke="#777777" points="328,-507 274,-507 274,-483 328,-483 328,-507"/>
<text text-anchor="middle" x="301" y="-492.6" font-family="Helvetica,sans-Serif" font-size="10.50" fill="white">figsize</text>
</g>
<!-- proc~setup&#45;&gt;figsize -->
<g id="edge1" class="edge"><title>proc~setup&#45;&gt;figsize</title>
<path fill="none" stroke="black" d="M228.79,-402.021C232.05,-404.766 235.292,-407.819 238,-411 258.905,-435.556 253.095,-449.444 274,-474 274.592,-474.696 275.21,-475.386 275.848,-476.067"/>
<polygon fill="black" stroke="black" points="273.524,-478.686 283.21,-482.979 278.315,-473.583 273.524,-478.686"/>
</g>
<!-- plsdev -->
<g id="node14" class="node"><title>plsdev</title>
<polygon fill="#777777" stroke="#777777" points="328,-465 274,-465 274,-441 328,-441 328,-465"/>
<text text-anchor="middle" x="301" y="-450.6" font-family="Helvetica,sans-Serif" font-size="10.50" fill="white">plsdev</text>
</g>
<!-- proc~setup&#45;&gt;plsdev -->
<g id="edge2" class="edge"><title>proc~setup&#45;&gt;plsdev</title>
<path fill="none" stroke="black" d="M228.967,-402.147C241.994,-411.473 260.181,-424.493 274.891,-435.024"/>
<polygon fill="black" stroke="black" points="272.916,-437.915 283.085,-440.89 276.991,-432.223 272.916,-437.915"/>
</g>
<!-- plfontld -->
<g id="node15" class="node"><title>plfontld</title>
<polygon fill="#777777" stroke="#777777" points="328,-423 274,-423 274,-399 328,-399 328,-423"/>
<text text-anchor="middle" x="301" y="-408.6" font-family="Helvetica,sans-Serif" font-size="10.50" fill="white">plfontld</text>
</g>
<!-- proc~setup&#45;&gt;plfontld -->
<g id="edge3" class="edge"><title>proc~setup&#45;&gt;plfontld</title>
<path fill="none" stroke="black" d="M238.403,-396.301C246.481,-398.228 255.507,-400.382 264.105,-402.434"/>
<polygon fill="black" stroke="black" points="263.38,-405.859 273.919,-404.776 265.005,-399.05 263.38,-405.859"/>
</g>
<!-- plsfnam -->
<g id="node16" class="node"><title>plsfnam</title>
<polygon fill="#777777" stroke="#777777" points="328,-381 274,-381 274,-357 328,-357 328,-381"/>
<text text-anchor="middle" x="301" y="-366.6" font-family="Helvetica,sans-Serif" font-size="10.50" fill="white">plsfnam</text>
</g>
<!-- proc~setup&#45;&gt;plsfnam -->
<g id="edge4" class="edge"><title>proc~setup&#45;&gt;plsfnam</title>
<path fill="none" stroke="black" d="M238.403,-383.699C246.481,-381.772 255.507,-379.618 264.105,-377.566"/>
<polygon fill="black" stroke="black" points="265.005,-380.95 273.919,-375.224 263.38,-374.141 265.005,-380.95"/>
</g>
<!-- plsfam -->
<g id="node17" class="node"><title>plsfam</title>
<polygon fill="#777777" stroke="#777777" points="328,-339 274,-339 274,-315 328,-315 328,-339"/>
<text text-anchor="middle" x="301" y="-324.6" font-family="Helvetica,sans-Serif" font-size="10.50" fill="white">plsfam</text>
</g>
<!-- proc~setup&#45;&gt;plsfam -->
<g id="edge5" class="edge"><title>proc~setup&#45;&gt;plsfam</title>
<path fill="none" stroke="black" d="M228.967,-377.853C241.994,-368.527 260.181,-355.507 274.891,-344.976"/>
<polygon fill="black" stroke="black" points="276.991,-347.777 283.085,-339.11 272.916,-342.085 276.991,-347.777"/>
</g>
<!-- plsetopt -->
<g id="node18" class="node"><title>plsetopt</title>
<polygon fill="#777777" stroke="#777777" points="328,-297 274,-297 274,-273 328,-273 328,-297"/>
<text text-anchor="middle" x="301" y="-282.6" font-family="Helvetica,sans-Serif" font-size="10.50" fill="white">plsetopt</text>
</g>
<!-- proc~setup&#45;&gt;plsetopt -->
<g id="edge6" class="edge"><title>proc~setup&#45;&gt;plsetopt</title>
<path fill="none" stroke="black" d="M228.79,-377.979C232.05,-375.234 235.292,-372.181 238,-369 258.905,-344.444 253.095,-330.556 274,-306 274.592,-305.304 275.21,-304.614 275.848,-303.933"/>
<polygon fill="black" stroke="black" points="278.315,-306.417 283.21,-297.021 273.524,-301.314 278.315,-306.417"/>
</g>
</g>
</svg>
