<?xml version="1.0" encoding="UTF-8" standalone="no"?>
<!DOCTYPE svg PUBLIC "-//W3C//DTD SVG 1.1//EN"
 "http://www.w3.org/Graphics/SVG/1.1/DTD/svg11.dtd">
<!-- Generated by graphviz version 2.38.0 (20140413.2041)
 -->
<!-- Title: proc~~doerror~~CallsGraph Pages: 1 -->
<svg width="332pt" height="662pt"
 viewBox="0.00 0.00 332.00 662.00" xmlns="http://www.w3.org/2000/svg" xmlns:xlink="http://www.w3.org/1999/xlink">
<g id="graph0" class="graph" transform="scale(1 1) rotate(0) translate(4 658)">
<title>proc~~doerror~~CallsGraph</title>
<polygon fill="white" stroke="none" points="-4,4 -4,-658 328,-658 328,4 -4,4"/>
<!-- proc~doerror -->
<g id="node1" class="node"><title>proc~doerror</title>
<polygon fill="none" stroke="black" points="54,-223 0,-223 0,-199 54,-199 54,-223"/>
<text text-anchor="middle" x="27" y="-208.6" font-family="Helvetica,sans-Serif" font-size="10.50">doError</text>
</g>
<!-- proc~labels -->
<g id="node2" class="node"><title>proc~labels</title>
<g id="a_node2"><a xlink:href="../proc/labels.html" xlink:title="labels">
<polygon fill="#d9534f" stroke="#d9534f" points="144,-638 90,-638 90,-614 144,-614 144,-638"/>
<text text-anchor="middle" x="117" y="-623.6" font-family="Helvetica,sans-Serif" font-size="10.50" fill="white">labels</text>
</a>
</g>
</g>
<!-- proc~doerror&#45;&gt;proc~labels -->
<g id="edge25" class="edge"><title>proc~doerror&#45;&gt;proc~labels</title>
<path fill="none" stroke="black" d="M28.7808,-223.218C32.0334,-269.883 46.434,-440.936 90,-574 93.4497,-584.537 98.7259,-595.605 103.626,-604.808"/>
<polygon fill="black" stroke="black" points="100.6,-606.569 108.504,-613.624 106.725,-603.18 100.6,-606.569"/>
</g>
<!-- proc~ticks -->
<g id="node3" class="node"><title>proc~ticks</title>
<g id="a_node3"><a xlink:href="../proc/ticks.html" xlink:title="ticks">
<polygon fill="#d9534f" stroke="#d9534f" points="144,-565 90,-565 90,-541 144,-541 144,-565"/>
<text text-anchor="middle" x="117" y="-550.6" font-family="Helvetica,sans-Serif" font-size="10.50" fill="white">ticks</text>
</a>
</g>
</g>
<!-- proc~doerror&#45;&gt;proc~ticks -->
<g id="edge26" class="edge"><title>proc~doerror&#45;&gt;proc~ticks</title>
<path fill="none" stroke="black" d="M30.6301,-223.16C38.7115,-260.236 64.1994,-375.047 90,-469 95.8033,-490.133 103.274,-513.979 108.717,-530.85"/>
<polygon fill="black" stroke="black" points="105.542,-532.403 111.963,-540.83 112.198,-530.238 105.542,-532.403"/>
</g>
<!-- proc~figure -->
<g id="node4" class="node"><title>proc~figure</title>
<g id="a_node4"><a xlink:href="../proc/figure.html" xlink:title="figure">
<polygon fill="#d9534f" stroke="#d9534f" points="144,-339 90,-339 90,-315 144,-315 144,-339"/>
<text text-anchor="middle" x="117" y="-324.6" font-family="Helvetica,sans-Serif" font-size="10.50" fill="white">figure</text>
</a>
</g>
</g>
<!-- proc~doerror&#45;&gt;proc~figure -->
<g id="edge27" class="edge"><title>proc~doerror&#45;&gt;proc~figure</title>
<path fill="none" stroke="black" d="M37.4175,-223.414C52.5025,-243.299 82.2377,-282.495 100.493,-306.558"/>
<polygon fill="black" stroke="black" points="97.8178,-308.824 106.65,-314.675 103.395,-304.593 97.8178,-308.824"/>
</g>
<!-- proc~plot -->
<g id="node5" class="node"><title>proc~plot</title>
<g id="a_node5"><a xlink:href="../proc/plot.html" xlink:title="plot">
<polygon fill="#d9534f" stroke="#d9534f" points="144,-223 90,-223 90,-199 144,-199 144,-223"/>
<text text-anchor="middle" x="117" y="-208.6" font-family="Helvetica,sans-Serif" font-size="10.50" fill="white">plot</text>
</a>
</g>
</g>
<!-- proc~doerror&#45;&gt;proc~plot -->
<g id="edge28" class="edge"><title>proc~doerror&#45;&gt;proc~plot</title>
<path fill="none" stroke="black" d="M54.4029,-211C62.3932,-211 71.3106,-211 79.8241,-211"/>
<polygon fill="black" stroke="black" points="79.919,-214.5 89.919,-211 79.919,-207.5 79.919,-214.5"/>
</g>
<!-- interface~mixval -->
<g id="node6" class="node"><title>interface~mixval</title>
<g id="a_node6"><a xlink:href="../interface/mixval.html" xlink:title="mixval">
<polygon fill="#a7506f" stroke="#a7506f" points="144,-181 90,-181 90,-157 144,-157 144,-181"/>
<text text-anchor="middle" x="117" y="-166.6" font-family="Helvetica,sans-Serif" font-size="10.50" fill="white">mixval</text>
</a>
</g>
</g>
<!-- proc~doerror&#45;&gt;interface~mixval -->
<g id="edge29" class="edge"><title>proc~doerror&#45;&gt;interface~mixval</title>
<path fill="none" stroke="black" d="M53.4532,-198.852C62.2096,-194.673 72.1654,-189.921 81.5185,-185.457"/>
<polygon fill="black" stroke="black" points="83.0867,-188.587 90.604,-181.121 80.0716,-182.27 83.0867,-188.587"/>
</g>
<!-- proc~errorbar -->
<g id="node7" class="node"><title>proc~errorbar</title>
<g id="a_node7"><a xlink:href="../proc/errorbar.html" xlink:title="errorbar">
<polygon fill="#d9534f" stroke="#d9534f" points="144,-118 90,-118 90,-94 144,-94 144,-118"/>
<text text-anchor="middle" x="117" y="-103.6" font-family="Helvetica,sans-Serif" font-size="10.50" fill="white">errorbar</text>
</a>
</g>
</g>
<!-- proc~doerror&#45;&gt;proc~errorbar -->
<g id="edge30" class="edge"><title>proc~doerror&#45;&gt;proc~errorbar</title>
<path fill="none" stroke="black" d="M38.0947,-198.955C53.0007,-181.17 81.0791,-147.667 99.1423,-126.114"/>
<polygon fill="black" stroke="black" points="102.011,-128.14 105.752,-118.228 96.6461,-123.644 102.011,-128.14"/>
</g>
<!-- proc~xylim -->
<g id="node8" class="node"><title>proc~xylim</title>
<g id="a_node8"><a xlink:href="../proc/xylim.html" xlink:title="xylim">
<polygon fill="#d9534f" stroke="#d9534f" points="144,-76 90,-76 90,-52 144,-52 144,-76"/>
<text text-anchor="middle" x="117" y="-61.6" font-family="Helvetica,sans-Serif" font-size="10.50" fill="white">xylim</text>
</a>
</g>
</g>
<!-- proc~doerror&#45;&gt;proc~xylim -->
<g id="edge31" class="edge"><title>proc~doerror&#45;&gt;proc~xylim</title>
<path fill="none" stroke="black" d="M31.9519,-198.909C40.0906,-175.254 60.469,-121.945 90,-85 90.4755,-84.4051 90.9706,-83.8161 91.482,-83.2337"/>
<polygon fill="black" stroke="black" points="94.0613,-85.6074 98.785,-76.1238 89.1783,-80.5918 94.0613,-85.6074"/>
</g>
<!-- proc~linspace -->
<g id="node9" class="node"><title>proc~linspace</title>
<g id="a_node9"><a xlink:href="../proc/linspace.html" xlink:title="linspace">
<polygon fill="#d94e8f" stroke="#d94e8f" points="144,-34 90,-34 90,-10 144,-10 144,-34"/>
<text text-anchor="middle" x="117" y="-19.6" font-family="Helvetica,sans-Serif" font-size="10.50" fill="white">linspace</text>
</a>
</g>
</g>
<!-- proc~doerror&#45;&gt;proc~linspace -->
<g id="edge32" class="edge"><title>proc~doerror&#45;&gt;proc~linspace</title>
<path fill="none" stroke="black" d="M30.1405,-198.972C35.7784,-169.869 53.2036,-94.2748 90,-43 90.3594,-42.4991 90.7338,-42.0037 91.1213,-41.514"/>
<polygon fill="black" stroke="black" points="93.8059,-43.7731 98.2508,-34.1557 88.7786,-38.9021 93.8059,-43.7731"/>
</g>
<!-- proc~subplot -->
<g id="node10" class="node"><title>proc~subplot</title>
<g id="a_node10"><a xlink:href="../proc/subplot.html" xlink:title="subplot">
<polygon fill="#d9534f" stroke="#d9534f" points="144,-460 90,-460 90,-436 144,-436 144,-460"/>
<text text-anchor="middle" x="117" y="-445.6" font-family="Helvetica,sans-Serif" font-size="10.50" fill="white">subplot</text>
</a>
</g>
</g>
<!-- proc~doerror&#45;&gt;proc~subplot -->
<g id="edge33" class="edge"><title>proc~doerror&#45;&gt;proc~subplot</title>
<path fill="none" stroke="black" d="M32.4849,-223.079C46.5487,-260.955 89.9194,-377.76 107.979,-426.398"/>
<polygon fill="black" stroke="black" points="104.762,-427.789 111.524,-435.946 111.324,-425.353 104.762,-427.789"/>
</g>
<!-- pllab -->
<g id="node11" class="node"><title>pllab</title>
<polygon fill="#777777" stroke="#777777" points="234,-654 180,-654 180,-630 234,-630 234,-654"/>
<text text-anchor="middle" x="207" y="-639.6" font-family="Helvetica,sans-Serif" font-size="10.50" fill="white">pllab</text>
</g>
<!-- proc~labels&#45;&gt;pllab -->
<g id="edge1" class="edge"><title>proc~labels&#45;&gt;pllab</title>
<path fill="none" stroke="black" d="M144.403,-630.801C152.393,-632.253 161.311,-633.875 169.824,-635.423"/>
<polygon fill="black" stroke="black" points="169.454,-638.913 179.919,-637.258 170.706,-632.026 169.454,-638.913"/>
</g>
<!-- plbox -->
<g id="node12" class="node"><title>plbox</title>
<polygon fill="#777777" stroke="#777777" points="234,-612 180,-612 180,-588 234,-588 234,-612"/>
<text text-anchor="middle" x="207" y="-597.6" font-family="Helvetica,sans-Serif" font-size="10.50" fill="white">plbox</text>
</g>
<!-- proc~ticks&#45;&gt;plbox -->
<g id="edge2" class="edge"><title>proc~ticks&#45;&gt;plbox</title>
<path fill="none" stroke="black" d="M140.662,-565.104C150.927,-570.586 163.236,-577.16 174.388,-583.117"/>
<polygon fill="black" stroke="black" points="172.945,-586.313 183.415,-587.937 176.243,-580.139 172.945,-586.313"/>
</g>
<!-- pladv -->
<g id="node13" class="node"><title>pladv</title>
<polygon fill="#777777" stroke="#777777" points="234,-444 180,-444 180,-420 234,-420 234,-444"/>
<text text-anchor="middle" x="207" y="-429.6" font-family="Helvetica,sans-Serif" font-size="10.50" fill="white">pladv</text>
</g>
<!-- proc~figure&#45;&gt;pladv -->
<g id="edge9" class="edge"><title>proc~figure&#45;&gt;pladv</title>
<path fill="none" stroke="black" d="M125.546,-339.152C136.43,-356.188 157.689,-387.695 180,-411 180.65,-411.678 181.321,-412.355 182.009,-413.027"/>
<polygon fill="black" stroke="black" points="179.974,-415.902 189.764,-419.953 184.636,-410.681 179.974,-415.902"/>
</g>
<!-- pleop -->
<g id="node14" class="node"><title>pleop</title>
<polygon fill="#777777" stroke="#777777" points="234,-360 180,-360 180,-336 234,-336 234,-360"/>
<text text-anchor="middle" x="207" y="-345.6" font-family="Helvetica,sans-Serif" font-size="10.50" fill="white">pleop</text>
</g>
<!-- proc~figure&#45;&gt;pleop -->
<g id="edge10" class="edge"><title>proc~figure&#45;&gt;pleop</title>
<path fill="none" stroke="black" d="M144.403,-333.301C152.481,-335.228 161.507,-337.382 170.105,-339.434"/>
<polygon fill="black" stroke="black" points="169.38,-342.859 179.919,-341.776 171.005,-336.05 169.38,-342.859"/>
</g>
<!-- plssub -->
<g id="node15" class="node"><title>plssub</title>
<polygon fill="#777777" stroke="#777777" points="234,-402 180,-402 180,-378 234,-378 234,-402"/>
<text text-anchor="middle" x="207" y="-387.6" font-family="Helvetica,sans-Serif" font-size="10.50" fill="white">plssub</text>
</g>
<!-- proc~figure&#45;&gt;plssub -->
<g id="edge11" class="edge"><title>proc~figure&#45;&gt;plssub</title>
<path fill="none" stroke="black" d="M134.967,-339.147C147.994,-348.473 166.181,-361.493 180.891,-372.024"/>
<polygon fill="black" stroke="black" points="178.916,-374.915 189.085,-377.89 182.991,-369.223 178.916,-374.915"/>
</g>
<!-- proc~setup -->
<g id="node16" class="node"><title>proc~setup</title>
<g id="a_node16"><a xlink:href="../proc/setup.html" xlink:title="setup">
<polygon fill="#d9534f" stroke="#d9534f" points="234,-318 180,-318 180,-294 234,-294 234,-318"/>
<text text-anchor="middle" x="207" y="-303.6" font-family="Helvetica,sans-Serif" font-size="10.50" fill="white">setup</text>
</a>
</g>
</g>
<!-- proc~figure&#45;&gt;proc~setup -->
<g id="edge12" class="edge"><title>proc~figure&#45;&gt;proc~setup</title>
<path fill="none" stroke="black" d="M144.403,-320.699C152.481,-318.772 161.507,-316.618 170.105,-314.566"/>
<polygon fill="black" stroke="black" points="171.005,-317.95 179.919,-312.224 169.38,-311.141 171.005,-317.95"/>
</g>
<!-- plbop -->
<g id="node17" class="node"><title>plbop</title>
<polygon fill="#777777" stroke="#777777" points="234,-276 180,-276 180,-252 234,-252 234,-276"/>
<text text-anchor="middle" x="207" y="-261.6" font-family="Helvetica,sans-Serif" font-size="10.50" fill="white">plbop</text>
</g>
<!-- proc~figure&#45;&gt;plbop -->
<g id="edge13" class="edge"><title>proc~figure&#45;&gt;plbop</title>
<path fill="none" stroke="black" d="M134.967,-314.853C147.994,-305.527 166.181,-292.507 180.891,-281.976"/>
<polygon fill="black" stroke="black" points="182.991,-284.777 189.085,-276.11 178.916,-279.085 182.991,-284.777"/>
</g>
<!-- plssym -->
<g id="node24" class="node"><title>plssym</title>
<polygon fill="#777777" stroke="#777777" points="234,-234 180,-234 180,-210 234,-210 234,-234"/>
<text text-anchor="middle" x="207" y="-219.6" font-family="Helvetica,sans-Serif" font-size="10.50" fill="white">plssym</text>
</g>
<!-- proc~plot&#45;&gt;plssym -->
<g id="edge14" class="edge"><title>proc~plot&#45;&gt;plssym</title>
<path fill="none" stroke="black" d="M144.403,-214.3C152.393,-215.299 161.311,-216.414 169.824,-217.478"/>
<polygon fill="black" stroke="black" points="169.562,-220.972 179.919,-218.74 170.43,-214.026 169.562,-220.972"/>
</g>
<!-- plline -->
<g id="node25" class="node"><title>plline</title>
<polygon fill="#777777" stroke="#777777" points="234,-192 180,-192 180,-168 234,-168 234,-192"/>
<text text-anchor="middle" x="207" y="-177.6" font-family="Helvetica,sans-Serif" font-size="10.50" fill="white">plline</text>
</g>
<!-- proc~plot&#45;&gt;plline -->
<g id="edge15" class="edge"><title>proc~plot&#45;&gt;plline</title>
<path fill="none" stroke="black" d="M144.403,-201.699C152.569,-198.822 161.703,-195.605 170.385,-192.546"/>
<polygon fill="black" stroke="black" points="171.65,-195.811 179.919,-189.188 169.324,-189.209 171.65,-195.811"/>
</g>
<!-- plptex -->
<g id="node26" class="node"><title>plptex</title>
<polygon fill="#777777" stroke="#777777" points="234,-150 180,-150 180,-126 234,-126 234,-150"/>
<text text-anchor="middle" x="207" y="-135.6" font-family="Helvetica,sans-Serif" font-size="10.50" fill="white">plptex</text>
</g>
<!-- proc~plot&#45;&gt;plptex -->
<g id="edge16" class="edge"><title>proc~plot&#45;&gt;plptex</title>
<path fill="none" stroke="black" d="M133.189,-198.865C136.753,-195.981 140.524,-192.899 144,-190 160.215,-176.476 163.785,-172.524 180,-159 180.978,-158.185 181.978,-157.355 182.992,-156.519"/>
<polygon fill="black" stroke="black" points="185.278,-159.17 190.811,-150.135 180.851,-153.748 185.278,-159.17"/>
</g>
<!-- plerrx -->
<g id="node27" class="node"><title>plerrx</title>
<polygon fill="#777777" stroke="#777777" points="234,-108 180,-108 180,-84 234,-84 234,-108"/>
<text text-anchor="middle" x="207" y="-93.6" font-family="Helvetica,sans-Serif" font-size="10.50" fill="white">plerrx</text>
</g>
<!-- proc~errorbar&#45;&gt;plerrx -->
<g id="edge17" class="edge"><title>proc~errorbar&#45;&gt;plerrx</title>
<path fill="none" stroke="black" d="M144.403,-103C152.393,-102.092 161.311,-101.078 169.824,-100.111"/>
<polygon fill="black" stroke="black" points="170.378,-103.571 179.919,-98.9638 169.588,-96.6153 170.378,-103.571"/>
</g>
<!-- plerry -->
<g id="node28" class="node"><title>plerry</title>
<polygon fill="#777777" stroke="#777777" points="234,-66 180,-66 180,-42 234,-42 234,-66"/>
<text text-anchor="middle" x="207" y="-51.6" font-family="Helvetica,sans-Serif" font-size="10.50" fill="white">plerry</text>
</g>
<!-- proc~errorbar&#45;&gt;plerry -->
<g id="edge18" class="edge"><title>proc~errorbar&#45;&gt;plerry</title>
<path fill="none" stroke="black" d="M138.41,-93.9395C149.768,-87.2278 164.104,-78.7566 176.647,-71.3448"/>
<polygon fill="black" stroke="black" points="178.567,-74.2759 185.396,-66.1753 175.006,-68.2494 178.567,-74.2759"/>
</g>
<!-- plwind -->
<g id="node29" class="node"><title>plwind</title>
<polygon fill="#777777" stroke="#777777" points="234,-24 180,-24 180,-0 234,-0 234,-24"/>
<text text-anchor="middle" x="207" y="-9.6" font-family="Helvetica,sans-Serif" font-size="10.50" fill="white">plwind</text>
</g>
<!-- proc~xylim&#45;&gt;plwind -->
<g id="edge19" class="edge"><title>proc~xylim&#45;&gt;plwind</title>
<path fill="none" stroke="black" d="M138.41,-51.9395C149.768,-45.2278 164.104,-36.7566 176.647,-29.3448"/>
<polygon fill="black" stroke="black" points="178.567,-32.2759 185.396,-24.1753 175.006,-26.2494 178.567,-32.2759"/>
</g>
<!-- proc~subplot&#45;&gt;pladv -->
<g id="edge24" class="edge"><title>proc~subplot&#45;&gt;pladv</title>
<path fill="none" stroke="black" d="M144.403,-443.199C152.393,-441.747 161.311,-440.125 169.824,-438.577"/>
<polygon fill="black" stroke="black" points="170.706,-441.974 179.919,-436.742 169.454,-435.087 170.706,-441.974"/>
</g>
<!-- proc~subplot&#45;&gt;plssub -->
<g id="edge22" class="edge"><title>proc~subplot&#45;&gt;plssub</title>
<path fill="none" stroke="black" d="M136.234,-435.982C148.623,-427.817 165.22,-416.878 179.118,-407.718"/>
<polygon fill="black" stroke="black" points="181.366,-410.428 187.79,-402.002 177.514,-404.583 181.366,-410.428"/>
</g>
<!-- plvasp -->
<g id="node30" class="node"><title>plvasp</title>
<polygon fill="#777777" stroke="#777777" points="234,-570 180,-570 180,-546 234,-546 234,-570"/>
<text text-anchor="middle" x="207" y="-555.6" font-family="Helvetica,sans-Serif" font-size="10.50" fill="white">plvasp</text>
</g>
<!-- proc~subplot&#45;&gt;plvasp -->
<g id="edge20" class="edge"><title>proc~subplot&#45;&gt;plvasp</title>
<path fill="none" stroke="black" d="M124.865,-460.019C135.395,-477.896 156.769,-512.059 180,-537 180.623,-537.669 181.268,-538.335 181.929,-538.996"/>
<polygon fill="black" stroke="black" points="179.665,-541.667 189.426,-545.787 184.364,-536.479 179.665,-541.667"/>
</g>
<!-- plvpor -->
<g id="node31" class="node"><title>plvpor</title>
<polygon fill="#777777" stroke="#777777" points="234,-528 180,-528 180,-504 234,-504 234,-528"/>
<text text-anchor="middle" x="207" y="-513.6" font-family="Helvetica,sans-Serif" font-size="10.50" fill="white">plvpor</text>
</g>
<!-- proc~subplot&#45;&gt;plvpor -->
<g id="edge21" class="edge"><title>proc~subplot&#45;&gt;plvpor</title>
<path fill="none" stroke="black" d="M133.733,-460.157C147.248,-470.6 166.933,-485.812 182.346,-497.722"/>
<polygon fill="black" stroke="black" points="180.351,-500.603 190.404,-503.948 184.631,-495.064 180.351,-500.603"/>
</g>
<!-- plvsta -->
<g id="node32" class="node"><title>plvsta</title>
<polygon fill="#777777" stroke="#777777" points="234,-486 180,-486 180,-462 234,-462 234,-486"/>
<text text-anchor="middle" x="207" y="-471.6" font-family="Helvetica,sans-Serif" font-size="10.50" fill="white">plvsta</text>
</g>
<!-- proc~subplot&#45;&gt;plvsta -->
<g id="edge23" class="edge"><title>proc~subplot&#45;&gt;plvsta</title>
<path fill="none" stroke="black" d="M144.403,-455.801C152.481,-458.188 161.507,-460.854 170.105,-463.395"/>
<polygon fill="black" stroke="black" points="169.337,-466.817 179.919,-466.294 171.321,-460.104 169.337,-466.817"/>
</g>
<!-- figsize -->
<g id="node18" class="node"><title>figsize</title>
<polygon fill="#777777" stroke="#777777" points="324,-423 270,-423 270,-399 324,-399 324,-423"/>
<text text-anchor="middle" x="297" y="-408.6" font-family="Helvetica,sans-Serif" font-size="10.50" fill="white">figsize</text>
</g>
<!-- proc~setup&#45;&gt;figsize -->
<g id="edge3" class="edge"><title>proc~setup&#45;&gt;figsize</title>
<path fill="none" stroke="black" d="M224.79,-318.021C228.05,-320.766 231.292,-323.819 234,-327 254.905,-351.556 249.095,-365.444 270,-390 270.592,-390.696 271.21,-391.386 271.848,-392.067"/>
<polygon fill="black" stroke="black" points="269.524,-394.686 279.21,-398.979 274.315,-389.583 269.524,-394.686"/>
</g>
<!-- plsdev -->
<g id="node19" class="node"><title>plsdev</title>
<polygon fill="#777777" stroke="#777777" points="324,-381 270,-381 270,-357 324,-357 324,-381"/>
<text text-anchor="middle" x="297" y="-366.6" font-family="Helvetica,sans-Serif" font-size="10.50" fill="white">plsdev</text>
</g>
<!-- proc~setup&#45;&gt;plsdev -->
<g id="edge4" class="edge"><title>proc~setup&#45;&gt;plsdev</title>
<path fill="none" stroke="black" d="M224.967,-318.147C237.994,-327.473 256.181,-340.493 270.891,-351.024"/>
<polygon fill="black" stroke="black" points="268.916,-353.915 279.085,-356.89 272.991,-348.223 268.916,-353.915"/>
</g>
<!-- plfontld -->
<g id="node20" class="node"><title>plfontld</title>
<polygon fill="#777777" stroke="#777777" points="324,-339 270,-339 270,-315 324,-315 324,-339"/>
<text text-anchor="middle" x="297" y="-324.6" font-family="Helvetica,sans-Serif" font-size="10.50" fill="white">plfontld</text>
</g>
<!-- proc~setup&#45;&gt;plfontld -->
<g id="edge5" class="edge"><title>proc~setup&#45;&gt;plfontld</title>
<path fill="none" stroke="black" d="M234.403,-312.301C242.481,-314.228 251.507,-316.382 260.105,-318.434"/>
<polygon fill="black" stroke="black" points="259.38,-321.859 269.919,-320.776 261.005,-315.05 259.38,-321.859"/>
</g>
<!-- plsfnam -->
<g id="node21" class="node"><title>plsfnam</title>
<polygon fill="#777777" stroke="#777777" points="324,-297 270,-297 270,-273 324,-273 324,-297"/>
<text text-anchor="middle" x="297" y="-282.6" font-family="Helvetica,sans-Serif" font-size="10.50" fill="white">plsfnam</text>
</g>
<!-- proc~setup&#45;&gt;plsfnam -->
<g id="edge6" class="edge"><title>proc~setup&#45;&gt;plsfnam</title>
<path fill="none" stroke="black" d="M234.403,-299.699C242.481,-297.772 251.507,-295.618 260.105,-293.566"/>
<polygon fill="black" stroke="black" points="261.005,-296.95 269.919,-291.224 259.38,-290.141 261.005,-296.95"/>
</g>
<!-- plsfam -->
<g id="node22" class="node"><title>plsfam</title>
<polygon fill="#777777" stroke="#777777" points="324,-255 270,-255 270,-231 324,-231 324,-255"/>
<text text-anchor="middle" x="297" y="-240.6" font-family="Helvetica,sans-Serif" font-size="10.50" fill="white">plsfam</text>
</g>
<!-- proc~setup&#45;&gt;plsfam -->
<g id="edge7" class="edge"><title>proc~setup&#45;&gt;plsfam</title>
<path fill="none" stroke="black" d="M224.967,-293.853C237.994,-284.527 256.181,-271.507 270.891,-260.976"/>
<polygon fill="black" stroke="black" points="272.991,-263.777 279.085,-255.11 268.916,-258.085 272.991,-263.777"/>
</g>
<!-- plsetopt -->
<g id="node23" class="node"><title>plsetopt</title>
<polygon fill="#777777" stroke="#777777" points="324,-213 270,-213 270,-189 324,-189 324,-213"/>
<text text-anchor="middle" x="297" y="-198.6" font-family="Helvetica,sans-Serif" font-size="10.50" fill="white">plsetopt</text>
</g>
<!-- proc~setup&#45;&gt;plsetopt -->
<g id="edge8" class="edge"><title>proc~setup&#45;&gt;plsetopt</title>
<path fill="none" stroke="black" d="M224.79,-293.979C228.05,-291.234 231.292,-288.181 234,-285 254.905,-260.444 249.095,-246.556 270,-222 270.592,-221.304 271.21,-220.614 271.848,-219.933"/>
<polygon fill="black" stroke="black" points="274.315,-222.417 279.21,-213.021 269.524,-217.314 274.315,-222.417"/>
</g>
</g>
</svg>
