<?xml version="1.0" encoding="UTF-8" standalone="no"?>
<!DOCTYPE svg PUBLIC "-//W3C//DTD SVG 1.1//EN"
 "http://www.w3.org/Graphics/SVG/1.1/DTD/svg11.dtd">
<!-- Generated by graphviz version 2.38.0 (20140413.2041)
 -->
<!-- Title: proc~~doplot~~CallsGraph Pages: 1 -->
<svg width="332pt" height="578pt"
 viewBox="0.00 0.00 332.00 578.00" xmlns="http://www.w3.org/2000/svg" xmlns:xlink="http://www.w3.org/1999/xlink">
<g id="graph0" class="graph" transform="scale(1 1) rotate(0) translate(4 574)">
<title>proc~~doplot~~CallsGraph</title>
<polygon fill="white" stroke="none" points="-4,4 -4,-574 328,-574 328,4 -4,4"/>
<!-- proc~doplot -->
<g id="node1" class="node"><title>proc~doplot</title>
<polygon fill="none" stroke="black" points="54,-234 0,-234 0,-210 54,-210 54,-234"/>
<text text-anchor="middle" x="27" y="-219.6" font-family="Helvetica,sans-Serif" font-size="10.50">doPlot</text>
</g>
<!-- proc~yticks -->
<g id="node2" class="node"><title>proc~yticks</title>
<g id="a_node2"><a xlink:href="../proc/yticks.html" xlink:title="yticks">
<polygon fill="#d9534f" stroke="#d9534f" points="144,-496 90,-496 90,-472 144,-472 144,-496"/>
<text text-anchor="middle" x="117" y="-481.6" font-family="Helvetica,sans-Serif" font-size="10.50" fill="white">yticks</text>
</a>
</g>
</g>
<!-- proc~doplot&#45;&gt;proc~yticks -->
<g id="edge26" class="edge"><title>proc~doplot&#45;&gt;proc~yticks</title>
<path fill="none" stroke="black" d="M31.4002,-234.24C40.1986,-265.593 64.792,-351.232 90,-421 95.0259,-434.91 101.343,-450.257 106.491,-462.32"/>
<polygon fill="black" stroke="black" points="103.311,-463.784 110.487,-471.578 109.738,-461.01 103.311,-463.784"/>
</g>
<!-- proc~figure -->
<g id="node3" class="node"><title>proc~figure</title>
<g id="a_node3"><a xlink:href="../proc/figure.html" xlink:title="figure">
<polygon fill="#d9534f" stroke="#d9534f" points="144,-318 90,-318 90,-294 144,-294 144,-318"/>
<text text-anchor="middle" x="117" y="-303.6" font-family="Helvetica,sans-Serif" font-size="10.50" fill="white">figure</text>
</a>
</g>
</g>
<!-- proc~doplot&#45;&gt;proc~figure -->
<g id="edge27" class="edge"><title>proc~doplot&#45;&gt;proc~figure</title>
<path fill="none" stroke="black" d="M39.0423,-234.012C51.1535,-246.996 71.3541,-268.097 90,-285 90.8168,-285.74 91.6556,-286.487 92.5085,-287.234"/>
<polygon fill="black" stroke="black" points="90.4563,-290.081 100.36,-293.846 94.9658,-284.727 90.4563,-290.081"/>
</g>
<!-- proc~title -->
<g id="node4" class="node"><title>proc~title</title>
<g id="a_node4"><a xlink:href="../proc/title.html" xlink:title="title">
<polygon fill="#d9534f" stroke="#d9534f" points="144,-276 90,-276 90,-252 144,-252 144,-276"/>
<text text-anchor="middle" x="117" y="-261.6" font-family="Helvetica,sans-Serif" font-size="10.50" fill="white">title</text>
</a>
</g>
</g>
<!-- proc~doplot&#45;&gt;proc~title -->
<g id="edge28" class="edge"><title>proc~doplot&#45;&gt;proc~title</title>
<path fill="none" stroke="black" d="M53.4532,-234.148C62.2096,-238.327 72.1654,-243.079 81.5185,-247.543"/>
<polygon fill="black" stroke="black" points="80.0716,-250.73 90.604,-251.879 83.0867,-244.413 80.0716,-250.73"/>
</g>
<!-- proc~plot -->
<g id="node5" class="node"><title>proc~plot</title>
<g id="a_node5"><a xlink:href="../proc/plot.html" xlink:title="plot">
<polygon fill="#d9534f" stroke="#d9534f" points="144,-150 90,-150 90,-126 144,-126 144,-150"/>
<text text-anchor="middle" x="117" y="-135.6" font-family="Helvetica,sans-Serif" font-size="10.50" fill="white">plot</text>
</a>
</g>
</g>
<!-- proc~doplot&#45;&gt;proc~plot -->
<g id="edge29" class="edge"><title>proc~doplot&#45;&gt;proc~plot</title>
<path fill="none" stroke="black" d="M39.0423,-209.988C51.1535,-197.004 71.3541,-175.903 90,-159 90.8168,-158.26 91.6556,-157.513 92.5085,-156.766"/>
<polygon fill="black" stroke="black" points="94.9658,-159.273 100.36,-150.154 90.4563,-153.919 94.9658,-159.273"/>
</g>
<!-- interface~mixval -->
<g id="node6" class="node"><title>interface~mixval</title>
<g id="a_node6"><a xlink:href="../interface/mixval.html" xlink:title="mixval">
<polygon fill="#a7506f" stroke="#a7506f" points="144,-108 90,-108 90,-84 144,-84 144,-108"/>
<text text-anchor="middle" x="117" y="-93.6" font-family="Helvetica,sans-Serif" font-size="10.50" fill="white">mixval</text>
</a>
</g>
</g>
<!-- proc~doplot&#45;&gt;interface~mixval -->
<g id="edge30" class="edge"><title>proc~doplot&#45;&gt;interface~mixval</title>
<path fill="none" stroke="black" d="M33.4449,-209.758C42.9689,-189.177 64.1239,-146.96 90,-117 90.5973,-116.308 91.2196,-115.622 91.8614,-114.944"/>
<polygon fill="black" stroke="black" points="94.3237,-117.433 99.2451,-108.051 89.5469,-112.317 94.3237,-117.433"/>
</g>
<!-- proc~xticks -->
<g id="node7" class="node"><title>proc~xticks</title>
<g id="a_node7"><a xlink:href="../proc/xticks.html" xlink:title="xticks">
<polygon fill="#d9534f" stroke="#d9534f" points="144,-559 90,-559 90,-535 144,-535 144,-559"/>
<text text-anchor="middle" x="117" y="-544.6" font-family="Helvetica,sans-Serif" font-size="10.50" fill="white">xticks</text>
</a>
</g>
</g>
<!-- proc~doplot&#45;&gt;proc~xticks -->
<g id="edge31" class="edge"><title>proc~doplot&#45;&gt;proc~xticks</title>
<path fill="none" stroke="black" d="M29.1654,-234.017C33.3358,-273.898 49.4828,-405.01 90,-505 92.8996,-512.156 96.9754,-519.473 101.042,-525.953"/>
<polygon fill="black" stroke="black" points="98.4149,-528.326 106.854,-534.732 104.252,-524.462 98.4149,-528.326"/>
</g>
<!-- proc~ylabel -->
<g id="node8" class="node"><title>proc~ylabel</title>
<g id="a_node8"><a xlink:href="../proc/ylabel.html" xlink:title="ylabel">
<polygon fill="#d9534f" stroke="#d9534f" points="144,-234 90,-234 90,-210 144,-210 144,-234"/>
<text text-anchor="middle" x="117" y="-219.6" font-family="Helvetica,sans-Serif" font-size="10.50" fill="white">ylabel</text>
</a>
</g>
</g>
<!-- proc~doplot&#45;&gt;proc~ylabel -->
<g id="edge32" class="edge"><title>proc~doplot&#45;&gt;proc~ylabel</title>
<path fill="none" stroke="black" d="M54.4029,-222C62.3932,-222 71.3106,-222 79.8241,-222"/>
<polygon fill="black" stroke="black" points="79.919,-225.5 89.919,-222 79.919,-218.5 79.919,-225.5"/>
</g>
<!-- proc~xylim -->
<g id="node9" class="node"><title>proc~xylim</title>
<g id="a_node9"><a xlink:href="../proc/xylim.html" xlink:title="xylim">
<polygon fill="#d9534f" stroke="#d9534f" points="144,-66 90,-66 90,-42 144,-42 144,-66"/>
<text text-anchor="middle" x="117" y="-51.6" font-family="Helvetica,sans-Serif" font-size="10.50" fill="white">xylim</text>
</a>
</g>
</g>
<!-- proc~doplot&#45;&gt;proc~xylim -->
<g id="edge33" class="edge"><title>proc~doplot&#45;&gt;proc~xylim</title>
<path fill="none" stroke="black" d="M30.9222,-209.932C37.7742,-183.437 56.8513,-119.037 90,-75 90.458,-74.3916 90.9374,-73.7903 91.4348,-73.1971"/>
<polygon fill="black" stroke="black" points="94.0314,-75.5505 98.6372,-66.0092 89.0866,-70.5957 94.0314,-75.5505"/>
</g>
<!-- proc~linspace -->
<g id="node10" class="node"><title>proc~linspace</title>
<g id="a_node10"><a xlink:href="../proc/linspace.html" xlink:title="linspace">
<polygon fill="#d94e8f" stroke="#d94e8f" points="144,-24 90,-24 90,-0 144,-0 144,-24"/>
<text text-anchor="middle" x="117" y="-9.6" font-family="Helvetica,sans-Serif" font-size="10.50" fill="white">linspace</text>
</a>
</g>
</g>
<!-- proc~doplot&#45;&gt;proc~linspace -->
<g id="edge34" class="edge"><title>proc~doplot&#45;&gt;proc~linspace</title>
<path fill="none" stroke="black" d="M29.5466,-209.887C34.0675,-178.25 49.5874,-91.5441 90,-33 90.3502,-32.4926 90.7162,-31.9912 91.0959,-31.4961"/>
<polygon fill="black" stroke="black" points="93.7901,-33.7423 98.1553,-24.0885 88.7227,-28.9131 93.7901,-33.7423"/>
</g>
<!-- proc~xlabel -->
<g id="node11" class="node"><title>proc~xlabel</title>
<g id="a_node11"><a xlink:href="../proc/xlabel.html" xlink:title="xlabel">
<polygon fill="#d9534f" stroke="#d9534f" points="144,-192 90,-192 90,-168 144,-168 144,-192"/>
<text text-anchor="middle" x="117" y="-177.6" font-family="Helvetica,sans-Serif" font-size="10.50" fill="white">xlabel</text>
</a>
</g>
</g>
<!-- proc~doplot&#45;&gt;proc~xlabel -->
<g id="edge35" class="edge"><title>proc~doplot&#45;&gt;proc~xlabel</title>
<path fill="none" stroke="black" d="M53.4532,-209.852C62.2096,-205.673 72.1654,-200.921 81.5185,-196.457"/>
<polygon fill="black" stroke="black" points="83.0867,-199.587 90.604,-192.121 80.0716,-193.27 83.0867,-199.587"/>
</g>
<!-- proc~subplot -->
<g id="node12" class="node"><title>proc~subplot</title>
<g id="a_node12"><a xlink:href="../proc/subplot.html" xlink:title="subplot">
<polygon fill="#d9534f" stroke="#d9534f" points="144,-412 90,-412 90,-388 144,-388 144,-412"/>
<text text-anchor="middle" x="117" y="-397.6" font-family="Helvetica,sans-Serif" font-size="10.50" fill="white">subplot</text>
</a>
</g>
</g>
<!-- proc~doplot&#45;&gt;proc~subplot -->
<g id="edge36" class="edge"><title>proc~doplot&#45;&gt;proc~subplot</title>
<path fill="none" stroke="black" d="M34.0486,-234.235C48.8061,-264.085 86.8072,-340.951 105.415,-378.59"/>
<polygon fill="black" stroke="black" points="102.34,-380.267 109.909,-387.68 108.615,-377.164 102.34,-380.267"/>
</g>
<!-- plbox -->
<g id="node13" class="node"><title>plbox</title>
<polygon fill="#777777" stroke="#777777" points="234,-570 180,-570 180,-546 234,-546 234,-570"/>
<text text-anchor="middle" x="207" y="-555.6" font-family="Helvetica,sans-Serif" font-size="10.50" fill="white">plbox</text>
</g>
<!-- proc~yticks&#45;&gt;plbox -->
<g id="edge1" class="edge"><title>proc~yticks&#45;&gt;plbox</title>
<path fill="none" stroke="black" d="M132.187,-496.323C144.692,-507.138 163.446,-523.243 180,-537 180.979,-537.814 181.981,-538.642 182.995,-539.476"/>
<polygon fill="black" stroke="black" points="180.857,-542.249 190.819,-545.856 185.281,-536.824 180.857,-542.249"/>
</g>
<!-- pladv -->
<g id="node14" class="node"><title>pladv</title>
<polygon fill="#777777" stroke="#777777" points="234,-402 180,-402 180,-378 234,-378 234,-402"/>
<text text-anchor="middle" x="207" y="-387.6" font-family="Helvetica,sans-Serif" font-size="10.50" fill="white">pladv</text>
</g>
<!-- proc~figure&#45;&gt;pladv -->
<g id="edge8" class="edge"><title>proc~figure&#45;&gt;pladv</title>
<path fill="none" stroke="black" d="M129.042,-318.012C141.153,-330.996 161.354,-352.097 180,-369 180.817,-369.74 181.656,-370.487 182.509,-371.234"/>
<polygon fill="black" stroke="black" points="180.456,-374.081 190.36,-377.846 184.966,-368.727 180.456,-374.081"/>
</g>
<!-- pleop -->
<g id="node15" class="node"><title>pleop</title>
<polygon fill="#777777" stroke="#777777" points="234,-318 180,-318 180,-294 234,-294 234,-318"/>
<text text-anchor="middle" x="207" y="-303.6" font-family="Helvetica,sans-Serif" font-size="10.50" fill="white">pleop</text>
</g>
<!-- proc~figure&#45;&gt;pleop -->
<g id="edge9" class="edge"><title>proc~figure&#45;&gt;pleop</title>
<path fill="none" stroke="black" d="M144.403,-306C152.393,-306 161.311,-306 169.824,-306"/>
<polygon fill="black" stroke="black" points="169.919,-309.5 179.919,-306 169.919,-302.5 169.919,-309.5"/>
</g>
<!-- plssub -->
<g id="node16" class="node"><title>plssub</title>
<polygon fill="#777777" stroke="#777777" points="234,-360 180,-360 180,-336 234,-336 234,-360"/>
<text text-anchor="middle" x="207" y="-345.6" font-family="Helvetica,sans-Serif" font-size="10.50" fill="white">plssub</text>
</g>
<!-- proc~figure&#45;&gt;plssub -->
<g id="edge10" class="edge"><title>proc~figure&#45;&gt;plssub</title>
<path fill="none" stroke="black" d="M143.453,-318.148C152.21,-322.327 162.165,-327.079 171.518,-331.543"/>
<polygon fill="black" stroke="black" points="170.072,-334.73 180.604,-335.879 173.087,-328.413 170.072,-334.73"/>
</g>
<!-- proc~setup -->
<g id="node17" class="node"><title>proc~setup</title>
<g id="a_node17"><a xlink:href="../proc/setup.html" xlink:title="setup">
<polygon fill="#d9534f" stroke="#d9534f" points="234,-276 180,-276 180,-252 234,-252 234,-276"/>
<text text-anchor="middle" x="207" y="-261.6" font-family="Helvetica,sans-Serif" font-size="10.50" fill="white">setup</text>
</a>
</g>
</g>
<!-- proc~figure&#45;&gt;proc~setup -->
<g id="edge11" class="edge"><title>proc~figure&#45;&gt;proc~setup</title>
<path fill="none" stroke="black" d="M143.453,-293.852C152.21,-289.673 162.165,-284.921 171.518,-280.457"/>
<polygon fill="black" stroke="black" points="173.087,-283.587 180.604,-276.121 170.072,-277.27 173.087,-283.587"/>
</g>
<!-- plbop -->
<g id="node18" class="node"><title>plbop</title>
<polygon fill="#777777" stroke="#777777" points="234,-234 180,-234 180,-210 234,-210 234,-234"/>
<text text-anchor="middle" x="207" y="-219.6" font-family="Helvetica,sans-Serif" font-size="10.50" fill="white">plbop</text>
</g>
<!-- proc~figure&#45;&gt;plbop -->
<g id="edge12" class="edge"><title>proc~figure&#45;&gt;plbop</title>
<path fill="none" stroke="black" d="M134.068,-293.786C137.448,-291.008 140.92,-287.991 144,-285 161.637,-267.871 162.363,-260.129 180,-243 180.674,-242.346 181.366,-241.69 182.073,-241.036"/>
<polygon fill="black" stroke="black" points="184.674,-243.413 189.932,-234.214 180.086,-238.126 184.674,-243.413"/>
</g>
<!-- plmtex -->
<g id="node25" class="node"><title>plmtex</title>
<polygon fill="#777777" stroke="#777777" points="234,-192 180,-192 180,-168 234,-168 234,-192"/>
<text text-anchor="middle" x="207" y="-177.6" font-family="Helvetica,sans-Serif" font-size="10.50" fill="white">plmtex</text>
</g>
<!-- proc~title&#45;&gt;plmtex -->
<g id="edge13" class="edge"><title>proc~title&#45;&gt;plmtex</title>
<path fill="none" stroke="black" d="M134.068,-251.786C137.448,-249.008 140.92,-245.991 144,-243 161.637,-225.871 162.363,-218.129 180,-201 180.674,-200.346 181.366,-199.69 182.073,-199.036"/>
<polygon fill="black" stroke="black" points="184.674,-201.413 189.932,-192.214 180.086,-196.126 184.674,-201.413"/>
</g>
<!-- plssym -->
<g id="node26" class="node"><title>plssym</title>
<polygon fill="#777777" stroke="#777777" points="234,-150 180,-150 180,-126 234,-126 234,-150"/>
<text text-anchor="middle" x="207" y="-135.6" font-family="Helvetica,sans-Serif" font-size="10.50" fill="white">plssym</text>
</g>
<!-- proc~plot&#45;&gt;plssym -->
<g id="edge14" class="edge"><title>proc~plot&#45;&gt;plssym</title>
<path fill="none" stroke="black" d="M144.403,-138C152.393,-138 161.311,-138 169.824,-138"/>
<polygon fill="black" stroke="black" points="169.919,-141.5 179.919,-138 169.919,-134.5 169.919,-141.5"/>
</g>
<!-- plline -->
<g id="node27" class="node"><title>plline</title>
<polygon fill="#777777" stroke="#777777" points="234,-108 180,-108 180,-84 234,-84 234,-108"/>
<text text-anchor="middle" x="207" y="-93.6" font-family="Helvetica,sans-Serif" font-size="10.50" fill="white">plline</text>
</g>
<!-- proc~plot&#45;&gt;plline -->
<g id="edge15" class="edge"><title>proc~plot&#45;&gt;plline</title>
<path fill="none" stroke="black" d="M143.453,-125.852C152.21,-121.673 162.165,-116.921 171.518,-112.457"/>
<polygon fill="black" stroke="black" points="173.087,-115.587 180.604,-108.121 170.072,-109.27 173.087,-115.587"/>
</g>
<!-- plptex -->
<g id="node28" class="node"><title>plptex</title>
<polygon fill="#777777" stroke="#777777" points="234,-66 180,-66 180,-42 234,-42 234,-66"/>
<text text-anchor="middle" x="207" y="-51.6" font-family="Helvetica,sans-Serif" font-size="10.50" fill="white">plptex</text>
</g>
<!-- proc~plot&#45;&gt;plptex -->
<g id="edge16" class="edge"><title>proc~plot&#45;&gt;plptex</title>
<path fill="none" stroke="black" d="M134.068,-125.786C137.448,-123.008 140.92,-119.991 144,-117 161.637,-99.8712 162.363,-92.1288 180,-75 180.674,-74.3456 181.366,-73.69 182.073,-73.036"/>
<polygon fill="black" stroke="black" points="184.674,-75.4125 189.932,-66.2144 180.086,-70.1261 184.674,-75.4125"/>
</g>
<!-- proc~xticks&#45;&gt;plbox -->
<g id="edge17" class="edge"><title>proc~xticks&#45;&gt;plbox</title>
<path fill="none" stroke="black" d="M144.403,-550.3C152.393,-551.299 161.311,-552.414 169.824,-553.478"/>
<polygon fill="black" stroke="black" points="169.562,-556.972 179.919,-554.74 170.43,-550.026 169.562,-556.972"/>
</g>
<!-- proc~ylabel&#45;&gt;plmtex -->
<g id="edge18" class="edge"><title>proc~ylabel&#45;&gt;plmtex</title>
<path fill="none" stroke="black" d="M143.453,-209.852C152.21,-205.673 162.165,-200.921 171.518,-196.457"/>
<polygon fill="black" stroke="black" points="173.087,-199.587 180.604,-192.121 170.072,-193.27 173.087,-199.587"/>
</g>
<!-- plwind -->
<g id="node29" class="node"><title>plwind</title>
<polygon fill="#777777" stroke="#777777" points="234,-24 180,-24 180,-0 234,-0 234,-24"/>
<text text-anchor="middle" x="207" y="-9.6" font-family="Helvetica,sans-Serif" font-size="10.50" fill="white">plwind</text>
</g>
<!-- proc~xylim&#45;&gt;plwind -->
<g id="edge19" class="edge"><title>proc~xylim&#45;&gt;plwind</title>
<path fill="none" stroke="black" d="M143.453,-41.8519C152.21,-37.6727 162.165,-32.9211 171.518,-28.4571"/>
<polygon fill="black" stroke="black" points="173.087,-31.5869 180.604,-24.1208 170.072,-25.2695 173.087,-31.5869"/>
</g>
<!-- proc~xlabel&#45;&gt;plmtex -->
<g id="edge20" class="edge"><title>proc~xlabel&#45;&gt;plmtex</title>
<path fill="none" stroke="black" d="M144.403,-180C152.393,-180 161.311,-180 169.824,-180"/>
<polygon fill="black" stroke="black" points="169.919,-183.5 179.919,-180 169.919,-176.5 169.919,-183.5"/>
</g>
<!-- proc~subplot&#45;&gt;pladv -->
<g id="edge25" class="edge"><title>proc~subplot&#45;&gt;pladv</title>
<path fill="none" stroke="black" d="M144.403,-397C152.393,-396.092 161.311,-395.078 169.824,-394.111"/>
<polygon fill="black" stroke="black" points="170.378,-397.571 179.919,-392.964 169.588,-390.615 170.378,-397.571"/>
</g>
<!-- proc~subplot&#45;&gt;plssub -->
<g id="edge23" class="edge"><title>proc~subplot&#45;&gt;plssub</title>
<path fill="none" stroke="black" d="M138.41,-387.939C149.768,-381.228 164.104,-372.757 176.647,-365.345"/>
<polygon fill="black" stroke="black" points="178.567,-368.276 185.396,-360.175 175.006,-362.249 178.567,-368.276"/>
</g>
<!-- plvasp -->
<g id="node30" class="node"><title>plvasp</title>
<polygon fill="#777777" stroke="#777777" points="234,-528 180,-528 180,-504 234,-504 234,-528"/>
<text text-anchor="middle" x="207" y="-513.6" font-family="Helvetica,sans-Serif" font-size="10.50" fill="white">plvasp</text>
</g>
<!-- proc~subplot&#45;&gt;plvasp -->
<g id="edge21" class="edge"><title>proc~subplot&#45;&gt;plvasp</title>
<path fill="none" stroke="black" d="M124.355,-412.246C134.537,-431.204 155.836,-468.259 180,-495 180.613,-495.678 181.248,-496.352 181.902,-497.02"/>
<polygon fill="black" stroke="black" points="179.618,-499.674 189.354,-503.853 184.349,-494.515 179.618,-499.674"/>
</g>
<!-- plvpor -->
<g id="node31" class="node"><title>plvpor</title>
<polygon fill="#777777" stroke="#777777" points="234,-486 180,-486 180,-462 234,-462 234,-486"/>
<text text-anchor="middle" x="207" y="-471.6" font-family="Helvetica,sans-Serif" font-size="10.50" fill="white">plvpor</text>
</g>
<!-- proc~subplot&#45;&gt;plvpor -->
<g id="edge22" class="edge"><title>proc~subplot&#45;&gt;plvpor</title>
<path fill="none" stroke="black" d="M132.187,-412.323C144.692,-423.138 163.446,-439.243 180,-453 180.979,-453.814 181.981,-454.642 182.995,-455.476"/>
<polygon fill="black" stroke="black" points="180.857,-458.249 190.819,-461.856 185.281,-452.824 180.857,-458.249"/>
</g>
<!-- plvsta -->
<g id="node32" class="node"><title>plvsta</title>
<polygon fill="#777777" stroke="#777777" points="234,-444 180,-444 180,-420 234,-420 234,-444"/>
<text text-anchor="middle" x="207" y="-429.6" font-family="Helvetica,sans-Serif" font-size="10.50" fill="white">plvsta</text>
</g>
<!-- proc~subplot&#45;&gt;plvsta -->
<g id="edge24" class="edge"><title>proc~subplot&#45;&gt;plvsta</title>
<path fill="none" stroke="black" d="M144.403,-409.601C152.569,-412.57 161.703,-415.892 170.385,-419.049"/>
<polygon fill="black" stroke="black" points="169.325,-422.388 179.919,-422.516 171.717,-415.809 169.325,-422.388"/>
</g>
<!-- figsize -->
<g id="node19" class="node"><title>figsize</title>
<polygon fill="#777777" stroke="#777777" points="324,-381 270,-381 270,-357 324,-357 324,-381"/>
<text text-anchor="middle" x="297" y="-366.6" font-family="Helvetica,sans-Serif" font-size="10.50" fill="white">figsize</text>
</g>
<!-- proc~setup&#45;&gt;figsize -->
<g id="edge2" class="edge"><title>proc~setup&#45;&gt;figsize</title>
<path fill="none" stroke="black" d="M224.79,-276.021C228.05,-278.766 231.292,-281.819 234,-285 254.905,-309.556 249.095,-323.444 270,-348 270.592,-348.696 271.21,-349.386 271.848,-350.067"/>
<polygon fill="black" stroke="black" points="269.524,-352.686 279.21,-356.979 274.315,-347.583 269.524,-352.686"/>
</g>
<!-- plsdev -->
<g id="node20" class="node"><title>plsdev</title>
<polygon fill="#777777" stroke="#777777" points="324,-339 270,-339 270,-315 324,-315 324,-339"/>
<text text-anchor="middle" x="297" y="-324.6" font-family="Helvetica,sans-Serif" font-size="10.50" fill="white">plsdev</text>
</g>
<!-- proc~setup&#45;&gt;plsdev -->
<g id="edge3" class="edge"><title>proc~setup&#45;&gt;plsdev</title>
<path fill="none" stroke="black" d="M224.967,-276.147C237.994,-285.473 256.181,-298.493 270.891,-309.024"/>
<polygon fill="black" stroke="black" points="268.916,-311.915 279.085,-314.89 272.991,-306.223 268.916,-311.915"/>
</g>
<!-- plfontld -->
<g id="node21" class="node"><title>plfontld</title>
<polygon fill="#777777" stroke="#777777" points="324,-297 270,-297 270,-273 324,-273 324,-297"/>
<text text-anchor="middle" x="297" y="-282.6" font-family="Helvetica,sans-Serif" font-size="10.50" fill="white">plfontld</text>
</g>
<!-- proc~setup&#45;&gt;plfontld -->
<g id="edge4" class="edge"><title>proc~setup&#45;&gt;plfontld</title>
<path fill="none" stroke="black" d="M234.403,-270.301C242.481,-272.228 251.507,-274.382 260.105,-276.434"/>
<polygon fill="black" stroke="black" points="259.38,-279.859 269.919,-278.776 261.005,-273.05 259.38,-279.859"/>
</g>
<!-- plsfnam -->
<g id="node22" class="node"><title>plsfnam</title>
<polygon fill="#777777" stroke="#777777" points="324,-255 270,-255 270,-231 324,-231 324,-255"/>
<text text-anchor="middle" x="297" y="-240.6" font-family="Helvetica,sans-Serif" font-size="10.50" fill="white">plsfnam</text>
</g>
<!-- proc~setup&#45;&gt;plsfnam -->
<g id="edge5" class="edge"><title>proc~setup&#45;&gt;plsfnam</title>
<path fill="none" stroke="black" d="M234.403,-257.699C242.481,-255.772 251.507,-253.618 260.105,-251.566"/>
<polygon fill="black" stroke="black" points="261.005,-254.95 269.919,-249.224 259.38,-248.141 261.005,-254.95"/>
</g>
<!-- plsfam -->
<g id="node23" class="node"><title>plsfam</title>
<polygon fill="#777777" stroke="#777777" points="324,-213 270,-213 270,-189 324,-189 324,-213"/>
<text text-anchor="middle" x="297" y="-198.6" font-family="Helvetica,sans-Serif" font-size="10.50" fill="white">plsfam</text>
</g>
<!-- proc~setup&#45;&gt;plsfam -->
<g id="edge6" class="edge"><title>proc~setup&#45;&gt;plsfam</title>
<path fill="none" stroke="black" d="M224.967,-251.853C237.994,-242.527 256.181,-229.507 270.891,-218.976"/>
<polygon fill="black" stroke="black" points="272.991,-221.777 279.085,-213.11 268.916,-216.085 272.991,-221.777"/>
</g>
<!-- plsetopt -->
<g id="node24" class="node"><title>plsetopt</title>
<polygon fill="#777777" stroke="#777777" points="324,-171 270,-171 270,-147 324,-147 324,-171"/>
<text text-anchor="middle" x="297" y="-156.6" font-family="Helvetica,sans-Serif" font-size="10.50" fill="white">plsetopt</text>
</g>
<!-- proc~setup&#45;&gt;plsetopt -->
<g id="edge7" class="edge"><title>proc~setup&#45;&gt;plsetopt</title>
<path fill="none" stroke="black" d="M224.79,-251.979C228.05,-249.234 231.292,-246.181 234,-243 254.905,-218.444 249.095,-204.556 270,-180 270.592,-179.304 271.21,-178.614 271.848,-177.933"/>
<polygon fill="black" stroke="black" points="274.315,-180.417 279.21,-171.021 269.524,-175.314 274.315,-180.417"/>
</g>
</g>
</svg>
