<?xml version="1.0" encoding="UTF-8" standalone="no"?>
<!DOCTYPE svg PUBLIC "-//W3C//DTD SVG 1.1//EN"
 "http://www.w3.org/Graphics/SVG/1.1/DTD/svg11.dtd">
<!-- Generated by graphviz version 2.38.0 (20140413.2041)
 -->
<!-- Title: proc~~doquiver~~CallsGraph Pages: 1 -->
<svg width="340pt" height="683pt"
 viewBox="0.00 0.00 340.00 683.00" xmlns="http://www.w3.org/2000/svg" xmlns:xlink="http://www.w3.org/1999/xlink">
<g id="graph0" class="graph" transform="scale(1 1) rotate(0) translate(4 679)">
<title>proc~~doquiver~~CallsGraph</title>
<polygon fill="white" stroke="none" points="-4,4 -4,-679 336,-679 336,4 -4,4"/>
<!-- proc~doquiver -->
<g id="node1" class="node"><title>proc~doquiver</title>
<polygon fill="none" stroke="black" points="56,-467 0,-467 0,-443 56,-443 56,-467"/>
<text text-anchor="middle" x="28" y="-452.6" font-family="Helvetica,sans-Serif" font-size="10.50">doQuiver</text>
</g>
<!-- proc~labels -->
<g id="node2" class="node"><title>proc~labels</title>
<g id="a_node2"><a xlink:href="../proc/labels.html" xlink:title="labels">
<polygon fill="#d9534f" stroke="#d9534f" points="146,-673 92,-673 92,-649 146,-649 146,-673"/>
<text text-anchor="middle" x="119" y="-658.6" font-family="Helvetica,sans-Serif" font-size="10.50" fill="white">labels</text>
</a>
</g>
</g>
<!-- proc~doquiver&#45;&gt;proc~labels -->
<g id="edge24" class="edge"><title>proc~doquiver&#45;&gt;proc~labels</title>
<path fill="none" stroke="black" d="M31.12,-467.412C36.8243,-498.239 54.6581,-579.918 92,-637 92.9711,-638.484 94.0538,-639.939 95.2108,-641.352"/>
<polygon fill="black" stroke="black" points="92.9609,-644.066 102.386,-648.904 98.0354,-639.244 92.9609,-644.066"/>
</g>
<!-- proc~ticks -->
<g id="node3" class="node"><title>proc~ticks</title>
<g id="a_node3"><a xlink:href="../proc/ticks.html" xlink:title="ticks">
<polygon fill="#d9534f" stroke="#d9534f" points="146,-628 92,-628 92,-604 146,-604 146,-628"/>
<text text-anchor="middle" x="119" y="-613.6" font-family="Helvetica,sans-Serif" font-size="10.50" fill="white">ticks</text>
</a>
</g>
</g>
<!-- proc~doquiver&#45;&gt;proc~ticks -->
<g id="edge25" class="edge"><title>proc~doquiver&#45;&gt;proc~ticks</title>
<path fill="none" stroke="black" d="M33.9378,-467.093C43.6482,-490.343 66.5133,-542.559 92,-583 94.7246,-587.323 97.9053,-591.752 101.088,-595.904"/>
<polygon fill="black" stroke="black" points="98.5082,-598.283 107.48,-603.918 103.981,-593.918 98.5082,-598.283"/>
</g>
<!-- proc~quiver -->
<g id="node4" class="node"><title>proc~quiver</title>
<g id="a_node4"><a xlink:href="../proc/quiver.html" xlink:title="quiver">
<polygon fill="#d9534f" stroke="#d9534f" points="146,-530 92,-530 92,-506 146,-506 146,-530"/>
<text text-anchor="middle" x="119" y="-515.6" font-family="Helvetica,sans-Serif" font-size="10.50" fill="white">quiver</text>
</a>
</g>
</g>
<!-- proc~doquiver&#45;&gt;proc~quiver -->
<g id="edge26" class="edge"><title>proc~doquiver&#45;&gt;proc~quiver</title>
<path fill="none" stroke="black" d="M46.1601,-467.147C59.3344,-476.473 77.7283,-489.493 92.6055,-500.024"/>
<polygon fill="black" stroke="black" points="90.7083,-502.969 100.893,-505.89 94.7527,-497.256 90.7083,-502.969"/>
</g>
<!-- interface~mixval -->
<g id="node5" class="node"><title>interface~mixval</title>
<g id="a_node5"><a xlink:href="../interface/mixval.html" xlink:title="mixval">
<polygon fill="#a7506f" stroke="#a7506f" points="239,-591 185,-591 185,-567 239,-567 239,-591"/>
<text text-anchor="middle" x="212" y="-576.6" font-family="Helvetica,sans-Serif" font-size="10.50" fill="white">mixval</text>
</a>
</g>
</g>
<!-- proc~doquiver&#45;&gt;interface~mixval -->
<g id="edge27" class="edge"><title>proc~doquiver&#45;&gt;interface~mixval</title>
<path fill="none" stroke="black" d="M35.0084,-467.127C44.6119,-485.309 65.1098,-519.567 92,-539 116.687,-556.841 149.882,-567.123 174.94,-572.783"/>
<polygon fill="black" stroke="black" points="174.283,-576.221 184.79,-574.866 175.731,-569.372 174.283,-576.221"/>
</g>
<!-- proc~colorbar -->
<g id="node6" class="node"><title>proc~colorbar</title>
<g id="a_node6"><a xlink:href="../proc/colorbar.html" xlink:title="colorbar">
<polygon fill="#d9534f" stroke="#d9534f" points="146,-467 92,-467 92,-443 146,-443 146,-467"/>
<text text-anchor="middle" x="119" y="-452.6" font-family="Helvetica,sans-Serif" font-size="10.50" fill="white">colorbar</text>
</a>
</g>
</g>
<!-- proc~doquiver&#45;&gt;proc~colorbar -->
<g id="edge28" class="edge"><title>proc~doquiver&#45;&gt;proc~colorbar</title>
<path fill="none" stroke="black" d="M56.1865,-455C64.2547,-455 73.2224,-455 81.7684,-455"/>
<polygon fill="black" stroke="black" points="81.8947,-458.5 91.8947,-455 81.8946,-451.5 81.8947,-458.5"/>
</g>
<!-- proc~xylim -->
<g id="node7" class="node"><title>proc~xylim</title>
<g id="a_node7"><a xlink:href="../proc/xylim.html" xlink:title="xylim">
<polygon fill="#d9534f" stroke="#d9534f" points="146,-425 92,-425 92,-401 146,-401 146,-425"/>
<text text-anchor="middle" x="119" y="-410.6" font-family="Helvetica,sans-Serif" font-size="10.50" fill="white">xylim</text>
</a>
</g>
</g>
<!-- proc~doquiver&#45;&gt;proc~xylim -->
<g id="edge29" class="edge"><title>proc~doquiver&#45;&gt;proc~xylim</title>
<path fill="none" stroke="black" d="M54.7425,-442.852C63.5983,-438.673 73.6672,-433.921 83.1267,-429.457"/>
<polygon fill="black" stroke="black" points="84.7655,-432.554 92.3154,-425.121 81.778,-426.223 84.7655,-432.554"/>
</g>
<!-- proc~linspace -->
<g id="node8" class="node"><title>proc~linspace</title>
<g id="a_node8"><a xlink:href="../proc/linspace.html" xlink:title="linspace">
<polygon fill="#d94e8f" stroke="#d94e8f" points="146,-383 92,-383 92,-359 146,-359 146,-383"/>
<text text-anchor="middle" x="119" y="-368.6" font-family="Helvetica,sans-Serif" font-size="10.50" fill="white">linspace</text>
</a>
</g>
</g>
<!-- proc~doquiver&#45;&gt;proc~linspace -->
<g id="edge30" class="edge"><title>proc~doquiver&#45;&gt;proc~linspace</title>
<path fill="none" stroke="black" d="M40.708,-442.533C53.0884,-429.533 73.3676,-408.755 92,-392 92.8197,-391.263 93.661,-390.519 94.5161,-389.775"/>
<polygon fill="black" stroke="black" points="96.9701,-392.284 102.377,-383.173 92.4684,-386.924 96.9701,-392.284"/>
</g>
<!-- proc~subplot -->
<g id="node9" class="node"><title>proc~subplot</title>
<g id="a_node9"><a xlink:href="../proc/subplot.html" xlink:title="subplot">
<polygon fill="#d9534f" stroke="#d9534f" points="146,-318 92,-318 92,-294 146,-294 146,-318"/>
<text text-anchor="middle" x="119" y="-303.6" font-family="Helvetica,sans-Serif" font-size="10.50" fill="white">subplot</text>
</a>
</g>
</g>
<!-- proc~doquiver&#45;&gt;proc~subplot -->
<g id="edge31" class="edge"><title>proc~doquiver&#45;&gt;proc~subplot</title>
<path fill="none" stroke="black" d="M36.2832,-442.807C51.4078,-417.486 86.3819,-358.934 105.3,-327.262"/>
<polygon fill="black" stroke="black" points="108.493,-328.742 110.616,-318.362 102.483,-325.152 108.493,-328.742"/>
</g>
<!-- proc~figure -->
<g id="node10" class="node"><title>proc~figure</title>
<g id="a_node10"><a xlink:href="../proc/figure.html" xlink:title="figure">
<polygon fill="#d9534f" stroke="#d9534f" points="146,-192 92,-192 92,-168 146,-168 146,-192"/>
<text text-anchor="middle" x="119" y="-177.6" font-family="Helvetica,sans-Serif" font-size="10.50" fill="white">figure</text>
</a>
</g>
</g>
<!-- proc~doquiver&#45;&gt;proc~figure -->
<g id="edge32" class="edge"><title>proc~doquiver&#45;&gt;proc~figure</title>
<path fill="none" stroke="black" d="M32.9391,-442.829C46.7529,-400.146 93.1211,-256.873 110.941,-201.811"/>
<polygon fill="black" stroke="black" points="114.357,-202.623 114.106,-192.031 107.697,-200.467 114.357,-202.623"/>
</g>
<!-- pllab -->
<g id="node11" class="node"><title>pllab</title>
<polygon fill="#777777" stroke="#777777" points="239,-675 185,-675 185,-651 239,-651 239,-675"/>
<text text-anchor="middle" x="212" y="-660.6" font-family="Helvetica,sans-Serif" font-size="10.50" fill="white">pllab</text>
</g>
<!-- proc~labels&#45;&gt;pllab -->
<g id="edge1" class="edge"><title>proc~labels&#45;&gt;pllab</title>
<path fill="none" stroke="black" d="M146.321,-661.578C155.187,-661.773 165.243,-661.994 174.738,-662.203"/>
<polygon fill="black" stroke="black" points="174.664,-665.702 184.738,-662.423 174.818,-658.704 174.664,-665.702"/>
</g>
<!-- plbox -->
<g id="node12" class="node"><title>plbox</title>
<polygon fill="#777777" stroke="#777777" points="239,-633 185,-633 185,-609 239,-609 239,-633"/>
<text text-anchor="middle" x="212" y="-618.6" font-family="Helvetica,sans-Serif" font-size="10.50" fill="white">plbox</text>
</g>
<!-- proc~ticks&#45;&gt;plbox -->
<g id="edge2" class="edge"><title>proc~ticks&#45;&gt;plbox</title>
<path fill="none" stroke="black" d="M146.321,-617.446C155.187,-617.933 165.243,-618.486 174.738,-619.008"/>
<polygon fill="black" stroke="black" points="174.561,-622.503 184.738,-619.557 174.945,-615.514 174.561,-622.503"/>
</g>
<!-- proc~quiver&#45;&gt;interface~mixval -->
<g id="edge4" class="edge"><title>proc~quiver&#45;&gt;interface~mixval</title>
<path fill="none" stroke="black" d="M137.979,-530.052C151.315,-538.991 169.704,-551.318 184.691,-561.364"/>
<polygon fill="black" stroke="black" points="182.803,-564.313 193.059,-566.973 186.701,-558.498 182.803,-564.313"/>
</g>
<!-- plvect -->
<g id="node13" class="node"><title>plvect</title>
<polygon fill="#777777" stroke="#777777" points="239,-507 185,-507 185,-483 239,-483 239,-507"/>
<text text-anchor="middle" x="212" y="-492.6" font-family="Helvetica,sans-Serif" font-size="10.50" fill="white">plvect</text>
</g>
<!-- proc~quiver&#45;&gt;plvect -->
<g id="edge3" class="edge"><title>proc~quiver&#45;&gt;plvect</title>
<path fill="none" stroke="black" d="M146.321,-511.347C155.281,-509.083 165.457,-506.511 175.041,-504.089"/>
<polygon fill="black" stroke="black" points="175.901,-507.481 184.738,-501.638 174.185,-500.695 175.901,-507.481"/>
</g>
<!-- plcol1 -->
<g id="node14" class="node"><title>plcol1</title>
<polygon fill="#777777" stroke="#777777" points="239,-549 185,-549 185,-525 239,-525 239,-549"/>
<text text-anchor="middle" x="212" y="-534.6" font-family="Helvetica,sans-Serif" font-size="10.50" fill="white">plcol1</text>
</g>
<!-- proc~quiver&#45;&gt;plcol1 -->
<g id="edge5" class="edge"><title>proc~quiver&#45;&gt;plcol1</title>
<path fill="none" stroke="black" d="M146.321,-523.496C155.187,-525.347 165.243,-527.446 174.738,-529.429"/>
<polygon fill="black" stroke="black" points="174.234,-532.899 184.738,-531.517 175.665,-526.047 174.234,-532.899"/>
</g>
<!-- plcolorbar -->
<g id="node15" class="node"><title>plcolorbar</title>
<polygon fill="#777777" stroke="#777777" points="242,-465 182,-465 182,-441 242,-441 242,-465"/>
<text text-anchor="middle" x="212" y="-450.6" font-family="Helvetica,sans-Serif" font-size="10.50" fill="white">plcolorbar</text>
</g>
<!-- proc~colorbar&#45;&gt;plcolorbar -->
<g id="edge6" class="edge"><title>proc~colorbar&#45;&gt;plcolorbar</title>
<path fill="none" stroke="black" d="M146.321,-454.422C154.232,-454.248 163.091,-454.053 171.653,-453.865"/>
<polygon fill="black" stroke="black" points="171.946,-457.359 181.867,-453.64 171.792,-450.361 171.946,-457.359"/>
</g>
<!-- plwind -->
<g id="node16" class="node"><title>plwind</title>
<polygon fill="#777777" stroke="#777777" points="239,-423 185,-423 185,-399 239,-399 239,-423"/>
<text text-anchor="middle" x="212" y="-408.6" font-family="Helvetica,sans-Serif" font-size="10.50" fill="white">plwind</text>
</g>
<!-- proc~xylim&#45;&gt;plwind -->
<g id="edge7" class="edge"><title>proc~xylim&#45;&gt;plwind</title>
<path fill="none" stroke="black" d="M146.321,-412.422C155.187,-412.227 165.243,-412.006 174.738,-411.797"/>
<polygon fill="black" stroke="black" points="174.818,-415.296 184.738,-411.577 174.664,-408.298 174.818,-415.296"/>
</g>
<!-- plvasp -->
<g id="node17" class="node"><title>plvasp</title>
<polygon fill="#777777" stroke="#777777" points="239,-381 185,-381 185,-357 239,-357 239,-381"/>
<text text-anchor="middle" x="212" y="-366.6" font-family="Helvetica,sans-Serif" font-size="10.50" fill="white">plvasp</text>
</g>
<!-- proc~subplot&#45;&gt;plvasp -->
<g id="edge8" class="edge"><title>proc~subplot&#45;&gt;plvasp</title>
<path fill="none" stroke="black" d="M137.546,-318.147C151.016,-327.473 169.823,-340.493 185.035,-351.024"/>
<polygon fill="black" stroke="black" points="183.294,-354.076 193.508,-356.89 187.278,-348.32 183.294,-354.076"/>
</g>
<!-- plvpor -->
<g id="node18" class="node"><title>plvpor</title>
<polygon fill="#777777" stroke="#777777" points="239,-339 185,-339 185,-315 239,-315 239,-339"/>
<text text-anchor="middle" x="212" y="-324.6" font-family="Helvetica,sans-Serif" font-size="10.50" fill="white">plvpor</text>
</g>
<!-- proc~subplot&#45;&gt;plvpor -->
<g id="edge9" class="edge"><title>proc~subplot&#45;&gt;plvpor</title>
<path fill="none" stroke="black" d="M146.321,-312.074C155.187,-314.12 165.243,-316.441 174.738,-318.632"/>
<polygon fill="black" stroke="black" points="174.207,-322.101 184.738,-320.94 175.781,-315.281 174.207,-322.101"/>
</g>
<!-- plssub -->
<g id="node19" class="node"><title>plssub</title>
<polygon fill="#777777" stroke="#777777" points="239,-213 185,-213 185,-189 239,-189 239,-213"/>
<text text-anchor="middle" x="212" y="-198.6" font-family="Helvetica,sans-Serif" font-size="10.50" fill="white">plssub</text>
</g>
<!-- proc~subplot&#45;&gt;plssub -->
<g id="edge10" class="edge"><title>proc~subplot&#45;&gt;plssub</title>
<path fill="none" stroke="black" d="M127.198,-293.971C137.824,-276.806 158.954,-244.837 182,-222 182.795,-221.212 183.621,-220.432 184.471,-219.661"/>
<polygon fill="black" stroke="black" points="187.001,-222.113 192.518,-213.069 182.565,-216.698 187.001,-222.113"/>
</g>
<!-- plvsta -->
<g id="node20" class="node"><title>plvsta</title>
<polygon fill="#777777" stroke="#777777" points="239,-297 185,-297 185,-273 239,-273 239,-297"/>
<text text-anchor="middle" x="212" y="-282.6" font-family="Helvetica,sans-Serif" font-size="10.50" fill="white">plvsta</text>
</g>
<!-- proc~subplot&#45;&gt;plvsta -->
<g id="edge11" class="edge"><title>proc~subplot&#45;&gt;plvsta</title>
<path fill="none" stroke="black" d="M146.321,-299.926C155.187,-297.88 165.243,-295.559 174.738,-293.368"/>
<polygon fill="black" stroke="black" points="175.781,-296.719 184.738,-291.06 174.207,-289.899 175.781,-296.719"/>
</g>
<!-- pladv -->
<g id="node21" class="node"><title>pladv</title>
<polygon fill="#777777" stroke="#777777" points="239,-255 185,-255 185,-231 239,-231 239,-255"/>
<text text-anchor="middle" x="212" y="-240.6" font-family="Helvetica,sans-Serif" font-size="10.50" fill="white">pladv</text>
</g>
<!-- proc~subplot&#45;&gt;pladv -->
<g id="edge12" class="edge"><title>proc~subplot&#45;&gt;pladv</title>
<path fill="none" stroke="black" d="M137.546,-293.853C151.016,-284.527 169.823,-271.507 185.035,-260.976"/>
<polygon fill="black" stroke="black" points="187.278,-263.68 193.508,-255.11 183.294,-257.924 187.278,-263.68"/>
</g>
<!-- proc~figure&#45;&gt;plssub -->
<g id="edge21" class="edge"><title>proc~figure&#45;&gt;plssub</title>
<path fill="none" stroke="black" d="M146.321,-186.074C155.187,-188.12 165.243,-190.441 174.738,-192.632"/>
<polygon fill="black" stroke="black" points="174.207,-196.101 184.738,-194.94 175.781,-189.281 174.207,-196.101"/>
</g>
<!-- proc~figure&#45;&gt;pladv -->
<g id="edge19" class="edge"><title>proc~figure&#45;&gt;pladv</title>
<path fill="none" stroke="black" d="M137.546,-192.147C151.016,-201.473 169.823,-214.493 185.035,-225.024"/>
<polygon fill="black" stroke="black" points="183.294,-228.076 193.508,-230.89 187.278,-222.32 183.294,-228.076"/>
</g>
<!-- pleop -->
<g id="node22" class="node"><title>pleop</title>
<polygon fill="#777777" stroke="#777777" points="239,-171 185,-171 185,-147 239,-147 239,-171"/>
<text text-anchor="middle" x="212" y="-156.6" font-family="Helvetica,sans-Serif" font-size="10.50" fill="white">pleop</text>
</g>
<!-- proc~figure&#45;&gt;pleop -->
<g id="edge20" class="edge"><title>proc~figure&#45;&gt;pleop</title>
<path fill="none" stroke="black" d="M146.321,-173.926C155.187,-171.88 165.243,-169.559 174.738,-167.368"/>
<polygon fill="black" stroke="black" points="175.781,-170.719 184.738,-165.06 174.207,-163.899 175.781,-170.719"/>
</g>
<!-- proc~setup -->
<g id="node23" class="node"><title>proc~setup</title>
<g id="a_node23"><a xlink:href="../proc/setup.html" xlink:title="setup">
<polygon fill="#d9534f" stroke="#d9534f" points="239,-129 185,-129 185,-105 239,-105 239,-129"/>
<text text-anchor="middle" x="212" y="-114.6" font-family="Helvetica,sans-Serif" font-size="10.50" fill="white">setup</text>
</a>
</g>
</g>
<!-- proc~figure&#45;&gt;proc~setup -->
<g id="edge22" class="edge"><title>proc~figure&#45;&gt;proc~setup</title>
<path fill="none" stroke="black" d="M137.546,-167.853C151.016,-158.527 169.823,-145.507 185.035,-134.976"/>
<polygon fill="black" stroke="black" points="187.278,-137.68 193.508,-129.11 183.294,-131.924 187.278,-137.68"/>
</g>
<!-- plbop -->
<g id="node24" class="node"><title>plbop</title>
<polygon fill="#777777" stroke="#777777" points="239,-87 185,-87 185,-63 239,-63 239,-87"/>
<text text-anchor="middle" x="212" y="-72.6" font-family="Helvetica,sans-Serif" font-size="10.50" fill="white">plbop</text>
</g>
<!-- proc~figure&#45;&gt;plbop -->
<g id="edge23" class="edge"><title>proc~figure&#45;&gt;plbop</title>
<path fill="none" stroke="black" d="M127.198,-167.971C137.824,-150.806 158.954,-118.837 182,-96 182.795,-95.2124 183.621,-94.4318 184.471,-93.661"/>
<polygon fill="black" stroke="black" points="187.001,-96.1131 192.518,-87.0686 182.565,-90.698 187.001,-96.1131"/>
</g>
<!-- figsize -->
<g id="node25" class="node"><title>figsize</title>
<polygon fill="#777777" stroke="#777777" points="332,-234 278,-234 278,-210 332,-210 332,-234"/>
<text text-anchor="middle" x="305" y="-219.6" font-family="Helvetica,sans-Serif" font-size="10.50" fill="white">figsize</text>
</g>
<!-- proc~setup&#45;&gt;figsize -->
<g id="edge13" class="edge"><title>proc~setup&#45;&gt;figsize</title>
<path fill="none" stroke="black" d="M232.077,-129.021C235.608,-131.725 239.093,-134.762 242,-138 263.544,-161.997 257.095,-176.444 278,-201 278.592,-201.696 279.21,-202.386 279.848,-203.067"/>
<polygon fill="black" stroke="black" points="277.524,-205.686 287.21,-209.979 282.315,-200.583 277.524,-205.686"/>
</g>
<!-- plsdev -->
<g id="node26" class="node"><title>plsdev</title>
<polygon fill="#777777" stroke="#777777" points="332,-192 278,-192 278,-168 332,-168 332,-192"/>
<text text-anchor="middle" x="305" y="-177.6" font-family="Helvetica,sans-Serif" font-size="10.50" fill="white">plsdev</text>
</g>
<!-- proc~setup&#45;&gt;plsdev -->
<g id="edge14" class="edge"><title>proc~setup&#45;&gt;plsdev</title>
<path fill="none" stroke="black" d="M230.546,-129.147C244.016,-138.473 262.823,-151.493 278.035,-162.024"/>
<polygon fill="black" stroke="black" points="276.294,-165.076 286.508,-167.89 280.278,-159.32 276.294,-165.076"/>
</g>
<!-- plfontld -->
<g id="node27" class="node"><title>plfontld</title>
<polygon fill="#777777" stroke="#777777" points="332,-150 278,-150 278,-126 332,-126 332,-150"/>
<text text-anchor="middle" x="305" y="-135.6" font-family="Helvetica,sans-Serif" font-size="10.50" fill="white">plfontld</text>
</g>
<!-- proc~setup&#45;&gt;plfontld -->
<g id="edge15" class="edge"><title>proc~setup&#45;&gt;plfontld</title>
<path fill="none" stroke="black" d="M239.321,-123.074C248.187,-125.12 258.243,-127.441 267.738,-129.632"/>
<polygon fill="black" stroke="black" points="267.207,-133.101 277.738,-131.94 268.781,-126.281 267.207,-133.101"/>
</g>
<!-- plsfnam -->
<g id="node28" class="node"><title>plsfnam</title>
<polygon fill="#777777" stroke="#777777" points="332,-108 278,-108 278,-84 332,-84 332,-108"/>
<text text-anchor="middle" x="305" y="-93.6" font-family="Helvetica,sans-Serif" font-size="10.50" fill="white">plsfnam</text>
</g>
<!-- proc~setup&#45;&gt;plsfnam -->
<g id="edge16" class="edge"><title>proc~setup&#45;&gt;plsfnam</title>
<path fill="none" stroke="black" d="M239.321,-110.926C248.187,-108.88 258.243,-106.559 267.738,-104.368"/>
<polygon fill="black" stroke="black" points="268.781,-107.719 277.738,-102.06 267.207,-100.899 268.781,-107.719"/>
</g>
<!-- plsfam -->
<g id="node29" class="node"><title>plsfam</title>
<polygon fill="#777777" stroke="#777777" points="332,-66 278,-66 278,-42 332,-42 332,-66"/>
<text text-anchor="middle" x="305" y="-51.6" font-family="Helvetica,sans-Serif" font-size="10.50" fill="white">plsfam</text>
</g>
<!-- proc~setup&#45;&gt;plsfam -->
<g id="edge17" class="edge"><title>proc~setup&#45;&gt;plsfam</title>
<path fill="none" stroke="black" d="M230.546,-104.853C244.016,-95.5274 262.823,-82.5069 278.035,-71.9759"/>
<polygon fill="black" stroke="black" points="280.278,-74.6796 286.508,-66.1097 276.294,-68.9242 280.278,-74.6796"/>
</g>
<!-- plsetopt -->
<g id="node30" class="node"><title>plsetopt</title>
<polygon fill="#777777" stroke="#777777" points="332,-24 278,-24 278,-0 332,-0 332,-24"/>
<text text-anchor="middle" x="305" y="-9.6" font-family="Helvetica,sans-Serif" font-size="10.50" fill="white">plsetopt</text>
</g>
<!-- proc~setup&#45;&gt;plsetopt -->
<g id="edge18" class="edge"><title>proc~setup&#45;&gt;plsetopt</title>
<path fill="none" stroke="black" d="M232.077,-104.979C235.608,-102.275 239.093,-99.2378 242,-96 263.544,-72.0033 257.095,-57.5557 278,-33 278.592,-32.3041 279.21,-31.6144 279.848,-30.9327"/>
<polygon fill="black" stroke="black" points="282.315,-33.4174 287.21,-24.021 277.524,-28.3141 282.315,-33.4174"/>
</g>
</g>
</svg>
