<?xml version="1.0" encoding="UTF-8" standalone="no"?>
<!DOCTYPE svg PUBLIC "-//W3C//DTD SVG 1.1//EN"
 "http://www.w3.org/Graphics/SVG/1.1/DTD/svg11.dtd">
<!-- Generated by graphviz version 2.38.0 (20140413.2041)
 -->
<!-- Title: proc~~bindata~~CalledByGraph Pages: 1 -->
<svg width="443pt" height="52pt"
 viewBox="0.00 0.00 443.00 52.00" xmlns="http://www.w3.org/2000/svg" xmlns:xlink="http://www.w3.org/1999/xlink">
<g id="graph0" class="graph" transform="scale(1 1) rotate(0) translate(4 48)">
<title>proc~~bindata~~CalledByGraph</title>
<polygon fill="white" stroke="none" points="-4,4 -4,-48 439,-48 439,4 -4,4"/>
<!-- proc~bindata -->
<g id="node1" class="node"><title>proc~bindata</title>
<polygon fill="none" stroke="black" points="435,-44 381,-44 381,-20 435,-20 435,-44"/>
<text text-anchor="middle" x="408" y="-29.6" font-family="Helvetica,sans-Serif" font-size="10.50">binData</text>
</g>
<!-- proc~hist -->
<g id="node2" class="node"><title>proc~hist</title>
<g id="a_node2"><a xlink:href="../proc/hist.html" xlink:title="hist">
<polygon fill="#d9534f" stroke="#d9534f" points="345,-24 291,-24 291,-0 345,-0 345,-24"/>
<text text-anchor="middle" x="318" y="-9.6" font-family="Helvetica,sans-Serif" font-size="10.50" fill="white">hist</text>
</a>
</g>
</g>
<!-- proc~hist&#45;&gt;proc~bindata -->
<g id="edge4" class="edge"><title>proc~hist&#45;&gt;proc~bindata</title>
<path fill="none" stroke="black" d="M345.403,-18.0007C353.481,-19.8366 362.507,-21.8879 371.105,-23.842"/>
<polygon fill="black" stroke="black" points="370.392,-27.2692 380.919,-26.0725 371.943,-20.4432 370.392,-27.2692"/>
</g>
<!-- proc~dohist -->
<g id="node3" class="node"><title>proc~dohist</title>
<g id="a_node3"><a xlink:href="../proc/dohist.html" xlink:title="doHist">
<polygon fill="#d9534f" stroke="#d9534f" points="255,-44 201,-44 201,-20 255,-20 255,-44"/>
<text text-anchor="middle" x="228" y="-29.6" font-family="Helvetica,sans-Serif" font-size="10.50" fill="white">doHist</text>
</a>
</g>
</g>
<!-- proc~dohist&#45;&gt;proc~bindata -->
<g id="edge5" class="edge"><title>proc~dohist&#45;&gt;proc~bindata</title>
<path fill="none" stroke="black" d="M255.245,-32.5169C266.285,-32.71 279.266,-32.9054 291,-33 314.999,-33.1935 321.001,-33.1935 345,-33 353.25,-32.9335 362.118,-32.8171 370.493,-32.6868"/>
<polygon fill="black" stroke="black" points="370.815,-36.1821 380.755,-32.5169 370.699,-29.183 370.815,-36.1821"/>
</g>
<!-- proc~dohist&#45;&gt;proc~hist -->
<g id="edge1" class="edge"><title>proc~dohist&#45;&gt;proc~hist</title>
<path fill="none" stroke="black" d="M255.403,-25.9993C263.481,-24.1634 272.507,-22.1121 281.105,-20.158"/>
<polygon fill="black" stroke="black" points="281.943,-23.5568 290.919,-17.9275 280.392,-16.7308 281.943,-23.5568"/>
</g>
<!-- proc~doexamples -->
<g id="node4" class="node"><title>proc~doexamples</title>
<g id="a_node4"><a xlink:href="../proc/doexamples.html" xlink:title="doExamples">
<polygon fill="#d9534f" stroke="#d9534f" points="165,-44 94,-44 94,-20 165,-20 165,-44"/>
<text text-anchor="middle" x="129.5" y="-29.6" font-family="Helvetica,sans-Serif" font-size="10.50" fill="white">doExamples</text>
</a>
</g>
</g>
<!-- proc~doexamples&#45;&gt;proc~dohist -->
<g id="edge3" class="edge"><title>proc~doexamples&#45;&gt;proc~dohist</title>
<path fill="none" stroke="black" d="M165.066,-32C173.356,-32 182.233,-32 190.603,-32"/>
<polygon fill="black" stroke="black" points="190.851,-35.5001 200.851,-32 190.851,-28.5001 190.851,-35.5001"/>
</g>
<!-- program~main_prg -->
<g id="node5" class="node"><title>program~main_prg</title>
<g id="a_node5"><a xlink:href="../program/main_prg.html" xlink:title="main_prg">
<polygon fill="#f0ad4e" stroke="#f0ad4e" points="58,-44 3.55271e-15,-44 3.55271e-15,-20 58,-20 58,-44"/>
<text text-anchor="middle" x="29" y="-29.6" font-family="Helvetica,sans-Serif" font-size="10.50" fill="white">main_prg</text>
</a>
</g>
</g>
<!-- program~main_prg&#45;&gt;proc~doexamples -->
<g id="edge2" class="edge"><title>program~main_prg&#45;&gt;proc~doexamples</title>
<path fill="none" stroke="black" d="M58.2261,-32C66.2347,-32 75.1563,-32 83.8823,-32"/>
<polygon fill="black" stroke="black" points="83.9695,-35.5001 93.9695,-32 83.9695,-28.5001 83.9695,-35.5001"/>
</g>
</g>
</svg>
