<?xml version="1.0" encoding="UTF-8" standalone="no"?>
<!DOCTYPE svg PUBLIC "-//W3C//DTD SVG 1.1//EN"
 "http://www.w3.org/Graphics/SVG/1.1/DTD/svg11.dtd">
<!-- Generated by graphviz version 2.38.0 (20140413.2041)
 -->
<!-- Title: proc~~dofillbetween~~CallsGraph Pages: 1 -->
<svg width="367pt" height="620pt"
 viewBox="0.00 0.00 367.00 620.00" xmlns="http://www.w3.org/2000/svg" xmlns:xlink="http://www.w3.org/1999/xlink">
<g id="graph0" class="graph" transform="scale(1 1) rotate(0) translate(4 616)">
<title>proc~~dofillbetween~~CallsGraph</title>
<polygon fill="white" stroke="none" points="-4,4 -4,-616 363,-616 363,4 -4,4"/>
<!-- proc~dofillbetween -->
<g id="node1" class="node"><title>proc~dofillbetween</title>
<polygon fill="none" stroke="black" points="79,-192 7.10543e-15,-192 7.10543e-15,-168 79,-168 79,-192"/>
<text text-anchor="middle" x="39.5" y="-177.6" font-family="Helvetica,sans-Serif" font-size="10.50">doFillBetween</text>
</g>
<!-- proc~labels -->
<g id="node2" class="node"><title>proc~labels</title>
<g id="a_node2"><a xlink:href="../proc/labels.html" xlink:title="labels">
<polygon fill="#d9534f" stroke="#d9534f" points="174,-596 120,-596 120,-572 174,-572 174,-596"/>
<text text-anchor="middle" x="147" y="-581.6" font-family="Helvetica,sans-Serif" font-size="10.50" fill="white">labels</text>
</a>
</g>
</g>
<!-- proc~dofillbetween&#45;&gt;proc~labels -->
<g id="edge24" class="edge"><title>proc~dofillbetween&#45;&gt;proc~labels</title>
<path fill="none" stroke="black" d="M41.6251,-192.265C46.1533,-238.337 65.2532,-404.903 115,-532 119.252,-542.864 125.645,-554.083 131.523,-563.307"/>
<polygon fill="black" stroke="black" points="128.692,-565.372 137.13,-571.778 134.529,-561.508 128.692,-565.372"/>
</g>
<!-- proc~ticks -->
<g id="node3" class="node"><title>proc~ticks</title>
<g id="a_node3"><a xlink:href="../proc/ticks.html" xlink:title="ticks">
<polygon fill="#d9534f" stroke="#d9534f" points="174,-523 120,-523 120,-499 174,-499 174,-523"/>
<text text-anchor="middle" x="147" y="-508.6" font-family="Helvetica,sans-Serif" font-size="10.50" fill="white">ticks</text>
</a>
</g>
</g>
<!-- proc~dofillbetween&#45;&gt;proc~ticks -->
<g id="edge25" class="edge"><title>proc~dofillbetween&#45;&gt;proc~ticks</title>
<path fill="none" stroke="black" d="M43.8855,-192.162C53.9833,-228.219 85.0517,-337.6 115,-427 122.156,-448.361 131.144,-472.457 137.597,-489.345"/>
<polygon fill="black" stroke="black" points="134.393,-490.763 141.249,-498.84 140.926,-488.25 134.393,-490.763"/>
</g>
<!-- proc~figure -->
<g id="node4" class="node"><title>proc~figure</title>
<g id="a_node4"><a xlink:href="../proc/figure.html" xlink:title="figure">
<polygon fill="#d9534f" stroke="#d9534f" points="174,-297 120,-297 120,-273 174,-273 174,-297"/>
<text text-anchor="middle" x="147" y="-282.6" font-family="Helvetica,sans-Serif" font-size="10.50" fill="white">figure</text>
</a>
</g>
</g>
<!-- proc~dofillbetween&#45;&gt;proc~figure -->
<g id="edge26" class="edge"><title>proc~dofillbetween&#45;&gt;proc~figure</title>
<path fill="none" stroke="black" d="M52.6022,-192.045C70.6305,-209.988 104.732,-243.927 126.362,-265.455"/>
<polygon fill="black" stroke="black" points="124.157,-268.199 133.714,-272.772 129.095,-263.237 124.157,-268.199"/>
</g>
<!-- proc~plot -->
<g id="node5" class="node"><title>proc~plot</title>
<g id="a_node5"><a xlink:href="../proc/plot.html" xlink:title="plot">
<polygon fill="#d9534f" stroke="#d9534f" points="174,-192 120,-192 120,-168 174,-168 174,-192"/>
<text text-anchor="middle" x="147" y="-177.6" font-family="Helvetica,sans-Serif" font-size="10.50" fill="white">plot</text>
</a>
</g>
</g>
<!-- proc~dofillbetween&#45;&gt;proc~plot -->
<g id="edge27" class="edge"><title>proc~dofillbetween&#45;&gt;proc~plot</title>
<path fill="none" stroke="black" d="M79.1852,-180C89.1183,-180 99.7691,-180 109.583,-180"/>
<polygon fill="black" stroke="black" points="109.83,-183.5 119.83,-180 109.83,-176.5 109.83,-183.5"/>
</g>
<!-- interface~mixval -->
<g id="node6" class="node"><title>interface~mixval</title>
<g id="a_node6"><a xlink:href="../interface/mixval.html" xlink:title="mixval">
<polygon fill="#a7506f" stroke="#a7506f" points="174,-150 120,-150 120,-126 174,-126 174,-150"/>
<text text-anchor="middle" x="147" y="-135.6" font-family="Helvetica,sans-Serif" font-size="10.50" fill="white">mixval</text>
</a>
</g>
</g>
<!-- proc~dofillbetween&#45;&gt;interface~mixval -->
<g id="edge28" class="edge"><title>proc~dofillbetween&#45;&gt;interface~mixval</title>
<path fill="none" stroke="black" d="M70.7321,-167.964C83.0563,-163.058 97.3994,-157.348 110.239,-152.237"/>
<polygon fill="black" stroke="black" points="111.71,-155.418 119.706,-148.468 109.121,-148.915 111.71,-155.418"/>
</g>
<!-- proc~fillbetween -->
<g id="node7" class="node"><title>proc~fillbetween</title>
<g id="a_node7"><a xlink:href="../proc/fillbetween.html" xlink:title="fillBetween">
<polygon fill="#d9534f" stroke="#d9534f" points="179,-108 115,-108 115,-84 179,-84 179,-108"/>
<text text-anchor="middle" x="147" y="-93.6" font-family="Helvetica,sans-Serif" font-size="10.50" fill="white">fillBetween</text>
</a>
</g>
</g>
<!-- proc~dofillbetween&#45;&gt;proc~fillbetween -->
<g id="edge29" class="edge"><title>proc~dofillbetween&#45;&gt;proc~fillbetween</title>
<path fill="none" stroke="black" d="M53.8726,-167.941C68.5143,-154.918 92.8632,-133.783 115,-117 116.353,-115.974 117.753,-114.939 119.176,-113.907"/>
<polygon fill="black" stroke="black" points="121.243,-116.732 127.413,-108.12 117.219,-111.004 121.243,-116.732"/>
</g>
<!-- proc~xylim -->
<g id="node8" class="node"><title>proc~xylim</title>
<g id="a_node8"><a xlink:href="../proc/xylim.html" xlink:title="xylim">
<polygon fill="#d9534f" stroke="#d9534f" points="174,-66 120,-66 120,-42 174,-42 174,-66"/>
<text text-anchor="middle" x="147" y="-51.6" font-family="Helvetica,sans-Serif" font-size="10.50" fill="white">xylim</text>
</a>
</g>
</g>
<!-- proc~dofillbetween&#45;&gt;proc~xylim -->
<g id="edge30" class="edge"><title>proc~dofillbetween&#45;&gt;proc~xylim</title>
<path fill="none" stroke="black" d="M47.1197,-167.931C58.8663,-147.24 84.9664,-104.389 115,-75 115.915,-74.1049 116.872,-73.2233 117.86,-72.3584"/>
<polygon fill="black" stroke="black" points="120.124,-75.031 125.836,-66.1081 115.806,-69.5211 120.124,-75.031"/>
</g>
<!-- proc~linspace -->
<g id="node9" class="node"><title>proc~linspace</title>
<g id="a_node9"><a xlink:href="../proc/linspace.html" xlink:title="linspace">
<polygon fill="#d94e8f" stroke="#d94e8f" points="174,-24 120,-24 120,-0 174,-0 174,-24"/>
<text text-anchor="middle" x="147" y="-9.6" font-family="Helvetica,sans-Serif" font-size="10.50" fill="white">linspace</text>
</a>
</g>
</g>
<!-- proc~dofillbetween&#45;&gt;proc~linspace -->
<g id="edge31" class="edge"><title>proc~dofillbetween&#45;&gt;proc~linspace</title>
<path fill="none" stroke="black" d="M44.3376,-167.736C53.2216,-140.851 77.3617,-75.7212 115,-33 115.62,-32.2958 116.269,-31.6042 116.942,-30.9261"/>
<polygon fill="black" stroke="black" points="119.473,-33.3673 124.806,-24.2124 114.928,-28.0435 119.473,-33.3673"/>
</g>
<!-- proc~subplot -->
<g id="node10" class="node"><title>proc~subplot</title>
<g id="a_node10"><a xlink:href="../proc/subplot.html" xlink:title="subplot">
<polygon fill="#d9534f" stroke="#d9534f" points="174,-418 120,-418 120,-394 174,-394 174,-418"/>
<text text-anchor="middle" x="147" y="-403.6" font-family="Helvetica,sans-Serif" font-size="10.50" fill="white">subplot</text>
</a>
</g>
</g>
<!-- proc~dofillbetween&#45;&gt;proc~subplot -->
<g id="edge32" class="edge"><title>proc~dofillbetween&#45;&gt;proc~subplot</title>
<path fill="none" stroke="black" d="M46.1721,-192.151C63.2382,-228.709 114.27,-338.028 136.012,-384.604"/>
<polygon fill="black" stroke="black" points="132.898,-386.208 140.3,-393.789 139.241,-383.247 132.898,-386.208"/>
</g>
<!-- pllab -->
<g id="node11" class="node"><title>pllab</title>
<polygon fill="#777777" stroke="#777777" points="269,-612 215,-612 215,-588 269,-588 269,-612"/>
<text text-anchor="middle" x="242" y="-597.6" font-family="Helvetica,sans-Serif" font-size="10.50" fill="white">pllab</text>
</g>
<!-- proc~labels&#45;&gt;pllab -->
<g id="edge1" class="edge"><title>proc~labels&#45;&gt;pllab</title>
<path fill="none" stroke="black" d="M174.401,-588.542C183.906,-590.177 194.799,-592.051 204.983,-593.804"/>
<polygon fill="black" stroke="black" points="204.406,-597.256 214.855,-595.502 205.593,-590.357 204.406,-597.256"/>
</g>
<!-- plbox -->
<g id="node12" class="node"><title>plbox</title>
<polygon fill="#777777" stroke="#777777" points="269,-570 215,-570 215,-546 269,-546 269,-570"/>
<text text-anchor="middle" x="242" y="-555.6" font-family="Helvetica,sans-Serif" font-size="10.50" fill="white">plbox</text>
</g>
<!-- proc~ticks&#45;&gt;plbox -->
<g id="edge2" class="edge"><title>proc~ticks&#45;&gt;plbox</title>
<path fill="none" stroke="black" d="M171.95,-523.104C182.906,-528.641 196.066,-535.292 207.946,-541.295"/>
<polygon fill="black" stroke="black" points="206.628,-544.551 217.131,-545.937 209.785,-538.303 206.628,-544.551"/>
</g>
<!-- pladv -->
<g id="node13" class="node"><title>pladv</title>
<polygon fill="#777777" stroke="#777777" points="269,-360 215,-360 215,-336 269,-336 269,-360"/>
<text text-anchor="middle" x="242" y="-345.6" font-family="Helvetica,sans-Serif" font-size="10.50" fill="white">pladv</text>
</g>
<!-- proc~figure&#45;&gt;pladv -->
<g id="edge9" class="edge"><title>proc~figure&#45;&gt;pladv</title>
<path fill="none" stroke="black" d="M165.931,-297.147C179.698,-306.473 198.918,-319.493 214.464,-330.024"/>
<polygon fill="black" stroke="black" points="212.882,-333.179 223.124,-335.89 216.807,-327.384 212.882,-333.179"/>
</g>
<!-- pleop -->
<g id="node14" class="node"><title>pleop</title>
<polygon fill="#777777" stroke="#777777" points="269,-318 215,-318 215,-294 269,-294 269,-318"/>
<text text-anchor="middle" x="242" y="-303.6" font-family="Helvetica,sans-Serif" font-size="10.50" fill="white">pleop</text>
</g>
<!-- proc~figure&#45;&gt;pleop -->
<g id="edge10" class="edge"><title>proc~figure&#45;&gt;pleop</title>
<path fill="none" stroke="black" d="M174.401,-290.962C183.906,-293.108 194.799,-295.567 204.983,-297.867"/>
<polygon fill="black" stroke="black" points="204.329,-301.308 214.855,-300.096 205.871,-294.479 204.329,-301.308"/>
</g>
<!-- plssub -->
<g id="node15" class="node"><title>plssub</title>
<polygon fill="#777777" stroke="#777777" points="269,-402 215,-402 215,-378 269,-378 269,-402"/>
<text text-anchor="middle" x="242" y="-387.6" font-family="Helvetica,sans-Serif" font-size="10.50" fill="white">plssub</text>
</g>
<!-- proc~figure&#45;&gt;plssub -->
<g id="edge11" class="edge"><title>proc~figure&#45;&gt;plssub</title>
<path fill="none" stroke="black" d="M156.351,-297.083C168.345,-314.038 191.593,-345.449 215,-369 215.662,-369.666 216.344,-370.332 217.042,-370.995"/>
<polygon fill="black" stroke="black" points="215.032,-373.888 224.851,-377.867 219.656,-368.634 215.032,-373.888"/>
</g>
<!-- proc~setup -->
<g id="node16" class="node"><title>proc~setup</title>
<g id="a_node16"><a xlink:href="../proc/setup.html" xlink:title="setup">
<polygon fill="#d9534f" stroke="#d9534f" points="269,-276 215,-276 215,-252 269,-252 269,-276"/>
<text text-anchor="middle" x="242" y="-261.6" font-family="Helvetica,sans-Serif" font-size="10.50" fill="white">setup</text>
</a>
</g>
</g>
<!-- proc~figure&#45;&gt;proc~setup -->
<g id="edge12" class="edge"><title>proc~figure&#45;&gt;proc~setup</title>
<path fill="none" stroke="black" d="M174.401,-279.038C183.906,-276.892 194.799,-274.433 204.983,-272.133"/>
<polygon fill="black" stroke="black" points="205.871,-275.521 214.855,-269.904 204.329,-268.692 205.871,-275.521"/>
</g>
<!-- plbop -->
<g id="node17" class="node"><title>plbop</title>
<polygon fill="#777777" stroke="#777777" points="269,-234 215,-234 215,-210 269,-210 269,-234"/>
<text text-anchor="middle" x="242" y="-219.6" font-family="Helvetica,sans-Serif" font-size="10.50" fill="white">plbop</text>
</g>
<!-- proc~figure&#45;&gt;plbop -->
<g id="edge13" class="edge"><title>proc~figure&#45;&gt;plbop</title>
<path fill="none" stroke="black" d="M165.931,-272.853C179.698,-263.527 198.918,-250.507 214.464,-239.976"/>
<polygon fill="black" stroke="black" points="216.807,-242.616 223.124,-234.11 212.882,-236.821 216.807,-242.616"/>
</g>
<!-- plssym -->
<g id="node24" class="node"><title>plssym</title>
<polygon fill="#777777" stroke="#777777" points="269,-192 215,-192 215,-168 269,-168 269,-192"/>
<text text-anchor="middle" x="242" y="-177.6" font-family="Helvetica,sans-Serif" font-size="10.50" fill="white">plssym</text>
</g>
<!-- proc~plot&#45;&gt;plssym -->
<g id="edge14" class="edge"><title>proc~plot&#45;&gt;plssym</title>
<path fill="none" stroke="black" d="M174.401,-180C183.807,-180 194.572,-180 204.665,-180"/>
<polygon fill="black" stroke="black" points="204.855,-183.5 214.855,-180 204.855,-176.5 204.855,-183.5"/>
</g>
<!-- plline -->
<g id="node25" class="node"><title>plline</title>
<polygon fill="#777777" stroke="#777777" points="269,-150 215,-150 215,-126 269,-126 269,-150"/>
<text text-anchor="middle" x="242" y="-135.6" font-family="Helvetica,sans-Serif" font-size="10.50" fill="white">plline</text>
</g>
<!-- proc~plot&#45;&gt;plline -->
<g id="edge15" class="edge"><title>proc~plot&#45;&gt;plline</title>
<path fill="none" stroke="black" d="M174.401,-168.077C184.104,-163.695 195.253,-158.66 205.619,-153.978"/>
<polygon fill="black" stroke="black" points="207.181,-157.113 214.855,-149.808 204.3,-150.734 207.181,-157.113"/>
</g>
<!-- plptex -->
<g id="node26" class="node"><title>plptex</title>
<polygon fill="#777777" stroke="#777777" points="269,-108 215,-108 215,-84 269,-84 269,-108"/>
<text text-anchor="middle" x="242" y="-93.6" font-family="Helvetica,sans-Serif" font-size="10.50" fill="white">plptex</text>
</g>
<!-- proc~plot&#45;&gt;plptex -->
<g id="edge16" class="edge"><title>proc~plot&#45;&gt;plptex</title>
<path fill="none" stroke="black" d="M167.612,-167.88C171.529,-165.142 175.509,-162.117 179,-159 197.34,-142.627 197.363,-134.129 215,-117 215.674,-116.346 216.366,-115.69 217.073,-115.036"/>
<polygon fill="black" stroke="black" points="219.674,-117.413 224.932,-108.214 215.086,-112.126 219.674,-117.413"/>
</g>
<!-- plfill -->
<g id="node27" class="node"><title>plfill</title>
<polygon fill="#777777" stroke="#777777" points="269,-66 215,-66 215,-42 269,-42 269,-66"/>
<text text-anchor="middle" x="242" y="-51.6" font-family="Helvetica,sans-Serif" font-size="10.50" fill="white">plfill</text>
</g>
<!-- proc~fillbetween&#45;&gt;plfill -->
<g id="edge17" class="edge"><title>proc~fillbetween&#45;&gt;plfill</title>
<path fill="none" stroke="black" d="M174.899,-83.8519C184.412,-79.5557 195.265,-74.6546 205.388,-70.083"/>
<polygon fill="black" stroke="black" points="207.129,-73.1369 214.802,-65.8312 204.248,-66.7573 207.129,-73.1369"/>
</g>
<!-- plwind -->
<g id="node28" class="node"><title>plwind</title>
<polygon fill="#777777" stroke="#777777" points="269,-24 215,-24 215,-0 269,-0 269,-24"/>
<text text-anchor="middle" x="242" y="-9.6" font-family="Helvetica,sans-Serif" font-size="10.50" fill="white">plwind</text>
</g>
<!-- proc~xylim&#45;&gt;plwind -->
<g id="edge18" class="edge"><title>proc~xylim&#45;&gt;plwind</title>
<path fill="none" stroke="black" d="M174.401,-42.0768C184.104,-37.6948 195.253,-32.6598 205.619,-27.9785"/>
<polygon fill="black" stroke="black" points="207.181,-31.1133 214.855,-23.8076 204.3,-24.7337 207.181,-31.1133"/>
</g>
<!-- proc~subplot&#45;&gt;pladv -->
<g id="edge23" class="edge"><title>proc~subplot&#45;&gt;pladv</title>
<path fill="none" stroke="black" d="M167.27,-393.982C180.487,-385.739 198.238,-374.669 213.009,-365.456"/>
<polygon fill="black" stroke="black" points="215.122,-368.264 221.755,-360.002 211.418,-362.324 215.122,-368.264"/>
</g>
<!-- proc~subplot&#45;&gt;plssub -->
<g id="edge21" class="edge"><title>proc~subplot&#45;&gt;plssub</title>
<path fill="none" stroke="black" d="M174.401,-401.458C183.906,-399.823 194.799,-397.949 204.983,-396.196"/>
<polygon fill="black" stroke="black" points="205.593,-399.643 214.855,-394.498 204.406,-392.744 205.593,-399.643"/>
</g>
<!-- plvasp -->
<g id="node29" class="node"><title>plvasp</title>
<polygon fill="#777777" stroke="#777777" points="269,-528 215,-528 215,-504 269,-504 269,-528"/>
<text text-anchor="middle" x="242" y="-513.6" font-family="Helvetica,sans-Serif" font-size="10.50" fill="white">plvasp</text>
</g>
<!-- proc~subplot&#45;&gt;plvasp -->
<g id="edge19" class="edge"><title>proc~subplot&#45;&gt;plvasp</title>
<path fill="none" stroke="black" d="M155.812,-418.256C167.512,-436.137 190.807,-469.967 215,-495 215.653,-495.675 216.327,-496.349 217.017,-497.019"/>
<polygon fill="black" stroke="black" points="214.988,-499.899 224.786,-503.931 219.641,-494.669 214.988,-499.899"/>
</g>
<!-- plvpor -->
<g id="node30" class="node"><title>plvpor</title>
<polygon fill="#777777" stroke="#777777" points="269,-486 215,-486 215,-462 269,-462 269,-486"/>
<text text-anchor="middle" x="242" y="-471.6" font-family="Helvetica,sans-Serif" font-size="10.50" fill="white">plvpor</text>
</g>
<!-- proc~subplot&#45;&gt;plvpor -->
<g id="edge20" class="edge"><title>proc~subplot&#45;&gt;plvpor</title>
<path fill="none" stroke="black" d="M164.627,-418.157C178.909,-428.6 199.713,-443.812 216.002,-455.722"/>
<polygon fill="black" stroke="black" points="214.379,-458.871 224.517,-461.948 218.511,-453.221 214.379,-458.871"/>
</g>
<!-- plvsta -->
<g id="node31" class="node"><title>plvsta</title>
<polygon fill="#777777" stroke="#777777" points="269,-444 215,-444 215,-420 269,-420 269,-444"/>
<text text-anchor="middle" x="242" y="-429.6" font-family="Helvetica,sans-Serif" font-size="10.50" fill="white">plvsta</text>
</g>
<!-- proc~subplot&#45;&gt;plvsta -->
<g id="edge22" class="edge"><title>proc~subplot&#45;&gt;plvsta</title>
<path fill="none" stroke="black" d="M174.401,-413.381C183.906,-416.038 194.799,-419.084 204.983,-421.931"/>
<polygon fill="black" stroke="black" points="204.281,-425.369 214.855,-424.691 206.166,-418.627 204.281,-425.369"/>
</g>
<!-- figsize -->
<g id="node18" class="node"><title>figsize</title>
<polygon fill="#777777" stroke="#777777" points="359,-381 305,-381 305,-357 359,-357 359,-381"/>
<text text-anchor="middle" x="332" y="-366.6" font-family="Helvetica,sans-Serif" font-size="10.50" fill="white">figsize</text>
</g>
<!-- proc~setup&#45;&gt;figsize -->
<g id="edge3" class="edge"><title>proc~setup&#45;&gt;figsize</title>
<path fill="none" stroke="black" d="M259.79,-276.021C263.05,-278.766 266.292,-281.819 269,-285 289.905,-309.556 284.095,-323.444 305,-348 305.592,-348.696 306.21,-349.386 306.848,-350.067"/>
<polygon fill="black" stroke="black" points="304.524,-352.686 314.21,-356.979 309.315,-347.583 304.524,-352.686"/>
</g>
<!-- plsdev -->
<g id="node19" class="node"><title>plsdev</title>
<polygon fill="#777777" stroke="#777777" points="359,-339 305,-339 305,-315 359,-315 359,-339"/>
<text text-anchor="middle" x="332" y="-324.6" font-family="Helvetica,sans-Serif" font-size="10.50" fill="white">plsdev</text>
</g>
<!-- proc~setup&#45;&gt;plsdev -->
<g id="edge4" class="edge"><title>proc~setup&#45;&gt;plsdev</title>
<path fill="none" stroke="black" d="M259.967,-276.147C272.994,-285.473 291.181,-298.493 305.891,-309.024"/>
<polygon fill="black" stroke="black" points="303.916,-311.915 314.085,-314.89 307.991,-306.223 303.916,-311.915"/>
</g>
<!-- plfontld -->
<g id="node20" class="node"><title>plfontld</title>
<polygon fill="#777777" stroke="#777777" points="359,-297 305,-297 305,-273 359,-273 359,-297"/>
<text text-anchor="middle" x="332" y="-282.6" font-family="Helvetica,sans-Serif" font-size="10.50" fill="white">plfontld</text>
</g>
<!-- proc~setup&#45;&gt;plfontld -->
<g id="edge5" class="edge"><title>proc~setup&#45;&gt;plfontld</title>
<path fill="none" stroke="black" d="M269.403,-270.301C277.481,-272.228 286.507,-274.382 295.105,-276.434"/>
<polygon fill="black" stroke="black" points="294.38,-279.859 304.919,-278.776 296.005,-273.05 294.38,-279.859"/>
</g>
<!-- plsfnam -->
<g id="node21" class="node"><title>plsfnam</title>
<polygon fill="#777777" stroke="#777777" points="359,-255 305,-255 305,-231 359,-231 359,-255"/>
<text text-anchor="middle" x="332" y="-240.6" font-family="Helvetica,sans-Serif" font-size="10.50" fill="white">plsfnam</text>
</g>
<!-- proc~setup&#45;&gt;plsfnam -->
<g id="edge6" class="edge"><title>proc~setup&#45;&gt;plsfnam</title>
<path fill="none" stroke="black" d="M269.403,-257.699C277.481,-255.772 286.507,-253.618 295.105,-251.566"/>
<polygon fill="black" stroke="black" points="296.005,-254.95 304.919,-249.224 294.38,-248.141 296.005,-254.95"/>
</g>
<!-- plsfam -->
<g id="node22" class="node"><title>plsfam</title>
<polygon fill="#777777" stroke="#777777" points="359,-213 305,-213 305,-189 359,-189 359,-213"/>
<text text-anchor="middle" x="332" y="-198.6" font-family="Helvetica,sans-Serif" font-size="10.50" fill="white">plsfam</text>
</g>
<!-- proc~setup&#45;&gt;plsfam -->
<g id="edge7" class="edge"><title>proc~setup&#45;&gt;plsfam</title>
<path fill="none" stroke="black" d="M259.967,-251.853C272.994,-242.527 291.181,-229.507 305.891,-218.976"/>
<polygon fill="black" stroke="black" points="307.991,-221.777 314.085,-213.11 303.916,-216.085 307.991,-221.777"/>
</g>
<!-- plsetopt -->
<g id="node23" class="node"><title>plsetopt</title>
<polygon fill="#777777" stroke="#777777" points="359,-171 305,-171 305,-147 359,-147 359,-171"/>
<text text-anchor="middle" x="332" y="-156.6" font-family="Helvetica,sans-Serif" font-size="10.50" fill="white">plsetopt</text>
</g>
<!-- proc~setup&#45;&gt;plsetopt -->
<g id="edge8" class="edge"><title>proc~setup&#45;&gt;plsetopt</title>
<path fill="none" stroke="black" d="M259.79,-251.979C263.05,-249.234 266.292,-246.181 269,-243 289.905,-218.444 284.095,-204.556 305,-180 305.592,-179.304 306.21,-178.614 306.848,-177.933"/>
<polygon fill="black" stroke="black" points="309.315,-180.417 314.21,-171.021 304.524,-175.314 309.315,-180.417"/>
</g>
</g>
</svg>
