<?xml version="1.0" encoding="UTF-8" standalone="no"?>
<!DOCTYPE svg PUBLIC "-//W3C//DTD SVG 1.1//EN"
 "http://www.w3.org/Graphics/SVG/1.1/DTD/svg11.dtd">
<!-- Generated by graphviz version 2.38.0 (20140413.2041)
 -->
<!-- Title: proc~~barh~~CalledByGraph Pages: 1 -->
<svg width="353pt" height="32pt"
 viewBox="0.00 0.00 353.00 32.00" xmlns="http://www.w3.org/2000/svg" xmlns:xlink="http://www.w3.org/1999/xlink">
<g id="graph0" class="graph" transform="scale(1 1) rotate(0) translate(4 28)">
<title>proc~~barh~~CalledByGraph</title>
<polygon fill="white" stroke="none" points="-4,4 -4,-28 349,-28 349,4 -4,4"/>
<!-- proc~barh -->
<g id="node1" class="node"><title>proc~barh</title>
<polygon fill="none" stroke="black" points="345,-24 291,-24 291,-0 345,-0 345,-24"/>
<text text-anchor="middle" x="318" y="-9.6" font-family="Helvetica,sans-Serif" font-size="10.50">barh</text>
</g>
<!-- proc~dobar -->
<g id="node2" class="node"><title>proc~dobar</title>
<g id="a_node2"><a xlink:href="../proc/dobar.html" xlink:title="doBar">
<polygon fill="#d9534f" stroke="#d9534f" points="255,-24 201,-24 201,-0 255,-0 255,-24"/>
<text text-anchor="middle" x="228" y="-9.6" font-family="Helvetica,sans-Serif" font-size="10.50" fill="white">doBar</text>
</a>
</g>
</g>
<!-- proc~dobar&#45;&gt;proc~barh -->
<g id="edge3" class="edge"><title>proc~dobar&#45;&gt;proc~barh</title>
<path fill="none" stroke="black" d="M255.403,-12C263.393,-12 272.311,-12 280.824,-12"/>
<polygon fill="black" stroke="black" points="280.919,-15.5001 290.919,-12 280.919,-8.5001 280.919,-15.5001"/>
</g>
<!-- proc~doexamples -->
<g id="node3" class="node"><title>proc~doexamples</title>
<g id="a_node3"><a xlink:href="../proc/doexamples.html" xlink:title="doExamples">
<polygon fill="#d9534f" stroke="#d9534f" points="165,-24 94,-24 94,-0 165,-0 165,-24"/>
<text text-anchor="middle" x="129.5" y="-9.6" font-family="Helvetica,sans-Serif" font-size="10.50" fill="white">doExamples</text>
</a>
</g>
</g>
<!-- proc~doexamples&#45;&gt;proc~dobar -->
<g id="edge2" class="edge"><title>proc~doexamples&#45;&gt;proc~dobar</title>
<path fill="none" stroke="black" d="M165.066,-12C173.356,-12 182.233,-12 190.603,-12"/>
<polygon fill="black" stroke="black" points="190.851,-15.5001 200.851,-12 190.851,-8.5001 190.851,-15.5001"/>
</g>
<!-- program~main_prg -->
<g id="node4" class="node"><title>program~main_prg</title>
<g id="a_node4"><a xlink:href="../program/main_prg.html" xlink:title="main_prg">
<polygon fill="#f0ad4e" stroke="#f0ad4e" points="58,-24 3.55271e-15,-24 3.55271e-15,-0 58,-0 58,-24"/>
<text text-anchor="middle" x="29" y="-9.6" font-family="Helvetica,sans-Serif" font-size="10.50" fill="white">main_prg</text>
</a>
</g>
</g>
<!-- program~main_prg&#45;&gt;proc~doexamples -->
<g id="edge1" class="edge"><title>program~main_prg&#45;&gt;proc~doexamples</title>
<path fill="none" stroke="black" d="M58.2261,-12C66.2347,-12 75.1563,-12 83.8823,-12"/>
<polygon fill="black" stroke="black" points="83.9695,-15.5001 93.9695,-12 83.9695,-8.5001 83.9695,-15.5001"/>
</g>
</g>
</svg>
