<?xml version="1.0" encoding="UTF-8" standalone="no"?>
<!DOCTYPE svg PUBLIC "-//W3C//DTD SVG 1.1//EN"
 "http://www.w3.org/Graphics/SVG/1.1/DTD/svg11.dtd">
<!-- Generated by graphviz version 2.38.0 (20140413.2041)
 -->
<!-- Title: proc~~contour~~CalledByGraph Pages: 1 -->
<svg width="362pt" height="32pt"
 viewBox="0.00 0.00 362.00 32.00" xmlns="http://www.w3.org/2000/svg" xmlns:xlink="http://www.w3.org/1999/xlink">
<g id="graph0" class="graph" transform="scale(1 1) rotate(0) translate(4 28)">
<title>proc~~contour~~CalledByGraph</title>
<polygon fill="white" stroke="none" points="-4,4 -4,-28 358,-28 358,4 -4,4"/>
<!-- proc~contour -->
<g id="node1" class="node"><title>proc~contour</title>
<polygon fill="none" stroke="black" points="354,-24 300,-24 300,-0 354,-0 354,-24"/>
<text text-anchor="middle" x="327" y="-9.6" font-family="Helvetica,sans-Serif" font-size="10.50">contour</text>
</g>
<!-- proc~docontour -->
<g id="node2" class="node"><title>proc~docontour</title>
<g id="a_node2"><a xlink:href="../proc/docontour.html" xlink:title="doContour">
<polygon fill="#d9534f" stroke="#d9534f" points="264,-24 201,-24 201,-0 264,-0 264,-24"/>
<text text-anchor="middle" x="232.5" y="-9.6" font-family="Helvetica,sans-Serif" font-size="10.50" fill="white">doContour</text>
</a>
</g>
</g>
<!-- proc~docontour&#45;&gt;proc~contour -->
<g id="edge3" class="edge"><title>proc~docontour&#45;&gt;proc~contour</title>
<path fill="none" stroke="black" d="M264.044,-12C272.275,-12 281.259,-12 289.767,-12"/>
<polygon fill="black" stroke="black" points="289.828,-15.5001 299.827,-12 289.827,-8.5001 289.828,-15.5001"/>
</g>
<!-- proc~doexamples -->
<g id="node3" class="node"><title>proc~doexamples</title>
<g id="a_node3"><a xlink:href="../proc/doexamples.html" xlink:title="doExamples">
<polygon fill="#d9534f" stroke="#d9534f" points="165,-24 94,-24 94,-0 165,-0 165,-24"/>
<text text-anchor="middle" x="129.5" y="-9.6" font-family="Helvetica,sans-Serif" font-size="10.50" fill="white">doExamples</text>
</a>
</g>
</g>
<!-- proc~doexamples&#45;&gt;proc~docontour -->
<g id="edge2" class="edge"><title>proc~doexamples&#45;&gt;proc~docontour</title>
<path fill="none" stroke="black" d="M165.258,-12C173.453,-12 182.262,-12 190.696,-12"/>
<polygon fill="black" stroke="black" points="190.732,-15.5001 200.732,-12 190.732,-8.5001 190.732,-15.5001"/>
</g>
<!-- program~main_prg -->
<g id="node4" class="node"><title>program~main_prg</title>
<g id="a_node4"><a xlink:href="../program/main_prg.html" xlink:title="main_prg">
<polygon fill="#f0ad4e" stroke="#f0ad4e" points="58,-24 3.55271e-15,-24 3.55271e-15,-0 58,-0 58,-24"/>
<text text-anchor="middle" x="29" y="-9.6" font-family="Helvetica,sans-Serif" font-size="10.50" fill="white">main_prg</text>
</a>
</g>
</g>
<!-- program~main_prg&#45;&gt;proc~doexamples -->
<g id="edge1" class="edge"><title>program~main_prg&#45;&gt;proc~doexamples</title>
<path fill="none" stroke="black" d="M58.2261,-12C66.2347,-12 75.1563,-12 83.8823,-12"/>
<polygon fill="black" stroke="black" points="83.9695,-15.5001 93.9695,-12 83.9695,-8.5001 83.9695,-15.5001"/>
</g>
</g>
</svg>
