<?xml version="1.0" encoding="UTF-8" standalone="no"?>
<!DOCTYPE svg PUBLIC "-//W3C//DTD SVG 1.1//EN"
 "http://www.w3.org/Graphics/SVG/1.1/DTD/svg11.dtd">
<!-- Generated by graphviz version 2.38.0 (20140413.2041)
 -->
<!-- Title: proc~~colorbar~~CalledByGraph Pages: 1 -->
<svg width="362pt" height="74pt"
 viewBox="0.00 0.00 362.00 74.00" xmlns="http://www.w3.org/2000/svg" xmlns:xlink="http://www.w3.org/1999/xlink">
<g id="graph0" class="graph" transform="scale(1 1) rotate(0) translate(4 70)">
<title>proc~~colorbar~~CalledByGraph</title>
<polygon fill="white" stroke="none" points="-4,4 -4,-70 358,-70 358,4 -4,4"/>
<!-- proc~colorbar -->
<g id="node1" class="node"><title>proc~colorbar</title>
<polygon fill="none" stroke="black" points="354,-45 300,-45 300,-21 354,-21 354,-45"/>
<text text-anchor="middle" x="327" y="-30.6" font-family="Helvetica,sans-Serif" font-size="10.50">colorbar</text>
</g>
<!-- proc~docontour -->
<g id="node2" class="node"><title>proc~docontour</title>
<g id="a_node2"><a xlink:href="../proc/docontour.html" xlink:title="doContour">
<polygon fill="#d9534f" stroke="#d9534f" points="264,-66 201,-66 201,-42 264,-42 264,-66"/>
<text text-anchor="middle" x="232.5" y="-51.6" font-family="Helvetica,sans-Serif" font-size="10.50" fill="white">doContour</text>
</a>
</g>
</g>
<!-- proc~docontour&#45;&gt;proc~colorbar -->
<g id="edge4" class="edge"><title>proc~docontour&#45;&gt;proc~colorbar</title>
<path fill="none" stroke="black" d="M264.044,-47.0656C272.365,-45.1765 281.456,-43.1127 290.047,-41.1622"/>
<polygon fill="black" stroke="black" points="290.851,-44.569 299.827,-38.9419 289.301,-37.7427 290.851,-44.569"/>
</g>
<!-- proc~doquiver -->
<g id="node3" class="node"><title>proc~doquiver</title>
<g id="a_node3"><a xlink:href="../proc/doquiver.html" xlink:title="doQuiver">
<polygon fill="#d9534f" stroke="#d9534f" points="260.5,-24 204.5,-24 204.5,-0 260.5,-0 260.5,-24"/>
<text text-anchor="middle" x="232.5" y="-9.6" font-family="Helvetica,sans-Serif" font-size="10.50" fill="white">doQuiver</text>
</a>
</g>
</g>
<!-- proc~doquiver&#45;&gt;proc~colorbar -->
<g id="edge5" class="edge"><title>proc~doquiver&#45;&gt;proc~colorbar</title>
<path fill="none" stroke="black" d="M260.753,-18.1871C269.929,-20.2703 280.313,-22.6277 290.054,-24.8392"/>
<polygon fill="black" stroke="black" points="289.368,-28.2726 299.895,-27.0735 290.918,-21.4463 289.368,-28.2726"/>
</g>
<!-- proc~doexamples -->
<g id="node4" class="node"><title>proc~doexamples</title>
<g id="a_node4"><a xlink:href="../proc/doexamples.html" xlink:title="doExamples">
<polygon fill="#d9534f" stroke="#d9534f" points="165,-45 94,-45 94,-21 165,-21 165,-45"/>
<text text-anchor="middle" x="129.5" y="-30.6" font-family="Helvetica,sans-Serif" font-size="10.50" fill="white">doExamples</text>
</a>
</g>
</g>
<!-- proc~doexamples&#45;&gt;proc~docontour -->
<g id="edge2" class="edge"><title>proc~doexamples&#45;&gt;proc~docontour</title>
<path fill="none" stroke="black" d="M165.258,-40.227C173.453,-41.9308 182.262,-43.7624 190.696,-45.5161"/>
<polygon fill="black" stroke="black" points="190.229,-48.9936 200.732,-47.6026 191.654,-42.1402 190.229,-48.9936"/>
</g>
<!-- proc~doexamples&#45;&gt;proc~doquiver -->
<g id="edge3" class="edge"><title>proc~doexamples&#45;&gt;proc~doquiver</title>
<path fill="none" stroke="black" d="M165.258,-25.773C174.645,-23.8213 184.838,-21.702 194.35,-19.7242"/>
<polygon fill="black" stroke="black" points="195.256,-23.1108 204.334,-17.6483 193.831,-16.2574 195.256,-23.1108"/>
</g>
<!-- program~main_prg -->
<g id="node5" class="node"><title>program~main_prg</title>
<g id="a_node5"><a xlink:href="../program/main_prg.html" xlink:title="main_prg">
<polygon fill="#f0ad4e" stroke="#f0ad4e" points="58,-45 3.55271e-15,-45 3.55271e-15,-21 58,-21 58,-45"/>
<text text-anchor="middle" x="29" y="-30.6" font-family="Helvetica,sans-Serif" font-size="10.50" fill="white">main_prg</text>
</a>
</g>
</g>
<!-- program~main_prg&#45;&gt;proc~doexamples -->
<g id="edge1" class="edge"><title>program~main_prg&#45;&gt;proc~doexamples</title>
<path fill="none" stroke="black" d="M58.2261,-33C66.2347,-33 75.1563,-33 83.8823,-33"/>
<polygon fill="black" stroke="black" points="83.9695,-36.5001 93.9695,-33 83.9695,-29.5001 83.9695,-36.5001"/>
</g>
</g>
</svg>
