<?xml version="1.0" encoding="UTF-8" standalone="no"?>
<!DOCTYPE svg PUBLIC "-//W3C//DTD SVG 1.1//EN"
 "http://www.w3.org/Graphics/SVG/1.1/DTD/svg11.dtd">
<!-- Generated by graphviz version 2.38.0 (20140413.2041)
 -->
<!-- Title: proc~~contourf~~CallsGraph Pages: 1 -->
<svg width="153pt" height="74pt"
 viewBox="0.00 0.00 153.00 74.00" xmlns="http://www.w3.org/2000/svg" xmlns:xlink="http://www.w3.org/1999/xlink">
<g id="graph0" class="graph" transform="scale(1 1) rotate(0) translate(4 70)">
<title>proc~~contourf~~CallsGraph</title>
<polygon fill="white" stroke="none" points="-4,4 -4,-70 149,-70 149,4 -4,4"/>
<!-- proc~contourf -->
<g id="node1" class="node"><title>proc~contourf</title>
<polygon fill="none" stroke="black" points="54,-45 0,-45 0,-21 54,-21 54,-45"/>
<text text-anchor="middle" x="27" y="-30.6" font-family="Helvetica,sans-Serif" font-size="10.50">contourf</text>
</g>
<!-- proc~linspace -->
<g id="node2" class="node"><title>proc~linspace</title>
<g id="a_node2"><a xlink:href="../proc/linspace.html" xlink:title="linspace">
<polygon fill="#d94e8f" stroke="#d94e8f" points="144.5,-66 90.5,-66 90.5,-42 144.5,-42 144.5,-66"/>
<text text-anchor="middle" x="117.5" y="-51.6" font-family="Helvetica,sans-Serif" font-size="10.50" fill="white">linspace</text>
</a>
</g>
</g>
<!-- proc~contourf&#45;&gt;proc~linspace -->
<g id="edge1" class="edge"><title>proc~contourf&#45;&gt;proc~linspace</title>
<path fill="none" stroke="black" d="M54.0743,-39.1871C62.3724,-41.1562 71.7027,-43.3701 80.5705,-45.4743"/>
<polygon fill="black" stroke="black" points="79.7684,-48.8811 90.3063,-47.7845 81.3846,-42.0703 79.7684,-48.8811"/>
</g>
<!-- plshades -->
<g id="node3" class="node"><title>plshades</title>
<polygon fill="#777777" stroke="#777777" points="145,-24 90,-24 90,-0 145,-0 145,-24"/>
<text text-anchor="middle" x="117.5" y="-9.6" font-family="Helvetica,sans-Serif" font-size="10.50" fill="white">plshades</text>
</g>
<!-- proc~contourf&#45;&gt;plshades -->
<g id="edge2" class="edge"><title>proc~contourf&#45;&gt;plshades</title>
<path fill="none" stroke="black" d="M54.0743,-26.8129C62.2099,-24.8824 71.3376,-22.7165 80.0489,-20.6494"/>
<polygon fill="black" stroke="black" points="81.0778,-24.0025 89.9995,-18.2882 79.4616,-17.1917 81.0778,-24.0025"/>
</g>
</g>
</svg>
