<?xml version="1.0" encoding="UTF-8" standalone="no"?>
<!DOCTYPE svg PUBLIC "-//W3C//DTD SVG 1.1//EN"
 "http://www.w3.org/Graphics/SVG/1.1/DTD/svg11.dtd">
<!-- Generated by graphviz version 2.38.0 (20140413.2041)
 -->
<!-- Title: proc~~hist~~CallsGraph Pages: 1 -->
<svg width="242pt" height="200pt"
 viewBox="0.00 0.00 242.00 200.00" xmlns="http://www.w3.org/2000/svg" xmlns:xlink="http://www.w3.org/1999/xlink">
<g id="graph0" class="graph" transform="scale(1 1) rotate(0) translate(4 196)">
<title>proc~~hist~~CallsGraph</title>
<polygon fill="white" stroke="none" points="-4,4 -4,-196 238,-196 238,4 -4,4"/>
<!-- proc~hist -->
<g id="node1" class="node"><title>proc~hist</title>
<polygon fill="none" stroke="black" points="54,-150 0,-150 0,-126 54,-126 54,-150"/>
<text text-anchor="middle" x="27" y="-135.6" font-family="Helvetica,sans-Serif" font-size="10.50">hist</text>
</g>
<!-- proc~bindata -->
<g id="node2" class="node"><title>proc~bindata</title>
<g id="a_node2"><a xlink:href="../proc/bindata.html" xlink:title="binData">
<polygon fill="#d94e8f" stroke="#d94e8f" points="144,-191 90,-191 90,-167 144,-167 144,-191"/>
<text text-anchor="middle" x="117" y="-176.6" font-family="Helvetica,sans-Serif" font-size="10.50" fill="white">binData</text>
</a>
</g>
</g>
<!-- proc~hist&#45;&gt;proc~bindata -->
<g id="edge6" class="edge"><title>proc~hist&#45;&gt;proc~bindata</title>
<path fill="none" stroke="black" d="M53.9269,-150.08C62.3556,-154.007 71.8553,-158.433 80.8417,-162.619"/>
<polygon fill="black" stroke="black" points="79.4117,-165.814 89.9543,-166.865 82.368,-159.469 79.4117,-165.814"/>
</g>
<!-- interface~mixval -->
<g id="node3" class="node"><title>interface~mixval</title>
<g id="a_node3"><a xlink:href="../interface/mixval.html" xlink:title="mixval">
<polygon fill="#a7506f" stroke="#a7506f" points="234,-150 180,-150 180,-126 234,-126 234,-150"/>
<text text-anchor="middle" x="207" y="-135.6" font-family="Helvetica,sans-Serif" font-size="10.50" fill="white">mixval</text>
</a>
</g>
</g>
<!-- proc~hist&#45;&gt;interface~mixval -->
<g id="edge7" class="edge"><title>proc~hist&#45;&gt;interface~mixval</title>
<path fill="none" stroke="black" d="M54.2645,-138C84.8509,-138 135.551,-138 169.843,-138"/>
<polygon fill="black" stroke="black" points="169.918,-141.5 179.918,-138 169.918,-134.5 169.918,-141.5"/>
</g>
<!-- proc~bar -->
<g id="node4" class="node"><title>proc~bar</title>
<g id="a_node4"><a xlink:href="../proc/bar.html" xlink:title="bar">
<polygon fill="#d9534f" stroke="#d9534f" points="144,-108 90,-108 90,-84 144,-84 144,-108"/>
<text text-anchor="middle" x="117" y="-93.6" font-family="Helvetica,sans-Serif" font-size="10.50" fill="white">bar</text>
</a>
</g>
</g>
<!-- proc~hist&#45;&gt;proc~bar -->
<g id="edge8" class="edge"><title>proc~hist&#45;&gt;proc~bar</title>
<path fill="none" stroke="black" d="M53.4532,-125.852C62.2096,-121.673 72.1654,-116.921 81.5185,-112.457"/>
<polygon fill="black" stroke="black" points="83.0867,-115.587 90.604,-108.121 80.0716,-109.27 83.0867,-115.587"/>
</g>
<!-- proc~linspace -->
<g id="node5" class="node"><title>proc~linspace</title>
<g id="a_node5"><a xlink:href="../proc/linspace.html" xlink:title="linspace">
<polygon fill="#d94e8f" stroke="#d94e8f" points="234,-192 180,-192 180,-168 234,-168 234,-192"/>
<text text-anchor="middle" x="207" y="-177.6" font-family="Helvetica,sans-Serif" font-size="10.50" fill="white">linspace</text>
</a>
</g>
</g>
<!-- proc~bindata&#45;&gt;proc~linspace -->
<g id="edge1" class="edge"><title>proc~bindata&#45;&gt;proc~linspace</title>
<path fill="none" stroke="black" d="M144.403,-179.3C152.393,-179.391 161.311,-179.492 169.824,-179.589"/>
<polygon fill="black" stroke="black" points="169.88,-183.09 179.919,-179.704 169.959,-176.09 169.88,-183.09"/>
</g>
<!-- proc~bar&#45;&gt;interface~mixval -->
<g id="edge4" class="edge"><title>proc~bar&#45;&gt;interface~mixval</title>
<path fill="none" stroke="black" d="M143.453,-108.148C152.21,-112.327 162.165,-117.079 171.518,-121.543"/>
<polygon fill="black" stroke="black" points="170.072,-124.73 180.604,-125.879 173.087,-118.413 170.072,-124.73"/>
</g>
<!-- plline -->
<g id="node6" class="node"><title>plline</title>
<polygon fill="#777777" stroke="#777777" points="234,-108 180,-108 180,-84 234,-84 234,-108"/>
<text text-anchor="middle" x="207" y="-93.6" font-family="Helvetica,sans-Serif" font-size="10.50" fill="white">plline</text>
</g>
<!-- proc~bar&#45;&gt;plline -->
<g id="edge2" class="edge"><title>proc~bar&#45;&gt;plline</title>
<path fill="none" stroke="black" d="M144.403,-96C152.393,-96 161.311,-96 169.824,-96"/>
<polygon fill="black" stroke="black" points="169.919,-99.5001 179.919,-96 169.919,-92.5001 169.919,-99.5001"/>
</g>
<!-- plfill -->
<g id="node7" class="node"><title>plfill</title>
<polygon fill="#777777" stroke="#777777" points="234,-66 180,-66 180,-42 234,-42 234,-66"/>
<text text-anchor="middle" x="207" y="-51.6" font-family="Helvetica,sans-Serif" font-size="10.50" fill="white">plfill</text>
</g>
<!-- proc~bar&#45;&gt;plfill -->
<g id="edge3" class="edge"><title>proc~bar&#45;&gt;plfill</title>
<path fill="none" stroke="black" d="M143.453,-83.8519C152.21,-79.6727 162.165,-74.9211 171.518,-70.4571"/>
<polygon fill="black" stroke="black" points="173.087,-73.5869 180.604,-66.1208 170.072,-67.2695 173.087,-73.5869"/>
</g>
<!-- plcol1 -->
<g id="node8" class="node"><title>plcol1</title>
<polygon fill="#777777" stroke="#777777" points="234,-24 180,-24 180,-0 234,-0 234,-24"/>
<text text-anchor="middle" x="207" y="-9.6" font-family="Helvetica,sans-Serif" font-size="10.50" fill="white">plcol1</text>
</g>
<!-- proc~bar&#45;&gt;plcol1 -->
<g id="edge5" class="edge"><title>proc~bar&#45;&gt;plcol1</title>
<path fill="none" stroke="black" d="M129.042,-83.9877C141.153,-71.0041 161.354,-49.9029 180,-33 180.817,-32.2596 181.656,-31.5134 182.509,-30.7663"/>
<polygon fill="black" stroke="black" points="184.966,-33.2728 190.36,-24.1537 180.456,-27.9188 184.966,-33.2728"/>
</g>
</g>
</svg>
