<?xml version="1.0" encoding="UTF-8" standalone="no"?>
<!DOCTYPE svg PUBLIC "-//W3C//DTD SVG 1.1//EN"
 "http://www.w3.org/Graphics/SVG/1.1/DTD/svg11.dtd">
<!-- Generated by graphviz version 2.38.0 (20140413.2041)
 -->
<!-- Title: proc~~labels~~CalledByGraph Pages: 1 -->
<svg width="378pt" height="368pt"
 viewBox="0.00 0.00 378.00 368.00" xmlns="http://www.w3.org/2000/svg" xmlns:xlink="http://www.w3.org/1999/xlink">
<g id="graph0" class="graph" transform="scale(1 1) rotate(0) translate(4 364)">
<title>proc~~labels~~CalledByGraph</title>
<polygon fill="white" stroke="none" points="-4,4 -4,-364 374,-364 374,4 -4,4"/>
<!-- proc~labels -->
<g id="node1" class="node"><title>proc~labels</title>
<polygon fill="none" stroke="black" points="370,-192 316,-192 316,-168 370,-168 370,-192"/>
<text text-anchor="middle" x="343" y="-177.6" font-family="Helvetica,sans-Serif" font-size="10.50">labels</text>
</g>
<!-- proc~doerror -->
<g id="node2" class="node"><title>proc~doerror</title>
<g id="a_node2"><a xlink:href="../proc/doerror.html" xlink:title="doError">
<polygon fill="#d9534f" stroke="#d9534f" points="267.5,-360 213.5,-360 213.5,-336 267.5,-336 267.5,-360"/>
<text text-anchor="middle" x="240.5" y="-345.6" font-family="Helvetica,sans-Serif" font-size="10.50" fill="white">doError</text>
</a>
</g>
</g>
<!-- proc~doerror&#45;&gt;proc~labels -->
<g id="edge9" class="edge"><title>proc~doerror&#45;&gt;proc~labels</title>
<path fill="none" stroke="black" d="M267.675,-336.87C272.183,-334.121 276.527,-330.84 280,-327 313.24,-290.249 330.301,-233.071 337.562,-201.966"/>
<polygon fill="black" stroke="black" points="340.996,-202.647 339.732,-192.127 334.16,-201.139 340.996,-202.647"/>
</g>
<!-- proc~docontour -->
<g id="node3" class="node"><title>proc~docontour</title>
<g id="a_node3"><a xlink:href="../proc/docontour.html" xlink:title="doContour">
<polygon fill="#d9534f" stroke="#d9534f" points="272,-318 209,-318 209,-294 272,-294 272,-318"/>
<text text-anchor="middle" x="240.5" y="-303.6" font-family="Helvetica,sans-Serif" font-size="10.50" fill="white">doContour</text>
</a>
</g>
</g>
<!-- proc~docontour&#45;&gt;proc~labels -->
<g id="edge10" class="edge"><title>proc~docontour&#45;&gt;proc~labels</title>
<path fill="none" stroke="black" d="M268.072,-293.996C272.338,-291.392 276.496,-288.386 280,-285 305.061,-260.778 323.531,-224.284 333.522,-201.32"/>
<polygon fill="black" stroke="black" points="336.75,-202.673 337.394,-192.098 330.296,-199.963 336.75,-202.673"/>
</g>
<!-- program~basic_prg -->
<g id="node4" class="node"><title>program~basic_prg</title>
<g id="a_node4"><a xlink:href="../program/basic_prg.html" xlink:title="basic_prg">
<polygon fill="#f0ad4e" stroke="#f0ad4e" points="270,-66 211,-66 211,-42 270,-42 270,-66"/>
<text text-anchor="middle" x="240.5" y="-51.6" font-family="Helvetica,sans-Serif" font-size="10.50" fill="white">basic_prg</text>
</a>
</g>
</g>
<!-- program~basic_prg&#45;&gt;proc~labels -->
<g id="edge11" class="edge"><title>program~basic_prg&#45;&gt;proc~labels</title>
<path fill="none" stroke="black" d="M268.072,-66.0042C272.338,-68.6079 276.496,-71.6136 280,-75 305.061,-99.2221 323.531,-135.716 333.522,-158.68"/>
<polygon fill="black" stroke="black" points="330.296,-160.037 337.394,-167.902 336.75,-157.327 330.296,-160.037"/>
</g>
<!-- proc~makelogo -->
<g id="node5" class="node"><title>proc~makelogo</title>
<g id="a_node5"><a xlink:href="../proc/makelogo.html" xlink:title="makeLogo">
<polygon fill="#d9534f" stroke="#d9534f" points="272,-24 209,-24 209,-0 272,-0 272,-24"/>
<text text-anchor="middle" x="240.5" y="-9.6" font-family="Helvetica,sans-Serif" font-size="10.50" fill="white">makeLogo</text>
</a>
</g>
</g>
<!-- proc~makelogo&#45;&gt;proc~labels -->
<g id="edge12" class="edge"><title>proc~makelogo&#45;&gt;proc~labels</title>
<path fill="none" stroke="black" d="M269.258,-24.1222C273.193,-26.6586 276.936,-29.612 280,-33 313.24,-69.7505 330.301,-126.929 337.562,-158.034"/>
<polygon fill="black" stroke="black" points="334.16,-158.861 339.732,-167.873 340.996,-157.353 334.16,-158.861"/>
</g>
<!-- proc~dolegend -->
<g id="node6" class="node"><title>proc~dolegend</title>
<g id="a_node6"><a xlink:href="../proc/dolegend.html" xlink:title="doLegend">
<polygon fill="#d9534f" stroke="#d9534f" points="271,-276 210,-276 210,-252 271,-252 271,-276"/>
<text text-anchor="middle" x="240.5" y="-261.6" font-family="Helvetica,sans-Serif" font-size="10.50" fill="white">doLegend</text>
</a>
</g>
</g>
<!-- proc~dolegend&#45;&gt;proc~labels -->
<g id="edge13" class="edge"><title>proc~dolegend&#45;&gt;proc~labels</title>
<path fill="none" stroke="black" d="M266.201,-251.935C270.939,-249.235 275.746,-246.21 280,-243 296.84,-230.294 313.472,-213.068 325.264,-199.839"/>
<polygon fill="black" stroke="black" points="327.998,-202.03 331.939,-192.196 322.725,-197.426 327.998,-202.03"/>
</g>
<!-- proc~dofillbetween -->
<g id="node7" class="node"><title>proc~dofillbetween</title>
<g id="a_node7"><a xlink:href="../proc/dofillbetween.html" xlink:title="doFillBetween">
<polygon fill="#d9534f" stroke="#d9534f" points="280,-234 201,-234 201,-210 280,-210 280,-234"/>
<text text-anchor="middle" x="240.5" y="-219.6" font-family="Helvetica,sans-Serif" font-size="10.50" fill="white">doFillBetween</text>
</a>
</g>
</g>
<!-- proc~dofillbetween&#45;&gt;proc~labels -->
<g id="edge14" class="edge"><title>proc~dofillbetween&#45;&gt;proc~labels</title>
<path fill="none" stroke="black" d="M270.299,-209.964C281.65,-205.221 294.798,-199.726 306.711,-194.748"/>
<polygon fill="black" stroke="black" points="308.066,-197.975 315.943,-190.889 305.367,-191.516 308.066,-197.975"/>
</g>
<!-- proc~dobar -->
<g id="node8" class="node"><title>proc~dobar</title>
<g id="a_node8"><a xlink:href="../proc/dobar.html" xlink:title="doBar">
<polygon fill="#d9534f" stroke="#d9534f" points="267.5,-192 213.5,-192 213.5,-168 267.5,-168 267.5,-192"/>
<text text-anchor="middle" x="240.5" y="-177.6" font-family="Helvetica,sans-Serif" font-size="10.50" fill="white">doBar</text>
</a>
</g>
</g>
<!-- proc~dobar&#45;&gt;proc~labels -->
<g id="edge15" class="edge"><title>proc~dobar&#45;&gt;proc~labels</title>
<path fill="none" stroke="black" d="M267.643,-180C279.275,-180 293.165,-180 305.775,-180"/>
<polygon fill="black" stroke="black" points="305.988,-183.5 315.988,-180 305.988,-176.5 305.988,-183.5"/>
</g>
<!-- proc~doquiver -->
<g id="node9" class="node"><title>proc~doquiver</title>
<g id="a_node9"><a xlink:href="../proc/doquiver.html" xlink:title="doQuiver">
<polygon fill="#d9534f" stroke="#d9534f" points="268.5,-150 212.5,-150 212.5,-126 268.5,-126 268.5,-150"/>
<text text-anchor="middle" x="240.5" y="-135.6" font-family="Helvetica,sans-Serif" font-size="10.50" fill="white">doQuiver</text>
</a>
</g>
</g>
<!-- proc~doquiver&#45;&gt;proc~labels -->
<g id="edge16" class="edge"><title>proc~doquiver&#45;&gt;proc~labels</title>
<path fill="none" stroke="black" d="M268.697,-149.366C280.256,-154.196 293.893,-159.896 306.25,-165.06"/>
<polygon fill="black" stroke="black" points="305.246,-168.433 315.822,-169.06 307.945,-161.975 305.246,-168.433"/>
</g>
<!-- proc~doscatter -->
<g id="node10" class="node"><title>proc~doscatter</title>
<g id="a_node10"><a xlink:href="../proc/doscatter.html" xlink:title="doScatter">
<polygon fill="#d9534f" stroke="#d9534f" points="269.5,-108 211.5,-108 211.5,-84 269.5,-84 269.5,-108"/>
<text text-anchor="middle" x="240.5" y="-93.6" font-family="Helvetica,sans-Serif" font-size="10.50" fill="white">doScatter</text>
</a>
</g>
</g>
<!-- proc~doscatter&#45;&gt;proc~labels -->
<g id="edge17" class="edge"><title>proc~doscatter&#45;&gt;proc~labels</title>
<path fill="none" stroke="black" d="M266.201,-108.065C270.939,-110.765 275.746,-113.79 280,-117 296.84,-129.706 313.472,-146.932 325.264,-160.161"/>
<polygon fill="black" stroke="black" points="322.725,-162.574 331.939,-167.804 327.998,-157.97 322.725,-162.574"/>
</g>
<!-- proc~doexamples -->
<g id="node11" class="node"><title>proc~doexamples</title>
<g id="a_node11"><a xlink:href="../proc/doexamples.html" xlink:title="doExamples">
<polygon fill="#d9534f" stroke="#d9534f" points="165,-234 94,-234 94,-210 165,-210 165,-234"/>
<text text-anchor="middle" x="129.5" y="-219.6" font-family="Helvetica,sans-Serif" font-size="10.50" fill="white">doExamples</text>
</a>
</g>
</g>
<!-- proc~doexamples&#45;&gt;proc~doerror -->
<g id="edge2" class="edge"><title>proc~doexamples&#45;&gt;proc~doerror</title>
<path fill="none" stroke="black" d="M136.159,-234.065C146.524,-255.131 170.338,-299.036 201,-327 202.276,-328.164 203.629,-329.287 205.034,-330.366"/>
<polygon fill="black" stroke="black" points="203.244,-333.38 213.493,-336.063 207.154,-327.574 203.244,-333.38"/>
</g>
<!-- proc~doexamples&#45;&gt;proc~docontour -->
<g id="edge3" class="edge"><title>proc~doexamples&#45;&gt;proc~docontour</title>
<path fill="none" stroke="black" d="M142.258,-234.061C155.701,-247.467 178.734,-269.294 201,-285 202.82,-286.284 204.726,-287.548 206.676,-288.781"/>
<polygon fill="black" stroke="black" points="204.981,-291.845 215.366,-293.946 208.558,-285.828 204.981,-291.845"/>
</g>
<!-- proc~doexamples&#45;&gt;proc~dolegend -->
<g id="edge4" class="edge"><title>proc~doexamples&#45;&gt;proc~dolegend</title>
<path fill="none" stroke="black" d="M161.735,-234.036C173.766,-238.671 187.66,-244.025 200.346,-248.913"/>
<polygon fill="black" stroke="black" points="199.171,-252.211 209.76,-252.541 201.687,-245.679 199.171,-252.211"/>
</g>
<!-- proc~doexamples&#45;&gt;proc~dofillbetween -->
<g id="edge5" class="edge"><title>proc~doexamples&#45;&gt;proc~dofillbetween</title>
<path fill="none" stroke="black" d="M165.288,-222C173.35,-222 182.076,-222 190.617,-222"/>
<polygon fill="black" stroke="black" points="190.885,-225.5 200.885,-222 190.885,-218.5 190.885,-225.5"/>
</g>
<!-- proc~doexamples&#45;&gt;proc~dobar -->
<g id="edge6" class="edge"><title>proc~doexamples&#45;&gt;proc~dobar</title>
<path fill="none" stroke="black" d="M161.735,-209.964C174.897,-204.893 190.287,-198.963 203.887,-193.723"/>
<polygon fill="black" stroke="black" points="205.343,-196.912 213.416,-190.051 202.826,-190.381 205.343,-196.912"/>
</g>
<!-- proc~doexamples&#45;&gt;proc~doquiver -->
<g id="edge7" class="edge"><title>proc~doexamples&#45;&gt;proc~doquiver</title>
<path fill="none" stroke="black" d="M142.258,-209.939C155.701,-196.533 178.734,-174.706 201,-159 202.82,-157.716 204.726,-156.452 206.676,-155.219"/>
<polygon fill="black" stroke="black" points="208.558,-158.172 215.366,-150.054 204.981,-152.155 208.558,-158.172"/>
</g>
<!-- proc~doexamples&#45;&gt;proc~doscatter -->
<g id="edge8" class="edge"><title>proc~doexamples&#45;&gt;proc~doscatter</title>
<path fill="none" stroke="black" d="M136.159,-209.935C146.524,-188.869 170.338,-144.964 201,-117 202.125,-115.974 203.309,-114.98 204.537,-114.019"/>
<polygon fill="black" stroke="black" points="206.807,-116.707 213.091,-108.178 202.859,-110.927 206.807,-116.707"/>
</g>
<!-- program~main_prg -->
<g id="node12" class="node"><title>program~main_prg</title>
<g id="a_node12"><a xlink:href="../program/main_prg.html" xlink:title="main_prg">
<polygon fill="#f0ad4e" stroke="#f0ad4e" points="58,-234 3.55271e-15,-234 3.55271e-15,-210 58,-210 58,-234"/>
<text text-anchor="middle" x="29" y="-219.6" font-family="Helvetica,sans-Serif" font-size="10.50" fill="white">main_prg</text>
</a>
</g>
</g>
<!-- program~main_prg&#45;&gt;proc~doexamples -->
<g id="edge1" class="edge"><title>program~main_prg&#45;&gt;proc~doexamples</title>
<path fill="none" stroke="black" d="M58.2261,-222C66.2347,-222 75.1563,-222 83.8823,-222"/>
<polygon fill="black" stroke="black" points="83.9695,-225.5 93.9695,-222 83.9695,-218.5 83.9695,-225.5"/>
</g>
</g>
</svg>
