<?xml version="1.0" encoding="UTF-8" standalone="no"?>
<!DOCTYPE svg PUBLIC "-//W3C//DTD SVG 1.1//EN"
 "http://www.w3.org/Graphics/SVG/1.1/DTD/svg11.dtd">
<!-- Generated by graphviz version 2.38.0 (20140413.2041)
 -->
<!-- Title: proc~~dohist~~CallsGraph Pages: 1 -->
<svg width="332pt" height="635pt"
 viewBox="0.00 0.00 332.00 635.00" xmlns="http://www.w3.org/2000/svg" xmlns:xlink="http://www.w3.org/1999/xlink">
<g id="graph0" class="graph" transform="scale(1 1) rotate(0) translate(4 631)">
<title>proc~~dohist~~CallsGraph</title>
<polygon fill="white" stroke="none" points="-4,4 -4,-631 328,-631 328,4 -4,4"/>
<!-- proc~dohist -->
<g id="node1" class="node"><title>proc~dohist</title>
<polygon fill="none" stroke="black" points="54,-485 0,-485 0,-461 54,-461 54,-485"/>
<text text-anchor="middle" x="27" y="-470.6" font-family="Helvetica,sans-Serif" font-size="10.50">doHist</text>
</g>
<!-- proc~hist -->
<g id="node2" class="node"><title>proc~hist</title>
<g id="a_node2"><a xlink:href="../proc/hist.html" xlink:title="hist">
<polygon fill="#d9534f" stroke="#d9534f" points="144,-583 90,-583 90,-559 144,-559 144,-583"/>
<text text-anchor="middle" x="117" y="-568.6" font-family="Helvetica,sans-Serif" font-size="10.50" fill="white">hist</text>
</a>
</g>
</g>
<!-- proc~dohist&#45;&gt;proc~hist -->
<g id="edge27" class="edge"><title>proc~dohist&#45;&gt;proc~hist</title>
<path fill="none" stroke="black" d="M38.0439,-485.215C50.0898,-499.734 71.035,-524.567 90,-545 91.9949,-547.149 94.1111,-549.365 96.2407,-551.553"/>
<polygon fill="black" stroke="black" points="93.8516,-554.114 103.377,-558.753 98.8236,-549.187 93.8516,-554.114"/>
</g>
<!-- proc~ticks -->
<g id="node3" class="node"><title>proc~ticks</title>
<g id="a_node3"><a xlink:href="../proc/ticks.html" xlink:title="ticks">
<polygon fill="#d9534f" stroke="#d9534f" points="144,-465 90,-465 90,-441 144,-441 144,-465"/>
<text text-anchor="middle" x="117" y="-450.6" font-family="Helvetica,sans-Serif" font-size="10.50" fill="white">ticks</text>
</a>
</g>
</g>
<!-- proc~dohist&#45;&gt;proc~ticks -->
<g id="edge28" class="edge"><title>proc~dohist&#45;&gt;proc~ticks</title>
<path fill="none" stroke="black" d="M54.4029,-466.999C62.481,-465.163 71.5067,-463.112 80.1046,-461.158"/>
<polygon fill="black" stroke="black" points="80.9434,-464.557 89.919,-458.928 79.392,-457.731 80.9434,-464.557"/>
</g>
<!-- interface~mixval -->
<g id="node4" class="node"><title>interface~mixval</title>
<g id="a_node4"><a xlink:href="../interface/mixval.html" xlink:title="mixval">
<polygon fill="#a7506f" stroke="#a7506f" points="324,-627 270,-627 270,-603 324,-603 324,-627"/>
<text text-anchor="middle" x="297" y="-612.6" font-family="Helvetica,sans-Serif" font-size="10.50" fill="white">mixval</text>
</a>
</g>
</g>
<!-- proc~dohist&#45;&gt;interface~mixval -->
<g id="edge29" class="edge"><title>proc~dohist&#45;&gt;interface~mixval</title>
<path fill="none" stroke="black" d="M30.4142,-485.293C36.0023,-510.145 52.3373,-566.187 90,-592 140.839,-626.843 215.857,-625.359 259.946,-620.56"/>
<polygon fill="black" stroke="black" points="260.415,-624.029 269.925,-619.359 259.578,-617.079 260.415,-624.029"/>
</g>
<!-- proc~bar -->
<g id="node5" class="node"><title>proc~bar</title>
<g id="a_node5"><a xlink:href="../proc/bar.html" xlink:title="bar">
<polygon fill="#d9534f" stroke="#d9534f" points="234,-549 180,-549 180,-525 234,-525 234,-549"/>
<text text-anchor="middle" x="207" y="-534.6" font-family="Helvetica,sans-Serif" font-size="10.50" fill="white">bar</text>
</a>
</g>
</g>
<!-- proc~dohist&#45;&gt;proc~bar -->
<g id="edge30" class="edge"><title>proc~dohist&#45;&gt;proc~bar</title>
<path fill="none" stroke="black" d="M54.1131,-483.927C65.1316,-488.434 78.133,-493.617 90,-498 116.563,-507.811 146.908,-517.977 169.898,-525.469"/>
<polygon fill="black" stroke="black" points="168.993,-528.855 179.585,-528.61 171.152,-522.196 168.993,-528.855"/>
</g>
<!-- proc~xylim -->
<g id="node6" class="node"><title>proc~xylim</title>
<g id="a_node6"><a xlink:href="../proc/xylim.html" xlink:title="xylim">
<polygon fill="#d9534f" stroke="#d9534f" points="144,-423 90,-423 90,-399 144,-399 144,-423"/>
<text text-anchor="middle" x="117" y="-408.6" font-family="Helvetica,sans-Serif" font-size="10.50" fill="white">xylim</text>
</a>
</g>
</g>
<!-- proc~dohist&#45;&gt;proc~xylim -->
<g id="edge31" class="edge"><title>proc~dohist&#45;&gt;proc~xylim</title>
<path fill="none" stroke="black" d="M45.386,-460.751C58.2449,-451.691 75.9616,-439.209 90.4318,-429.014"/>
<polygon fill="black" stroke="black" points="92.7906,-431.634 98.9496,-423.013 88.7589,-425.911 92.7906,-431.634"/>
</g>
<!-- proc~bindata -->
<g id="node7" class="node"><title>proc~bindata</title>
<g id="a_node7"><a xlink:href="../proc/bindata.html" xlink:title="binData">
<polygon fill="#d94e8f" stroke="#d94e8f" points="234,-507 180,-507 180,-483 234,-483 234,-507"/>
<text text-anchor="middle" x="207" y="-492.6" font-family="Helvetica,sans-Serif" font-size="10.50" fill="white">binData</text>
</a>
</g>
</g>
<!-- proc~dohist&#45;&gt;proc~bindata -->
<g id="edge32" class="edge"><title>proc~dohist&#45;&gt;proc~bindata</title>
<path fill="none" stroke="black" d="M54.2645,-476.246C84.8509,-480.027 135.551,-486.293 169.843,-490.531"/>
<polygon fill="black" stroke="black" points="169.564,-494.023 179.918,-491.776 170.423,-487.076 169.564,-494.023"/>
</g>
<!-- proc~subplot -->
<g id="node8" class="node"><title>proc~subplot</title>
<g id="a_node8"><a xlink:href="../proc/subplot.html" xlink:title="subplot">
<polygon fill="#d9534f" stroke="#d9534f" points="144,-318 90,-318 90,-294 144,-294 144,-318"/>
<text text-anchor="middle" x="117" y="-303.6" font-family="Helvetica,sans-Serif" font-size="10.50" fill="white">subplot</text>
</a>
</g>
</g>
<!-- proc~dohist&#45;&gt;proc~subplot -->
<g id="edge33" class="edge"><title>proc~dohist&#45;&gt;proc~subplot</title>
<path fill="none" stroke="black" d="M34.3287,-460.99C49.098,-432.962 86.0033,-362.926 104.726,-327.395"/>
<polygon fill="black" stroke="black" points="107.926,-328.831 109.491,-318.352 101.733,-325.567 107.926,-328.831"/>
</g>
<!-- proc~figure -->
<g id="node9" class="node"><title>proc~figure</title>
<g id="a_node9"><a xlink:href="../proc/figure.html" xlink:title="figure">
<polygon fill="#d9534f" stroke="#d9534f" points="144,-192 90,-192 90,-168 144,-168 144,-192"/>
<text text-anchor="middle" x="117" y="-177.6" font-family="Helvetica,sans-Serif" font-size="10.50" fill="white">figure</text>
</a>
</g>
</g>
<!-- proc~dohist&#45;&gt;proc~figure -->
<g id="edge34" class="edge"><title>proc~dohist&#45;&gt;proc~figure</title>
<path fill="none" stroke="black" d="M31.6692,-460.783C45.1432,-415.921 92.0115,-259.871 109.422,-201.903"/>
<polygon fill="black" stroke="black" points="112.791,-202.853 112.315,-192.269 106.086,-200.84 112.791,-202.853"/>
</g>
<!-- proc~hist&#45;&gt;interface~mixval -->
<g id="edge2" class="edge"><title>proc~hist&#45;&gt;interface~mixval</title>
<path fill="none" stroke="black" d="M144.265,-577.492C174.851,-585.053 225.551,-597.586 259.843,-606.062"/>
<polygon fill="black" stroke="black" points="259.37,-609.551 269.918,-608.553 261.05,-602.755 259.37,-609.551"/>
</g>
<!-- proc~hist&#45;&gt;proc~bar -->
<g id="edge3" class="edge"><title>proc~hist&#45;&gt;proc~bar</title>
<path fill="none" stroke="black" d="M144.403,-560.799C152.569,-557.644 161.703,-554.115 170.385,-550.76"/>
<polygon fill="black" stroke="black" points="171.852,-553.946 179.919,-547.077 169.33,-547.416 171.852,-553.946"/>
</g>
<!-- proc~hist&#45;&gt;proc~bindata -->
<g id="edge1" class="edge"><title>proc~hist&#45;&gt;proc~bindata</title>
<path fill="none" stroke="black" d="M131.63,-558.583C144.087,-547.313 163.088,-530.318 180,-516 180.971,-515.178 181.967,-514.342 182.976,-513.501"/>
<polygon fill="black" stroke="black" points="185.27,-516.147 190.78,-507.098 180.829,-510.736 185.27,-516.147"/>
</g>
<!-- plbox -->
<g id="node10" class="node"><title>plbox</title>
<polygon fill="#777777" stroke="#777777" points="234,-465 180,-465 180,-441 234,-441 234,-465"/>
<text text-anchor="middle" x="207" y="-450.6" font-family="Helvetica,sans-Serif" font-size="10.50" fill="white">plbox</text>
</g>
<!-- proc~ticks&#45;&gt;plbox -->
<g id="edge4" class="edge"><title>proc~ticks&#45;&gt;plbox</title>
<path fill="none" stroke="black" d="M144.403,-453C152.393,-453 161.311,-453 169.824,-453"/>
<polygon fill="black" stroke="black" points="169.919,-456.5 179.919,-453 169.919,-449.5 169.919,-456.5"/>
</g>
<!-- proc~bar&#45;&gt;interface~mixval -->
<g id="edge7" class="edge"><title>proc~bar&#45;&gt;interface~mixval</title>
<path fill="none" stroke="black" d="M220.608,-549.033C232.986,-560.739 252.502,-578.917 270,-594 270.964,-594.831 271.954,-595.674 272.958,-596.52"/>
<polygon fill="black" stroke="black" points="270.802,-599.279 280.742,-602.946 275.259,-593.881 270.802,-599.279"/>
</g>
<!-- plline -->
<g id="node11" class="node"><title>plline</title>
<polygon fill="#777777" stroke="#777777" points="324,-585 270,-585 270,-561 324,-561 324,-585"/>
<text text-anchor="middle" x="297" y="-570.6" font-family="Helvetica,sans-Serif" font-size="10.50" fill="white">plline</text>
</g>
<!-- proc~bar&#45;&gt;plline -->
<g id="edge5" class="edge"><title>proc~bar&#45;&gt;plline</title>
<path fill="none" stroke="black" d="M234.403,-547.801C242.569,-551.142 251.703,-554.878 260.385,-558.43"/>
<polygon fill="black" stroke="black" points="259.338,-561.784 269.919,-562.33 261.989,-555.305 259.338,-561.784"/>
</g>
<!-- plfill -->
<g id="node12" class="node"><title>plfill</title>
<polygon fill="#777777" stroke="#777777" points="324,-543 270,-543 270,-519 324,-519 324,-543"/>
<text text-anchor="middle" x="297" y="-528.6" font-family="Helvetica,sans-Serif" font-size="10.50" fill="white">plfill</text>
</g>
<!-- proc~bar&#45;&gt;plfill -->
<g id="edge6" class="edge"><title>proc~bar&#45;&gt;plfill</title>
<path fill="none" stroke="black" d="M234.403,-535.2C242.393,-534.655 251.311,-534.047 259.824,-533.467"/>
<polygon fill="black" stroke="black" points="260.18,-536.95 269.919,-532.778 259.704,-529.967 260.18,-536.95"/>
</g>
<!-- plcol1 -->
<g id="node13" class="node"><title>plcol1</title>
<polygon fill="#777777" stroke="#777777" points="324,-501 270,-501 270,-477 324,-477 324,-501"/>
<text text-anchor="middle" x="297" y="-486.6" font-family="Helvetica,sans-Serif" font-size="10.50" fill="white">plcol1</text>
</g>
<!-- proc~bar&#45;&gt;plcol1 -->
<g id="edge8" class="edge"><title>proc~bar&#45;&gt;plcol1</title>
<path fill="none" stroke="black" d="M230.206,-524.888C240.732,-519.146 253.485,-512.19 264.95,-505.937"/>
<polygon fill="black" stroke="black" points="266.698,-508.97 273.801,-501.109 263.346,-502.824 266.698,-508.97"/>
</g>
<!-- plwind -->
<g id="node14" class="node"><title>plwind</title>
<polygon fill="#777777" stroke="#777777" points="234,-423 180,-423 180,-399 234,-399 234,-423"/>
<text text-anchor="middle" x="207" y="-408.6" font-family="Helvetica,sans-Serif" font-size="10.50" fill="white">plwind</text>
</g>
<!-- proc~xylim&#45;&gt;plwind -->
<g id="edge9" class="edge"><title>proc~xylim&#45;&gt;plwind</title>
<path fill="none" stroke="black" d="M144.403,-411C152.393,-411 161.311,-411 169.824,-411"/>
<polygon fill="black" stroke="black" points="169.919,-414.5 179.919,-411 169.919,-407.5 169.919,-414.5"/>
</g>
<!-- proc~linspace -->
<g id="node15" class="node"><title>proc~linspace</title>
<g id="a_node15"><a xlink:href="../proc/linspace.html" xlink:title="linspace">
<polygon fill="#d94e8f" stroke="#d94e8f" points="324,-459 270,-459 270,-435 324,-435 324,-459"/>
<text text-anchor="middle" x="297" y="-444.6" font-family="Helvetica,sans-Serif" font-size="10.50" fill="white">linspace</text>
</a>
</g>
</g>
<!-- proc~bindata&#45;&gt;proc~linspace -->
<g id="edge10" class="edge"><title>proc~bindata&#45;&gt;proc~linspace</title>
<path fill="none" stroke="black" d="M230.206,-482.888C240.732,-477.146 253.485,-470.19 264.95,-463.937"/>
<polygon fill="black" stroke="black" points="266.698,-466.97 273.801,-459.109 263.346,-460.824 266.698,-466.97"/>
</g>
<!-- plvasp -->
<g id="node16" class="node"><title>plvasp</title>
<polygon fill="#777777" stroke="#777777" points="234,-381 180,-381 180,-357 234,-357 234,-381"/>
<text text-anchor="middle" x="207" y="-366.6" font-family="Helvetica,sans-Serif" font-size="10.50" fill="white">plvasp</text>
</g>
<!-- proc~subplot&#45;&gt;plvasp -->
<g id="edge11" class="edge"><title>proc~subplot&#45;&gt;plvasp</title>
<path fill="none" stroke="black" d="M134.967,-318.147C147.994,-327.473 166.181,-340.493 180.891,-351.024"/>
<polygon fill="black" stroke="black" points="178.916,-353.915 189.085,-356.89 182.991,-348.223 178.916,-353.915"/>
</g>
<!-- plvpor -->
<g id="node17" class="node"><title>plvpor</title>
<polygon fill="#777777" stroke="#777777" points="234,-339 180,-339 180,-315 234,-315 234,-339"/>
<text text-anchor="middle" x="207" y="-324.6" font-family="Helvetica,sans-Serif" font-size="10.50" fill="white">plvpor</text>
</g>
<!-- proc~subplot&#45;&gt;plvpor -->
<g id="edge12" class="edge"><title>proc~subplot&#45;&gt;plvpor</title>
<path fill="none" stroke="black" d="M144.403,-312.301C152.481,-314.228 161.507,-316.382 170.105,-318.434"/>
<polygon fill="black" stroke="black" points="169.38,-321.859 179.919,-320.776 171.005,-315.05 169.38,-321.859"/>
</g>
<!-- plssub -->
<g id="node18" class="node"><title>plssub</title>
<polygon fill="#777777" stroke="#777777" points="234,-255 180,-255 180,-231 234,-231 234,-255"/>
<text text-anchor="middle" x="207" y="-240.6" font-family="Helvetica,sans-Serif" font-size="10.50" fill="white">plssub</text>
</g>
<!-- proc~subplot&#45;&gt;plssub -->
<g id="edge13" class="edge"><title>proc~subplot&#45;&gt;plssub</title>
<path fill="none" stroke="black" d="M134.967,-293.853C147.994,-284.527 166.181,-271.507 180.891,-260.976"/>
<polygon fill="black" stroke="black" points="182.991,-263.777 189.085,-255.11 178.916,-258.085 182.991,-263.777"/>
</g>
<!-- plvsta -->
<g id="node19" class="node"><title>plvsta</title>
<polygon fill="#777777" stroke="#777777" points="234,-297 180,-297 180,-273 234,-273 234,-297"/>
<text text-anchor="middle" x="207" y="-282.6" font-family="Helvetica,sans-Serif" font-size="10.50" fill="white">plvsta</text>
</g>
<!-- proc~subplot&#45;&gt;plvsta -->
<g id="edge14" class="edge"><title>proc~subplot&#45;&gt;plvsta</title>
<path fill="none" stroke="black" d="M144.403,-299.699C152.481,-297.772 161.507,-295.618 170.105,-293.566"/>
<polygon fill="black" stroke="black" points="171.005,-296.95 179.919,-291.224 169.38,-290.141 171.005,-296.95"/>
</g>
<!-- pladv -->
<g id="node20" class="node"><title>pladv</title>
<polygon fill="#777777" stroke="#777777" points="234,-213 180,-213 180,-189 234,-189 234,-213"/>
<text text-anchor="middle" x="207" y="-198.6" font-family="Helvetica,sans-Serif" font-size="10.50" fill="white">pladv</text>
</g>
<!-- proc~subplot&#45;&gt;pladv -->
<g id="edge15" class="edge"><title>proc~subplot&#45;&gt;pladv</title>
<path fill="none" stroke="black" d="M125.546,-293.848C136.43,-276.812 157.689,-245.305 180,-222 180.65,-221.322 181.321,-220.645 182.009,-219.973"/>
<polygon fill="black" stroke="black" points="184.636,-222.319 189.764,-213.047 179.974,-217.098 184.636,-222.319"/>
</g>
<!-- proc~figure&#45;&gt;plssub -->
<g id="edge24" class="edge"><title>proc~figure&#45;&gt;plssub</title>
<path fill="none" stroke="black" d="M134.967,-192.147C147.994,-201.473 166.181,-214.493 180.891,-225.024"/>
<polygon fill="black" stroke="black" points="178.916,-227.915 189.085,-230.89 182.991,-222.223 178.916,-227.915"/>
</g>
<!-- proc~figure&#45;&gt;pladv -->
<g id="edge22" class="edge"><title>proc~figure&#45;&gt;pladv</title>
<path fill="none" stroke="black" d="M144.403,-186.301C152.481,-188.228 161.507,-190.382 170.105,-192.434"/>
<polygon fill="black" stroke="black" points="169.38,-195.859 179.919,-194.776 171.005,-189.05 169.38,-195.859"/>
</g>
<!-- pleop -->
<g id="node21" class="node"><title>pleop</title>
<polygon fill="#777777" stroke="#777777" points="234,-171 180,-171 180,-147 234,-147 234,-171"/>
<text text-anchor="middle" x="207" y="-156.6" font-family="Helvetica,sans-Serif" font-size="10.50" fill="white">pleop</text>
</g>
<!-- proc~figure&#45;&gt;pleop -->
<g id="edge23" class="edge"><title>proc~figure&#45;&gt;pleop</title>
<path fill="none" stroke="black" d="M144.403,-173.699C152.481,-171.772 161.507,-169.618 170.105,-167.566"/>
<polygon fill="black" stroke="black" points="171.005,-170.95 179.919,-165.224 169.38,-164.141 171.005,-170.95"/>
</g>
<!-- proc~setup -->
<g id="node22" class="node"><title>proc~setup</title>
<g id="a_node22"><a xlink:href="../proc/setup.html" xlink:title="setup">
<polygon fill="#d9534f" stroke="#d9534f" points="234,-129 180,-129 180,-105 234,-105 234,-129"/>
<text text-anchor="middle" x="207" y="-114.6" font-family="Helvetica,sans-Serif" font-size="10.50" fill="white">setup</text>
</a>
</g>
</g>
<!-- proc~figure&#45;&gt;proc~setup -->
<g id="edge25" class="edge"><title>proc~figure&#45;&gt;proc~setup</title>
<path fill="none" stroke="black" d="M134.967,-167.853C147.994,-158.527 166.181,-145.507 180.891,-134.976"/>
<polygon fill="black" stroke="black" points="182.991,-137.777 189.085,-129.11 178.916,-132.085 182.991,-137.777"/>
</g>
<!-- plbop -->
<g id="node23" class="node"><title>plbop</title>
<polygon fill="#777777" stroke="#777777" points="234,-87 180,-87 180,-63 234,-63 234,-87"/>
<text text-anchor="middle" x="207" y="-72.6" font-family="Helvetica,sans-Serif" font-size="10.50" fill="white">plbop</text>
</g>
<!-- proc~figure&#45;&gt;plbop -->
<g id="edge26" class="edge"><title>proc~figure&#45;&gt;plbop</title>
<path fill="none" stroke="black" d="M125.546,-167.848C136.43,-150.812 157.689,-119.305 180,-96 180.65,-95.3215 181.321,-94.6449 182.009,-93.9726"/>
<polygon fill="black" stroke="black" points="184.636,-96.3188 189.764,-87.0475 179.974,-91.0975 184.636,-96.3188"/>
</g>
<!-- figsize -->
<g id="node24" class="node"><title>figsize</title>
<polygon fill="#777777" stroke="#777777" points="324,-108 270,-108 270,-84 324,-84 324,-108"/>
<text text-anchor="middle" x="297" y="-93.6" font-family="Helvetica,sans-Serif" font-size="10.50" fill="white">figsize</text>
</g>
<!-- proc~setup&#45;&gt;figsize -->
<g id="edge16" class="edge"><title>proc~setup&#45;&gt;figsize</title>
<path fill="none" stroke="black" d="M234.403,-110.699C242.481,-108.772 251.507,-106.618 260.105,-104.566"/>
<polygon fill="black" stroke="black" points="261.005,-107.95 269.919,-102.224 259.38,-101.141 261.005,-107.95"/>
</g>
<!-- plsdev -->
<g id="node25" class="node"><title>plsdev</title>
<polygon fill="#777777" stroke="#777777" points="324,-66 270,-66 270,-42 324,-42 324,-66"/>
<text text-anchor="middle" x="297" y="-51.6" font-family="Helvetica,sans-Serif" font-size="10.50" fill="white">plsdev</text>
</g>
<!-- proc~setup&#45;&gt;plsdev -->
<g id="edge17" class="edge"><title>proc~setup&#45;&gt;plsdev</title>
<path fill="none" stroke="black" d="M224.967,-104.853C237.994,-95.5274 256.181,-82.5069 270.891,-71.9759"/>
<polygon fill="black" stroke="black" points="272.991,-74.7768 279.085,-66.1097 268.916,-69.085 272.991,-74.7768"/>
</g>
<!-- plfontld -->
<g id="node26" class="node"><title>plfontld</title>
<polygon fill="#777777" stroke="#777777" points="324,-24 270,-24 270,-0 324,-0 324,-24"/>
<text text-anchor="middle" x="297" y="-9.6" font-family="Helvetica,sans-Serif" font-size="10.50" fill="white">plfontld</text>
</g>
<!-- proc~setup&#45;&gt;plfontld -->
<g id="edge18" class="edge"><title>proc~setup&#45;&gt;plfontld</title>
<path fill="none" stroke="black" d="M224.79,-104.979C228.05,-102.234 231.292,-99.1811 234,-96 254.905,-71.4443 249.095,-57.5557 270,-33 270.592,-32.3041 271.21,-31.6144 271.848,-30.9327"/>
<polygon fill="black" stroke="black" points="274.315,-33.4174 279.21,-24.021 269.524,-28.3141 274.315,-33.4174"/>
</g>
<!-- plsfnam -->
<g id="node27" class="node"><title>plsfnam</title>
<polygon fill="#777777" stroke="#777777" points="324,-234 270,-234 270,-210 324,-210 324,-234"/>
<text text-anchor="middle" x="297" y="-219.6" font-family="Helvetica,sans-Serif" font-size="10.50" fill="white">plsfnam</text>
</g>
<!-- proc~setup&#45;&gt;plsfnam -->
<g id="edge19" class="edge"><title>proc~setup&#45;&gt;plsfnam</title>
<path fill="none" stroke="black" d="M224.79,-129.021C228.05,-131.766 231.292,-134.819 234,-138 254.905,-162.556 249.095,-176.444 270,-201 270.592,-201.696 271.21,-202.386 271.848,-203.067"/>
<polygon fill="black" stroke="black" points="269.524,-205.686 279.21,-209.979 274.315,-200.583 269.524,-205.686"/>
</g>
<!-- plsfam -->
<g id="node28" class="node"><title>plsfam</title>
<polygon fill="#777777" stroke="#777777" points="324,-192 270,-192 270,-168 324,-168 324,-192"/>
<text text-anchor="middle" x="297" y="-177.6" font-family="Helvetica,sans-Serif" font-size="10.50" fill="white">plsfam</text>
</g>
<!-- proc~setup&#45;&gt;plsfam -->
<g id="edge20" class="edge"><title>proc~setup&#45;&gt;plsfam</title>
<path fill="none" stroke="black" d="M224.967,-129.147C237.994,-138.473 256.181,-151.493 270.891,-162.024"/>
<polygon fill="black" stroke="black" points="268.916,-164.915 279.085,-167.89 272.991,-159.223 268.916,-164.915"/>
</g>
<!-- plsetopt -->
<g id="node29" class="node"><title>plsetopt</title>
<polygon fill="#777777" stroke="#777777" points="324,-150 270,-150 270,-126 324,-126 324,-150"/>
<text text-anchor="middle" x="297" y="-135.6" font-family="Helvetica,sans-Serif" font-size="10.50" fill="white">plsetopt</text>
</g>
<!-- proc~setup&#45;&gt;plsetopt -->
<g id="edge21" class="edge"><title>proc~setup&#45;&gt;plsetopt</title>
<path fill="none" stroke="black" d="M234.403,-123.301C242.481,-125.228 251.507,-127.382 260.105,-129.434"/>
<polygon fill="black" stroke="black" points="259.38,-132.859 269.919,-131.776 261.005,-126.05 259.38,-132.859"/>
</g>
</g>
</svg>
