<?xml version="1.0" encoding="UTF-8" standalone="no"?>
<!DOCTYPE svg PUBLIC "-//W3C//DTD SVG 1.1//EN"
 "http://www.w3.org/Graphics/SVG/1.1/DTD/svg11.dtd">
<!-- Generated by graphviz version 2.38.0 (20140413.2041)
 -->
<!-- Title: proc~~xylim~~CalledByGraph Pages: 1 -->
<svg width="378pt" height="452pt"
 viewBox="0.00 0.00 378.00 452.00" xmlns="http://www.w3.org/2000/svg" xmlns:xlink="http://www.w3.org/1999/xlink">
<g id="graph0" class="graph" transform="scale(1 1) rotate(0) translate(4 448)">
<title>proc~~xylim~~CalledByGraph</title>
<polygon fill="white" stroke="none" points="-4,4 -4,-448 374,-448 374,4 -4,4"/>
<!-- proc~xylim -->
<g id="node1" class="node"><title>proc~xylim</title>
<polygon fill="none" stroke="black" points="370,-234 316,-234 316,-210 370,-210 370,-234"/>
<text text-anchor="middle" x="343" y="-219.6" font-family="Helvetica,sans-Serif" font-size="10.50">xylim</text>
</g>
<!-- proc~doerror -->
<g id="node2" class="node"><title>proc~doerror</title>
<g id="a_node2"><a xlink:href="../proc/doerror.html" xlink:title="doError">
<polygon fill="#d9534f" stroke="#d9534f" points="267.5,-444 213.5,-444 213.5,-420 267.5,-420 267.5,-444"/>
<text text-anchor="middle" x="240.5" y="-429.6" font-family="Helvetica,sans-Serif" font-size="10.50" fill="white">doError</text>
</a>
</g>
</g>
<!-- proc~doerror&#45;&gt;proc~xylim -->
<g id="edge11" class="edge"><title>proc~doerror&#45;&gt;proc~xylim</title>
<path fill="none" stroke="black" d="M267.539,-421.339C272.167,-418.522 276.59,-415.096 280,-411 321.625,-360.997 335.563,-282.227 340.021,-244.115"/>
<polygon fill="black" stroke="black" points="343.511,-244.396 341.082,-234.084 336.549,-243.66 343.511,-244.396"/>
</g>
<!-- proc~dobar -->
<g id="node3" class="node"><title>proc~dobar</title>
<g id="a_node3"><a xlink:href="../proc/dobar.html" xlink:title="doBar">
<polygon fill="#d9534f" stroke="#d9534f" points="267.5,-402 213.5,-402 213.5,-378 267.5,-378 267.5,-402"/>
<text text-anchor="middle" x="240.5" y="-387.6" font-family="Helvetica,sans-Serif" font-size="10.50" fill="white">doBar</text>
</a>
</g>
</g>
<!-- proc~dobar&#45;&gt;proc~xylim -->
<g id="edge12" class="edge"><title>proc~dobar&#45;&gt;proc~xylim</title>
<path fill="none" stroke="black" d="M267.675,-378.87C272.183,-376.121 276.527,-372.84 280,-369 313.24,-332.249 330.301,-275.071 337.562,-243.966"/>
<polygon fill="black" stroke="black" points="340.996,-244.647 339.732,-234.127 334.16,-243.139 340.996,-244.647"/>
</g>
<!-- proc~makelogo -->
<g id="node4" class="node"><title>proc~makelogo</title>
<g id="a_node4"><a xlink:href="../proc/makelogo.html" xlink:title="makeLogo">
<polygon fill="#d9534f" stroke="#d9534f" points="272,-66 209,-66 209,-42 272,-42 272,-66"/>
<text text-anchor="middle" x="240.5" y="-51.6" font-family="Helvetica,sans-Serif" font-size="10.50" fill="white">makeLogo</text>
</a>
</g>
</g>
<!-- proc~makelogo&#45;&gt;proc~xylim -->
<g id="edge13" class="edge"><title>proc~makelogo&#45;&gt;proc~xylim</title>
<path fill="none" stroke="black" d="M269.258,-66.1222C273.193,-68.6586 276.936,-71.612 280,-75 313.24,-111.751 330.301,-168.929 337.562,-200.034"/>
<polygon fill="black" stroke="black" points="334.16,-200.861 339.732,-209.873 340.996,-199.353 334.16,-200.861"/>
</g>
<!-- program~basic_prg -->
<g id="node5" class="node"><title>program~basic_prg</title>
<g id="a_node5"><a xlink:href="../program/basic_prg.html" xlink:title="basic_prg">
<polygon fill="#f0ad4e" stroke="#f0ad4e" points="270,-24 211,-24 211,-0 270,-0 270,-24"/>
<text text-anchor="middle" x="240.5" y="-9.6" font-family="Helvetica,sans-Serif" font-size="10.50" fill="white">basic_prg</text>
</a>
</g>
</g>
<!-- program~basic_prg&#45;&gt;proc~xylim -->
<g id="edge14" class="edge"><title>program~basic_prg&#45;&gt;proc~xylim</title>
<path fill="none" stroke="black" d="M269.897,-24.1639C273.653,-26.6721 277.175,-29.6061 280,-33 321.625,-83.0029 335.563,-161.773 340.021,-199.885"/>
<polygon fill="black" stroke="black" points="336.549,-200.34 341.082,-209.916 343.511,-199.604 336.549,-200.34"/>
</g>
<!-- proc~dohist -->
<g id="node6" class="node"><title>proc~dohist</title>
<g id="a_node6"><a xlink:href="../proc/dohist.html" xlink:title="doHist">
<polygon fill="#d9534f" stroke="#d9534f" points="267.5,-360 213.5,-360 213.5,-336 267.5,-336 267.5,-360"/>
<text text-anchor="middle" x="240.5" y="-345.6" font-family="Helvetica,sans-Serif" font-size="10.50" fill="white">doHist</text>
</a>
</g>
</g>
<!-- proc~dohist&#45;&gt;proc~xylim -->
<g id="edge15" class="edge"><title>proc~dohist&#45;&gt;proc~xylim</title>
<path fill="none" stroke="black" d="M267.672,-336.239C272.078,-333.58 276.387,-330.492 280,-327 305.061,-302.778 323.531,-266.284 333.522,-243.32"/>
<polygon fill="black" stroke="black" points="336.75,-244.673 337.394,-234.098 330.296,-241.963 336.75,-244.673"/>
</g>
<!-- proc~dolegend -->
<g id="node7" class="node"><title>proc~dolegend</title>
<g id="a_node7"><a xlink:href="../proc/dolegend.html" xlink:title="doLegend">
<polygon fill="#d9534f" stroke="#d9534f" points="271,-318 210,-318 210,-294 271,-294 271,-318"/>
<text text-anchor="middle" x="240.5" y="-303.6" font-family="Helvetica,sans-Serif" font-size="10.50" fill="white">doLegend</text>
</a>
</g>
</g>
<!-- proc~dolegend&#45;&gt;proc~xylim -->
<g id="edge16" class="edge"><title>proc~dolegend&#45;&gt;proc~xylim</title>
<path fill="none" stroke="black" d="M266.201,-293.935C270.939,-291.235 275.746,-288.21 280,-285 296.84,-272.294 313.472,-255.068 325.264,-241.839"/>
<polygon fill="black" stroke="black" points="327.998,-244.03 331.939,-234.196 322.725,-239.426 327.998,-244.03"/>
</g>
<!-- proc~dofillbetween -->
<g id="node8" class="node"><title>proc~dofillbetween</title>
<g id="a_node8"><a xlink:href="../proc/dofillbetween.html" xlink:title="doFillBetween">
<polygon fill="#d9534f" stroke="#d9534f" points="280,-276 201,-276 201,-252 280,-252 280,-276"/>
<text text-anchor="middle" x="240.5" y="-261.6" font-family="Helvetica,sans-Serif" font-size="10.50" fill="white">doFillBetween</text>
</a>
</g>
</g>
<!-- proc~dofillbetween&#45;&gt;proc~xylim -->
<g id="edge17" class="edge"><title>proc~dofillbetween&#45;&gt;proc~xylim</title>
<path fill="none" stroke="black" d="M270.299,-251.964C281.65,-247.221 294.798,-241.726 306.711,-236.748"/>
<polygon fill="black" stroke="black" points="308.066,-239.975 315.943,-232.889 305.367,-233.516 308.066,-239.975"/>
</g>
<!-- proc~doplot -->
<g id="node9" class="node"><title>proc~doplot</title>
<g id="a_node9"><a xlink:href="../proc/doplot.html" xlink:title="doPlot">
<polygon fill="#d9534f" stroke="#d9534f" points="267.5,-234 213.5,-234 213.5,-210 267.5,-210 267.5,-234"/>
<text text-anchor="middle" x="240.5" y="-219.6" font-family="Helvetica,sans-Serif" font-size="10.50" fill="white">doPlot</text>
</a>
</g>
</g>
<!-- proc~doplot&#45;&gt;proc~xylim -->
<g id="edge18" class="edge"><title>proc~doplot&#45;&gt;proc~xylim</title>
<path fill="none" stroke="black" d="M267.643,-222C279.275,-222 293.165,-222 305.775,-222"/>
<polygon fill="black" stroke="black" points="305.988,-225.5 315.988,-222 305.988,-218.5 305.988,-225.5"/>
</g>
<!-- proc~docontour -->
<g id="node10" class="node"><title>proc~docontour</title>
<g id="a_node10"><a xlink:href="../proc/docontour.html" xlink:title="doContour">
<polygon fill="#d9534f" stroke="#d9534f" points="272,-192 209,-192 209,-168 272,-168 272,-192"/>
<text text-anchor="middle" x="240.5" y="-177.6" font-family="Helvetica,sans-Serif" font-size="10.50" fill="white">doContour</text>
</a>
</g>
</g>
<!-- proc~docontour&#45;&gt;proc~xylim -->
<g id="edge19" class="edge"><title>proc~docontour&#45;&gt;proc~xylim</title>
<path fill="none" stroke="black" d="M270.299,-192.036C281.65,-196.779 294.798,-202.274 306.711,-207.252"/>
<polygon fill="black" stroke="black" points="305.367,-210.484 315.943,-211.111 308.066,-204.025 305.367,-210.484"/>
</g>
<!-- proc~doquiver -->
<g id="node11" class="node"><title>proc~doquiver</title>
<g id="a_node11"><a xlink:href="../proc/doquiver.html" xlink:title="doQuiver">
<polygon fill="#d9534f" stroke="#d9534f" points="268.5,-150 212.5,-150 212.5,-126 268.5,-126 268.5,-150"/>
<text text-anchor="middle" x="240.5" y="-135.6" font-family="Helvetica,sans-Serif" font-size="10.50" fill="white">doQuiver</text>
</a>
</g>
</g>
<!-- proc~doquiver&#45;&gt;proc~xylim -->
<g id="edge20" class="edge"><title>proc~doquiver&#45;&gt;proc~xylim</title>
<path fill="none" stroke="black" d="M266.201,-150.065C270.939,-152.765 275.746,-155.79 280,-159 296.84,-171.706 313.472,-188.932 325.264,-202.161"/>
<polygon fill="black" stroke="black" points="322.725,-204.574 331.939,-209.804 327.998,-199.97 322.725,-204.574"/>
</g>
<!-- proc~doscatter -->
<g id="node12" class="node"><title>proc~doscatter</title>
<g id="a_node12"><a xlink:href="../proc/doscatter.html" xlink:title="doScatter">
<polygon fill="#d9534f" stroke="#d9534f" points="269.5,-108 211.5,-108 211.5,-84 269.5,-84 269.5,-108"/>
<text text-anchor="middle" x="240.5" y="-93.6" font-family="Helvetica,sans-Serif" font-size="10.50" fill="white">doScatter</text>
</a>
</g>
</g>
<!-- proc~doscatter&#45;&gt;proc~xylim -->
<g id="edge21" class="edge"><title>proc~doscatter&#45;&gt;proc~xylim</title>
<path fill="none" stroke="black" d="M268.072,-108.004C272.338,-110.608 276.496,-113.614 280,-117 305.061,-141.222 323.531,-177.716 333.522,-200.68"/>
<polygon fill="black" stroke="black" points="330.296,-202.037 337.394,-209.902 336.75,-199.327 330.296,-202.037"/>
</g>
<!-- proc~doexamples -->
<g id="node13" class="node"><title>proc~doexamples</title>
<g id="a_node13"><a xlink:href="../proc/doexamples.html" xlink:title="doExamples">
<polygon fill="#d9534f" stroke="#d9534f" points="165,-276 94,-276 94,-252 165,-252 165,-276"/>
<text text-anchor="middle" x="129.5" y="-261.6" font-family="Helvetica,sans-Serif" font-size="10.50" fill="white">doExamples</text>
</a>
</g>
</g>
<!-- proc~doexamples&#45;&gt;proc~doerror -->
<g id="edge2" class="edge"><title>proc~doexamples&#45;&gt;proc~doerror</title>
<path fill="none" stroke="black" d="M133.55,-276.131C140.921,-303.315 162.029,-369.942 201,-411 202.225,-412.291 203.548,-413.521 204.939,-414.691"/>
<polygon fill="black" stroke="black" points="203.289,-417.811 213.473,-420.733 207.334,-412.098 203.289,-417.811"/>
</g>
<!-- proc~doexamples&#45;&gt;proc~dobar -->
<g id="edge3" class="edge"><title>proc~doexamples&#45;&gt;proc~dobar</title>
<path fill="none" stroke="black" d="M136.159,-276.065C146.524,-297.131 170.338,-341.036 201,-369 202.276,-370.164 203.629,-371.287 205.034,-372.366"/>
<polygon fill="black" stroke="black" points="203.244,-375.38 213.493,-378.063 207.154,-369.574 203.244,-375.38"/>
</g>
<!-- proc~doexamples&#45;&gt;proc~dohist -->
<g id="edge4" class="edge"><title>proc~doexamples&#45;&gt;proc~dohist</title>
<path fill="none" stroke="black" d="M142.258,-276.061C155.701,-289.467 178.734,-311.294 201,-327 202.82,-328.284 204.726,-329.548 206.676,-330.781"/>
<polygon fill="black" stroke="black" points="204.981,-333.845 215.366,-335.946 208.558,-327.828 204.981,-333.845"/>
</g>
<!-- proc~doexamples&#45;&gt;proc~dolegend -->
<g id="edge5" class="edge"><title>proc~doexamples&#45;&gt;proc~dolegend</title>
<path fill="none" stroke="black" d="M161.735,-276.036C173.766,-280.671 187.66,-286.025 200.346,-290.913"/>
<polygon fill="black" stroke="black" points="199.171,-294.211 209.76,-294.541 201.687,-287.679 199.171,-294.211"/>
</g>
<!-- proc~doexamples&#45;&gt;proc~dofillbetween -->
<g id="edge6" class="edge"><title>proc~doexamples&#45;&gt;proc~dofillbetween</title>
<path fill="none" stroke="black" d="M165.288,-264C173.35,-264 182.076,-264 190.617,-264"/>
<polygon fill="black" stroke="black" points="190.885,-267.5 200.885,-264 190.885,-260.5 190.885,-267.5"/>
</g>
<!-- proc~doexamples&#45;&gt;proc~doplot -->
<g id="edge7" class="edge"><title>proc~doexamples&#45;&gt;proc~doplot</title>
<path fill="none" stroke="black" d="M161.735,-251.964C174.897,-246.893 190.287,-240.963 203.887,-235.723"/>
<polygon fill="black" stroke="black" points="205.343,-238.912 213.416,-232.051 202.826,-232.381 205.343,-238.912"/>
</g>
<!-- proc~doexamples&#45;&gt;proc~docontour -->
<g id="edge8" class="edge"><title>proc~doexamples&#45;&gt;proc~docontour</title>
<path fill="none" stroke="black" d="M142.258,-251.939C155.701,-238.533 178.734,-216.706 201,-201 202.82,-199.716 204.726,-198.452 206.676,-197.219"/>
<polygon fill="black" stroke="black" points="208.558,-200.172 215.366,-192.054 204.981,-194.155 208.558,-200.172"/>
</g>
<!-- proc~doexamples&#45;&gt;proc~doquiver -->
<g id="edge9" class="edge"><title>proc~doexamples&#45;&gt;proc~doquiver</title>
<path fill="none" stroke="black" d="M136.159,-251.935C146.524,-230.869 170.338,-186.964 201,-159 202.125,-157.974 203.309,-156.98 204.537,-156.019"/>
<polygon fill="black" stroke="black" points="206.807,-158.707 213.091,-150.178 202.859,-152.927 206.807,-158.707"/>
</g>
<!-- proc~doexamples&#45;&gt;proc~doscatter -->
<g id="edge10" class="edge"><title>proc~doexamples&#45;&gt;proc~doscatter</title>
<path fill="none" stroke="black" d="M133.55,-251.869C140.921,-224.685 162.029,-158.058 201,-117 201.914,-116.037 202.882,-115.108 203.893,-114.212"/>
<polygon fill="black" stroke="black" points="206.325,-116.766 212.28,-108.003 202.16,-111.14 206.325,-116.766"/>
</g>
<!-- program~main_prg -->
<g id="node14" class="node"><title>program~main_prg</title>
<g id="a_node14"><a xlink:href="../program/main_prg.html" xlink:title="main_prg">
<polygon fill="#f0ad4e" stroke="#f0ad4e" points="58,-276 3.55271e-15,-276 3.55271e-15,-252 58,-252 58,-276"/>
<text text-anchor="middle" x="29" y="-261.6" font-family="Helvetica,sans-Serif" font-size="10.50" fill="white">main_prg</text>
</a>
</g>
</g>
<!-- program~main_prg&#45;&gt;proc~doexamples -->
<g id="edge1" class="edge"><title>program~main_prg&#45;&gt;proc~doexamples</title>
<path fill="none" stroke="black" d="M58.2261,-264C66.2347,-264 75.1563,-264 83.8823,-264"/>
<polygon fill="black" stroke="black" points="83.9695,-267.5 93.9695,-264 83.9695,-260.5 83.9695,-267.5"/>
</g>
</g>
</svg>
