<?xml version="1.0" encoding="UTF-8" standalone="no"?>
<!DOCTYPE svg PUBLIC "-//W3C//DTD SVG 1.1//EN"
 "http://www.w3.org/Graphics/SVG/1.1/DTD/svg11.dtd">
<!-- Generated by graphviz version 2.38.0 (20140413.2041)
 -->
<!-- Title: proc~~docontour~~CallsGraph Pages: 1 -->
<svg width="347pt" height="620pt"
 viewBox="0.00 0.00 347.00 620.00" xmlns="http://www.w3.org/2000/svg" xmlns:xlink="http://www.w3.org/1999/xlink">
<g id="graph0" class="graph" transform="scale(1 1) rotate(0) translate(4 616)">
<title>proc~~docontour~~CallsGraph</title>
<polygon fill="white" stroke="none" points="-4,4 -4,-616 343,-616 343,4 -4,4"/>
<!-- proc~docontour -->
<g id="node1" class="node"><title>proc~docontour</title>
<polygon fill="none" stroke="black" points="63,-223 0,-223 0,-199 63,-199 63,-223"/>
<text text-anchor="middle" x="31.5" y="-208.6" font-family="Helvetica,sans-Serif" font-size="10.50">doContour</text>
</g>
<!-- proc~labels -->
<g id="node2" class="node"><title>proc~labels</title>
<g id="a_node2"><a xlink:href="../proc/labels.html" xlink:title="labels">
<polygon fill="#d9534f" stroke="#d9534f" points="153,-596 99,-596 99,-572 153,-572 153,-596"/>
<text text-anchor="middle" x="126" y="-581.6" font-family="Helvetica,sans-Serif" font-size="10.50" fill="white">labels</text>
</a>
</g>
</g>
<!-- proc~docontour&#45;&gt;proc~labels -->
<g id="edge24" class="edge"><title>proc~docontour&#45;&gt;proc~labels</title>
<path fill="none" stroke="black" d="M33.8764,-223.254C38.9746,-266.494 58.6114,-415.592 99,-532 102.683,-542.616 108.08,-553.833 113.003,-563.12"/>
<polygon fill="black" stroke="black" points="109.993,-564.91 117.871,-571.994 116.13,-561.543 109.993,-564.91"/>
</g>
<!-- proc~ticks -->
<g id="node3" class="node"><title>proc~ticks</title>
<g id="a_node3"><a xlink:href="../proc/ticks.html" xlink:title="ticks">
<polygon fill="#d9534f" stroke="#d9534f" points="153,-523 99,-523 99,-499 153,-499 153,-523"/>
<text text-anchor="middle" x="126" y="-508.6" font-family="Helvetica,sans-Serif" font-size="10.50" fill="white">ticks</text>
</a>
</g>
</g>
<!-- proc~docontour&#45;&gt;proc~ticks -->
<g id="edge25" class="edge"><title>proc~docontour&#45;&gt;proc~ticks</title>
<path fill="none" stroke="black" d="M36.2432,-223.181C46.3497,-256.065 75.043,-349.393 99,-427 105.464,-447.94 112.854,-471.809 118.099,-488.738"/>
<polygon fill="black" stroke="black" points="114.902,-490.244 121.205,-498.76 121.588,-488.172 114.902,-490.244"/>
</g>
<!-- proc~figure -->
<g id="node4" class="node"><title>proc~figure</title>
<g id="a_node4"><a xlink:href="../proc/figure.html" xlink:title="figure">
<polygon fill="#d9534f" stroke="#d9534f" points="153,-297 99,-297 99,-273 153,-273 153,-297"/>
<text text-anchor="middle" x="126" y="-282.6" font-family="Helvetica,sans-Serif" font-size="10.50" fill="white">figure</text>
</a>
</g>
</g>
<!-- proc~docontour&#45;&gt;proc~figure -->
<g id="edge26" class="edge"><title>proc~docontour&#45;&gt;proc~figure</title>
<path fill="none" stroke="black" d="M47.7745,-223.22C62.3692,-234.895 84.5801,-252.664 101.442,-266.153"/>
<polygon fill="black" stroke="black" points="99.7077,-269.248 109.703,-272.762 104.081,-263.782 99.7077,-269.248"/>
</g>
<!-- proc~contour -->
<g id="node5" class="node"><title>proc~contour</title>
<g id="a_node5"><a xlink:href="../proc/contour.html" xlink:title="contour">
<polygon fill="#d9534f" stroke="#d9534f" points="153,-244 99,-244 99,-220 153,-220 153,-244"/>
<text text-anchor="middle" x="126" y="-229.6" font-family="Helvetica,sans-Serif" font-size="10.50" fill="white">contour</text>
</a>
</g>
</g>
<!-- proc~docontour&#45;&gt;proc~contour -->
<g id="edge27" class="edge"><title>proc~docontour&#45;&gt;proc~contour</title>
<path fill="none" stroke="black" d="M63.0443,-217.934C71.3654,-219.823 80.4561,-221.887 89.0475,-223.838"/>
<polygon fill="black" stroke="black" points="88.3007,-227.257 98.8275,-226.058 89.8505,-220.431 88.3007,-227.257"/>
</g>
<!-- interface~mixval -->
<g id="node6" class="node"><title>interface~mixval</title>
<g id="a_node6"><a xlink:href="../interface/mixval.html" xlink:title="mixval">
<polygon fill="#a7506f" stroke="#a7506f" points="153,-202 99,-202 99,-178 153,-178 153,-202"/>
<text text-anchor="middle" x="126" y="-187.6" font-family="Helvetica,sans-Serif" font-size="10.50" fill="white">mixval</text>
</a>
</g>
</g>
<!-- proc~docontour&#45;&gt;interface~mixval -->
<g id="edge28" class="edge"><title>proc~docontour&#45;&gt;interface~mixval</title>
<path fill="none" stroke="black" d="M63.0443,-204.066C71.3654,-202.177 80.4561,-200.113 89.0475,-198.162"/>
<polygon fill="black" stroke="black" points="89.8505,-201.569 98.8275,-195.942 88.3007,-194.743 89.8505,-201.569"/>
</g>
<!-- proc~colorbar -->
<g id="node7" class="node"><title>proc~colorbar</title>
<g id="a_node7"><a xlink:href="../proc/colorbar.html" xlink:title="colorbar">
<polygon fill="#d9534f" stroke="#d9534f" points="153,-160 99,-160 99,-136 153,-136 153,-160"/>
<text text-anchor="middle" x="126" y="-145.6" font-family="Helvetica,sans-Serif" font-size="10.50" fill="white">colorbar</text>
</a>
</g>
</g>
<!-- proc~docontour&#45;&gt;proc~colorbar -->
<g id="edge29" class="edge"><title>proc~docontour&#45;&gt;proc~colorbar</title>
<path fill="none" stroke="black" d="M50.3349,-198.853C64.0273,-189.527 83.1446,-176.507 98.6069,-165.976"/>
<polygon fill="black" stroke="black" points="100.925,-168.632 107.22,-160.11 96.9845,-162.846 100.925,-168.632"/>
</g>
<!-- proc~xylim -->
<g id="node8" class="node"><title>proc~xylim</title>
<g id="a_node8"><a xlink:href="../proc/xylim.html" xlink:title="xylim">
<polygon fill="#d9534f" stroke="#d9534f" points="153,-118 99,-118 99,-94 153,-94 153,-118"/>
<text text-anchor="middle" x="126" y="-103.6" font-family="Helvetica,sans-Serif" font-size="10.50" fill="white">xylim</text>
</a>
</g>
</g>
<!-- proc~docontour&#45;&gt;proc~xylim -->
<g id="edge30" class="edge"><title>proc~docontour&#45;&gt;proc~xylim</title>
<path fill="none" stroke="black" d="M40.7704,-198.91C52.6537,-181.946 75.7037,-150.525 99,-127 99.6609,-126.333 100.342,-125.666 101.039,-125.002"/>
<polygon fill="black" stroke="black" points="103.654,-127.362 108.843,-118.124 99.0261,-122.11 103.654,-127.362"/>
</g>
<!-- proc~contourf -->
<g id="node9" class="node"><title>proc~contourf</title>
<g id="a_node9"><a xlink:href="../proc/contourf.html" xlink:title="contourf">
<polygon fill="#d9534f" stroke="#d9534f" points="153,-38 99,-38 99,-14 153,-14 153,-38"/>
<text text-anchor="middle" x="126" y="-23.6" font-family="Helvetica,sans-Serif" font-size="10.50" fill="white">contourf</text>
</a>
</g>
</g>
<!-- proc~docontour&#45;&gt;proc~contourf -->
<g id="edge31" class="edge"><title>proc~docontour&#45;&gt;proc~contourf</title>
<path fill="none" stroke="black" d="M35.8692,-198.638C43.8289,-170.79 65.668,-101.7 99,-52 100.462,-49.8197 102.126,-47.6689 103.888,-45.5944"/>
<polygon fill="black" stroke="black" points="106.66,-47.7551 110.957,-38.0708 101.559,-42.9617 106.66,-47.7551"/>
</g>
<!-- proc~linspace -->
<g id="node10" class="node"><title>proc~linspace</title>
<g id="a_node10"><a xlink:href="../proc/linspace.html" xlink:title="linspace">
<polygon fill="#d94e8f" stroke="#d94e8f" points="246,-66 192,-66 192,-42 246,-42 246,-66"/>
<text text-anchor="middle" x="219" y="-51.6" font-family="Helvetica,sans-Serif" font-size="10.50" fill="white">linspace</text>
</a>
</g>
</g>
<!-- proc~docontour&#45;&gt;proc~linspace -->
<g id="edge32" class="edge"><title>proc~docontour&#45;&gt;proc~linspace</title>
<path fill="none" stroke="black" d="M35.3825,-198.829C42.0154,-173.562 60.8066,-115.259 99,-85 122.532,-66.3564 156.119,-58.841 181.614,-55.8538"/>
<polygon fill="black" stroke="black" points="182.037,-59.3291 191.643,-54.8597 181.347,-52.3632 182.037,-59.3291"/>
</g>
<!-- proc~subplot -->
<g id="node11" class="node"><title>proc~subplot</title>
<g id="a_node11"><a xlink:href="../proc/subplot.html" xlink:title="subplot">
<polygon fill="#d9534f" stroke="#d9534f" points="153,-418 99,-418 99,-394 153,-394 153,-418"/>
<text text-anchor="middle" x="126" y="-403.6" font-family="Helvetica,sans-Serif" font-size="10.50" fill="white">subplot</text>
</a>
</g>
</g>
<!-- proc~docontour&#45;&gt;proc~subplot -->
<g id="edge33" class="edge"><title>proc~docontour&#45;&gt;proc~subplot</title>
<path fill="none" stroke="black" d="M38.2863,-223.198C53.6327,-255.55 95.5192,-343.851 114.907,-384.722"/>
<polygon fill="black" stroke="black" points="111.768,-386.272 119.216,-393.806 118.092,-383.271 111.768,-386.272"/>
</g>
<!-- pllab -->
<g id="node12" class="node"><title>pllab</title>
<polygon fill="#777777" stroke="#777777" points="246,-612 192,-612 192,-588 246,-588 246,-612"/>
<text text-anchor="middle" x="219" y="-597.6" font-family="Helvetica,sans-Serif" font-size="10.50" fill="white">pllab</text>
</g>
<!-- proc~labels&#45;&gt;pllab -->
<g id="edge1" class="edge"><title>proc~labels&#45;&gt;pllab</title>
<path fill="none" stroke="black" d="M153.321,-588.628C162.187,-590.187 172.243,-591.955 181.738,-593.624"/>
<polygon fill="black" stroke="black" points="181.283,-597.098 191.738,-595.383 182.495,-590.204 181.283,-597.098"/>
</g>
<!-- plbox -->
<g id="node13" class="node"><title>plbox</title>
<polygon fill="#777777" stroke="#777777" points="246,-570 192,-570 192,-546 246,-546 246,-570"/>
<text text-anchor="middle" x="219" y="-555.6" font-family="Helvetica,sans-Serif" font-size="10.50" fill="white">plbox</text>
</g>
<!-- proc~ticks&#45;&gt;plbox -->
<g id="edge2" class="edge"><title>proc~ticks&#45;&gt;plbox</title>
<path fill="none" stroke="black" d="M150.435,-523.104C161.155,-528.641 174.033,-535.292 185.656,-541.295"/>
<polygon fill="black" stroke="black" points="184.154,-544.458 194.645,-545.937 187.366,-538.239 184.154,-544.458"/>
</g>
<!-- pladv -->
<g id="node14" class="node"><title>pladv</title>
<polygon fill="#777777" stroke="#777777" points="246,-360 192,-360 192,-336 246,-336 246,-360"/>
<text text-anchor="middle" x="219" y="-345.6" font-family="Helvetica,sans-Serif" font-size="10.50" fill="white">pladv</text>
</g>
<!-- proc~figure&#45;&gt;pladv -->
<g id="edge9" class="edge"><title>proc~figure&#45;&gt;pladv</title>
<path fill="none" stroke="black" d="M144.546,-297.147C158.016,-306.473 176.823,-319.493 192.035,-330.024"/>
<polygon fill="black" stroke="black" points="190.294,-333.076 200.508,-335.89 194.278,-327.32 190.294,-333.076"/>
</g>
<!-- pleop -->
<g id="node15" class="node"><title>pleop</title>
<polygon fill="#777777" stroke="#777777" points="246,-318 192,-318 192,-294 246,-294 246,-318"/>
<text text-anchor="middle" x="219" y="-303.6" font-family="Helvetica,sans-Serif" font-size="10.50" fill="white">pleop</text>
</g>
<!-- proc~figure&#45;&gt;pleop -->
<g id="edge10" class="edge"><title>proc~figure&#45;&gt;pleop</title>
<path fill="none" stroke="black" d="M153.321,-291.074C162.187,-293.12 172.243,-295.441 181.738,-297.632"/>
<polygon fill="black" stroke="black" points="181.207,-301.101 191.738,-299.94 182.781,-294.281 181.207,-301.101"/>
</g>
<!-- plssub -->
<g id="node16" class="node"><title>plssub</title>
<polygon fill="#777777" stroke="#777777" points="246,-402 192,-402 192,-378 246,-378 246,-402"/>
<text text-anchor="middle" x="219" y="-387.6" font-family="Helvetica,sans-Serif" font-size="10.50" fill="white">plssub</text>
</g>
<!-- proc~figure&#45;&gt;plssub -->
<g id="edge11" class="edge"><title>proc~figure&#45;&gt;plssub</title>
<path fill="none" stroke="black" d="M134.198,-297.029C144.824,-314.194 165.954,-346.163 189,-369 189.795,-369.788 190.621,-370.568 191.471,-371.339"/>
<polygon fill="black" stroke="black" points="189.565,-374.302 199.518,-377.931 194.001,-368.887 189.565,-374.302"/>
</g>
<!-- proc~setup -->
<g id="node17" class="node"><title>proc~setup</title>
<g id="a_node17"><a xlink:href="../proc/setup.html" xlink:title="setup">
<polygon fill="#d9534f" stroke="#d9534f" points="246,-276 192,-276 192,-252 246,-252 246,-276"/>
<text text-anchor="middle" x="219" y="-261.6" font-family="Helvetica,sans-Serif" font-size="10.50" fill="white">setup</text>
</a>
</g>
</g>
<!-- proc~figure&#45;&gt;proc~setup -->
<g id="edge12" class="edge"><title>proc~figure&#45;&gt;proc~setup</title>
<path fill="none" stroke="black" d="M153.321,-278.926C162.187,-276.88 172.243,-274.559 181.738,-272.368"/>
<polygon fill="black" stroke="black" points="182.781,-275.719 191.738,-270.06 181.207,-268.899 182.781,-275.719"/>
</g>
<!-- plbop -->
<g id="node18" class="node"><title>plbop</title>
<polygon fill="#777777" stroke="#777777" points="246,-234 192,-234 192,-210 246,-210 246,-234"/>
<text text-anchor="middle" x="219" y="-219.6" font-family="Helvetica,sans-Serif" font-size="10.50" fill="white">plbop</text>
</g>
<!-- proc~figure&#45;&gt;plbop -->
<g id="edge13" class="edge"><title>proc~figure&#45;&gt;plbop</title>
<path fill="none" stroke="black" d="M144.546,-272.853C158.016,-263.527 176.823,-250.507 192.035,-239.976"/>
<polygon fill="black" stroke="black" points="194.278,-242.68 200.508,-234.11 190.294,-236.924 194.278,-242.68"/>
</g>
<!-- plcont -->
<g id="node25" class="node"><title>plcont</title>
<polygon fill="#777777" stroke="#777777" points="246,-192 192,-192 192,-168 246,-168 246,-192"/>
<text text-anchor="middle" x="219" y="-177.6" font-family="Helvetica,sans-Serif" font-size="10.50" fill="white">plcont</text>
</g>
<!-- proc~contour&#45;&gt;plcont -->
<g id="edge14" class="edge"><title>proc~contour&#45;&gt;plcont</title>
<path fill="none" stroke="black" d="M148.106,-219.939C159.851,-213.228 174.676,-204.757 187.647,-197.345"/>
<polygon fill="black" stroke="black" points="189.747,-200.176 196.693,-192.175 186.274,-194.098 189.747,-200.176"/>
</g>
<!-- plcolorbar -->
<g id="node26" class="node"><title>plcolorbar</title>
<polygon fill="#777777" stroke="#777777" points="249,-150 189,-150 189,-126 249,-126 249,-150"/>
<text text-anchor="middle" x="219" y="-135.6" font-family="Helvetica,sans-Serif" font-size="10.50" fill="white">plcolorbar</text>
</g>
<!-- proc~colorbar&#45;&gt;plcolorbar -->
<g id="edge15" class="edge"><title>proc~colorbar&#45;&gt;plcolorbar</title>
<path fill="none" stroke="black" d="M153.321,-145.108C161.232,-144.238 170.091,-143.265 178.653,-142.324"/>
<polygon fill="black" stroke="black" points="179.309,-145.773 188.867,-141.201 178.544,-138.815 179.309,-145.773"/>
</g>
<!-- plwind -->
<g id="node27" class="node"><title>plwind</title>
<polygon fill="#777777" stroke="#777777" points="246,-108 192,-108 192,-84 246,-84 246,-108"/>
<text text-anchor="middle" x="219" y="-93.6" font-family="Helvetica,sans-Serif" font-size="10.50" fill="white">plwind</text>
</g>
<!-- proc~xylim&#45;&gt;plwind -->
<g id="edge16" class="edge"><title>proc~xylim&#45;&gt;plwind</title>
<path fill="none" stroke="black" d="M153.321,-103.108C162.187,-102.133 172.243,-101.028 181.738,-99.9849"/>
<polygon fill="black" stroke="black" points="182.18,-103.457 191.738,-98.8859 181.416,-96.4993 182.18,-103.457"/>
</g>
<!-- proc~contourf&#45;&gt;proc~linspace -->
<g id="edge17" class="edge"><title>proc~contourf&#45;&gt;proc~linspace</title>
<path fill="none" stroke="black" d="M153.321,-34.0988C162.281,-36.8558 172.457,-39.9867 182.041,-42.9355"/>
<polygon fill="black" stroke="black" points="181.151,-46.3237 191.738,-45.9194 183.21,-39.6333 181.151,-46.3237"/>
</g>
<!-- plshades -->
<g id="node28" class="node"><title>plshades</title>
<polygon fill="#777777" stroke="#777777" points="246.5,-24 191.5,-24 191.5,-0 246.5,-0 246.5,-24"/>
<text text-anchor="middle" x="219" y="-9.6" font-family="Helvetica,sans-Serif" font-size="10.50" fill="white">plshades</text>
</g>
<!-- proc~contourf&#45;&gt;plshades -->
<g id="edge18" class="edge"><title>proc~contourf&#45;&gt;plshades</title>
<path fill="none" stroke="black" d="M153.321,-21.9506C162.11,-20.5985 172.068,-19.0665 181.49,-17.6169"/>
<polygon fill="black" stroke="black" points="182.071,-21.0687 191.423,-16.0888 181.007,-14.1501 182.071,-21.0687"/>
</g>
<!-- proc~subplot&#45;&gt;pladv -->
<g id="edge23" class="edge"><title>proc~subplot&#45;&gt;pladv</title>
<path fill="none" stroke="black" d="M145.855,-393.982C158.789,-385.739 176.157,-374.669 190.611,-365.456"/>
<polygon fill="black" stroke="black" points="192.617,-368.329 199.169,-360.002 188.855,-362.426 192.617,-368.329"/>
</g>
<!-- proc~subplot&#45;&gt;plssub -->
<g id="edge21" class="edge"><title>proc~subplot&#45;&gt;plssub</title>
<path fill="none" stroke="black" d="M153.321,-401.372C162.187,-399.813 172.243,-398.045 181.738,-396.376"/>
<polygon fill="black" stroke="black" points="182.495,-399.796 191.738,-394.617 181.283,-392.902 182.495,-399.796"/>
</g>
<!-- plvasp -->
<g id="node29" class="node"><title>plvasp</title>
<polygon fill="#777777" stroke="#777777" points="246,-528 192,-528 192,-504 246,-504 246,-528"/>
<text text-anchor="middle" x="219" y="-513.6" font-family="Helvetica,sans-Serif" font-size="10.50" fill="white">plvasp</text>
</g>
<!-- proc~subplot&#45;&gt;plvasp -->
<g id="edge19" class="edge"><title>proc~subplot&#45;&gt;plvasp</title>
<path fill="none" stroke="black" d="M133.698,-418.179C144.015,-436.259 165.12,-470.68 189,-495 189.784,-495.798 190.601,-496.588 191.443,-497.367"/>
<polygon fill="black" stroke="black" points="189.517,-500.316 199.451,-503.998 193.981,-494.925 189.517,-500.316"/>
</g>
<!-- plvpor -->
<g id="node30" class="node"><title>plvpor</title>
<polygon fill="#777777" stroke="#777777" points="246,-486 192,-486 192,-462 246,-462 246,-486"/>
<text text-anchor="middle" x="219" y="-471.6" font-family="Helvetica,sans-Serif" font-size="10.50" fill="white">plvpor</text>
</g>
<!-- proc~subplot&#45;&gt;plvpor -->
<g id="edge20" class="edge"><title>proc~subplot&#45;&gt;plvpor</title>
<path fill="none" stroke="black" d="M142.728,-418.073C155.217,-427.624 173.155,-441.26 189,-453 190.217,-453.902 191.466,-454.823 192.729,-455.75"/>
<polygon fill="black" stroke="black" points="190.945,-458.781 201.086,-461.847 195.07,-453.126 190.945,-458.781"/>
</g>
<!-- plvsta -->
<g id="node31" class="node"><title>plvsta</title>
<polygon fill="#777777" stroke="#777777" points="246,-444 192,-444 192,-420 246,-420 246,-444"/>
<text text-anchor="middle" x="219" y="-429.6" font-family="Helvetica,sans-Serif" font-size="10.50" fill="white">plvsta</text>
</g>
<!-- proc~subplot&#45;&gt;plvsta -->
<g id="edge22" class="edge"><title>proc~subplot&#45;&gt;plvsta</title>
<path fill="none" stroke="black" d="M153.321,-413.52C162.281,-416.08 172.457,-418.988 182.041,-421.726"/>
<polygon fill="black" stroke="black" points="181.161,-425.115 191.738,-424.497 183.084,-418.384 181.161,-425.115"/>
</g>
<!-- figsize -->
<g id="node19" class="node"><title>figsize</title>
<polygon fill="#777777" stroke="#777777" points="339,-381 285,-381 285,-357 339,-357 339,-381"/>
<text text-anchor="middle" x="312" y="-366.6" font-family="Helvetica,sans-Serif" font-size="10.50" fill="white">figsize</text>
</g>
<!-- proc~setup&#45;&gt;figsize -->
<g id="edge3" class="edge"><title>proc~setup&#45;&gt;figsize</title>
<path fill="none" stroke="black" d="M239.077,-276.021C242.608,-278.725 246.093,-281.762 249,-285 270.544,-308.997 264.095,-323.444 285,-348 285.592,-348.696 286.21,-349.386 286.848,-350.067"/>
<polygon fill="black" stroke="black" points="284.524,-352.686 294.21,-356.979 289.315,-347.583 284.524,-352.686"/>
</g>
<!-- plsdev -->
<g id="node20" class="node"><title>plsdev</title>
<polygon fill="#777777" stroke="#777777" points="339,-339 285,-339 285,-315 339,-315 339,-339"/>
<text text-anchor="middle" x="312" y="-324.6" font-family="Helvetica,sans-Serif" font-size="10.50" fill="white">plsdev</text>
</g>
<!-- proc~setup&#45;&gt;plsdev -->
<g id="edge4" class="edge"><title>proc~setup&#45;&gt;plsdev</title>
<path fill="none" stroke="black" d="M237.546,-276.147C251.016,-285.473 269.823,-298.493 285.035,-309.024"/>
<polygon fill="black" stroke="black" points="283.294,-312.076 293.508,-314.89 287.278,-306.32 283.294,-312.076"/>
</g>
<!-- plfontld -->
<g id="node21" class="node"><title>plfontld</title>
<polygon fill="#777777" stroke="#777777" points="339,-297 285,-297 285,-273 339,-273 339,-297"/>
<text text-anchor="middle" x="312" y="-282.6" font-family="Helvetica,sans-Serif" font-size="10.50" fill="white">plfontld</text>
</g>
<!-- proc~setup&#45;&gt;plfontld -->
<g id="edge5" class="edge"><title>proc~setup&#45;&gt;plfontld</title>
<path fill="none" stroke="black" d="M246.321,-270.074C255.187,-272.12 265.243,-274.441 274.738,-276.632"/>
<polygon fill="black" stroke="black" points="274.207,-280.101 284.738,-278.94 275.781,-273.281 274.207,-280.101"/>
</g>
<!-- plsfnam -->
<g id="node22" class="node"><title>plsfnam</title>
<polygon fill="#777777" stroke="#777777" points="339,-255 285,-255 285,-231 339,-231 339,-255"/>
<text text-anchor="middle" x="312" y="-240.6" font-family="Helvetica,sans-Serif" font-size="10.50" fill="white">plsfnam</text>
</g>
<!-- proc~setup&#45;&gt;plsfnam -->
<g id="edge6" class="edge"><title>proc~setup&#45;&gt;plsfnam</title>
<path fill="none" stroke="black" d="M246.321,-257.926C255.187,-255.88 265.243,-253.559 274.738,-251.368"/>
<polygon fill="black" stroke="black" points="275.781,-254.719 284.738,-249.06 274.207,-247.899 275.781,-254.719"/>
</g>
<!-- plsfam -->
<g id="node23" class="node"><title>plsfam</title>
<polygon fill="#777777" stroke="#777777" points="339,-213 285,-213 285,-189 339,-189 339,-213"/>
<text text-anchor="middle" x="312" y="-198.6" font-family="Helvetica,sans-Serif" font-size="10.50" fill="white">plsfam</text>
</g>
<!-- proc~setup&#45;&gt;plsfam -->
<g id="edge7" class="edge"><title>proc~setup&#45;&gt;plsfam</title>
<path fill="none" stroke="black" d="M237.546,-251.853C251.016,-242.527 269.823,-229.507 285.035,-218.976"/>
<polygon fill="black" stroke="black" points="287.278,-221.68 293.508,-213.11 283.294,-215.924 287.278,-221.68"/>
</g>
<!-- plsetopt -->
<g id="node24" class="node"><title>plsetopt</title>
<polygon fill="#777777" stroke="#777777" points="339,-171 285,-171 285,-147 339,-147 339,-171"/>
<text text-anchor="middle" x="312" y="-156.6" font-family="Helvetica,sans-Serif" font-size="10.50" fill="white">plsetopt</text>
</g>
<!-- proc~setup&#45;&gt;plsetopt -->
<g id="edge8" class="edge"><title>proc~setup&#45;&gt;plsetopt</title>
<path fill="none" stroke="black" d="M239.077,-251.979C242.608,-249.275 246.093,-246.238 249,-243 270.544,-219.003 264.095,-204.556 285,-180 285.592,-179.304 286.21,-178.614 286.848,-177.933"/>
<polygon fill="black" stroke="black" points="289.315,-180.417 294.21,-171.021 284.524,-175.314 289.315,-180.417"/>
</g>
</g>
</svg>
