<?xml version="1.0" encoding="UTF-8" standalone="no"?>
<!DOCTYPE svg PUBLIC "-//W3C//DTD SVG 1.1//EN"
 "http://www.w3.org/Graphics/SVG/1.1/DTD/svg11.dtd">
<!-- Generated by graphviz version 2.38.0 (20140413.2041)
 -->
<!-- Title: proc~~scatter~~CallsGraph Pages: 1 -->
<svg width="152pt" height="200pt"
 viewBox="0.00 0.00 152.00 200.00" xmlns="http://www.w3.org/2000/svg" xmlns:xlink="http://www.w3.org/1999/xlink">
<g id="graph0" class="graph" transform="scale(1 1) rotate(0) translate(4 196)">
<title>proc~~scatter~~CallsGraph</title>
<polygon fill="white" stroke="none" points="-4,4 -4,-196 148,-196 148,4 -4,4"/>
<!-- proc~scatter -->
<g id="node1" class="node"><title>proc~scatter</title>
<polygon fill="none" stroke="black" points="54,-108 0,-108 0,-84 54,-84 54,-108"/>
<text text-anchor="middle" x="27" y="-93.6" font-family="Helvetica,sans-Serif" font-size="10.50">scatter</text>
</g>
<!-- plptex -->
<g id="node2" class="node"><title>plptex</title>
<polygon fill="#777777" stroke="#777777" points="144,-192 90,-192 90,-168 144,-168 144,-192"/>
<text text-anchor="middle" x="117" y="-177.6" font-family="Helvetica,sans-Serif" font-size="10.50" fill="white">plptex</text>
</g>
<!-- proc~scatter&#45;&gt;plptex -->
<g id="edge1" class="edge"><title>proc~scatter&#45;&gt;plptex</title>
<path fill="none" stroke="black" d="M39.0423,-108.012C51.1535,-120.996 71.3541,-142.097 90,-159 90.8168,-159.74 91.6556,-160.487 92.5085,-161.234"/>
<polygon fill="black" stroke="black" points="90.4563,-164.081 100.36,-167.846 94.9658,-158.727 90.4563,-164.081"/>
</g>
<!-- plssym -->
<g id="node3" class="node"><title>plssym</title>
<polygon fill="#777777" stroke="#777777" points="144,-150 90,-150 90,-126 144,-126 144,-150"/>
<text text-anchor="middle" x="117" y="-135.6" font-family="Helvetica,sans-Serif" font-size="10.50" fill="white">plssym</text>
</g>
<!-- proc~scatter&#45;&gt;plssym -->
<g id="edge2" class="edge"><title>proc~scatter&#45;&gt;plssym</title>
<path fill="none" stroke="black" d="M53.4532,-108.148C62.2096,-112.327 72.1654,-117.079 81.5185,-121.543"/>
<polygon fill="black" stroke="black" points="80.0716,-124.73 90.604,-125.879 83.0867,-118.413 80.0716,-124.73"/>
</g>
<!-- plschr -->
<g id="node4" class="node"><title>plschr</title>
<polygon fill="#777777" stroke="#777777" points="144,-108 90,-108 90,-84 144,-84 144,-108"/>
<text text-anchor="middle" x="117" y="-93.6" font-family="Helvetica,sans-Serif" font-size="10.50" fill="white">plschr</text>
</g>
<!-- proc~scatter&#45;&gt;plschr -->
<g id="edge3" class="edge"><title>proc~scatter&#45;&gt;plschr</title>
<path fill="none" stroke="black" d="M54.4029,-96C62.3932,-96 71.3106,-96 79.8241,-96"/>
<polygon fill="black" stroke="black" points="79.919,-99.5001 89.919,-96 79.919,-92.5001 79.919,-99.5001"/>
</g>
<!-- plcol1 -->
<g id="node5" class="node"><title>plcol1</title>
<polygon fill="#777777" stroke="#777777" points="144,-66 90,-66 90,-42 144,-42 144,-66"/>
<text text-anchor="middle" x="117" y="-51.6" font-family="Helvetica,sans-Serif" font-size="10.50" fill="white">plcol1</text>
</g>
<!-- proc~scatter&#45;&gt;plcol1 -->
<g id="edge4" class="edge"><title>proc~scatter&#45;&gt;plcol1</title>
<path fill="none" stroke="black" d="M53.4532,-83.8519C62.2096,-79.6727 72.1654,-74.9211 81.5185,-70.4571"/>
<polygon fill="black" stroke="black" points="83.0867,-73.5869 90.604,-66.1208 80.0716,-67.2695 83.0867,-73.5869"/>
</g>
<!-- interface~mixval -->
<g id="node6" class="node"><title>interface~mixval</title>
<g id="a_node6"><a xlink:href="../interface/mixval.html" xlink:title="mixval">
<polygon fill="#a7506f" stroke="#a7506f" points="144,-24 90,-24 90,-0 144,-0 144,-24"/>
<text text-anchor="middle" x="117" y="-9.6" font-family="Helvetica,sans-Serif" font-size="10.50" fill="white">mixval</text>
</a>
</g>
</g>
<!-- proc~scatter&#45;&gt;interface~mixval -->
<g id="edge5" class="edge"><title>proc~scatter&#45;&gt;interface~mixval</title>
<path fill="none" stroke="black" d="M39.0423,-83.9877C51.1535,-71.0041 71.3541,-49.9029 90,-33 90.8168,-32.2596 91.6556,-31.5134 92.5085,-30.7663"/>
<polygon fill="black" stroke="black" points="94.9658,-33.2728 100.36,-24.1537 90.4563,-27.9188 94.9658,-33.2728"/>
</g>
</g>
</svg>
