<?xml version="1.0" encoding="UTF-8" standalone="no"?>
<!DOCTYPE svg PUBLIC "-//W3C//DTD SVG 1.1//EN"
 "http://www.w3.org/Graphics/SVG/1.1/DTD/svg11.dtd">
<!-- Generated by graphviz version 2.38.0 (20140413.2041)
 -->
<!-- Title: proc~~setup~~CallsGraph Pages: 1 -->
<svg width="152pt" height="242pt"
 viewBox="0.00 0.00 152.00 242.00" xmlns="http://www.w3.org/2000/svg" xmlns:xlink="http://www.w3.org/1999/xlink">
<g id="graph0" class="graph" transform="scale(1 1) rotate(0) translate(4 238)">
<title>proc~~setup~~CallsGraph</title>
<polygon fill="white" stroke="none" points="-4,4 -4,-238 148,-238 148,4 -4,4"/>
<!-- proc~setup -->
<g id="node1" class="node"><title>proc~setup</title>
<polygon fill="none" stroke="black" points="54,-129 0,-129 0,-105 54,-105 54,-129"/>
<text text-anchor="middle" x="27" y="-114.6" font-family="Helvetica,sans-Serif" font-size="10.50">setup</text>
</g>
<!-- figsize -->
<g id="node2" class="node"><title>figsize</title>
<polygon fill="#777777" stroke="#777777" points="144,-234 90,-234 90,-210 144,-210 144,-234"/>
<text text-anchor="middle" x="117" y="-219.6" font-family="Helvetica,sans-Serif" font-size="10.50" fill="white">figsize</text>
</g>
<!-- proc~setup&#45;&gt;figsize -->
<g id="edge1" class="edge"><title>proc~setup&#45;&gt;figsize</title>
<path fill="none" stroke="black" d="M35.546,-129.152C46.4296,-146.188 67.6887,-177.695 90,-201 90.6495,-201.678 91.3209,-202.355 92.0087,-203.027"/>
<polygon fill="black" stroke="black" points="89.9736,-205.902 99.7638,-209.953 94.6361,-200.681 89.9736,-205.902"/>
</g>
<!-- plsdev -->
<g id="node3" class="node"><title>plsdev</title>
<polygon fill="#777777" stroke="#777777" points="144,-192 90,-192 90,-168 144,-168 144,-192"/>
<text text-anchor="middle" x="117" y="-177.6" font-family="Helvetica,sans-Serif" font-size="10.50" fill="white">plsdev</text>
</g>
<!-- proc~setup&#45;&gt;plsdev -->
<g id="edge2" class="edge"><title>proc~setup&#45;&gt;plsdev</title>
<path fill="none" stroke="black" d="M44.9673,-129.147C57.9935,-138.473 76.1808,-151.493 90.8908,-162.024"/>
<polygon fill="black" stroke="black" points="88.9163,-164.915 99.0848,-167.89 92.9911,-159.223 88.9163,-164.915"/>
</g>
<!-- plfontld -->
<g id="node4" class="node"><title>plfontld</title>
<polygon fill="#777777" stroke="#777777" points="144,-150 90,-150 90,-126 144,-126 144,-150"/>
<text text-anchor="middle" x="117" y="-135.6" font-family="Helvetica,sans-Serif" font-size="10.50" fill="white">plfontld</text>
</g>
<!-- proc~setup&#45;&gt;plfontld -->
<g id="edge3" class="edge"><title>proc~setup&#45;&gt;plfontld</title>
<path fill="none" stroke="black" d="M54.4029,-123.301C62.481,-125.228 71.5067,-127.382 80.1046,-129.434"/>
<polygon fill="black" stroke="black" points="79.3797,-132.859 89.919,-131.776 81.0046,-126.05 79.3797,-132.859"/>
</g>
<!-- plsfnam -->
<g id="node5" class="node"><title>plsfnam</title>
<polygon fill="#777777" stroke="#777777" points="144,-108 90,-108 90,-84 144,-84 144,-108"/>
<text text-anchor="middle" x="117" y="-93.6" font-family="Helvetica,sans-Serif" font-size="10.50" fill="white">plsfnam</text>
</g>
<!-- proc~setup&#45;&gt;plsfnam -->
<g id="edge4" class="edge"><title>proc~setup&#45;&gt;plsfnam</title>
<path fill="none" stroke="black" d="M54.4029,-110.699C62.481,-108.772 71.5067,-106.618 80.1046,-104.566"/>
<polygon fill="black" stroke="black" points="81.0046,-107.95 89.919,-102.224 79.3797,-101.141 81.0046,-107.95"/>
</g>
<!-- plsfam -->
<g id="node6" class="node"><title>plsfam</title>
<polygon fill="#777777" stroke="#777777" points="144,-66 90,-66 90,-42 144,-42 144,-66"/>
<text text-anchor="middle" x="117" y="-51.6" font-family="Helvetica,sans-Serif" font-size="10.50" fill="white">plsfam</text>
</g>
<!-- proc~setup&#45;&gt;plsfam -->
<g id="edge5" class="edge"><title>proc~setup&#45;&gt;plsfam</title>
<path fill="none" stroke="black" d="M44.9673,-104.853C57.9935,-95.5274 76.1808,-82.5069 90.8908,-71.9759"/>
<polygon fill="black" stroke="black" points="92.9911,-74.7768 99.0848,-66.1097 88.9163,-69.085 92.9911,-74.7768"/>
</g>
<!-- plsetopt -->
<g id="node7" class="node"><title>plsetopt</title>
<polygon fill="#777777" stroke="#777777" points="144,-24 90,-24 90,-0 144,-0 144,-24"/>
<text text-anchor="middle" x="117" y="-9.6" font-family="Helvetica,sans-Serif" font-size="10.50" fill="white">plsetopt</text>
</g>
<!-- proc~setup&#45;&gt;plsetopt -->
<g id="edge6" class="edge"><title>proc~setup&#45;&gt;plsetopt</title>
<path fill="none" stroke="black" d="M35.546,-104.848C46.4296,-87.8123 67.6887,-56.3053 90,-33 90.6495,-32.3215 91.3209,-31.6449 92.0087,-30.9726"/>
<polygon fill="black" stroke="black" points="94.6361,-33.3188 99.7638,-24.0475 89.9736,-28.0975 94.6361,-33.3188"/>
</g>
</g>
</svg>
