<?xml version="1.0" encoding="UTF-8" standalone="no"?>
<!DOCTYPE svg PUBLIC "-//W3C//DTD SVG 1.1//EN"
 "http://www.w3.org/Graphics/SVG/1.1/DTD/svg11.dtd">
<!-- Generated by graphviz version 2.38.0 (20140413.2041)
 -->
<!-- Title: proc~~xlim~~CallsGraph Pages: 1 -->
<svg width="152pt" height="74pt"
 viewBox="0.00 0.00 152.00 74.00" xmlns="http://www.w3.org/2000/svg" xmlns:xlink="http://www.w3.org/1999/xlink">
<g id="graph0" class="graph" transform="scale(1 1) rotate(0) translate(4 70)">
<title>proc~~xlim~~CallsGraph</title>
<polygon fill="white" stroke="none" points="-4,4 -4,-70 148,-70 148,4 -4,4"/>
<!-- proc~xlim -->
<g id="node1" class="node"><title>proc~xlim</title>
<polygon fill="none" stroke="black" points="54,-45 0,-45 0,-21 54,-21 54,-45"/>
<text text-anchor="middle" x="27" y="-30.6" font-family="Helvetica,sans-Serif" font-size="10.50">xlim</text>
</g>
<!-- plwind -->
<g id="node2" class="node"><title>plwind</title>
<polygon fill="#777777" stroke="#777777" points="144,-66 90,-66 90,-42 144,-42 144,-66"/>
<text text-anchor="middle" x="117" y="-51.6" font-family="Helvetica,sans-Serif" font-size="10.50" fill="white">plwind</text>
</g>
<!-- proc~xlim&#45;&gt;plwind -->
<g id="edge1" class="edge"><title>proc~xlim&#45;&gt;plwind</title>
<path fill="none" stroke="black" d="M54.4029,-39.3007C62.481,-41.2284 71.5067,-43.3823 80.1046,-45.4341"/>
<polygon fill="black" stroke="black" points="79.3797,-48.8593 89.919,-47.7761 81.0046,-42.0505 79.3797,-48.8593"/>
</g>
<!-- plgvpw -->
<g id="node3" class="node"><title>plgvpw</title>
<polygon fill="#777777" stroke="#777777" points="144,-24 90,-24 90,-0 144,-0 144,-24"/>
<text text-anchor="middle" x="117" y="-9.6" font-family="Helvetica,sans-Serif" font-size="10.50" fill="white">plgvpw</text>
</g>
<!-- proc~xlim&#45;&gt;plgvpw -->
<g id="edge2" class="edge"><title>proc~xlim&#45;&gt;plgvpw</title>
<path fill="none" stroke="black" d="M54.4029,-26.6993C62.481,-24.7716 71.5067,-22.6177 80.1046,-20.5659"/>
<polygon fill="black" stroke="black" points="81.0046,-23.9495 89.919,-18.2239 79.3797,-17.1407 81.0046,-23.9495"/>
</g>
</g>
</svg>
