<?xml version="1.0" encoding="UTF-8" standalone="no"?>
<!DOCTYPE svg PUBLIC "-//W3C//DTD SVG 1.1//EN"
 "http://www.w3.org/Graphics/SVG/1.1/DTD/svg11.dtd">
<!-- Generated by graphviz version 2.38.0 (20140413.2041)
 -->
<!-- Title: proc~~show~~CalledByGraph Pages: 1 -->
<svg width="157pt" height="74pt"
 viewBox="0.00 0.00 157.00 74.00" xmlns="http://www.w3.org/2000/svg" xmlns:xlink="http://www.w3.org/1999/xlink">
<g id="graph0" class="graph" transform="scale(1 1) rotate(0) translate(4 70)">
<title>proc~~show~~CalledByGraph</title>
<polygon fill="white" stroke="none" points="-4,4 -4,-70 153,-70 153,4 -4,4"/>
<!-- proc~show -->
<g id="node1" class="node"><title>proc~show</title>
<polygon fill="none" stroke="black" points="149,-45 95,-45 95,-21 149,-21 149,-45"/>
<text text-anchor="middle" x="122" y="-30.6" font-family="Helvetica,sans-Serif" font-size="10.50">show</text>
</g>
<!-- program~basic_prg -->
<g id="node2" class="node"><title>program~basic_prg</title>
<g id="a_node2"><a xlink:href="../program/basic_prg.html" xlink:title="basic_prg">
<polygon fill="#f0ad4e" stroke="#f0ad4e" points="59,-66 0,-66 0,-42 59,-42 59,-66"/>
<text text-anchor="middle" x="29.5" y="-51.6" font-family="Helvetica,sans-Serif" font-size="10.50" fill="white">basic_prg</text>
</a>
</g>
</g>
<!-- program~basic_prg&#45;&gt;proc~show -->
<g id="edge1" class="edge"><title>program~basic_prg&#45;&gt;proc~show</title>
<path fill="none" stroke="black" d="M59.1348,-47.3555C67.3232,-45.4554 76.3546,-43.3597 84.9272,-41.3705"/>
<polygon fill="black" stroke="black" points="85.7521,-44.7722 94.7021,-39.1023 84.1697,-37.9533 85.7521,-44.7722"/>
</g>
<!-- program~main_prg -->
<g id="node3" class="node"><title>program~main_prg</title>
<g id="a_node3"><a xlink:href="../program/main_prg.html" xlink:title="main_prg">
<polygon fill="#f0ad4e" stroke="#f0ad4e" points="58.5,-24 0.5,-24 0.5,-0 58.5,-0 58.5,-24"/>
<text text-anchor="middle" x="29.5" y="-9.6" font-family="Helvetica,sans-Serif" font-size="10.50" fill="white">main_prg</text>
</a>
</g>
</g>
<!-- program~main_prg&#45;&gt;proc~show -->
<g id="edge2" class="edge"><title>program~main_prg&#45;&gt;proc~show</title>
<path fill="none" stroke="black" d="M58.6387,-18.5294C66.918,-20.4506 76.0936,-22.5797 84.8028,-24.6006"/>
<polygon fill="black" stroke="black" points="84.1982,-28.0533 94.7306,-26.9043 85.7806,-21.2345 84.1982,-28.0533"/>
</g>
</g>
</svg>
