<?xml version="1.0" encoding="UTF-8" standalone="no"?>
<!DOCTYPE svg PUBLIC "-//W3C//DTD SVG 1.1//EN"
 "http://www.w3.org/Graphics/SVG/1.1/DTD/svg11.dtd">
<!-- Generated by graphviz version 2.38.0 (20140413.2041)
 -->
<!-- Title: proc~~bar~~CalledByGraph Pages: 1 -->
<svg width="443pt" height="112pt"
 viewBox="0.00 0.00 443.00 112.00" xmlns="http://www.w3.org/2000/svg" xmlns:xlink="http://www.w3.org/1999/xlink">
<g id="graph0" class="graph" transform="scale(1 1) rotate(0) translate(4 108)">
<title>proc~~bar~~CalledByGraph</title>
<polygon fill="white" stroke="none" points="-4,4 -4,-108 439,-108 439,4 -4,4"/>
<!-- proc~bar -->
<g id="node1" class="node"><title>proc~bar</title>
<polygon fill="none" stroke="black" points="435,-64 381,-64 381,-40 435,-40 435,-64"/>
<text text-anchor="middle" x="408" y="-49.6" font-family="Helvetica,sans-Serif" font-size="10.50">bar</text>
</g>
<!-- proc~dobar -->
<g id="node2" class="node"><title>proc~dobar</title>
<g id="a_node2"><a xlink:href="../proc/dobar.html" xlink:title="doBar">
<polygon fill="#d9534f" stroke="#d9534f" points="345,-104 291,-104 291,-80 345,-80 345,-104"/>
<text text-anchor="middle" x="318" y="-89.6" font-family="Helvetica,sans-Serif" font-size="10.50" fill="white">doBar</text>
</a>
</g>
</g>
<!-- proc~dobar&#45;&gt;proc~bar -->
<g id="edge5" class="edge"><title>proc~dobar&#45;&gt;proc~bar</title>
<path fill="none" stroke="black" d="M345.403,-79.9987C353.657,-76.247 362.9,-72.0457 371.665,-68.0615"/>
<polygon fill="black" stroke="black" points="373.264,-71.1794 380.919,-63.855 370.367,-64.8068 373.264,-71.1794"/>
</g>
<!-- proc~dohist -->
<g id="node3" class="node"><title>proc~dohist</title>
<g id="a_node3"><a xlink:href="../proc/dohist.html" xlink:title="doHist">
<polygon fill="#d9534f" stroke="#d9534f" points="255,-64 201,-64 201,-40 255,-40 255,-64"/>
<text text-anchor="middle" x="228" y="-49.6" font-family="Helvetica,sans-Serif" font-size="10.50" fill="white">doHist</text>
</a>
</g>
</g>
<!-- proc~dohist&#45;&gt;proc~bar -->
<g id="edge6" class="edge"><title>proc~dohist&#45;&gt;proc~bar</title>
<path fill="none" stroke="black" d="M255.265,-52C285.851,-52 336.551,-52 370.843,-52"/>
<polygon fill="black" stroke="black" points="370.918,-55.5001 380.918,-52 370.918,-48.5001 370.918,-55.5001"/>
</g>
<!-- proc~hist -->
<g id="node4" class="node"><title>proc~hist</title>
<g id="a_node4"><a xlink:href="../proc/hist.html" xlink:title="hist">
<polygon fill="#d9534f" stroke="#d9534f" points="345,-24 291,-24 291,-0 345,-0 345,-24"/>
<text text-anchor="middle" x="318" y="-9.6" font-family="Helvetica,sans-Serif" font-size="10.50" fill="white">hist</text>
</a>
</g>
</g>
<!-- proc~dohist&#45;&gt;proc~hist -->
<g id="edge4" class="edge"><title>proc~dohist&#45;&gt;proc~hist</title>
<path fill="none" stroke="black" d="M255.403,-39.9987C263.657,-36.247 272.9,-32.0457 281.665,-28.0615"/>
<polygon fill="black" stroke="black" points="283.264,-31.1794 290.919,-23.855 280.367,-24.8068 283.264,-31.1794"/>
</g>
<!-- proc~hist&#45;&gt;proc~bar -->
<g id="edge7" class="edge"><title>proc~hist&#45;&gt;proc~bar</title>
<path fill="none" stroke="black" d="M345.403,-24.0013C353.657,-27.753 362.9,-31.9543 371.665,-35.9385"/>
<polygon fill="black" stroke="black" points="370.367,-39.1932 380.919,-40.145 373.264,-32.8206 370.367,-39.1932"/>
</g>
<!-- proc~doexamples -->
<g id="node5" class="node"><title>proc~doexamples</title>
<g id="a_node5"><a xlink:href="../proc/doexamples.html" xlink:title="doExamples">
<polygon fill="#d9534f" stroke="#d9534f" points="165,-84 94,-84 94,-60 165,-60 165,-84"/>
<text text-anchor="middle" x="129.5" y="-69.6" font-family="Helvetica,sans-Serif" font-size="10.50" fill="white">doExamples</text>
</a>
</g>
</g>
<!-- proc~doexamples&#45;&gt;proc~dobar -->
<g id="edge2" class="edge"><title>proc~doexamples&#45;&gt;proc~dobar</title>
<path fill="none" stroke="black" d="M165.142,-75.715C198.031,-79.2419 247.276,-84.5229 280.701,-88.1073"/>
<polygon fill="black" stroke="black" points="280.64,-91.6208 290.956,-89.2071 281.386,-84.6607 280.64,-91.6208"/>
</g>
<!-- proc~doexamples&#45;&gt;proc~dohist -->
<g id="edge3" class="edge"><title>proc~doexamples&#45;&gt;proc~dohist</title>
<path fill="none" stroke="black" d="M165.066,-64.836C173.448,-63.0989 182.43,-61.2373 190.882,-59.4857"/>
<polygon fill="black" stroke="black" points="191.769,-62.8762 200.851,-57.4195 190.349,-56.0218 191.769,-62.8762"/>
</g>
<!-- program~main_prg -->
<g id="node6" class="node"><title>program~main_prg</title>
<g id="a_node6"><a xlink:href="../program/main_prg.html" xlink:title="main_prg">
<polygon fill="#f0ad4e" stroke="#f0ad4e" points="58,-84 3.55271e-15,-84 3.55271e-15,-60 58,-60 58,-84"/>
<text text-anchor="middle" x="29" y="-69.6" font-family="Helvetica,sans-Serif" font-size="10.50" fill="white">main_prg</text>
</a>
</g>
</g>
<!-- program~main_prg&#45;&gt;proc~doexamples -->
<g id="edge1" class="edge"><title>program~main_prg&#45;&gt;proc~doexamples</title>
<path fill="none" stroke="black" d="M58.2261,-72C66.2347,-72 75.1563,-72 83.8823,-72"/>
<polygon fill="black" stroke="black" points="83.9695,-75.5001 93.9695,-72 83.9695,-68.5001 83.9695,-75.5001"/>
</g>
</g>
</svg>
