<?xml version="1.0" encoding="UTF-8" standalone="no"?>
<!DOCTYPE svg PUBLIC "-//W3C//DTD SVG 1.1//EN"
 "http://www.w3.org/Graphics/SVG/1.1/DTD/svg11.dtd">
<!-- Generated by graphviz version 2.38.0 (20140413.2041)
 -->
<!-- Title: proc~~dosurface~~CallsGraph Pages: 1 -->
<svg width="339pt" height="536pt"
 viewBox="0.00 0.00 339.00 536.00" xmlns="http://www.w3.org/2000/svg" xmlns:xlink="http://www.w3.org/1999/xlink">
<g id="graph0" class="graph" transform="scale(1 1) rotate(0) translate(4 532)">
<title>proc~~dosurface~~CallsGraph</title>
<polygon fill="white" stroke="none" points="-4,4 -4,-532 335,-532 335,4 -4,4"/>
<!-- proc~dosurface -->
<g id="node1" class="node"><title>proc~dosurface</title>
<polygon fill="none" stroke="black" points="61,-192 -3.55271e-15,-192 -3.55271e-15,-168 61,-168 61,-192"/>
<text text-anchor="middle" x="30.5" y="-177.6" font-family="Helvetica,sans-Serif" font-size="10.50">doSurface</text>
</g>
<!-- proc~figure -->
<g id="node2" class="node"><title>proc~figure</title>
<g id="a_node2"><a xlink:href="../proc/figure.html" xlink:title="figure">
<polygon fill="#d9534f" stroke="#d9534f" points="151,-297 97,-297 97,-273 151,-273 151,-297"/>
<text text-anchor="middle" x="124" y="-282.6" font-family="Helvetica,sans-Serif" font-size="10.50" fill="white">figure</text>
</a>
</g>
</g>
<!-- proc~dosurface&#45;&gt;proc~figure -->
<g id="edge22" class="edge"><title>proc~dosurface&#45;&gt;proc~figure</title>
<path fill="none" stroke="black" d="M41.9962,-192.045C57.5636,-209.909 86.9488,-243.63 105.721,-265.171"/>
<polygon fill="black" stroke="black" points="103.136,-267.533 112.344,-272.772 108.413,-262.934 103.136,-267.533"/>
</g>
<!-- interface~mixval -->
<g id="node3" class="node"><title>interface~mixval</title>
<g id="a_node3"><a xlink:href="../interface/mixval.html" xlink:title="mixval">
<polygon fill="#a7506f" stroke="#a7506f" points="151,-234 97,-234 97,-210 151,-210 151,-234"/>
<text text-anchor="middle" x="124" y="-219.6" font-family="Helvetica,sans-Serif" font-size="10.50" fill="white">mixval</text>
</a>
</g>
</g>
<!-- proc~dosurface&#45;&gt;interface~mixval -->
<g id="edge23" class="edge"><title>proc~dosurface&#45;&gt;interface~mixval</title>
<path fill="none" stroke="black" d="M57.9656,-192.148C67.245,-196.408 77.82,-201.262 87.7066,-205.8"/>
<polygon fill="black" stroke="black" points="86.3615,-209.033 96.9099,-210.024 89.2817,-202.672 86.3615,-209.033"/>
</g>
<!-- proc~box -->
<g id="node4" class="node"><title>proc~box</title>
<g id="a_node4"><a xlink:href="../proc/box.html" xlink:title="box">
<polygon fill="#d9534f" stroke="#d9534f" points="151,-192 97,-192 97,-168 151,-168 151,-192"/>
<text text-anchor="middle" x="124" y="-177.6" font-family="Helvetica,sans-Serif" font-size="10.50" fill="white">box</text>
</a>
</g>
</g>
<!-- proc~dosurface&#45;&gt;proc~box -->
<g id="edge24" class="edge"><title>proc~dosurface&#45;&gt;proc~box</title>
<path fill="none" stroke="black" d="M61.2074,-180C69.3691,-180 78.3107,-180 86.7941,-180"/>
<polygon fill="black" stroke="black" points="86.8315,-183.5 96.8315,-180 86.8314,-176.5 86.8315,-183.5"/>
</g>
<!-- proc~surface -->
<g id="node5" class="node"><title>proc~surface</title>
<g id="a_node5"><a xlink:href="../proc/surface.html" xlink:title="surface">
<polygon fill="#d9534f" stroke="#d9534f" points="151,-112 97,-112 97,-88 151,-88 151,-112"/>
<text text-anchor="middle" x="124" y="-97.6" font-family="Helvetica,sans-Serif" font-size="10.50" fill="white">surface</text>
</a>
</g>
</g>
<!-- proc~dosurface&#45;&gt;proc~surface -->
<g id="edge25" class="edge"><title>proc~dosurface&#45;&gt;proc~surface</title>
<path fill="none" stroke="black" d="M45.3969,-167.85C60.2622,-154.853 84.0347,-134.068 101.355,-118.925"/>
<polygon fill="black" stroke="black" points="104.048,-121.22 109.272,-112.002 99.44,-115.95 104.048,-121.22"/>
</g>
<!-- proc~xyzlim -->
<g id="node6" class="node"><title>proc~xyzlim</title>
<g id="a_node6"><a xlink:href="../proc/xyzlim.html" xlink:title="xyzlim">
<polygon fill="#d9534f" stroke="#d9534f" points="151,-66 97,-66 97,-42 151,-42 151,-66"/>
<text text-anchor="middle" x="124" y="-51.6" font-family="Helvetica,sans-Serif" font-size="10.50" fill="white">xyzlim</text>
</a>
</g>
</g>
<!-- proc~dosurface&#45;&gt;proc~xyzlim -->
<g id="edge26" class="edge"><title>proc~dosurface&#45;&gt;proc~xyzlim</title>
<path fill="none" stroke="black" d="M38.1397,-167.883C49.1397,-148.283 72.3842,-108.815 97,-79 98.4901,-77.1952 100.099,-75.3845 101.761,-73.6081"/>
<polygon fill="black" stroke="black" points="104.598,-75.7194 109.176,-66.1647 99.6389,-70.7791 104.598,-75.7194"/>
</g>
<!-- proc~linspace -->
<g id="node7" class="node"><title>proc~linspace</title>
<g id="a_node7"><a xlink:href="../proc/linspace.html" xlink:title="linspace">
<polygon fill="#d94e8f" stroke="#d94e8f" points="241,-150 187,-150 187,-126 241,-126 241,-150"/>
<text text-anchor="middle" x="214" y="-135.6" font-family="Helvetica,sans-Serif" font-size="10.50" fill="white">linspace</text>
</a>
</g>
</g>
<!-- proc~dosurface&#45;&gt;proc~linspace -->
<g id="edge27" class="edge"><title>proc~dosurface&#45;&gt;proc~linspace</title>
<path fill="none" stroke="black" d="M61.2616,-169.548C72.3835,-165.884 85.1823,-161.951 97,-159 123.518,-152.379 153.937,-146.951 176.97,-143.273"/>
<polygon fill="black" stroke="black" points="177.652,-146.709 186.992,-141.709 176.572,-139.793 177.652,-146.709"/>
</g>
<!-- proc~subplot -->
<g id="node8" class="node"><title>proc~subplot</title>
<g id="a_node8"><a xlink:href="../proc/subplot.html" xlink:title="subplot">
<polygon fill="#d9534f" stroke="#d9534f" points="151,-423 97,-423 97,-399 151,-399 151,-423"/>
<text text-anchor="middle" x="124" y="-408.6" font-family="Helvetica,sans-Serif" font-size="10.50" fill="white">subplot</text>
</a>
</g>
</g>
<!-- proc~dosurface&#45;&gt;proc~subplot -->
<g id="edge28" class="edge"><title>proc~dosurface&#45;&gt;proc~subplot</title>
<path fill="none" stroke="black" d="M36.2906,-192.094C50.9871,-229.197 95.576,-341.766 114.433,-389.372"/>
<polygon fill="black" stroke="black" points="111.21,-390.738 118.146,-398.747 117.718,-388.161 111.21,-390.738"/>
</g>
<!-- pladv -->
<g id="node9" class="node"><title>pladv</title>
<polygon fill="#777777" stroke="#777777" points="241,-360 187,-360 187,-336 241,-336 241,-360"/>
<text text-anchor="middle" x="214" y="-345.6" font-family="Helvetica,sans-Serif" font-size="10.50" fill="white">pladv</text>
</g>
<!-- proc~figure&#45;&gt;pladv -->
<g id="edge7" class="edge"><title>proc~figure&#45;&gt;pladv</title>
<path fill="none" stroke="black" d="M141.967,-297.147C154.994,-306.473 173.181,-319.493 187.891,-330.024"/>
<polygon fill="black" stroke="black" points="185.916,-332.915 196.085,-335.89 189.991,-327.223 185.916,-332.915"/>
</g>
<!-- pleop -->
<g id="node10" class="node"><title>pleop</title>
<polygon fill="#777777" stroke="#777777" points="241,-318 187,-318 187,-294 241,-294 241,-318"/>
<text text-anchor="middle" x="214" y="-303.6" font-family="Helvetica,sans-Serif" font-size="10.50" fill="white">pleop</text>
</g>
<!-- proc~figure&#45;&gt;pleop -->
<g id="edge8" class="edge"><title>proc~figure&#45;&gt;pleop</title>
<path fill="none" stroke="black" d="M151.403,-291.301C159.481,-293.228 168.507,-295.382 177.105,-297.434"/>
<polygon fill="black" stroke="black" points="176.38,-300.859 186.919,-299.776 178.005,-294.05 176.38,-300.859"/>
</g>
<!-- plssub -->
<g id="node11" class="node"><title>plssub</title>
<polygon fill="#777777" stroke="#777777" points="241,-402 187,-402 187,-378 241,-378 241,-402"/>
<text text-anchor="middle" x="214" y="-387.6" font-family="Helvetica,sans-Serif" font-size="10.50" fill="white">plssub</text>
</g>
<!-- proc~figure&#45;&gt;plssub -->
<g id="edge9" class="edge"><title>proc~figure&#45;&gt;plssub</title>
<path fill="none" stroke="black" d="M132.546,-297.152C143.43,-314.188 164.689,-345.695 187,-369 187.65,-369.678 188.321,-370.355 189.009,-371.027"/>
<polygon fill="black" stroke="black" points="186.974,-373.902 196.764,-377.953 191.636,-368.681 186.974,-373.902"/>
</g>
<!-- proc~setup -->
<g id="node12" class="node"><title>proc~setup</title>
<g id="a_node12"><a xlink:href="../proc/setup.html" xlink:title="setup">
<polygon fill="#d9534f" stroke="#d9534f" points="241,-276 187,-276 187,-252 241,-252 241,-276"/>
<text text-anchor="middle" x="214" y="-261.6" font-family="Helvetica,sans-Serif" font-size="10.50" fill="white">setup</text>
</a>
</g>
</g>
<!-- proc~figure&#45;&gt;proc~setup -->
<g id="edge10" class="edge"><title>proc~figure&#45;&gt;proc~setup</title>
<path fill="none" stroke="black" d="M151.403,-278.699C159.481,-276.772 168.507,-274.618 177.105,-272.566"/>
<polygon fill="black" stroke="black" points="178.005,-275.95 186.919,-270.224 176.38,-269.141 178.005,-275.95"/>
</g>
<!-- plbop -->
<g id="node13" class="node"><title>plbop</title>
<polygon fill="#777777" stroke="#777777" points="241,-234 187,-234 187,-210 241,-210 241,-234"/>
<text text-anchor="middle" x="214" y="-219.6" font-family="Helvetica,sans-Serif" font-size="10.50" fill="white">plbop</text>
</g>
<!-- proc~figure&#45;&gt;plbop -->
<g id="edge11" class="edge"><title>proc~figure&#45;&gt;plbop</title>
<path fill="none" stroke="black" d="M141.967,-272.853C154.994,-263.527 173.181,-250.507 187.891,-239.976"/>
<polygon fill="black" stroke="black" points="189.991,-242.777 196.085,-234.11 185.916,-237.085 189.991,-242.777"/>
</g>
<!-- plbox3 -->
<g id="node20" class="node"><title>plbox3</title>
<polygon fill="#777777" stroke="#777777" points="241,-192 187,-192 187,-168 241,-168 241,-192"/>
<text text-anchor="middle" x="214" y="-177.6" font-family="Helvetica,sans-Serif" font-size="10.50" fill="white">plbox3</text>
</g>
<!-- proc~box&#45;&gt;plbox3 -->
<g id="edge12" class="edge"><title>proc~box&#45;&gt;plbox3</title>
<path fill="none" stroke="black" d="M151.403,-180C159.393,-180 168.311,-180 176.824,-180"/>
<polygon fill="black" stroke="black" points="176.919,-183.5 186.919,-180 176.919,-176.5 176.919,-183.5"/>
</g>
<!-- proc~surface&#45;&gt;proc~linspace -->
<g id="edge13" class="edge"><title>proc~surface&#45;&gt;proc~linspace</title>
<path fill="none" stroke="black" d="M151.403,-111.401C159.657,-114.965 168.9,-118.957 177.665,-122.742"/>
<polygon fill="black" stroke="black" points="176.351,-125.987 186.919,-126.738 179.126,-119.56 176.351,-125.987"/>
</g>
<!-- plsurf3d -->
<g id="node21" class="node"><title>plsurf3d</title>
<polygon fill="#777777" stroke="#777777" points="241,-108 187,-108 187,-84 241,-84 241,-108"/>
<text text-anchor="middle" x="214" y="-93.6" font-family="Helvetica,sans-Serif" font-size="10.50" fill="white">plsurf3d</text>
</g>
<!-- proc~surface&#45;&gt;plsurf3d -->
<g id="edge14" class="edge"><title>proc~surface&#45;&gt;plsurf3d</title>
<path fill="none" stroke="black" d="M151.403,-98.7999C159.393,-98.4367 168.311,-98.0313 176.824,-97.6444"/>
<polygon fill="black" stroke="black" points="177.088,-101.136 186.919,-97.1855 176.77,-94.1433 177.088,-101.136"/>
</g>
<!-- plwind -->
<g id="node22" class="node"><title>plwind</title>
<polygon fill="#777777" stroke="#777777" points="241,-24 187,-24 187,-0 241,-0 241,-24"/>
<text text-anchor="middle" x="214" y="-9.6" font-family="Helvetica,sans-Serif" font-size="10.50" fill="white">plwind</text>
</g>
<!-- proc~xyzlim&#45;&gt;plwind -->
<g id="edge15" class="edge"><title>proc~xyzlim&#45;&gt;plwind</title>
<path fill="none" stroke="black" d="M150.453,-41.8519C159.21,-37.6727 169.165,-32.9211 178.518,-28.4571"/>
<polygon fill="black" stroke="black" points="180.087,-31.5869 187.604,-24.1208 177.072,-25.2695 180.087,-31.5869"/>
</g>
<!-- plw3d -->
<g id="node23" class="node"><title>plw3d</title>
<polygon fill="#777777" stroke="#777777" points="241,-66 187,-66 187,-42 241,-42 241,-66"/>
<text text-anchor="middle" x="214" y="-51.6" font-family="Helvetica,sans-Serif" font-size="10.50" fill="white">plw3d</text>
</g>
<!-- proc~xyzlim&#45;&gt;plw3d -->
<g id="edge16" class="edge"><title>proc~xyzlim&#45;&gt;plw3d</title>
<path fill="none" stroke="black" d="M151.403,-54C159.393,-54 168.311,-54 176.824,-54"/>
<polygon fill="black" stroke="black" points="176.919,-57.5001 186.919,-54 176.919,-50.5001 176.919,-57.5001"/>
</g>
<!-- proc~subplot&#45;&gt;pladv -->
<g id="edge21" class="edge"><title>proc~subplot&#45;&gt;pladv</title>
<path fill="none" stroke="black" d="M141.967,-398.853C154.994,-389.527 173.181,-376.507 187.891,-365.976"/>
<polygon fill="black" stroke="black" points="189.991,-368.777 196.085,-360.11 185.916,-363.085 189.991,-368.777"/>
</g>
<!-- proc~subplot&#45;&gt;plssub -->
<g id="edge19" class="edge"><title>proc~subplot&#45;&gt;plssub</title>
<path fill="none" stroke="black" d="M151.403,-404.699C159.481,-402.772 168.507,-400.618 177.105,-398.566"/>
<polygon fill="black" stroke="black" points="178.005,-401.95 186.919,-396.224 176.38,-395.141 178.005,-401.95"/>
</g>
<!-- plvasp -->
<g id="node24" class="node"><title>plvasp</title>
<polygon fill="#777777" stroke="#777777" points="241,-528 187,-528 187,-504 241,-504 241,-528"/>
<text text-anchor="middle" x="214" y="-513.6" font-family="Helvetica,sans-Serif" font-size="10.50" fill="white">plvasp</text>
</g>
<!-- proc~subplot&#45;&gt;plvasp -->
<g id="edge17" class="edge"><title>proc~subplot&#45;&gt;plvasp</title>
<path fill="none" stroke="black" d="M132.546,-423.152C143.43,-440.188 164.689,-471.695 187,-495 187.65,-495.678 188.321,-496.355 189.009,-497.027"/>
<polygon fill="black" stroke="black" points="186.974,-499.902 196.764,-503.953 191.636,-494.681 186.974,-499.902"/>
</g>
<!-- plvpor -->
<g id="node25" class="node"><title>plvpor</title>
<polygon fill="#777777" stroke="#777777" points="241,-486 187,-486 187,-462 241,-462 241,-486"/>
<text text-anchor="middle" x="214" y="-471.6" font-family="Helvetica,sans-Serif" font-size="10.50" fill="white">plvpor</text>
</g>
<!-- proc~subplot&#45;&gt;plvpor -->
<g id="edge18" class="edge"><title>proc~subplot&#45;&gt;plvpor</title>
<path fill="none" stroke="black" d="M141.967,-423.147C154.994,-432.473 173.181,-445.493 187.891,-456.024"/>
<polygon fill="black" stroke="black" points="185.916,-458.915 196.085,-461.89 189.991,-453.223 185.916,-458.915"/>
</g>
<!-- plvsta -->
<g id="node26" class="node"><title>plvsta</title>
<polygon fill="#777777" stroke="#777777" points="241,-444 187,-444 187,-420 241,-420 241,-444"/>
<text text-anchor="middle" x="214" y="-429.6" font-family="Helvetica,sans-Serif" font-size="10.50" fill="white">plvsta</text>
</g>
<!-- proc~subplot&#45;&gt;plvsta -->
<g id="edge20" class="edge"><title>proc~subplot&#45;&gt;plvsta</title>
<path fill="none" stroke="black" d="M151.403,-417.301C159.481,-419.228 168.507,-421.382 177.105,-423.434"/>
<polygon fill="black" stroke="black" points="176.38,-426.859 186.919,-425.776 178.005,-420.05 176.38,-426.859"/>
</g>
<!-- figsize -->
<g id="node14" class="node"><title>figsize</title>
<polygon fill="#777777" stroke="#777777" points="331,-381 277,-381 277,-357 331,-357 331,-381"/>
<text text-anchor="middle" x="304" y="-366.6" font-family="Helvetica,sans-Serif" font-size="10.50" fill="white">figsize</text>
</g>
<!-- proc~setup&#45;&gt;figsize -->
<g id="edge1" class="edge"><title>proc~setup&#45;&gt;figsize</title>
<path fill="none" stroke="black" d="M231.79,-276.021C235.05,-278.766 238.292,-281.819 241,-285 261.905,-309.556 256.095,-323.444 277,-348 277.592,-348.696 278.21,-349.386 278.848,-350.067"/>
<polygon fill="black" stroke="black" points="276.524,-352.686 286.21,-356.979 281.315,-347.583 276.524,-352.686"/>
</g>
<!-- plsdev -->
<g id="node15" class="node"><title>plsdev</title>
<polygon fill="#777777" stroke="#777777" points="331,-339 277,-339 277,-315 331,-315 331,-339"/>
<text text-anchor="middle" x="304" y="-324.6" font-family="Helvetica,sans-Serif" font-size="10.50" fill="white">plsdev</text>
</g>
<!-- proc~setup&#45;&gt;plsdev -->
<g id="edge2" class="edge"><title>proc~setup&#45;&gt;plsdev</title>
<path fill="none" stroke="black" d="M231.967,-276.147C244.994,-285.473 263.181,-298.493 277.891,-309.024"/>
<polygon fill="black" stroke="black" points="275.916,-311.915 286.085,-314.89 279.991,-306.223 275.916,-311.915"/>
</g>
<!-- plfontld -->
<g id="node16" class="node"><title>plfontld</title>
<polygon fill="#777777" stroke="#777777" points="331,-297 277,-297 277,-273 331,-273 331,-297"/>
<text text-anchor="middle" x="304" y="-282.6" font-family="Helvetica,sans-Serif" font-size="10.50" fill="white">plfontld</text>
</g>
<!-- proc~setup&#45;&gt;plfontld -->
<g id="edge3" class="edge"><title>proc~setup&#45;&gt;plfontld</title>
<path fill="none" stroke="black" d="M241.403,-270.301C249.481,-272.228 258.507,-274.382 267.105,-276.434"/>
<polygon fill="black" stroke="black" points="266.38,-279.859 276.919,-278.776 268.005,-273.05 266.38,-279.859"/>
</g>
<!-- plsfnam -->
<g id="node17" class="node"><title>plsfnam</title>
<polygon fill="#777777" stroke="#777777" points="331,-255 277,-255 277,-231 331,-231 331,-255"/>
<text text-anchor="middle" x="304" y="-240.6" font-family="Helvetica,sans-Serif" font-size="10.50" fill="white">plsfnam</text>
</g>
<!-- proc~setup&#45;&gt;plsfnam -->
<g id="edge4" class="edge"><title>proc~setup&#45;&gt;plsfnam</title>
<path fill="none" stroke="black" d="M241.403,-257.699C249.481,-255.772 258.507,-253.618 267.105,-251.566"/>
<polygon fill="black" stroke="black" points="268.005,-254.95 276.919,-249.224 266.38,-248.141 268.005,-254.95"/>
</g>
<!-- plsfam -->
<g id="node18" class="node"><title>plsfam</title>
<polygon fill="#777777" stroke="#777777" points="331,-213 277,-213 277,-189 331,-189 331,-213"/>
<text text-anchor="middle" x="304" y="-198.6" font-family="Helvetica,sans-Serif" font-size="10.50" fill="white">plsfam</text>
</g>
<!-- proc~setup&#45;&gt;plsfam -->
<g id="edge5" class="edge"><title>proc~setup&#45;&gt;plsfam</title>
<path fill="none" stroke="black" d="M231.967,-251.853C244.994,-242.527 263.181,-229.507 277.891,-218.976"/>
<polygon fill="black" stroke="black" points="279.991,-221.777 286.085,-213.11 275.916,-216.085 279.991,-221.777"/>
</g>
<!-- plsetopt -->
<g id="node19" class="node"><title>plsetopt</title>
<polygon fill="#777777" stroke="#777777" points="331,-171 277,-171 277,-147 331,-147 331,-171"/>
<text text-anchor="middle" x="304" y="-156.6" font-family="Helvetica,sans-Serif" font-size="10.50" fill="white">plsetopt</text>
</g>
<!-- proc~setup&#45;&gt;plsetopt -->
<g id="edge6" class="edge"><title>proc~setup&#45;&gt;plsetopt</title>
<path fill="none" stroke="black" d="M231.79,-251.979C235.05,-249.234 238.292,-246.181 241,-243 261.905,-218.444 256.095,-204.556 277,-180 277.592,-179.304 278.21,-178.614 278.848,-177.933"/>
<polygon fill="black" stroke="black" points="281.315,-180.417 286.21,-171.021 276.524,-175.314 281.315,-180.417"/>
</g>
</g>
</svg>
