<?xml version="1.0" encoding="UTF-8" standalone="no"?>
<!DOCTYPE svg PUBLIC "-//W3C//DTD SVG 1.1//EN"
 "http://www.w3.org/Graphics/SVG/1.1/DTD/svg11.dtd">
<!-- Generated by graphviz version 2.38.0 (20140413.2041)
 -->
<!-- Title: proc~~fillbetween~~CalledByGraph Pages: 1 -->
<svg width="388pt" height="32pt"
 viewBox="0.00 0.00 388.00 32.00" xmlns="http://www.w3.org/2000/svg" xmlns:xlink="http://www.w3.org/1999/xlink">
<g id="graph0" class="graph" transform="scale(1 1) rotate(0) translate(4 28)">
<title>proc~~fillbetween~~CalledByGraph</title>
<polygon fill="white" stroke="none" points="-4,4 -4,-28 384,-28 384,4 -4,4"/>
<!-- proc~fillbetween -->
<g id="node1" class="node"><title>proc~fillbetween</title>
<polygon fill="none" stroke="black" points="380,-24 316,-24 316,-0 380,-0 380,-24"/>
<text text-anchor="middle" x="348" y="-9.6" font-family="Helvetica,sans-Serif" font-size="10.50">fillBetween</text>
</g>
<!-- proc~dofillbetween -->
<g id="node2" class="node"><title>proc~dofillbetween</title>
<g id="a_node2"><a xlink:href="../proc/dofillbetween.html" xlink:title="doFillBetween">
<polygon fill="#d9534f" stroke="#d9534f" points="280,-24 201,-24 201,-0 280,-0 280,-24"/>
<text text-anchor="middle" x="240.5" y="-9.6" font-family="Helvetica,sans-Serif" font-size="10.50" fill="white">doFillBetween</text>
</a>
</g>
</g>
<!-- proc~dofillbetween&#45;&gt;proc~fillbetween -->
<g id="edge3" class="edge"><title>proc~dofillbetween&#45;&gt;proc~fillbetween</title>
<path fill="none" stroke="black" d="M280.185,-12C288.547,-12 297.417,-12 305.869,-12"/>
<polygon fill="black" stroke="black" points="305.908,-15.5001 315.908,-12 305.908,-8.5001 305.908,-15.5001"/>
</g>
<!-- proc~doexamples -->
<g id="node3" class="node"><title>proc~doexamples</title>
<g id="a_node3"><a xlink:href="../proc/doexamples.html" xlink:title="doExamples">
<polygon fill="#d9534f" stroke="#d9534f" points="165,-24 94,-24 94,-0 165,-0 165,-24"/>
<text text-anchor="middle" x="129.5" y="-9.6" font-family="Helvetica,sans-Serif" font-size="10.50" fill="white">doExamples</text>
</a>
</g>
</g>
<!-- proc~doexamples&#45;&gt;proc~dofillbetween -->
<g id="edge2" class="edge"><title>proc~doexamples&#45;&gt;proc~dofillbetween</title>
<path fill="none" stroke="black" d="M165.288,-12C173.35,-12 182.076,-12 190.617,-12"/>
<polygon fill="black" stroke="black" points="190.885,-15.5001 200.885,-12 190.885,-8.5001 190.885,-15.5001"/>
</g>
<!-- program~main_prg -->
<g id="node4" class="node"><title>program~main_prg</title>
<g id="a_node4"><a xlink:href="../program/main_prg.html" xlink:title="main_prg">
<polygon fill="#f0ad4e" stroke="#f0ad4e" points="58,-24 3.55271e-15,-24 3.55271e-15,-0 58,-0 58,-24"/>
<text text-anchor="middle" x="29" y="-9.6" font-family="Helvetica,sans-Serif" font-size="10.50" fill="white">main_prg</text>
</a>
</g>
</g>
<!-- program~main_prg&#45;&gt;proc~doexamples -->
<g id="edge1" class="edge"><title>program~main_prg&#45;&gt;proc~doexamples</title>
<path fill="none" stroke="black" d="M58.2261,-12C66.2347,-12 75.1563,-12 83.8823,-12"/>
<polygon fill="black" stroke="black" points="83.9695,-15.5001 93.9695,-12 83.9695,-8.5001 83.9695,-15.5001"/>
</g>
</g>
</svg>
