<?xml version="1.0" encoding="UTF-8" standalone="no"?>
<!DOCTYPE svg PUBLIC "-//W3C//DTD SVG 1.1//EN"
 "http://www.w3.org/Graphics/SVG/1.1/DTD/svg11.dtd">
<!-- Generated by graphviz version 2.38.0 (20140413.2041)
 -->
<!-- Title: proc~~dobar~~CallsGraph Pages: 1 -->
<svg width="332pt" height="683pt"
 viewBox="0.00 0.00 332.00 683.00" xmlns="http://www.w3.org/2000/svg" xmlns:xlink="http://www.w3.org/1999/xlink">
<g id="graph0" class="graph" transform="scale(1 1) rotate(0) translate(4 679)">
<title>proc~~dobar~~CallsGraph</title>
<polygon fill="white" stroke="none" points="-4,4 -4,-679 328,-679 328,4 -4,4"/>
<!-- proc~dobar -->
<g id="node1" class="node"><title>proc~dobar</title>
<polygon fill="none" stroke="black" points="54,-507 0,-507 0,-483 54,-483 54,-507"/>
<text text-anchor="middle" x="27" y="-492.6" font-family="Helvetica,sans-Serif" font-size="10.50">doBar</text>
</g>
<!-- proc~labels -->
<g id="node2" class="node"><title>proc~labels</title>
<g id="a_node2"><a xlink:href="../proc/labels.html" xlink:title="labels">
<polygon fill="#d9534f" stroke="#d9534f" points="144,-674 90,-674 90,-650 144,-650 144,-674"/>
<text text-anchor="middle" x="117" y="-659.6" font-family="Helvetica,sans-Serif" font-size="10.50" fill="white">labels</text>
</a>
</g>
</g>
<!-- proc~dobar&#45;&gt;proc~labels -->
<g id="edge28" class="edge"><title>proc~dobar&#45;&gt;proc~labels</title>
<path fill="none" stroke="black" d="M31.145,-507.242C38.3151,-533.504 57.7877,-596.4 90,-640 90.65,-640.88 91.3419,-641.747 92.0661,-642.6"/>
<polygon fill="black" stroke="black" points="89.6743,-645.158 99.204,-649.788 94.6415,-640.226 89.6743,-645.158"/>
</g>
<!-- proc~ticks -->
<g id="node3" class="node"><title>proc~ticks</title>
<g id="a_node3"><a xlink:href="../proc/ticks.html" xlink:title="ticks">
<polygon fill="#d9534f" stroke="#d9534f" points="144,-631 90,-631 90,-607 144,-607 144,-631"/>
<text text-anchor="middle" x="117" y="-616.6" font-family="Helvetica,sans-Serif" font-size="10.50" fill="white">ticks</text>
</a>
</g>
</g>
<!-- proc~dobar&#45;&gt;proc~ticks -->
<g id="edge29" class="edge"><title>proc~dobar&#45;&gt;proc~ticks</title>
<path fill="none" stroke="black" d="M34.7252,-507.158C45.4034,-526.052 67.3554,-563.278 90,-592 91.8886,-594.395 93.9573,-596.819 96.0768,-599.18"/>
<polygon fill="black" stroke="black" points="93.885,-601.957 103.291,-606.834 98.979,-597.156 93.885,-601.957"/>
</g>
<!-- proc~bar -->
<g id="node4" class="node"><title>proc~bar</title>
<g id="a_node4"><a xlink:href="../proc/bar.html" xlink:title="bar">
<polygon fill="#d9534f" stroke="#d9534f" points="144,-507 90,-507 90,-483 144,-483 144,-507"/>
<text text-anchor="middle" x="117" y="-492.6" font-family="Helvetica,sans-Serif" font-size="10.50" fill="white">bar</text>
</a>
</g>
</g>
<!-- proc~dobar&#45;&gt;proc~bar -->
<g id="edge30" class="edge"><title>proc~dobar&#45;&gt;proc~bar</title>
<path fill="none" stroke="black" d="M54.4029,-495C62.3932,-495 71.3106,-495 79.8241,-495"/>
<polygon fill="black" stroke="black" points="79.919,-498.5 89.919,-495 79.919,-491.5 79.919,-498.5"/>
</g>
<!-- proc~barh -->
<g id="node5" class="node"><title>proc~barh</title>
<g id="a_node5"><a xlink:href="../proc/barh.html" xlink:title="barh">
<polygon fill="#d9534f" stroke="#d9534f" points="144,-549 90,-549 90,-525 144,-525 144,-549"/>
<text text-anchor="middle" x="117" y="-534.6" font-family="Helvetica,sans-Serif" font-size="10.50" fill="white">barh</text>
</a>
</g>
</g>
<!-- proc~dobar&#45;&gt;proc~barh -->
<g id="edge31" class="edge"><title>proc~dobar&#45;&gt;proc~barh</title>
<path fill="none" stroke="black" d="M53.4532,-507.148C62.2096,-511.327 72.1654,-516.079 81.5185,-520.543"/>
<polygon fill="black" stroke="black" points="80.0716,-523.73 90.604,-524.879 83.0867,-517.413 80.0716,-523.73"/>
</g>
<!-- interface~mixval -->
<g id="node6" class="node"><title>interface~mixval</title>
<g id="a_node6"><a xlink:href="../interface/mixval.html" xlink:title="mixval">
<polygon fill="#a7506f" stroke="#a7506f" points="234,-591 180,-591 180,-567 234,-567 234,-591"/>
<text text-anchor="middle" x="207" y="-576.6" font-family="Helvetica,sans-Serif" font-size="10.50" fill="white">mixval</text>
</a>
</g>
</g>
<!-- proc~dobar&#45;&gt;interface~mixval -->
<g id="edge32" class="edge"><title>proc~dobar&#45;&gt;interface~mixval</title>
<path fill="none" stroke="black" d="M36.2936,-507.168C46.9307,-521.747 66.8004,-545.737 90,-558 114.588,-570.997 145.758,-576.113 169.594,-578.052"/>
<polygon fill="black" stroke="black" points="169.439,-581.55 179.649,-578.72 169.903,-574.565 169.439,-581.55"/>
</g>
<!-- proc~xylim -->
<g id="node7" class="node"><title>proc~xylim</title>
<g id="a_node7"><a xlink:href="../proc/xylim.html" xlink:title="xylim">
<polygon fill="#d9534f" stroke="#d9534f" points="144,-465 90,-465 90,-441 144,-441 144,-465"/>
<text text-anchor="middle" x="117" y="-450.6" font-family="Helvetica,sans-Serif" font-size="10.50" fill="white">xylim</text>
</a>
</g>
</g>
<!-- proc~dobar&#45;&gt;proc~xylim -->
<g id="edge33" class="edge"><title>proc~dobar&#45;&gt;proc~xylim</title>
<path fill="none" stroke="black" d="M53.4532,-482.852C62.2096,-478.673 72.1654,-473.921 81.5185,-469.457"/>
<polygon fill="black" stroke="black" points="83.0867,-472.587 90.604,-465.121 80.0716,-466.27 83.0867,-472.587"/>
</g>
<!-- proc~linspace -->
<g id="node8" class="node"><title>proc~linspace</title>
<g id="a_node8"><a xlink:href="../proc/linspace.html" xlink:title="linspace">
<polygon fill="#d94e8f" stroke="#d94e8f" points="144,-423 90,-423 90,-399 144,-399 144,-423"/>
<text text-anchor="middle" x="117" y="-408.6" font-family="Helvetica,sans-Serif" font-size="10.50" fill="white">linspace</text>
</a>
</g>
</g>
<!-- proc~dobar&#45;&gt;proc~linspace -->
<g id="edge34" class="edge"><title>proc~dobar&#45;&gt;proc~linspace</title>
<path fill="none" stroke="black" d="M39.0423,-482.988C51.1535,-470.004 71.3541,-448.903 90,-432 90.8168,-431.26 91.6556,-430.513 92.5085,-429.766"/>
<polygon fill="black" stroke="black" points="94.9658,-432.273 100.36,-423.154 90.4563,-426.919 94.9658,-432.273"/>
</g>
<!-- proc~subplot -->
<g id="node9" class="node"><title>proc~subplot</title>
<g id="a_node9"><a xlink:href="../proc/subplot.html" xlink:title="subplot">
<polygon fill="#d9534f" stroke="#d9534f" points="144,-318 90,-318 90,-294 144,-294 144,-318"/>
<text text-anchor="middle" x="117" y="-303.6" font-family="Helvetica,sans-Serif" font-size="10.50" fill="white">subplot</text>
</a>
</g>
</g>
<!-- proc~dobar&#45;&gt;proc~subplot -->
<g id="edge35" class="edge"><title>proc~dobar&#45;&gt;proc~subplot</title>
<path fill="none" stroke="black" d="M33.6387,-482.89C48.2565,-451.494 87.5239,-367.159 106.057,-327.355"/>
<polygon fill="black" stroke="black" points="109.246,-328.797 110.294,-318.254 102.9,-325.842 109.246,-328.797"/>
</g>
<!-- proc~figure -->
<g id="node10" class="node"><title>proc~figure</title>
<g id="a_node10"><a xlink:href="../proc/figure.html" xlink:title="figure">
<polygon fill="#d9534f" stroke="#d9534f" points="144,-192 90,-192 90,-168 144,-168 144,-192"/>
<text text-anchor="middle" x="117" y="-177.6" font-family="Helvetica,sans-Serif" font-size="10.50" fill="white">figure</text>
</a>
</g>
</g>
<!-- proc~dobar&#45;&gt;proc~figure -->
<g id="edge36" class="edge"><title>proc~dobar&#45;&gt;proc~figure</title>
<path fill="none" stroke="black" d="M31.4497,-482.652C44.7297,-435.115 92.6603,-263.545 109.829,-202.091"/>
<polygon fill="black" stroke="black" points="113.254,-202.836 112.574,-192.263 106.513,-200.952 113.254,-202.836"/>
</g>
<!-- pllab -->
<g id="node11" class="node"><title>pllab</title>
<polygon fill="#777777" stroke="#777777" points="234,-675 180,-675 180,-651 234,-651 234,-675"/>
<text text-anchor="middle" x="207" y="-660.6" font-family="Helvetica,sans-Serif" font-size="10.50" fill="white">pllab</text>
</g>
<!-- proc~labels&#45;&gt;pllab -->
<g id="edge1" class="edge"><title>proc~labels&#45;&gt;pllab</title>
<path fill="none" stroke="black" d="M144.403,-662.3C152.393,-662.391 161.311,-662.492 169.824,-662.589"/>
<polygon fill="black" stroke="black" points="169.88,-666.09 179.919,-662.704 169.959,-659.09 169.88,-666.09"/>
</g>
<!-- plbox -->
<g id="node12" class="node"><title>plbox</title>
<polygon fill="#777777" stroke="#777777" points="234,-633 180,-633 180,-609 234,-609 234,-633"/>
<text text-anchor="middle" x="207" y="-618.6" font-family="Helvetica,sans-Serif" font-size="10.50" fill="white">plbox</text>
</g>
<!-- proc~ticks&#45;&gt;plbox -->
<g id="edge2" class="edge"><title>proc~ticks&#45;&gt;plbox</title>
<path fill="none" stroke="black" d="M144.403,-619.6C152.393,-619.782 161.311,-619.984 169.824,-620.178"/>
<polygon fill="black" stroke="black" points="169.842,-623.679 179.919,-620.407 170.001,-616.681 169.842,-623.679"/>
</g>
<!-- proc~bar&#45;&gt;interface~mixval -->
<g id="edge5" class="edge"><title>proc~bar&#45;&gt;interface~mixval</title>
<path fill="none" stroke="black" d="M134.068,-507.214C137.448,-509.992 140.92,-513.009 144,-516 161.637,-533.129 162.363,-540.871 180,-558 180.674,-558.654 181.366,-559.31 182.073,-559.964"/>
<polygon fill="black" stroke="black" points="180.086,-562.874 189.932,-566.786 184.674,-557.587 180.086,-562.874"/>
</g>
<!-- plline -->
<g id="node13" class="node"><title>plline</title>
<polygon fill="#777777" stroke="#777777" points="234,-549 180,-549 180,-525 234,-525 234,-549"/>
<text text-anchor="middle" x="207" y="-534.6" font-family="Helvetica,sans-Serif" font-size="10.50" fill="white">plline</text>
</g>
<!-- proc~bar&#45;&gt;plline -->
<g id="edge3" class="edge"><title>proc~bar&#45;&gt;plline</title>
<path fill="none" stroke="black" d="M143.453,-507.148C152.21,-511.327 162.165,-516.079 171.518,-520.543"/>
<polygon fill="black" stroke="black" points="170.072,-523.73 180.604,-524.879 173.087,-517.413 170.072,-523.73"/>
</g>
<!-- plfill -->
<g id="node14" class="node"><title>plfill</title>
<polygon fill="#777777" stroke="#777777" points="234,-507 180,-507 180,-483 234,-483 234,-507"/>
<text text-anchor="middle" x="207" y="-492.6" font-family="Helvetica,sans-Serif" font-size="10.50" fill="white">plfill</text>
</g>
<!-- proc~bar&#45;&gt;plfill -->
<g id="edge4" class="edge"><title>proc~bar&#45;&gt;plfill</title>
<path fill="none" stroke="black" d="M144.403,-495C152.393,-495 161.311,-495 169.824,-495"/>
<polygon fill="black" stroke="black" points="169.919,-498.5 179.919,-495 169.919,-491.5 169.919,-498.5"/>
</g>
<!-- plcol1 -->
<g id="node15" class="node"><title>plcol1</title>
<polygon fill="#777777" stroke="#777777" points="234,-465 180,-465 180,-441 234,-441 234,-465"/>
<text text-anchor="middle" x="207" y="-450.6" font-family="Helvetica,sans-Serif" font-size="10.50" fill="white">plcol1</text>
</g>
<!-- proc~bar&#45;&gt;plcol1 -->
<g id="edge6" class="edge"><title>proc~bar&#45;&gt;plcol1</title>
<path fill="none" stroke="black" d="M143.453,-482.852C152.21,-478.673 162.165,-473.921 171.518,-469.457"/>
<polygon fill="black" stroke="black" points="173.087,-472.587 180.604,-465.121 170.072,-466.27 173.087,-472.587"/>
</g>
<!-- proc~barh&#45;&gt;interface~mixval -->
<g id="edge9" class="edge"><title>proc~barh&#45;&gt;interface~mixval</title>
<path fill="none" stroke="black" d="M143.453,-549.148C152.21,-553.327 162.165,-558.079 171.518,-562.543"/>
<polygon fill="black" stroke="black" points="170.072,-565.73 180.604,-566.879 173.087,-559.413 170.072,-565.73"/>
</g>
<!-- proc~barh&#45;&gt;plline -->
<g id="edge7" class="edge"><title>proc~barh&#45;&gt;plline</title>
<path fill="none" stroke="black" d="M144.403,-537C152.393,-537 161.311,-537 169.824,-537"/>
<polygon fill="black" stroke="black" points="169.919,-540.5 179.919,-537 169.919,-533.5 169.919,-540.5"/>
</g>
<!-- proc~barh&#45;&gt;plfill -->
<g id="edge8" class="edge"><title>proc~barh&#45;&gt;plfill</title>
<path fill="none" stroke="black" d="M143.453,-524.852C152.21,-520.673 162.165,-515.921 171.518,-511.457"/>
<polygon fill="black" stroke="black" points="173.087,-514.587 180.604,-507.121 170.072,-508.27 173.087,-514.587"/>
</g>
<!-- proc~barh&#45;&gt;plcol1 -->
<g id="edge10" class="edge"><title>proc~barh&#45;&gt;plcol1</title>
<path fill="none" stroke="black" d="M134.068,-524.786C137.448,-522.008 140.92,-518.991 144,-516 161.637,-498.871 162.363,-491.129 180,-474 180.674,-473.346 181.366,-472.69 182.073,-472.036"/>
<polygon fill="black" stroke="black" points="184.674,-474.413 189.932,-465.214 180.086,-469.126 184.674,-474.413"/>
</g>
<!-- plwind -->
<g id="node16" class="node"><title>plwind</title>
<polygon fill="#777777" stroke="#777777" points="234,-423 180,-423 180,-399 234,-399 234,-423"/>
<text text-anchor="middle" x="207" y="-408.6" font-family="Helvetica,sans-Serif" font-size="10.50" fill="white">plwind</text>
</g>
<!-- proc~xylim&#45;&gt;plwind -->
<g id="edge11" class="edge"><title>proc~xylim&#45;&gt;plwind</title>
<path fill="none" stroke="black" d="M143.453,-440.852C152.21,-436.673 162.165,-431.921 171.518,-427.457"/>
<polygon fill="black" stroke="black" points="173.087,-430.587 180.604,-423.121 170.072,-424.27 173.087,-430.587"/>
</g>
<!-- plvasp -->
<g id="node17" class="node"><title>plvasp</title>
<polygon fill="#777777" stroke="#777777" points="234,-381 180,-381 180,-357 234,-357 234,-381"/>
<text text-anchor="middle" x="207" y="-366.6" font-family="Helvetica,sans-Serif" font-size="10.50" fill="white">plvasp</text>
</g>
<!-- proc~subplot&#45;&gt;plvasp -->
<g id="edge12" class="edge"><title>proc~subplot&#45;&gt;plvasp</title>
<path fill="none" stroke="black" d="M134.967,-318.147C147.994,-327.473 166.181,-340.493 180.891,-351.024"/>
<polygon fill="black" stroke="black" points="178.916,-353.915 189.085,-356.89 182.991,-348.223 178.916,-353.915"/>
</g>
<!-- plvpor -->
<g id="node18" class="node"><title>plvpor</title>
<polygon fill="#777777" stroke="#777777" points="234,-339 180,-339 180,-315 234,-315 234,-339"/>
<text text-anchor="middle" x="207" y="-324.6" font-family="Helvetica,sans-Serif" font-size="10.50" fill="white">plvpor</text>
</g>
<!-- proc~subplot&#45;&gt;plvpor -->
<g id="edge13" class="edge"><title>proc~subplot&#45;&gt;plvpor</title>
<path fill="none" stroke="black" d="M144.403,-312.301C152.481,-314.228 161.507,-316.382 170.105,-318.434"/>
<polygon fill="black" stroke="black" points="169.38,-321.859 179.919,-320.776 171.005,-315.05 169.38,-321.859"/>
</g>
<!-- plssub -->
<g id="node19" class="node"><title>plssub</title>
<polygon fill="#777777" stroke="#777777" points="234,-213 180,-213 180,-189 234,-189 234,-213"/>
<text text-anchor="middle" x="207" y="-198.6" font-family="Helvetica,sans-Serif" font-size="10.50" fill="white">plssub</text>
</g>
<!-- proc~subplot&#45;&gt;plssub -->
<g id="edge14" class="edge"><title>proc~subplot&#45;&gt;plssub</title>
<path fill="none" stroke="black" d="M125.546,-293.848C136.43,-276.812 157.689,-245.305 180,-222 180.65,-221.322 181.321,-220.645 182.009,-219.973"/>
<polygon fill="black" stroke="black" points="184.636,-222.319 189.764,-213.047 179.974,-217.098 184.636,-222.319"/>
</g>
<!-- plvsta -->
<g id="node20" class="node"><title>plvsta</title>
<polygon fill="#777777" stroke="#777777" points="234,-297 180,-297 180,-273 234,-273 234,-297"/>
<text text-anchor="middle" x="207" y="-282.6" font-family="Helvetica,sans-Serif" font-size="10.50" fill="white">plvsta</text>
</g>
<!-- proc~subplot&#45;&gt;plvsta -->
<g id="edge15" class="edge"><title>proc~subplot&#45;&gt;plvsta</title>
<path fill="none" stroke="black" d="M144.403,-299.699C152.481,-297.772 161.507,-295.618 170.105,-293.566"/>
<polygon fill="black" stroke="black" points="171.005,-296.95 179.919,-291.224 169.38,-290.141 171.005,-296.95"/>
</g>
<!-- pladv -->
<g id="node21" class="node"><title>pladv</title>
<polygon fill="#777777" stroke="#777777" points="234,-255 180,-255 180,-231 234,-231 234,-255"/>
<text text-anchor="middle" x="207" y="-240.6" font-family="Helvetica,sans-Serif" font-size="10.50" fill="white">pladv</text>
</g>
<!-- proc~subplot&#45;&gt;pladv -->
<g id="edge16" class="edge"><title>proc~subplot&#45;&gt;pladv</title>
<path fill="none" stroke="black" d="M134.967,-293.853C147.994,-284.527 166.181,-271.507 180.891,-260.976"/>
<polygon fill="black" stroke="black" points="182.991,-263.777 189.085,-255.11 178.916,-258.085 182.991,-263.777"/>
</g>
<!-- proc~figure&#45;&gt;plssub -->
<g id="edge25" class="edge"><title>proc~figure&#45;&gt;plssub</title>
<path fill="none" stroke="black" d="M144.403,-186.301C152.481,-188.228 161.507,-190.382 170.105,-192.434"/>
<polygon fill="black" stroke="black" points="169.38,-195.859 179.919,-194.776 171.005,-189.05 169.38,-195.859"/>
</g>
<!-- proc~figure&#45;&gt;pladv -->
<g id="edge23" class="edge"><title>proc~figure&#45;&gt;pladv</title>
<path fill="none" stroke="black" d="M134.967,-192.147C147.994,-201.473 166.181,-214.493 180.891,-225.024"/>
<polygon fill="black" stroke="black" points="178.916,-227.915 189.085,-230.89 182.991,-222.223 178.916,-227.915"/>
</g>
<!-- pleop -->
<g id="node22" class="node"><title>pleop</title>
<polygon fill="#777777" stroke="#777777" points="234,-171 180,-171 180,-147 234,-147 234,-171"/>
<text text-anchor="middle" x="207" y="-156.6" font-family="Helvetica,sans-Serif" font-size="10.50" fill="white">pleop</text>
</g>
<!-- proc~figure&#45;&gt;pleop -->
<g id="edge24" class="edge"><title>proc~figure&#45;&gt;pleop</title>
<path fill="none" stroke="black" d="M144.403,-173.699C152.481,-171.772 161.507,-169.618 170.105,-167.566"/>
<polygon fill="black" stroke="black" points="171.005,-170.95 179.919,-165.224 169.38,-164.141 171.005,-170.95"/>
</g>
<!-- proc~setup -->
<g id="node23" class="node"><title>proc~setup</title>
<g id="a_node23"><a xlink:href="../proc/setup.html" xlink:title="setup">
<polygon fill="#d9534f" stroke="#d9534f" points="234,-129 180,-129 180,-105 234,-105 234,-129"/>
<text text-anchor="middle" x="207" y="-114.6" font-family="Helvetica,sans-Serif" font-size="10.50" fill="white">setup</text>
</a>
</g>
</g>
<!-- proc~figure&#45;&gt;proc~setup -->
<g id="edge26" class="edge"><title>proc~figure&#45;&gt;proc~setup</title>
<path fill="none" stroke="black" d="M134.967,-167.853C147.994,-158.527 166.181,-145.507 180.891,-134.976"/>
<polygon fill="black" stroke="black" points="182.991,-137.777 189.085,-129.11 178.916,-132.085 182.991,-137.777"/>
</g>
<!-- plbop -->
<g id="node24" class="node"><title>plbop</title>
<polygon fill="#777777" stroke="#777777" points="234,-87 180,-87 180,-63 234,-63 234,-87"/>
<text text-anchor="middle" x="207" y="-72.6" font-family="Helvetica,sans-Serif" font-size="10.50" fill="white">plbop</text>
</g>
<!-- proc~figure&#45;&gt;plbop -->
<g id="edge27" class="edge"><title>proc~figure&#45;&gt;plbop</title>
<path fill="none" stroke="black" d="M125.546,-167.848C136.43,-150.812 157.689,-119.305 180,-96 180.65,-95.3215 181.321,-94.6449 182.009,-93.9726"/>
<polygon fill="black" stroke="black" points="184.636,-96.3188 189.764,-87.0475 179.974,-91.0975 184.636,-96.3188"/>
</g>
<!-- figsize -->
<g id="node25" class="node"><title>figsize</title>
<polygon fill="#777777" stroke="#777777" points="324,-234 270,-234 270,-210 324,-210 324,-234"/>
<text text-anchor="middle" x="297" y="-219.6" font-family="Helvetica,sans-Serif" font-size="10.50" fill="white">figsize</text>
</g>
<!-- proc~setup&#45;&gt;figsize -->
<g id="edge17" class="edge"><title>proc~setup&#45;&gt;figsize</title>
<path fill="none" stroke="black" d="M224.79,-129.021C228.05,-131.766 231.292,-134.819 234,-138 254.905,-162.556 249.095,-176.444 270,-201 270.592,-201.696 271.21,-202.386 271.848,-203.067"/>
<polygon fill="black" stroke="black" points="269.524,-205.686 279.21,-209.979 274.315,-200.583 269.524,-205.686"/>
</g>
<!-- plsdev -->
<g id="node26" class="node"><title>plsdev</title>
<polygon fill="#777777" stroke="#777777" points="324,-192 270,-192 270,-168 324,-168 324,-192"/>
<text text-anchor="middle" x="297" y="-177.6" font-family="Helvetica,sans-Serif" font-size="10.50" fill="white">plsdev</text>
</g>
<!-- proc~setup&#45;&gt;plsdev -->
<g id="edge18" class="edge"><title>proc~setup&#45;&gt;plsdev</title>
<path fill="none" stroke="black" d="M224.967,-129.147C237.994,-138.473 256.181,-151.493 270.891,-162.024"/>
<polygon fill="black" stroke="black" points="268.916,-164.915 279.085,-167.89 272.991,-159.223 268.916,-164.915"/>
</g>
<!-- plfontld -->
<g id="node27" class="node"><title>plfontld</title>
<polygon fill="#777777" stroke="#777777" points="324,-150 270,-150 270,-126 324,-126 324,-150"/>
<text text-anchor="middle" x="297" y="-135.6" font-family="Helvetica,sans-Serif" font-size="10.50" fill="white">plfontld</text>
</g>
<!-- proc~setup&#45;&gt;plfontld -->
<g id="edge19" class="edge"><title>proc~setup&#45;&gt;plfontld</title>
<path fill="none" stroke="black" d="M234.403,-123.301C242.481,-125.228 251.507,-127.382 260.105,-129.434"/>
<polygon fill="black" stroke="black" points="259.38,-132.859 269.919,-131.776 261.005,-126.05 259.38,-132.859"/>
</g>
<!-- plsfnam -->
<g id="node28" class="node"><title>plsfnam</title>
<polygon fill="#777777" stroke="#777777" points="324,-108 270,-108 270,-84 324,-84 324,-108"/>
<text text-anchor="middle" x="297" y="-93.6" font-family="Helvetica,sans-Serif" font-size="10.50" fill="white">plsfnam</text>
</g>
<!-- proc~setup&#45;&gt;plsfnam -->
<g id="edge20" class="edge"><title>proc~setup&#45;&gt;plsfnam</title>
<path fill="none" stroke="black" d="M234.403,-110.699C242.481,-108.772 251.507,-106.618 260.105,-104.566"/>
<polygon fill="black" stroke="black" points="261.005,-107.95 269.919,-102.224 259.38,-101.141 261.005,-107.95"/>
</g>
<!-- plsfam -->
<g id="node29" class="node"><title>plsfam</title>
<polygon fill="#777777" stroke="#777777" points="324,-66 270,-66 270,-42 324,-42 324,-66"/>
<text text-anchor="middle" x="297" y="-51.6" font-family="Helvetica,sans-Serif" font-size="10.50" fill="white">plsfam</text>
</g>
<!-- proc~setup&#45;&gt;plsfam -->
<g id="edge21" class="edge"><title>proc~setup&#45;&gt;plsfam</title>
<path fill="none" stroke="black" d="M224.967,-104.853C237.994,-95.5274 256.181,-82.5069 270.891,-71.9759"/>
<polygon fill="black" stroke="black" points="272.991,-74.7768 279.085,-66.1097 268.916,-69.085 272.991,-74.7768"/>
</g>
<!-- plsetopt -->
<g id="node30" class="node"><title>plsetopt</title>
<polygon fill="#777777" stroke="#777777" points="324,-24 270,-24 270,-0 324,-0 324,-24"/>
<text text-anchor="middle" x="297" y="-9.6" font-family="Helvetica,sans-Serif" font-size="10.50" fill="white">plsetopt</text>
</g>
<!-- proc~setup&#45;&gt;plsetopt -->
<g id="edge22" class="edge"><title>proc~setup&#45;&gt;plsetopt</title>
<path fill="none" stroke="black" d="M224.79,-104.979C228.05,-102.234 231.292,-99.1811 234,-96 254.905,-71.4443 249.095,-57.5557 270,-33 270.592,-32.3041 271.21,-31.6144 271.848,-30.9327"/>
<polygon fill="black" stroke="black" points="274.315,-33.4174 279.21,-24.021 269.524,-28.3141 274.315,-33.4174"/>
</g>
</g>
</svg>
