<?xml version="1.0" encoding="UTF-8" standalone="no"?>
<!DOCTYPE svg PUBLIC "-//W3C//DTD SVG 1.1//EN"
 "http://www.w3.org/Graphics/SVG/1.1/DTD/svg11.dtd">
<!-- Generated by graphviz version 2.38.0 (20140413.2041)
 -->
<!-- Title: proc~~plot~~CalledByGraph Pages: 1 -->
<svg width="378pt" height="242pt"
 viewBox="0.00 0.00 378.00 242.00" xmlns="http://www.w3.org/2000/svg" xmlns:xlink="http://www.w3.org/1999/xlink">
<g id="graph0" class="graph" transform="scale(1 1) rotate(0) translate(4 238)">
<title>proc~~plot~~CalledByGraph</title>
<polygon fill="white" stroke="none" points="-4,4 -4,-238 374,-238 374,4 -4,4"/>
<!-- proc~plot -->
<g id="node1" class="node"><title>proc~plot</title>
<polygon fill="none" stroke="black" points="370,-129 316,-129 316,-105 370,-105 370,-129"/>
<text text-anchor="middle" x="343" y="-114.6" font-family="Helvetica,sans-Serif" font-size="10.50">plot</text>
</g>
<!-- proc~doerror -->
<g id="node2" class="node"><title>proc~doerror</title>
<g id="a_node2"><a xlink:href="../proc/doerror.html" xlink:title="doError">
<polygon fill="#d9534f" stroke="#d9534f" points="267.5,-234 213.5,-234 213.5,-210 267.5,-210 267.5,-234"/>
<text text-anchor="middle" x="240.5" y="-219.6" font-family="Helvetica,sans-Serif" font-size="10.50" fill="white">doError</text>
</a>
</g>
</g>
<!-- proc~doerror&#45;&gt;proc~plot -->
<g id="edge6" class="edge"><title>proc~doerror&#45;&gt;proc~plot</title>
<path fill="none" stroke="black" d="M267.384,-209.925C271.819,-207.298 276.213,-204.303 280,-201 300.94,-182.74 319.031,-156.232 330.178,-137.899"/>
<polygon fill="black" stroke="black" points="333.278,-139.534 335.353,-129.145 327.252,-135.972 333.278,-139.534"/>
</g>
<!-- program~basic_prg -->
<g id="node3" class="node"><title>program~basic_prg</title>
<g id="a_node3"><a xlink:href="../program/basic_prg.html" xlink:title="basic_prg">
<polygon fill="#f0ad4e" stroke="#f0ad4e" points="270,-66 211,-66 211,-42 270,-42 270,-66"/>
<text text-anchor="middle" x="240.5" y="-51.6" font-family="Helvetica,sans-Serif" font-size="10.50" fill="white">basic_prg</text>
</a>
</g>
</g>
<!-- program~basic_prg&#45;&gt;proc~plot -->
<g id="edge7" class="edge"><title>program~basic_prg&#45;&gt;proc~plot</title>
<path fill="none" stroke="black" d="M264.507,-66.0799C269.659,-68.9142 275.059,-71.9885 280,-75 292.351,-82.5282 305.677,-91.4458 316.798,-99.1231"/>
<polygon fill="black" stroke="black" points="314.977,-102.12 325.183,-104.964 318.978,-96.3762 314.977,-102.12"/>
</g>
<!-- proc~makelogo -->
<g id="node4" class="node"><title>proc~makelogo</title>
<g id="a_node4"><a xlink:href="../proc/makelogo.html" xlink:title="makeLogo">
<polygon fill="#d9534f" stroke="#d9534f" points="272,-24 209,-24 209,-0 272,-0 272,-24"/>
<text text-anchor="middle" x="240.5" y="-9.6" font-family="Helvetica,sans-Serif" font-size="10.50" fill="white">makeLogo</text>
</a>
</g>
</g>
<!-- proc~makelogo&#45;&gt;proc~plot -->
<g id="edge8" class="edge"><title>proc~makelogo&#45;&gt;proc~plot</title>
<path fill="none" stroke="black" d="M267.384,-24.0745C271.819,-26.7018 276.213,-29.6973 280,-33 300.94,-51.2602 319.031,-77.7682 330.178,-96.1008"/>
<polygon fill="black" stroke="black" points="327.252,-98.0277 335.353,-104.855 333.278,-94.4658 327.252,-98.0277"/>
</g>
<!-- proc~dolegend -->
<g id="node5" class="node"><title>proc~dolegend</title>
<g id="a_node5"><a xlink:href="../proc/dolegend.html" xlink:title="doLegend">
<polygon fill="#d9534f" stroke="#d9534f" points="271,-192 210,-192 210,-168 271,-168 271,-192"/>
<text text-anchor="middle" x="240.5" y="-177.6" font-family="Helvetica,sans-Serif" font-size="10.50" fill="white">doLegend</text>
</a>
</g>
</g>
<!-- proc~dolegend&#45;&gt;proc~plot -->
<g id="edge9" class="edge"><title>proc~dolegend&#45;&gt;proc~plot</title>
<path fill="none" stroke="black" d="M264.507,-167.92C269.659,-165.086 275.059,-162.012 280,-159 292.351,-151.472 305.677,-142.554 316.798,-134.877"/>
<polygon fill="black" stroke="black" points="318.978,-137.624 325.183,-129.036 314.977,-131.88 318.978,-137.624"/>
</g>
<!-- proc~dofillbetween -->
<g id="node6" class="node"><title>proc~dofillbetween</title>
<g id="a_node6"><a xlink:href="../proc/dofillbetween.html" xlink:title="doFillBetween">
<polygon fill="#d9534f" stroke="#d9534f" points="280,-150 201,-150 201,-126 280,-126 280,-150"/>
<text text-anchor="middle" x="240.5" y="-135.6" font-family="Helvetica,sans-Serif" font-size="10.50" fill="white">doFillBetween</text>
</a>
</g>
</g>
<!-- proc~dofillbetween&#45;&gt;proc~plot -->
<g id="edge10" class="edge"><title>proc~dofillbetween&#45;&gt;proc~plot</title>
<path fill="none" stroke="black" d="M280.069,-129.941C288.569,-128.165 297.541,-126.29 305.938,-124.535"/>
<polygon fill="black" stroke="black" points="306.752,-127.941 315.824,-122.47 305.32,-121.089 306.752,-127.941"/>
</g>
<!-- proc~doplot -->
<g id="node7" class="node"><title>proc~doplot</title>
<g id="a_node7"><a xlink:href="../proc/doplot.html" xlink:title="doPlot">
<polygon fill="#d9534f" stroke="#d9534f" points="267.5,-108 213.5,-108 213.5,-84 267.5,-84 267.5,-108"/>
<text text-anchor="middle" x="240.5" y="-93.6" font-family="Helvetica,sans-Serif" font-size="10.50" fill="white">doPlot</text>
</a>
</g>
</g>
<!-- proc~doplot&#45;&gt;proc~plot -->
<g id="edge11" class="edge"><title>proc~doplot&#45;&gt;proc~plot</title>
<path fill="none" stroke="black" d="M267.643,-101.463C279.391,-103.918 293.443,-106.854 306.153,-109.51"/>
<polygon fill="black" stroke="black" points="305.484,-112.945 315.988,-111.565 306.915,-106.093 305.484,-112.945"/>
</g>
<!-- proc~doexamples -->
<g id="node8" class="node"><title>proc~doexamples</title>
<g id="a_node8"><a xlink:href="../proc/doexamples.html" xlink:title="doExamples">
<polygon fill="#d9534f" stroke="#d9534f" points="165,-171 94,-171 94,-147 165,-147 165,-171"/>
<text text-anchor="middle" x="129.5" y="-156.6" font-family="Helvetica,sans-Serif" font-size="10.50" fill="white">doExamples</text>
</a>
</g>
</g>
<!-- proc~doexamples&#45;&gt;proc~doerror -->
<g id="edge2" class="edge"><title>proc~doexamples&#45;&gt;proc~doerror</title>
<path fill="none" stroke="black" d="M150.438,-171.152C164.492,-179.65 183.798,-191.189 201,-201 203.338,-202.333 205.763,-203.698 208.209,-205.062"/>
<polygon fill="black" stroke="black" points="206.58,-208.16 217.026,-209.928 209.962,-202.032 206.58,-208.16"/>
</g>
<!-- proc~doexamples&#45;&gt;proc~dolegend -->
<g id="edge3" class="edge"><title>proc~doexamples&#45;&gt;proc~dolegend</title>
<path fill="none" stroke="black" d="M165.288,-165.702C176.259,-167.816 188.462,-170.167 199.752,-172.342"/>
<polygon fill="black" stroke="black" points="199.32,-175.823 209.802,-174.278 200.645,-168.95 199.32,-175.823"/>
</g>
<!-- proc~doexamples&#45;&gt;proc~dofillbetween -->
<g id="edge4" class="edge"><title>proc~doexamples&#45;&gt;proc~dofillbetween</title>
<path fill="none" stroke="black" d="M165.288,-152.298C173.438,-150.728 182.268,-149.026 190.898,-147.364"/>
<polygon fill="black" stroke="black" points="191.728,-150.768 200.885,-145.44 190.403,-143.895 191.728,-150.768"/>
</g>
<!-- proc~doexamples&#45;&gt;proc~doplot -->
<g id="edge5" class="edge"><title>proc~doexamples&#45;&gt;proc~doplot</title>
<path fill="none" stroke="black" d="M150.438,-146.848C164.492,-138.35 183.798,-126.811 201,-117 203.338,-115.667 205.763,-114.302 208.209,-112.938"/>
<polygon fill="black" stroke="black" points="209.962,-115.968 217.026,-108.072 206.58,-109.84 209.962,-115.968"/>
</g>
<!-- program~main_prg -->
<g id="node9" class="node"><title>program~main_prg</title>
<g id="a_node9"><a xlink:href="../program/main_prg.html" xlink:title="main_prg">
<polygon fill="#f0ad4e" stroke="#f0ad4e" points="58,-171 3.55271e-15,-171 3.55271e-15,-147 58,-147 58,-171"/>
<text text-anchor="middle" x="29" y="-156.6" font-family="Helvetica,sans-Serif" font-size="10.50" fill="white">main_prg</text>
</a>
</g>
</g>
<!-- program~main_prg&#45;&gt;proc~doexamples -->
<g id="edge1" class="edge"><title>program~main_prg&#45;&gt;proc~doexamples</title>
<path fill="none" stroke="black" d="M58.2261,-159C66.2347,-159 75.1563,-159 83.8823,-159"/>
<polygon fill="black" stroke="black" points="83.9695,-162.5 93.9695,-159 83.9695,-155.5 83.9695,-162.5"/>
</g>
</g>
</svg>
