<?xml version="1.0" encoding="UTF-8" standalone="no"?>
<!DOCTYPE svg PUBLIC "-//W3C//DTD SVG 1.1//EN"
 "http://www.w3.org/Graphics/SVG/1.1/DTD/svg11.dtd">
<!-- Generated by graphviz version 2.38.0 (20140413.2041)
 -->
<!-- Title: proc~~plot~~CallsGraph Pages: 1 -->
<svg width="152pt" height="116pt"
 viewBox="0.00 0.00 152.00 116.00" xmlns="http://www.w3.org/2000/svg" xmlns:xlink="http://www.w3.org/1999/xlink">
<g id="graph0" class="graph" transform="scale(1 1) rotate(0) translate(4 112)">
<title>proc~~plot~~CallsGraph</title>
<polygon fill="white" stroke="none" points="-4,4 -4,-112 148,-112 148,4 -4,4"/>
<!-- proc~plot -->
<g id="node1" class="node"><title>proc~plot</title>
<polygon fill="none" stroke="black" points="54,-66 0,-66 0,-42 54,-42 54,-66"/>
<text text-anchor="middle" x="27" y="-51.6" font-family="Helvetica,sans-Serif" font-size="10.50">plot</text>
</g>
<!-- plssym -->
<g id="node2" class="node"><title>plssym</title>
<polygon fill="#777777" stroke="#777777" points="144,-108 90,-108 90,-84 144,-84 144,-108"/>
<text text-anchor="middle" x="117" y="-93.6" font-family="Helvetica,sans-Serif" font-size="10.50" fill="white">plssym</text>
</g>
<!-- proc~plot&#45;&gt;plssym -->
<g id="edge1" class="edge"><title>proc~plot&#45;&gt;plssym</title>
<path fill="none" stroke="black" d="M53.4532,-66.1481C62.2096,-70.3273 72.1654,-75.0789 81.5185,-79.5429"/>
<polygon fill="black" stroke="black" points="80.0716,-82.7305 90.604,-83.8792 83.0867,-76.4131 80.0716,-82.7305"/>
</g>
<!-- plline -->
<g id="node3" class="node"><title>plline</title>
<polygon fill="#777777" stroke="#777777" points="144,-66 90,-66 90,-42 144,-42 144,-66"/>
<text text-anchor="middle" x="117" y="-51.6" font-family="Helvetica,sans-Serif" font-size="10.50" fill="white">plline</text>
</g>
<!-- proc~plot&#45;&gt;plline -->
<g id="edge2" class="edge"><title>proc~plot&#45;&gt;plline</title>
<path fill="none" stroke="black" d="M54.4029,-54C62.3932,-54 71.3106,-54 79.8241,-54"/>
<polygon fill="black" stroke="black" points="79.919,-57.5001 89.919,-54 79.919,-50.5001 79.919,-57.5001"/>
</g>
<!-- plptex -->
<g id="node4" class="node"><title>plptex</title>
<polygon fill="#777777" stroke="#777777" points="144,-24 90,-24 90,-0 144,-0 144,-24"/>
<text text-anchor="middle" x="117" y="-9.6" font-family="Helvetica,sans-Serif" font-size="10.50" fill="white">plptex</text>
</g>
<!-- proc~plot&#45;&gt;plptex -->
<g id="edge3" class="edge"><title>proc~plot&#45;&gt;plptex</title>
<path fill="none" stroke="black" d="M53.4532,-41.8519C62.2096,-37.6727 72.1654,-32.9211 81.5185,-28.4571"/>
<polygon fill="black" stroke="black" points="83.0867,-31.5869 90.604,-24.1208 80.0716,-25.2695 83.0867,-31.5869"/>
</g>
</g>
</svg>
