<?xml version="1.0" encoding="UTF-8" standalone="no"?>
<!DOCTYPE svg PUBLIC "-//W3C//DTD SVG 1.1//EN"
 "http://www.w3.org/Graphics/SVG/1.1/DTD/svg11.dtd">
<!-- Generated by graphviz version 2.38.0 (20140413.2041)
 -->
<!-- Title: proc~~dolegend~~CallsGraph Pages: 1 -->
<svg width="339pt" height="620pt"
 viewBox="0.00 0.00 339.00 620.00" xmlns="http://www.w3.org/2000/svg" xmlns:xlink="http://www.w3.org/1999/xlink">
<g id="graph0" class="graph" transform="scale(1 1) rotate(0) translate(4 616)">
<title>proc~~dolegend~~CallsGraph</title>
<polygon fill="white" stroke="none" points="-4,4 -4,-616 335,-616 335,4 -4,4"/>
<!-- proc~dolegend -->
<g id="node1" class="node"><title>proc~dolegend</title>
<polygon fill="none" stroke="black" points="61,-192 -3.55271e-15,-192 -3.55271e-15,-168 61,-168 61,-192"/>
<text text-anchor="middle" x="30.5" y="-177.6" font-family="Helvetica,sans-Serif" font-size="10.50">doLegend</text>
</g>
<!-- proc~labels -->
<g id="node2" class="node"><title>proc~labels</title>
<g id="a_node2"><a xlink:href="../proc/labels.html" xlink:title="labels">
<polygon fill="#d9534f" stroke="#d9534f" points="151,-596 97,-596 97,-572 151,-572 151,-596"/>
<text text-anchor="middle" x="124" y="-581.6" font-family="Helvetica,sans-Serif" font-size="10.50" fill="white">labels</text>
</a>
</g>
</g>
<!-- proc~dolegend&#45;&gt;proc~labels -->
<g id="edge24" class="edge"><title>proc~dolegend&#45;&gt;proc~labels</title>
<path fill="none" stroke="black" d="M32.5228,-192.158C36.6232,-237.849 53.7845,-403.239 97,-532 100.528,-542.511 105.815,-553.575 110.702,-562.783"/>
<polygon fill="black" stroke="black" points="107.671,-564.534 115.56,-571.606 113.803,-561.158 107.671,-564.534"/>
</g>
<!-- proc~ticks -->
<g id="node3" class="node"><title>proc~ticks</title>
<g id="a_node3"><a xlink:href="../proc/ticks.html" xlink:title="ticks">
<polygon fill="#d9534f" stroke="#d9534f" points="151,-523 97,-523 97,-499 151,-499 151,-523"/>
<text text-anchor="middle" x="124" y="-508.6" font-family="Helvetica,sans-Serif" font-size="10.50" fill="white">ticks</text>
</a>
</g>
</g>
<!-- proc~dolegend&#45;&gt;proc~ticks -->
<g id="edge25" class="edge"><title>proc~dolegend&#45;&gt;proc~ticks</title>
<path fill="none" stroke="black" d="M34.5287,-192.128C43.55,-228.092 71.2196,-337.243 97,-427 103.05,-448.063 110.49,-471.918 115.86,-488.809"/>
<polygon fill="black" stroke="black" points="112.676,-490.345 119.053,-498.805 119.344,-488.214 112.676,-490.345"/>
</g>
<!-- proc~figure -->
<g id="node4" class="node"><title>proc~figure</title>
<g id="a_node4"><a xlink:href="../proc/figure.html" xlink:title="figure">
<polygon fill="#d9534f" stroke="#d9534f" points="151,-297 97,-297 97,-273 151,-273 151,-297"/>
<text text-anchor="middle" x="124" y="-282.6" font-family="Helvetica,sans-Serif" font-size="10.50" fill="white">figure</text>
</a>
</g>
</g>
<!-- proc~dolegend&#45;&gt;proc~figure -->
<g id="edge26" class="edge"><title>proc~dolegend&#45;&gt;proc~figure</title>
<path fill="none" stroke="black" d="M41.9962,-192.045C57.5636,-209.909 86.9488,-243.63 105.721,-265.171"/>
<polygon fill="black" stroke="black" points="103.136,-267.533 112.344,-272.772 108.413,-262.934 103.136,-267.533"/>
</g>
<!-- proc~plot -->
<g id="node5" class="node"><title>proc~plot</title>
<g id="a_node5"><a xlink:href="../proc/plot.html" xlink:title="plot">
<polygon fill="#d9534f" stroke="#d9534f" points="151,-192 97,-192 97,-168 151,-168 151,-192"/>
<text text-anchor="middle" x="124" y="-177.6" font-family="Helvetica,sans-Serif" font-size="10.50" fill="white">plot</text>
</a>
</g>
</g>
<!-- proc~dolegend&#45;&gt;proc~plot -->
<g id="edge27" class="edge"><title>proc~dolegend&#45;&gt;proc~plot</title>
<path fill="none" stroke="black" d="M61.2074,-180C69.3691,-180 78.3107,-180 86.7941,-180"/>
<polygon fill="black" stroke="black" points="86.8315,-183.5 96.8315,-180 86.8314,-176.5 86.8315,-183.5"/>
</g>
<!-- interface~mixval -->
<g id="node6" class="node"><title>interface~mixval</title>
<g id="a_node6"><a xlink:href="../interface/mixval.html" xlink:title="mixval">
<polygon fill="#a7506f" stroke="#a7506f" points="151,-150 97,-150 97,-126 151,-126 151,-150"/>
<text text-anchor="middle" x="124" y="-135.6" font-family="Helvetica,sans-Serif" font-size="10.50" fill="white">mixval</text>
</a>
</g>
</g>
<!-- proc~dolegend&#45;&gt;interface~mixval -->
<g id="edge28" class="edge"><title>proc~dolegend&#45;&gt;interface~mixval</title>
<path fill="none" stroke="black" d="M57.9656,-167.852C67.245,-163.592 77.82,-158.738 87.7066,-154.2"/>
<polygon fill="black" stroke="black" points="89.2817,-157.328 96.9099,-149.976 86.3615,-150.967 89.2817,-157.328"/>
</g>
<!-- proc~legend -->
<g id="node7" class="node"><title>proc~legend</title>
<g id="a_node7"><a xlink:href="../proc/legend.html" xlink:title="legend">
<polygon fill="#d9534f" stroke="#d9534f" points="151,-108 97,-108 97,-84 151,-84 151,-108"/>
<text text-anchor="middle" x="124" y="-93.6" font-family="Helvetica,sans-Serif" font-size="10.50" fill="white">legend</text>
</a>
</g>
</g>
<!-- proc~dolegend&#45;&gt;proc~legend -->
<g id="edge29" class="edge"><title>proc~dolegend&#45;&gt;proc~legend</title>
<path fill="none" stroke="black" d="M43.7538,-167.593C56.6917,-154.643 77.829,-133.905 97,-117 97.8269,-116.271 98.6742,-115.534 99.5345,-114.795"/>
<polygon fill="black" stroke="black" points="101.981,-117.313 107.419,-108.221 97.4976,-111.937 101.981,-117.313"/>
</g>
<!-- proc~xylim -->
<g id="node8" class="node"><title>proc~xylim</title>
<g id="a_node8"><a xlink:href="../proc/xylim.html" xlink:title="xylim">
<polygon fill="#d9534f" stroke="#d9534f" points="151,-66 97,-66 97,-42 151,-42 151,-66"/>
<text text-anchor="middle" x="124" y="-51.6" font-family="Helvetica,sans-Serif" font-size="10.50" fill="white">xylim</text>
</a>
</g>
</g>
<!-- proc~dolegend&#45;&gt;proc~xylim -->
<g id="edge30" class="edge"><title>proc~dolegend&#45;&gt;proc~xylim</title>
<path fill="none" stroke="black" d="M37.4063,-167.785C47.695,-147.244 70.3701,-105.084 97,-75 97.6057,-74.3157 98.2353,-73.6361 98.8836,-72.9633"/>
<polygon fill="black" stroke="black" points="101.337,-75.4613 106.304,-66.1029 96.5856,-70.3212 101.337,-75.4613"/>
</g>
<!-- proc~linspace -->
<g id="node9" class="node"><title>proc~linspace</title>
<g id="a_node9"><a xlink:href="../proc/linspace.html" xlink:title="linspace">
<polygon fill="#d94e8f" stroke="#d94e8f" points="151,-24 97,-24 97,-0 151,-0 151,-24"/>
<text text-anchor="middle" x="124" y="-9.6" font-family="Helvetica,sans-Serif" font-size="10.50" fill="white">linspace</text>
</a>
</g>
</g>
<!-- proc~dolegend&#45;&gt;proc~linspace -->
<g id="edge31" class="edge"><title>proc~dolegend&#45;&gt;proc~linspace</title>
<path fill="none" stroke="black" d="M34.7565,-167.939C42.3329,-141.458 63.1186,-77.084 97,-33 97.4641,-32.3962 97.9489,-31.7991 98.4512,-31.2096"/>
<polygon fill="black" stroke="black" points="101.042,-33.5698 105.689,-24.0482 96.1184,-28.594 101.042,-33.5698"/>
</g>
<!-- proc~subplot -->
<g id="node10" class="node"><title>proc~subplot</title>
<g id="a_node10"><a xlink:href="../proc/subplot.html" xlink:title="subplot">
<polygon fill="#d9534f" stroke="#d9534f" points="151,-418 97,-418 97,-394 151,-394 151,-418"/>
<text text-anchor="middle" x="124" y="-403.6" font-family="Helvetica,sans-Serif" font-size="10.50" fill="white">subplot</text>
</a>
</g>
</g>
<!-- proc~dolegend&#45;&gt;proc~subplot -->
<g id="edge32" class="edge"><title>proc~dolegend&#45;&gt;proc~subplot</title>
<path fill="none" stroke="black" d="M36.4194,-192.151C51.1898,-228.633 95.2951,-337.57 114.218,-384.31"/>
<polygon fill="black" stroke="black" points="111.059,-385.834 118.056,-393.789 117.548,-383.207 111.059,-385.834"/>
</g>
<!-- pllab -->
<g id="node11" class="node"><title>pllab</title>
<polygon fill="#777777" stroke="#777777" points="241,-612 187,-612 187,-588 241,-588 241,-612"/>
<text text-anchor="middle" x="214" y="-597.6" font-family="Helvetica,sans-Serif" font-size="10.50" fill="white">pllab</text>
</g>
<!-- proc~labels&#45;&gt;pllab -->
<g id="edge1" class="edge"><title>proc~labels&#45;&gt;pllab</title>
<path fill="none" stroke="black" d="M151.403,-588.801C159.393,-590.253 168.311,-591.875 176.824,-593.423"/>
<polygon fill="black" stroke="black" points="176.454,-596.913 186.919,-595.258 177.706,-590.026 176.454,-596.913"/>
</g>
<!-- plbox -->
<g id="node12" class="node"><title>plbox</title>
<polygon fill="#777777" stroke="#777777" points="241,-570 187,-570 187,-546 241,-546 241,-570"/>
<text text-anchor="middle" x="214" y="-555.6" font-family="Helvetica,sans-Serif" font-size="10.50" fill="white">plbox</text>
</g>
<!-- proc~ticks&#45;&gt;plbox -->
<g id="edge2" class="edge"><title>proc~ticks&#45;&gt;plbox</title>
<path fill="none" stroke="black" d="M147.662,-523.104C157.927,-528.586 170.236,-535.16 181.388,-541.117"/>
<polygon fill="black" stroke="black" points="179.945,-544.313 190.415,-545.937 183.243,-538.139 179.945,-544.313"/>
</g>
<!-- pladv -->
<g id="node13" class="node"><title>pladv</title>
<polygon fill="#777777" stroke="#777777" points="241,-360 187,-360 187,-336 241,-336 241,-360"/>
<text text-anchor="middle" x="214" y="-345.6" font-family="Helvetica,sans-Serif" font-size="10.50" fill="white">pladv</text>
</g>
<!-- proc~figure&#45;&gt;pladv -->
<g id="edge9" class="edge"><title>proc~figure&#45;&gt;pladv</title>
<path fill="none" stroke="black" d="M141.967,-297.147C154.994,-306.473 173.181,-319.493 187.891,-330.024"/>
<polygon fill="black" stroke="black" points="185.916,-332.915 196.085,-335.89 189.991,-327.223 185.916,-332.915"/>
</g>
<!-- pleop -->
<g id="node14" class="node"><title>pleop</title>
<polygon fill="#777777" stroke="#777777" points="241,-318 187,-318 187,-294 241,-294 241,-318"/>
<text text-anchor="middle" x="214" y="-303.6" font-family="Helvetica,sans-Serif" font-size="10.50" fill="white">pleop</text>
</g>
<!-- proc~figure&#45;&gt;pleop -->
<g id="edge10" class="edge"><title>proc~figure&#45;&gt;pleop</title>
<path fill="none" stroke="black" d="M151.403,-291.301C159.481,-293.228 168.507,-295.382 177.105,-297.434"/>
<polygon fill="black" stroke="black" points="176.38,-300.859 186.919,-299.776 178.005,-294.05 176.38,-300.859"/>
</g>
<!-- plssub -->
<g id="node15" class="node"><title>plssub</title>
<polygon fill="#777777" stroke="#777777" points="241,-402 187,-402 187,-378 241,-378 241,-402"/>
<text text-anchor="middle" x="214" y="-387.6" font-family="Helvetica,sans-Serif" font-size="10.50" fill="white">plssub</text>
</g>
<!-- proc~figure&#45;&gt;plssub -->
<g id="edge11" class="edge"><title>proc~figure&#45;&gt;plssub</title>
<path fill="none" stroke="black" d="M132.546,-297.152C143.43,-314.188 164.689,-345.695 187,-369 187.65,-369.678 188.321,-370.355 189.009,-371.027"/>
<polygon fill="black" stroke="black" points="186.974,-373.902 196.764,-377.953 191.636,-368.681 186.974,-373.902"/>
</g>
<!-- proc~setup -->
<g id="node16" class="node"><title>proc~setup</title>
<g id="a_node16"><a xlink:href="../proc/setup.html" xlink:title="setup">
<polygon fill="#d9534f" stroke="#d9534f" points="241,-276 187,-276 187,-252 241,-252 241,-276"/>
<text text-anchor="middle" x="214" y="-261.6" font-family="Helvetica,sans-Serif" font-size="10.50" fill="white">setup</text>
</a>
</g>
</g>
<!-- proc~figure&#45;&gt;proc~setup -->
<g id="edge12" class="edge"><title>proc~figure&#45;&gt;proc~setup</title>
<path fill="none" stroke="black" d="M151.403,-278.699C159.481,-276.772 168.507,-274.618 177.105,-272.566"/>
<polygon fill="black" stroke="black" points="178.005,-275.95 186.919,-270.224 176.38,-269.141 178.005,-275.95"/>
</g>
<!-- plbop -->
<g id="node17" class="node"><title>plbop</title>
<polygon fill="#777777" stroke="#777777" points="241,-234 187,-234 187,-210 241,-210 241,-234"/>
<text text-anchor="middle" x="214" y="-219.6" font-family="Helvetica,sans-Serif" font-size="10.50" fill="white">plbop</text>
</g>
<!-- proc~figure&#45;&gt;plbop -->
<g id="edge13" class="edge"><title>proc~figure&#45;&gt;plbop</title>
<path fill="none" stroke="black" d="M141.967,-272.853C154.994,-263.527 173.181,-250.507 187.891,-239.976"/>
<polygon fill="black" stroke="black" points="189.991,-242.777 196.085,-234.11 185.916,-237.085 189.991,-242.777"/>
</g>
<!-- plssym -->
<g id="node24" class="node"><title>plssym</title>
<polygon fill="#777777" stroke="#777777" points="241,-192 187,-192 187,-168 241,-168 241,-192"/>
<text text-anchor="middle" x="214" y="-177.6" font-family="Helvetica,sans-Serif" font-size="10.50" fill="white">plssym</text>
</g>
<!-- proc~plot&#45;&gt;plssym -->
<g id="edge14" class="edge"><title>proc~plot&#45;&gt;plssym</title>
<path fill="none" stroke="black" d="M151.403,-180C159.393,-180 168.311,-180 176.824,-180"/>
<polygon fill="black" stroke="black" points="176.919,-183.5 186.919,-180 176.919,-176.5 176.919,-183.5"/>
</g>
<!-- plline -->
<g id="node25" class="node"><title>plline</title>
<polygon fill="#777777" stroke="#777777" points="241,-150 187,-150 187,-126 241,-126 241,-150"/>
<text text-anchor="middle" x="214" y="-135.6" font-family="Helvetica,sans-Serif" font-size="10.50" fill="white">plline</text>
</g>
<!-- proc~plot&#45;&gt;plline -->
<g id="edge15" class="edge"><title>proc~plot&#45;&gt;plline</title>
<path fill="none" stroke="black" d="M150.453,-167.852C159.21,-163.673 169.165,-158.921 178.518,-154.457"/>
<polygon fill="black" stroke="black" points="180.087,-157.587 187.604,-150.121 177.072,-151.27 180.087,-157.587"/>
</g>
<!-- plptex -->
<g id="node26" class="node"><title>plptex</title>
<polygon fill="#777777" stroke="#777777" points="241,-108 187,-108 187,-84 241,-84 241,-108"/>
<text text-anchor="middle" x="214" y="-93.6" font-family="Helvetica,sans-Serif" font-size="10.50" fill="white">plptex</text>
</g>
<!-- proc~plot&#45;&gt;plptex -->
<g id="edge16" class="edge"><title>proc~plot&#45;&gt;plptex</title>
<path fill="none" stroke="black" d="M141.068,-167.786C144.448,-165.008 147.92,-161.991 151,-159 168.637,-141.871 169.363,-134.129 187,-117 187.674,-116.346 188.366,-115.69 189.073,-115.036"/>
<polygon fill="black" stroke="black" points="191.674,-117.413 196.932,-108.214 187.086,-112.126 191.674,-117.413"/>
</g>
<!-- pllegend -->
<g id="node27" class="node"><title>pllegend</title>
<polygon fill="#777777" stroke="#777777" points="241,-66 187,-66 187,-42 241,-42 241,-66"/>
<text text-anchor="middle" x="214" y="-51.6" font-family="Helvetica,sans-Serif" font-size="10.50" fill="white">pllegend</text>
</g>
<!-- proc~legend&#45;&gt;pllegend -->
<g id="edge17" class="edge"><title>proc~legend&#45;&gt;pllegend</title>
<path fill="none" stroke="black" d="M150.453,-83.8519C159.21,-79.6727 169.165,-74.9211 178.518,-70.4571"/>
<polygon fill="black" stroke="black" points="180.087,-73.5869 187.604,-66.1208 177.072,-67.2695 180.087,-73.5869"/>
</g>
<!-- plwind -->
<g id="node28" class="node"><title>plwind</title>
<polygon fill="#777777" stroke="#777777" points="241,-24 187,-24 187,-0 241,-0 241,-24"/>
<text text-anchor="middle" x="214" y="-9.6" font-family="Helvetica,sans-Serif" font-size="10.50" fill="white">plwind</text>
</g>
<!-- proc~xylim&#45;&gt;plwind -->
<g id="edge18" class="edge"><title>proc~xylim&#45;&gt;plwind</title>
<path fill="none" stroke="black" d="M150.453,-41.8519C159.21,-37.6727 169.165,-32.9211 178.518,-28.4571"/>
<polygon fill="black" stroke="black" points="180.087,-31.5869 187.604,-24.1208 177.072,-25.2695 180.087,-31.5869"/>
</g>
<!-- proc~subplot&#45;&gt;pladv -->
<g id="edge23" class="edge"><title>proc~subplot&#45;&gt;pladv</title>
<path fill="none" stroke="black" d="M143.234,-393.982C155.623,-385.817 172.22,-374.878 186.118,-365.718"/>
<polygon fill="black" stroke="black" points="188.366,-368.428 194.79,-360.002 184.514,-362.583 188.366,-368.428"/>
</g>
<!-- proc~subplot&#45;&gt;plssub -->
<g id="edge21" class="edge"><title>proc~subplot&#45;&gt;plssub</title>
<path fill="none" stroke="black" d="M151.403,-401.199C159.393,-399.747 168.311,-398.125 176.824,-396.577"/>
<polygon fill="black" stroke="black" points="177.706,-399.974 186.919,-394.742 176.454,-393.087 177.706,-399.974"/>
</g>
<!-- plvasp -->
<g id="node29" class="node"><title>plvasp</title>
<polygon fill="#777777" stroke="#777777" points="241,-528 187,-528 187,-504 241,-504 241,-528"/>
<text text-anchor="middle" x="214" y="-513.6" font-family="Helvetica,sans-Serif" font-size="10.50" fill="white">plvasp</text>
</g>
<!-- proc~subplot&#45;&gt;plvasp -->
<g id="edge19" class="edge"><title>proc~subplot&#45;&gt;plvasp</title>
<path fill="none" stroke="black" d="M131.865,-418.019C142.395,-435.896 163.769,-470.059 187,-495 187.623,-495.669 188.268,-496.335 188.929,-496.996"/>
<polygon fill="black" stroke="black" points="186.665,-499.667 196.426,-503.787 191.364,-494.479 186.665,-499.667"/>
</g>
<!-- plvpor -->
<g id="node30" class="node"><title>plvpor</title>
<polygon fill="#777777" stroke="#777777" points="241,-486 187,-486 187,-462 241,-462 241,-486"/>
<text text-anchor="middle" x="214" y="-471.6" font-family="Helvetica,sans-Serif" font-size="10.50" fill="white">plvpor</text>
</g>
<!-- proc~subplot&#45;&gt;plvpor -->
<g id="edge20" class="edge"><title>proc~subplot&#45;&gt;plvpor</title>
<path fill="none" stroke="black" d="M140.733,-418.157C154.248,-428.6 173.933,-443.812 189.346,-455.722"/>
<polygon fill="black" stroke="black" points="187.351,-458.603 197.404,-461.948 191.631,-453.064 187.351,-458.603"/>
</g>
<!-- plvsta -->
<g id="node31" class="node"><title>plvsta</title>
<polygon fill="#777777" stroke="#777777" points="241,-444 187,-444 187,-420 241,-420 241,-444"/>
<text text-anchor="middle" x="214" y="-429.6" font-family="Helvetica,sans-Serif" font-size="10.50" fill="white">plvsta</text>
</g>
<!-- proc~subplot&#45;&gt;plvsta -->
<g id="edge22" class="edge"><title>proc~subplot&#45;&gt;plvsta</title>
<path fill="none" stroke="black" d="M151.403,-413.801C159.481,-416.188 168.507,-418.854 177.105,-421.395"/>
<polygon fill="black" stroke="black" points="176.337,-424.817 186.919,-424.294 178.321,-418.104 176.337,-424.817"/>
</g>
<!-- figsize -->
<g id="node18" class="node"><title>figsize</title>
<polygon fill="#777777" stroke="#777777" points="331,-381 277,-381 277,-357 331,-357 331,-381"/>
<text text-anchor="middle" x="304" y="-366.6" font-family="Helvetica,sans-Serif" font-size="10.50" fill="white">figsize</text>
</g>
<!-- proc~setup&#45;&gt;figsize -->
<g id="edge3" class="edge"><title>proc~setup&#45;&gt;figsize</title>
<path fill="none" stroke="black" d="M231.79,-276.021C235.05,-278.766 238.292,-281.819 241,-285 261.905,-309.556 256.095,-323.444 277,-348 277.592,-348.696 278.21,-349.386 278.848,-350.067"/>
<polygon fill="black" stroke="black" points="276.524,-352.686 286.21,-356.979 281.315,-347.583 276.524,-352.686"/>
</g>
<!-- plsdev -->
<g id="node19" class="node"><title>plsdev</title>
<polygon fill="#777777" stroke="#777777" points="331,-339 277,-339 277,-315 331,-315 331,-339"/>
<text text-anchor="middle" x="304" y="-324.6" font-family="Helvetica,sans-Serif" font-size="10.50" fill="white">plsdev</text>
</g>
<!-- proc~setup&#45;&gt;plsdev -->
<g id="edge4" class="edge"><title>proc~setup&#45;&gt;plsdev</title>
<path fill="none" stroke="black" d="M231.967,-276.147C244.994,-285.473 263.181,-298.493 277.891,-309.024"/>
<polygon fill="black" stroke="black" points="275.916,-311.915 286.085,-314.89 279.991,-306.223 275.916,-311.915"/>
</g>
<!-- plfontld -->
<g id="node20" class="node"><title>plfontld</title>
<polygon fill="#777777" stroke="#777777" points="331,-297 277,-297 277,-273 331,-273 331,-297"/>
<text text-anchor="middle" x="304" y="-282.6" font-family="Helvetica,sans-Serif" font-size="10.50" fill="white">plfontld</text>
</g>
<!-- proc~setup&#45;&gt;plfontld -->
<g id="edge5" class="edge"><title>proc~setup&#45;&gt;plfontld</title>
<path fill="none" stroke="black" d="M241.403,-270.301C249.481,-272.228 258.507,-274.382 267.105,-276.434"/>
<polygon fill="black" stroke="black" points="266.38,-279.859 276.919,-278.776 268.005,-273.05 266.38,-279.859"/>
</g>
<!-- plsfnam -->
<g id="node21" class="node"><title>plsfnam</title>
<polygon fill="#777777" stroke="#777777" points="331,-255 277,-255 277,-231 331,-231 331,-255"/>
<text text-anchor="middle" x="304" y="-240.6" font-family="Helvetica,sans-Serif" font-size="10.50" fill="white">plsfnam</text>
</g>
<!-- proc~setup&#45;&gt;plsfnam -->
<g id="edge6" class="edge"><title>proc~setup&#45;&gt;plsfnam</title>
<path fill="none" stroke="black" d="M241.403,-257.699C249.481,-255.772 258.507,-253.618 267.105,-251.566"/>
<polygon fill="black" stroke="black" points="268.005,-254.95 276.919,-249.224 266.38,-248.141 268.005,-254.95"/>
</g>
<!-- plsfam -->
<g id="node22" class="node"><title>plsfam</title>
<polygon fill="#777777" stroke="#777777" points="331,-213 277,-213 277,-189 331,-189 331,-213"/>
<text text-anchor="middle" x="304" y="-198.6" font-family="Helvetica,sans-Serif" font-size="10.50" fill="white">plsfam</text>
</g>
<!-- proc~setup&#45;&gt;plsfam -->
<g id="edge7" class="edge"><title>proc~setup&#45;&gt;plsfam</title>
<path fill="none" stroke="black" d="M231.967,-251.853C244.994,-242.527 263.181,-229.507 277.891,-218.976"/>
<polygon fill="black" stroke="black" points="279.991,-221.777 286.085,-213.11 275.916,-216.085 279.991,-221.777"/>
</g>
<!-- plsetopt -->
<g id="node23" class="node"><title>plsetopt</title>
<polygon fill="#777777" stroke="#777777" points="331,-171 277,-171 277,-147 331,-147 331,-171"/>
<text text-anchor="middle" x="304" y="-156.6" font-family="Helvetica,sans-Serif" font-size="10.50" fill="white">plsetopt</text>
</g>
<!-- proc~setup&#45;&gt;plsetopt -->
<g id="edge8" class="edge"><title>proc~setup&#45;&gt;plsetopt</title>
<path fill="none" stroke="black" d="M231.79,-251.979C235.05,-249.234 238.292,-246.181 241,-243 261.905,-218.444 256.095,-204.556 277,-180 277.592,-179.304 278.21,-178.614 278.848,-177.933"/>
<polygon fill="black" stroke="black" points="281.315,-180.417 286.21,-171.021 276.524,-175.314 281.315,-180.417"/>
</g>
</g>
</svg>
