<?xml version="1.0" encoding="UTF-8" standalone="no"?>
<!DOCTYPE svg PUBLIC "-//W3C//DTD SVG 1.1//EN"
 "http://www.w3.org/Graphics/SVG/1.1/DTD/svg11.dtd">
<!-- Generated by graphviz version 2.38.0 (20140413.2041)
 -->
<!-- Title: proc~~ticks~~CalledByGraph Pages: 1 -->
<svg width="378pt" height="410pt"
 viewBox="0.00 0.00 378.00 410.00" xmlns="http://www.w3.org/2000/svg" xmlns:xlink="http://www.w3.org/1999/xlink">
<g id="graph0" class="graph" transform="scale(1 1) rotate(0) translate(4 406)">
<title>proc~~ticks~~CalledByGraph</title>
<polygon fill="white" stroke="none" points="-4,4 -4,-406 374,-406 374,4 -4,4"/>
<!-- proc~ticks -->
<g id="node1" class="node"><title>proc~ticks</title>
<polygon fill="none" stroke="black" points="370,-213 316,-213 316,-189 370,-189 370,-213"/>
<text text-anchor="middle" x="343" y="-198.6" font-family="Helvetica,sans-Serif" font-size="10.50">ticks</text>
</g>
<!-- proc~doerror -->
<g id="node2" class="node"><title>proc~doerror</title>
<g id="a_node2"><a xlink:href="../proc/doerror.html" xlink:title="doError">
<polygon fill="#d9534f" stroke="#d9534f" points="267.5,-402 213.5,-402 213.5,-378 267.5,-378 267.5,-402"/>
<text text-anchor="middle" x="240.5" y="-387.6" font-family="Helvetica,sans-Serif" font-size="10.50" fill="white">doError</text>
</a>
</g>
</g>
<!-- proc~doerror&#45;&gt;proc~ticks -->
<g id="edge10" class="edge"><title>proc~doerror&#45;&gt;proc~ticks</title>
<path fill="none" stroke="black" d="M267.818,-378.997C272.313,-376.236 276.615,-372.918 280,-369 317.412,-325.693 333.078,-257.803 338.927,-223.075"/>
<polygon fill="black" stroke="black" points="342.41,-223.459 340.497,-213.038 335.494,-222.378 342.41,-223.459"/>
</g>
<!-- proc~docontour -->
<g id="node3" class="node"><title>proc~docontour</title>
<g id="a_node3"><a xlink:href="../proc/docontour.html" xlink:title="doContour">
<polygon fill="#d9534f" stroke="#d9534f" points="272,-360 209,-360 209,-336 272,-336 272,-360"/>
<text text-anchor="middle" x="240.5" y="-345.6" font-family="Helvetica,sans-Serif" font-size="10.50" fill="white">doContour</text>
</a>
</g>
</g>
<!-- proc~docontour&#45;&gt;proc~ticks -->
<g id="edge11" class="edge"><title>proc~docontour&#45;&gt;proc~ticks</title>
<path fill="none" stroke="black" d="M268.691,-335.969C272.79,-333.396 276.733,-330.407 280,-327 309.046,-296.705 327.064,-250.178 335.751,-222.948"/>
<polygon fill="black" stroke="black" points="339.152,-223.794 338.721,-213.208 332.457,-221.752 339.152,-223.794"/>
</g>
<!-- program~basic_prg -->
<g id="node4" class="node"><title>program~basic_prg</title>
<g id="a_node4"><a xlink:href="../program/basic_prg.html" xlink:title="basic_prg">
<polygon fill="#f0ad4e" stroke="#f0ad4e" points="270,-66 211,-66 211,-42 270,-42 270,-66"/>
<text text-anchor="middle" x="240.5" y="-51.6" font-family="Helvetica,sans-Serif" font-size="10.50" fill="white">basic_prg</text>
</a>
</g>
</g>
<!-- program~basic_prg&#45;&gt;proc~ticks -->
<g id="edge12" class="edge"><title>program~basic_prg&#45;&gt;proc~ticks</title>
<path fill="none" stroke="black" d="M268.691,-66.031C272.79,-68.604 276.733,-71.5926 280,-75 309.046,-105.295 327.064,-151.822 335.751,-179.052"/>
<polygon fill="black" stroke="black" points="332.457,-180.248 338.721,-188.792 339.152,-178.206 332.457,-180.248"/>
</g>
<!-- proc~makelogo -->
<g id="node5" class="node"><title>proc~makelogo</title>
<g id="a_node5"><a xlink:href="../proc/makelogo.html" xlink:title="makeLogo">
<polygon fill="#d9534f" stroke="#d9534f" points="272,-24 209,-24 209,-0 272,-0 272,-24"/>
<text text-anchor="middle" x="240.5" y="-9.6" font-family="Helvetica,sans-Serif" font-size="10.50" fill="white">makeLogo</text>
</a>
</g>
</g>
<!-- proc~makelogo&#45;&gt;proc~ticks -->
<g id="edge13" class="edge"><title>proc~makelogo&#45;&gt;proc~ticks</title>
<path fill="none" stroke="black" d="M269.395,-24.0009C273.312,-26.553 277.014,-29.5431 280,-33 317.412,-76.307 333.078,-144.197 338.927,-178.925"/>
<polygon fill="black" stroke="black" points="335.494,-179.622 340.497,-188.962 342.41,-178.541 335.494,-179.622"/>
</g>
<!-- proc~dohist -->
<g id="node6" class="node"><title>proc~dohist</title>
<g id="a_node6"><a xlink:href="../proc/dohist.html" xlink:title="doHist">
<polygon fill="#d9534f" stroke="#d9534f" points="267.5,-318 213.5,-318 213.5,-294 267.5,-294 267.5,-318"/>
<text text-anchor="middle" x="240.5" y="-303.6" font-family="Helvetica,sans-Serif" font-size="10.50" fill="white">doHist</text>
</a>
</g>
</g>
<!-- proc~dohist&#45;&gt;proc~ticks -->
<g id="edge14" class="edge"><title>proc~dohist&#45;&gt;proc~ticks</title>
<path fill="none" stroke="black" d="M267.384,-293.925C271.819,-291.298 276.213,-288.303 280,-285 300.94,-266.74 319.031,-240.232 330.178,-221.899"/>
<polygon fill="black" stroke="black" points="333.278,-223.534 335.353,-213.145 327.252,-219.972 333.278,-223.534"/>
</g>
<!-- proc~dolegend -->
<g id="node7" class="node"><title>proc~dolegend</title>
<g id="a_node7"><a xlink:href="../proc/dolegend.html" xlink:title="doLegend">
<polygon fill="#d9534f" stroke="#d9534f" points="271,-276 210,-276 210,-252 271,-252 271,-276"/>
<text text-anchor="middle" x="240.5" y="-261.6" font-family="Helvetica,sans-Serif" font-size="10.50" fill="white">doLegend</text>
</a>
</g>
</g>
<!-- proc~dolegend&#45;&gt;proc~ticks -->
<g id="edge15" class="edge"><title>proc~dolegend&#45;&gt;proc~ticks</title>
<path fill="none" stroke="black" d="M264.507,-251.92C269.659,-249.086 275.059,-246.012 280,-243 292.351,-235.472 305.677,-226.554 316.798,-218.877"/>
<polygon fill="black" stroke="black" points="318.978,-221.624 325.183,-213.036 314.977,-215.88 318.978,-221.624"/>
</g>
<!-- proc~dofillbetween -->
<g id="node8" class="node"><title>proc~dofillbetween</title>
<g id="a_node8"><a xlink:href="../proc/dofillbetween.html" xlink:title="doFillBetween">
<polygon fill="#d9534f" stroke="#d9534f" points="280,-234 201,-234 201,-210 280,-210 280,-234"/>
<text text-anchor="middle" x="240.5" y="-219.6" font-family="Helvetica,sans-Serif" font-size="10.50" fill="white">doFillBetween</text>
</a>
</g>
</g>
<!-- proc~dofillbetween&#45;&gt;proc~ticks -->
<g id="edge16" class="edge"><title>proc~dofillbetween&#45;&gt;proc~ticks</title>
<path fill="none" stroke="black" d="M280.069,-213.941C288.569,-212.165 297.541,-210.29 305.938,-208.535"/>
<polygon fill="black" stroke="black" points="306.752,-211.941 315.824,-206.47 305.32,-205.089 306.752,-211.941"/>
</g>
<!-- proc~dobar -->
<g id="node9" class="node"><title>proc~dobar</title>
<g id="a_node9"><a xlink:href="../proc/dobar.html" xlink:title="doBar">
<polygon fill="#d9534f" stroke="#d9534f" points="267.5,-192 213.5,-192 213.5,-168 267.5,-168 267.5,-192"/>
<text text-anchor="middle" x="240.5" y="-177.6" font-family="Helvetica,sans-Serif" font-size="10.50" fill="white">doBar</text>
</a>
</g>
</g>
<!-- proc~dobar&#45;&gt;proc~ticks -->
<g id="edge17" class="edge"><title>proc~dobar&#45;&gt;proc~ticks</title>
<path fill="none" stroke="black" d="M267.643,-185.463C279.391,-187.918 293.443,-190.854 306.153,-193.51"/>
<polygon fill="black" stroke="black" points="305.484,-196.945 315.988,-195.565 306.915,-190.093 305.484,-196.945"/>
</g>
<!-- proc~doquiver -->
<g id="node10" class="node"><title>proc~doquiver</title>
<g id="a_node10"><a xlink:href="../proc/doquiver.html" xlink:title="doQuiver">
<polygon fill="#d9534f" stroke="#d9534f" points="268.5,-150 212.5,-150 212.5,-126 268.5,-126 268.5,-150"/>
<text text-anchor="middle" x="240.5" y="-135.6" font-family="Helvetica,sans-Serif" font-size="10.50" fill="white">doQuiver</text>
</a>
</g>
</g>
<!-- proc~doquiver&#45;&gt;proc~ticks -->
<g id="edge18" class="edge"><title>proc~doquiver&#45;&gt;proc~ticks</title>
<path fill="none" stroke="black" d="M264.507,-150.08C269.659,-152.914 275.059,-155.988 280,-159 292.351,-166.528 305.677,-175.446 316.798,-183.123"/>
<polygon fill="black" stroke="black" points="314.977,-186.12 325.183,-188.964 318.978,-180.376 314.977,-186.12"/>
</g>
<!-- proc~doscatter -->
<g id="node11" class="node"><title>proc~doscatter</title>
<g id="a_node11"><a xlink:href="../proc/doscatter.html" xlink:title="doScatter">
<polygon fill="#d9534f" stroke="#d9534f" points="269.5,-108 211.5,-108 211.5,-84 269.5,-84 269.5,-108"/>
<text text-anchor="middle" x="240.5" y="-93.6" font-family="Helvetica,sans-Serif" font-size="10.50" fill="white">doScatter</text>
</a>
</g>
</g>
<!-- proc~doscatter&#45;&gt;proc~ticks -->
<g id="edge19" class="edge"><title>proc~doscatter&#45;&gt;proc~ticks</title>
<path fill="none" stroke="black" d="M267.384,-108.075C271.819,-110.702 276.213,-113.697 280,-117 300.94,-135.26 319.031,-161.768 330.178,-180.101"/>
<polygon fill="black" stroke="black" points="327.252,-182.028 335.353,-188.855 333.278,-178.466 327.252,-182.028"/>
</g>
<!-- proc~doexamples -->
<g id="node12" class="node"><title>proc~doexamples</title>
<g id="a_node12"><a xlink:href="../proc/doexamples.html" xlink:title="doExamples">
<polygon fill="#d9534f" stroke="#d9534f" points="165,-255 94,-255 94,-231 165,-231 165,-255"/>
<text text-anchor="middle" x="129.5" y="-240.6" font-family="Helvetica,sans-Serif" font-size="10.50" fill="white">doExamples</text>
</a>
</g>
</g>
<!-- proc~doexamples&#45;&gt;proc~doerror -->
<g id="edge2" class="edge"><title>proc~doexamples&#45;&gt;proc~doerror</title>
<path fill="none" stroke="black" d="M134.682,-255.197C143.535,-279.51 166.251,-334.624 201,-369 202.228,-370.215 203.541,-371.379 204.913,-372.493"/>
<polygon fill="black" stroke="black" points="203.055,-375.464 213.261,-378.308 207.056,-369.72 203.055,-375.464"/>
</g>
<!-- proc~doexamples&#45;&gt;proc~docontour -->
<g id="edge3" class="edge"><title>proc~doexamples&#45;&gt;proc~docontour</title>
<path fill="none" stroke="black" d="M138.44,-255.075C150.4,-272.583 174.481,-305.293 201,-327 202.502,-328.23 204.087,-329.423 205.724,-330.574"/>
<polygon fill="black" stroke="black" points="203.873,-333.545 214.188,-335.964 207.632,-327.64 203.873,-333.545"/>
</g>
<!-- proc~doexamples&#45;&gt;proc~dohist -->
<g id="edge4" class="edge"><title>proc~doexamples&#45;&gt;proc~dohist</title>
<path fill="none" stroke="black" d="M150.438,-255.152C164.492,-263.65 183.798,-275.189 201,-285 203.338,-286.333 205.763,-287.698 208.209,-289.062"/>
<polygon fill="black" stroke="black" points="206.58,-292.16 217.026,-293.928 209.962,-286.032 206.58,-292.16"/>
</g>
<!-- proc~doexamples&#45;&gt;proc~dolegend -->
<g id="edge5" class="edge"><title>proc~doexamples&#45;&gt;proc~dolegend</title>
<path fill="none" stroke="black" d="M165.288,-249.702C176.259,-251.816 188.462,-254.167 199.752,-256.342"/>
<polygon fill="black" stroke="black" points="199.32,-259.823 209.802,-258.278 200.645,-252.95 199.32,-259.823"/>
</g>
<!-- proc~doexamples&#45;&gt;proc~dofillbetween -->
<g id="edge6" class="edge"><title>proc~doexamples&#45;&gt;proc~dofillbetween</title>
<path fill="none" stroke="black" d="M165.288,-236.298C173.438,-234.728 182.268,-233.026 190.898,-231.364"/>
<polygon fill="black" stroke="black" points="191.728,-234.768 200.885,-229.44 190.403,-227.895 191.728,-234.768"/>
</g>
<!-- proc~doexamples&#45;&gt;proc~dobar -->
<g id="edge7" class="edge"><title>proc~doexamples&#45;&gt;proc~dobar</title>
<path fill="none" stroke="black" d="M150.438,-230.848C164.492,-222.35 183.798,-210.811 201,-201 203.338,-199.667 205.763,-198.302 208.209,-196.938"/>
<polygon fill="black" stroke="black" points="209.962,-199.968 217.026,-192.072 206.58,-193.84 209.962,-199.968"/>
</g>
<!-- proc~doexamples&#45;&gt;proc~doquiver -->
<g id="edge8" class="edge"><title>proc~doexamples&#45;&gt;proc~doquiver</title>
<path fill="none" stroke="black" d="M138.44,-230.925C150.4,-213.417 174.481,-180.707 201,-159 202.502,-157.77 204.087,-156.577 205.724,-155.426"/>
<polygon fill="black" stroke="black" points="207.632,-158.36 214.188,-150.036 203.873,-152.455 207.632,-158.36"/>
</g>
<!-- proc~doexamples&#45;&gt;proc~doscatter -->
<g id="edge9" class="edge"><title>proc~doexamples&#45;&gt;proc~doscatter</title>
<path fill="none" stroke="black" d="M134.682,-230.803C143.535,-206.49 166.251,-151.376 201,-117 202.049,-115.963 203.159,-114.962 204.316,-113.998"/>
<polygon fill="black" stroke="black" points="206.358,-116.841 212.462,-108.182 202.29,-111.144 206.358,-116.841"/>
</g>
<!-- program~main_prg -->
<g id="node13" class="node"><title>program~main_prg</title>
<g id="a_node13"><a xlink:href="../program/main_prg.html" xlink:title="main_prg">
<polygon fill="#f0ad4e" stroke="#f0ad4e" points="58,-255 3.55271e-15,-255 3.55271e-15,-231 58,-231 58,-255"/>
<text text-anchor="middle" x="29" y="-240.6" font-family="Helvetica,sans-Serif" font-size="10.50" fill="white">main_prg</text>
</a>
</g>
</g>
<!-- program~main_prg&#45;&gt;proc~doexamples -->
<g id="edge1" class="edge"><title>program~main_prg&#45;&gt;proc~doexamples</title>
<path fill="none" stroke="black" d="M58.2261,-243C66.2347,-243 75.1563,-243 83.8823,-243"/>
<polygon fill="black" stroke="black" points="83.9695,-246.5 93.9695,-243 83.9695,-239.5 83.9695,-246.5"/>
</g>
</g>
</svg>
