<?xml version="1.0" encoding="UTF-8" standalone="no"?>
<!DOCTYPE svg PUBLIC "-//W3C//DTD SVG 1.1//EN"
 "http://www.w3.org/Graphics/SVG/1.1/DTD/svg11.dtd">
<!-- Generated by graphviz version 2.38.0 (20140413.2041)
 -->
<!-- Title: proc~~linspace~~CalledByGraph Pages: 1 -->
<svg width="576pt" height="487pt"
 viewBox="0.00 0.00 576.00 487.15" xmlns="http://www.w3.org/2000/svg" xmlns:xlink="http://www.w3.org/1999/xlink">
<g id="graph0" class="graph" transform="scale(1 1) rotate(0) translate(4 483.152)">
<title>proc~~linspace~~CalledByGraph</title>
<polygon fill="white" stroke="none" points="-4,4 -4,-483.152 572,-483.152 572,4 -4,4"/>
<!-- proc~linspace -->
<g id="node1" class="node"><title>proc~linspace</title>
<polygon fill="none" stroke="black" points="568,-262 514,-262 514,-238 568,-238 568,-262"/>
<text text-anchor="middle" x="541" y="-247.6" font-family="Helvetica,sans-Serif" font-size="10.50">linspace</text>
</g>
<!-- proc~dosurface -->
<g id="node2" class="node"><title>proc~dosurface</title>
<g id="a_node2"><a xlink:href="../proc/dosurface.html" xlink:title="doSurface">
<polygon fill="#d9534f" stroke="#d9534f" points="378,-458 317,-458 317,-434 378,-434 378,-458"/>
<text text-anchor="middle" x="347.5" y="-443.6" font-family="Helvetica,sans-Serif" font-size="10.50" fill="white">doSurface</text>
</a>
</g>
</g>
<!-- proc~dosurface&#45;&gt;proc~linspace -->
<g id="edge16" class="edge"><title>proc~dosurface&#45;&gt;proc~linspace</title>
<path fill="none" stroke="black" d="M369.633,-458.186C397.348,-472.376 446.179,-491.003 478,-467 509.48,-443.255 529.785,-322.705 537.027,-272.252"/>
<polygon fill="black" stroke="black" points="540.531,-272.468 538.446,-262.08 533.598,-271.501 540.531,-272.468"/>
</g>
<!-- proc~surface -->
<g id="node14" class="node"><title>proc~surface</title>
<g id="a_node14"><a xlink:href="../proc/surface.html" xlink:title="surface">
<polygon fill="#d9534f" stroke="#d9534f" points="473.5,-458 419.5,-458 419.5,-434 473.5,-434 473.5,-458"/>
<text text-anchor="middle" x="446.5" y="-443.6" font-family="Helvetica,sans-Serif" font-size="10.50" fill="white">surface</text>
</a>
</g>
</g>
<!-- proc~dosurface&#45;&gt;proc~surface -->
<g id="edge15" class="edge"><title>proc~dosurface&#45;&gt;proc~surface</title>
<path fill="none" stroke="black" d="M378.13,-446C387.889,-446 398.855,-446 409.061,-446"/>
<polygon fill="black" stroke="black" points="409.338,-449.5 419.338,-446 409.338,-442.5 409.338,-449.5"/>
</g>
<!-- proc~docontour -->
<g id="node3" class="node"><title>proc~docontour</title>
<g id="a_node3"><a xlink:href="../proc/docontour.html" xlink:title="doContour">
<polygon fill="#d9534f" stroke="#d9534f" points="379,-386 316,-386 316,-362 379,-362 379,-386"/>
<text text-anchor="middle" x="347.5" y="-371.6" font-family="Helvetica,sans-Serif" font-size="10.50" fill="white">doContour</text>
</a>
</g>
</g>
<!-- proc~docontour&#45;&gt;proc~linspace -->
<g id="edge17" class="edge"><title>proc~docontour&#45;&gt;proc~linspace</title>
<path fill="none" stroke="black" d="M375.875,-386.093C403.822,-396.431 447.335,-406.782 478,-387 517.445,-361.554 532.066,-304.271 537.275,-272.425"/>
<polygon fill="black" stroke="black" points="540.77,-272.715 538.75,-262.315 533.843,-271.705 540.77,-272.715"/>
</g>
<!-- proc~contourf -->
<g id="node12" class="node"><title>proc~contourf</title>
<g id="a_node12"><a xlink:href="../proc/contourf.html" xlink:title="contourf">
<polygon fill="#d9534f" stroke="#d9534f" points="473.5,-378 419.5,-378 419.5,-354 473.5,-354 473.5,-378"/>
<text text-anchor="middle" x="446.5" y="-363.6" font-family="Helvetica,sans-Serif" font-size="10.50" fill="white">contourf</text>
</a>
</g>
</g>
<!-- proc~docontour&#45;&gt;proc~contourf -->
<g id="edge13" class="edge"><title>proc~docontour&#45;&gt;proc~contourf</title>
<path fill="none" stroke="black" d="M379.191,-371.469C388.748,-370.681 399.377,-369.804 409.275,-368.988"/>
<polygon fill="black" stroke="black" points="409.572,-372.475 419.25,-368.165 408.997,-365.499 409.572,-372.475"/>
</g>
<!-- proc~dobar -->
<g id="node4" class="node"><title>proc~dobar</title>
<g id="a_node4"><a xlink:href="../proc/dobar.html" xlink:title="doBar">
<polygon fill="#d9534f" stroke="#d9534f" points="374.5,-344 320.5,-344 320.5,-320 374.5,-320 374.5,-344"/>
<text text-anchor="middle" x="347.5" y="-329.6" font-family="Helvetica,sans-Serif" font-size="10.50" fill="white">doBar</text>
</a>
</g>
</g>
<!-- proc~dobar&#45;&gt;proc~linspace -->
<g id="edge18" class="edge"><title>proc~dobar&#45;&gt;proc~linspace</title>
<path fill="none" stroke="black" d="M374.752,-323.534C401.24,-314.7 443.101,-299.933 478,-284 488.944,-279.004 500.595,-272.85 510.808,-267.157"/>
<polygon fill="black" stroke="black" points="512.747,-270.081 519.721,-262.106 509.295,-263.992 512.747,-270.081"/>
</g>
<!-- proc~bindata -->
<g id="node5" class="node"><title>proc~bindata</title>
<g id="a_node5"><a xlink:href="../proc/bindata.html" xlink:title="binData">
<polygon fill="#d94e8f" stroke="#d94e8f" points="473.5,-108 419.5,-108 419.5,-84 473.5,-84 473.5,-108"/>
<text text-anchor="middle" x="446.5" y="-93.6" font-family="Helvetica,sans-Serif" font-size="10.50" fill="white">binData</text>
</a>
</g>
</g>
<!-- proc~bindata&#45;&gt;proc~linspace -->
<g id="edge19" class="edge"><title>proc~bindata&#45;&gt;proc~linspace</title>
<path fill="none" stroke="black" d="M464.194,-108.104C469.045,-112.153 474.085,-116.935 478,-122 503.86,-155.46 522.868,-201.439 532.618,-228.211"/>
<polygon fill="black" stroke="black" points="529.37,-229.523 536.006,-237.783 535.969,-227.188 529.37,-229.523"/>
</g>
<!-- proc~makelogo -->
<g id="node6" class="node"><title>proc~makelogo</title>
<g id="a_node6"><a xlink:href="../proc/makelogo.html" xlink:title="makeLogo">
<polygon fill="#d9534f" stroke="#d9534f" points="478,-66 415,-66 415,-42 478,-42 478,-66"/>
<text text-anchor="middle" x="446.5" y="-51.6" font-family="Helvetica,sans-Serif" font-size="10.50" fill="white">makeLogo</text>
</a>
</g>
</g>
<!-- proc~makelogo&#45;&gt;proc~linspace -->
<g id="edge20" class="edge"><title>proc~makelogo&#45;&gt;proc~linspace</title>
<path fill="none" stroke="black" d="M469.01,-66.2089C472.338,-68.7898 475.496,-71.7349 478,-75 514.103,-122.084 530.342,-191.938 536.618,-227.472"/>
<polygon fill="black" stroke="black" points="533.23,-228.437 538.317,-237.731 540.136,-227.293 533.23,-228.437"/>
</g>
<!-- program~basic_prg -->
<g id="node7" class="node"><title>program~basic_prg</title>
<g id="a_node7"><a xlink:href="../program/basic_prg.html" xlink:title="basic_prg">
<polygon fill="#f0ad4e" stroke="#f0ad4e" points="476,-24 417,-24 417,-0 476,-0 476,-24"/>
<text text-anchor="middle" x="446.5" y="-9.6" font-family="Helvetica,sans-Serif" font-size="10.50" fill="white">basic_prg</text>
</a>
</g>
</g>
<!-- program~basic_prg&#45;&gt;proc~linspace -->
<g id="edge21" class="edge"><title>program~basic_prg&#45;&gt;proc~linspace</title>
<path fill="none" stroke="black" d="M469.183,-24.0802C472.492,-26.6754 475.599,-29.6586 478,-33 521.98,-94.208 534.872,-185.955 538.564,-227.786"/>
<polygon fill="black" stroke="black" points="535.092,-228.276 539.365,-237.971 542.07,-227.728 535.092,-228.276"/>
</g>
<!-- proc~dolegend -->
<g id="node8" class="node"><title>proc~dolegend</title>
<g id="a_node8"><a xlink:href="../proc/dolegend.html" xlink:title="doLegend">
<polygon fill="#d9534f" stroke="#d9534f" points="378,-302 317,-302 317,-278 378,-278 378,-302"/>
<text text-anchor="middle" x="347.5" y="-287.6" font-family="Helvetica,sans-Serif" font-size="10.50" fill="white">doLegend</text>
</a>
</g>
</g>
<!-- proc~dolegend&#45;&gt;proc~linspace -->
<g id="edge22" class="edge"><title>proc~dolegend&#45;&gt;proc~linspace</title>
<path fill="none" stroke="black" d="M378.116,-284.263C404.391,-279.124 443.799,-271.294 478,-264 486.363,-262.217 495.344,-260.23 503.803,-258.327"/>
<polygon fill="black" stroke="black" points="504.805,-261.688 513.785,-256.066 503.258,-254.861 504.805,-261.688"/>
</g>
<!-- proc~doerror -->
<g id="node9" class="node"><title>proc~doerror</title>
<g id="a_node9"><a xlink:href="../proc/doerror.html" xlink:title="doError">
<polygon fill="#d9534f" stroke="#d9534f" points="267.5,-267 213.5,-267 213.5,-243 267.5,-243 267.5,-267"/>
<text text-anchor="middle" x="240.5" y="-252.6" font-family="Helvetica,sans-Serif" font-size="10.50" fill="white">doError</text>
</a>
</g>
</g>
<!-- proc~doerror&#45;&gt;proc~linspace -->
<g id="edge23" class="edge"><title>proc~doerror&#45;&gt;proc~linspace</title>
<path fill="none" stroke="black" d="M267.728,-254.561C321.143,-253.666 442.632,-251.631 503.632,-250.609"/>
<polygon fill="black" stroke="black" points="503.998,-254.104 513.938,-250.437 503.88,-247.105 503.998,-254.104"/>
</g>
<!-- proc~dofillbetween -->
<g id="node10" class="node"><title>proc~dofillbetween</title>
<g id="a_node10"><a xlink:href="../proc/dofillbetween.html" xlink:title="doFillBetween">
<polygon fill="#d9534f" stroke="#d9534f" points="280,-225 201,-225 201,-201 280,-201 280,-225"/>
<text text-anchor="middle" x="240.5" y="-210.6" font-family="Helvetica,sans-Serif" font-size="10.50" fill="white">doFillBetween</text>
</a>
</g>
</g>
<!-- proc~dofillbetween&#45;&gt;proc~linspace -->
<g id="edge24" class="edge"><title>proc~dofillbetween&#45;&gt;proc~linspace</title>
<path fill="none" stroke="black" d="M280.218,-217.799C338.283,-224.997 447.129,-238.488 503.729,-245.504"/>
<polygon fill="black" stroke="black" points="503.31,-248.979 513.665,-246.736 504.172,-242.032 503.31,-248.979"/>
</g>
<!-- proc~doplot -->
<g id="node11" class="node"><title>proc~doplot</title>
<g id="a_node11"><a xlink:href="../proc/doplot.html" xlink:title="doPlot">
<polygon fill="#d9534f" stroke="#d9534f" points="267.5,-183 213.5,-183 213.5,-159 267.5,-159 267.5,-183"/>
<text text-anchor="middle" x="240.5" y="-168.6" font-family="Helvetica,sans-Serif" font-size="10.50" fill="white">doPlot</text>
</a>
</g>
</g>
<!-- proc~doplot&#45;&gt;proc~linspace -->
<g id="edge25" class="edge"><title>proc~doplot&#45;&gt;proc~linspace</title>
<path fill="none" stroke="black" d="M267.549,-176.891C311.277,-186.916 402.114,-208.321 478,-230 486.52,-232.434 495.632,-235.251 504.175,-237.989"/>
<polygon fill="black" stroke="black" points="503.282,-241.379 513.874,-241.139 505.444,-234.721 503.282,-241.379"/>
</g>
<!-- proc~contourf&#45;&gt;proc~linspace -->
<g id="edge26" class="edge"><title>proc~contourf&#45;&gt;proc~linspace</title>
<path fill="none" stroke="black" d="M463.42,-353.776C468.343,-349.652 473.619,-344.856 478,-340 497.68,-318.187 516.236,-289.836 527.827,-270.835"/>
<polygon fill="black" stroke="black" points="530.935,-272.458 533.077,-262.083 524.932,-268.858 530.935,-272.458"/>
</g>
<!-- proc~doquiver -->
<g id="node13" class="node"><title>proc~doquiver</title>
<g id="a_node13"><a xlink:href="../proc/doquiver.html" xlink:title="doQuiver">
<polygon fill="#d9534f" stroke="#d9534f" points="268.5,-141 212.5,-141 212.5,-117 268.5,-117 268.5,-141"/>
<text text-anchor="middle" x="240.5" y="-126.6" font-family="Helvetica,sans-Serif" font-size="10.50" fill="white">doQuiver</text>
</a>
</g>
</g>
<!-- proc~doquiver&#45;&gt;proc~linspace -->
<g id="edge27" class="edge"><title>proc~doquiver&#45;&gt;proc~linspace</title>
<path fill="none" stroke="black" d="M268.636,-135.722C313.554,-147.384 405.59,-173.554 478,-209 491.078,-215.402 504.672,-224.126 515.787,-231.881"/>
<polygon fill="black" stroke="black" points="513.941,-234.863 524.112,-237.829 518.011,-229.168 513.941,-234.863"/>
</g>
<!-- proc~surface&#45;&gt;proc~linspace -->
<g id="edge28" class="edge"><title>proc~surface&#45;&gt;proc~linspace</title>
<path fill="none" stroke="black" d="M464.834,-433.868C469.596,-429.883 474.426,-425.142 478,-420 510.838,-372.744 528.426,-306.077 535.775,-271.972"/>
<polygon fill="black" stroke="black" points="539.217,-272.609 537.808,-262.108 532.361,-271.196 539.217,-272.609"/>
</g>
<!-- proc~doexamples -->
<g id="node15" class="node"><title>proc~doexamples</title>
<g id="a_node15"><a xlink:href="../proc/doexamples.html" xlink:title="doExamples">
<polygon fill="#d9534f" stroke="#d9534f" points="165,-267 94,-267 94,-243 165,-243 165,-267"/>
<text text-anchor="middle" x="129.5" y="-252.6" font-family="Helvetica,sans-Serif" font-size="10.50" fill="white">doExamples</text>
</a>
</g>
</g>
<!-- proc~doexamples&#45;&gt;proc~dosurface -->
<g id="edge2" class="edge"><title>proc~doexamples&#45;&gt;proc~dosurface</title>
<path fill="none" stroke="black" d="M137.536,-267.303C149.036,-286.695 173.367,-324.846 201,-351 235.451,-383.606 282.471,-411.997 313.623,-429.05"/>
<polygon fill="black" stroke="black" points="312.287,-432.306 322.751,-433.97 315.609,-426.144 312.287,-432.306"/>
</g>
<!-- proc~doexamples&#45;&gt;proc~docontour -->
<g id="edge3" class="edge"><title>proc~doexamples&#45;&gt;proc~docontour</title>
<path fill="none" stroke="black" d="M140.855,-267.069C153.701,-281.396 176.874,-305.205 201,-320 234.018,-340.248 275.833,-354.783 306.154,-363.637"/>
<polygon fill="black" stroke="black" points="305.391,-367.059 315.967,-366.422 307.302,-360.325 305.391,-367.059"/>
</g>
<!-- proc~doexamples&#45;&gt;proc~dobar -->
<g id="edge4" class="edge"><title>proc~doexamples&#45;&gt;proc~dobar</title>
<path fill="none" stroke="black" d="M148.67,-267.11C162.521,-275.887 182.331,-287.488 201,-295 237.014,-309.491 280.372,-319.644 310.339,-325.602"/>
<polygon fill="black" stroke="black" points="309.863,-329.075 320.346,-327.535 311.191,-322.202 309.863,-329.075"/>
</g>
<!-- proc~doexamples&#45;&gt;proc~dolegend -->
<g id="edge9" class="edge"><title>proc~doexamples&#45;&gt;proc~dolegend</title>
<path fill="none" stroke="black" d="M165.31,-266.823C176.582,-270.259 189.217,-273.701 201,-276 236.382,-282.904 277.299,-286.457 306.713,-288.252"/>
<polygon fill="black" stroke="black" points="306.815,-291.763 316.998,-288.836 307.213,-284.774 306.815,-291.763"/>
</g>
<!-- proc~doexamples&#45;&gt;proc~doerror -->
<g id="edge10" class="edge"><title>proc~doexamples&#45;&gt;proc~doerror</title>
<path fill="none" stroke="black" d="M165.288,-255C177.335,-255 190.867,-255 203.045,-255"/>
<polygon fill="black" stroke="black" points="203.326,-258.5 213.326,-255 203.326,-251.5 203.326,-258.5"/>
</g>
<!-- proc~doexamples&#45;&gt;proc~dofillbetween -->
<g id="edge11" class="edge"><title>proc~doexamples&#45;&gt;proc~dofillbetween</title>
<path fill="none" stroke="black" d="M161.735,-242.964C173.251,-238.527 186.474,-233.432 198.71,-228.717"/>
<polygon fill="black" stroke="black" points="200.188,-231.899 208.26,-225.037 197.671,-225.367 200.188,-231.899"/>
</g>
<!-- proc~doexamples&#45;&gt;proc~doplot -->
<g id="edge12" class="edge"><title>proc~doexamples&#45;&gt;proc~doplot</title>
<path fill="none" stroke="black" d="M142.258,-242.939C155.701,-229.533 178.734,-207.706 201,-192 202.82,-190.716 204.726,-189.452 206.676,-188.219"/>
<polygon fill="black" stroke="black" points="208.558,-191.172 215.366,-183.054 204.981,-185.155 208.558,-191.172"/>
</g>
<!-- proc~doexamples&#45;&gt;proc~doquiver -->
<g id="edge14" class="edge"><title>proc~doexamples&#45;&gt;proc~doquiver</title>
<path fill="none" stroke="black" d="M136.159,-242.935C146.524,-221.869 170.338,-177.964 201,-150 202.125,-148.974 203.309,-147.98 204.537,-147.019"/>
<polygon fill="black" stroke="black" points="206.807,-149.707 213.091,-141.178 202.859,-143.927 206.807,-149.707"/>
</g>
<!-- proc~dohist -->
<g id="node18" class="node"><title>proc~dohist</title>
<g id="a_node18"><a xlink:href="../proc/dohist.html" xlink:title="doHist">
<polygon fill="#d9534f" stroke="#d9534f" points="267.5,-99 213.5,-99 213.5,-75 267.5,-75 267.5,-99"/>
<text text-anchor="middle" x="240.5" y="-84.6" font-family="Helvetica,sans-Serif" font-size="10.50" fill="white">doHist</text>
</a>
</g>
</g>
<!-- proc~doexamples&#45;&gt;proc~dohist -->
<g id="edge6" class="edge"><title>proc~doexamples&#45;&gt;proc~dohist</title>
<path fill="none" stroke="black" d="M133.55,-242.869C140.921,-215.685 162.029,-149.058 201,-108 202.225,-106.709 203.548,-105.479 204.939,-104.309"/>
<polygon fill="black" stroke="black" points="207.334,-106.902 213.473,-98.2666 203.289,-101.189 207.334,-106.902"/>
</g>
<!-- program~main_prg -->
<g id="node16" class="node"><title>program~main_prg</title>
<g id="a_node16"><a xlink:href="../program/main_prg.html" xlink:title="main_prg">
<polygon fill="#f0ad4e" stroke="#f0ad4e" points="58,-267 3.55271e-15,-267 3.55271e-15,-243 58,-243 58,-267"/>
<text text-anchor="middle" x="29" y="-252.6" font-family="Helvetica,sans-Serif" font-size="10.50" fill="white">main_prg</text>
</a>
</g>
</g>
<!-- program~main_prg&#45;&gt;proc~doexamples -->
<g id="edge1" class="edge"><title>program~main_prg&#45;&gt;proc~doexamples</title>
<path fill="none" stroke="black" d="M58.2261,-255C66.2347,-255 75.1563,-255 83.8823,-255"/>
<polygon fill="black" stroke="black" points="83.9695,-258.5 93.9695,-255 83.9695,-251.5 83.9695,-258.5"/>
</g>
<!-- proc~hist -->
<g id="node17" class="node"><title>proc~hist</title>
<g id="a_node17"><a xlink:href="../proc/hist.html" xlink:title="hist">
<polygon fill="#d9534f" stroke="#d9534f" points="374.5,-69 320.5,-69 320.5,-45 374.5,-45 374.5,-69"/>
<text text-anchor="middle" x="347.5" y="-54.6" font-family="Helvetica,sans-Serif" font-size="10.50" fill="white">hist</text>
</a>
</g>
</g>
<!-- proc~hist&#45;&gt;proc~bindata -->
<g id="edge7" class="edge"><title>proc~hist&#45;&gt;proc~bindata</title>
<path fill="none" stroke="black" d="M374.75,-67.554C385.533,-71.8894 398.189,-76.9782 409.794,-81.6438"/>
<polygon fill="black" stroke="black" points="408.646,-84.9545 419.229,-85.4376 411.257,-78.4598 408.646,-84.9545"/>
</g>
<!-- proc~dohist&#45;&gt;proc~bindata -->
<g id="edge8" class="edge"><title>proc~dohist&#45;&gt;proc~bindata</title>
<path fill="none" stroke="black" d="M267.752,-88.1582C303.786,-89.7479 368.714,-92.6124 409.33,-94.4043"/>
<polygon fill="black" stroke="black" points="409.204,-97.902 419.349,-94.8463 409.513,-90.9088 409.204,-97.902"/>
</g>
<!-- proc~dohist&#45;&gt;proc~hist -->
<g id="edge5" class="edge"><title>proc~dohist&#45;&gt;proc~hist</title>
<path fill="none" stroke="black" d="M267.725,-79.5071C280.629,-75.8203 296.387,-71.3181 310.408,-67.312"/>
<polygon fill="black" stroke="black" points="311.592,-70.6139 320.245,-64.5013 309.669,-63.8833 311.592,-70.6139"/>
</g>
</g>
</svg>
