<?xml version="1.0" encoding="UTF-8" standalone="no"?>
<!DOCTYPE svg PUBLIC "-//W3C//DTD SVG 1.1//EN"
 "http://www.w3.org/Graphics/SVG/1.1/DTD/svg11.dtd">
<!-- Generated by graphviz version 2.38.0 (20140413.2041)
 -->
<!-- Title: proc~~quiver~~CalledByGraph Pages: 1 -->
<svg width="355pt" height="32pt"
 viewBox="0.00 0.00 355.00 32.00" xmlns="http://www.w3.org/2000/svg" xmlns:xlink="http://www.w3.org/1999/xlink">
<g id="graph0" class="graph" transform="scale(1 1) rotate(0) translate(4 28)">
<title>proc~~quiver~~CalledByGraph</title>
<polygon fill="white" stroke="none" points="-4,4 -4,-28 351,-28 351,4 -4,4"/>
<!-- proc~quiver -->
<g id="node1" class="node"><title>proc~quiver</title>
<polygon fill="none" stroke="black" points="347,-24 293,-24 293,-0 347,-0 347,-24"/>
<text text-anchor="middle" x="320" y="-9.6" font-family="Helvetica,sans-Serif" font-size="10.50">quiver</text>
</g>
<!-- proc~doquiver -->
<g id="node2" class="node"><title>proc~doquiver</title>
<g id="a_node2"><a xlink:href="../proc/doquiver.html" xlink:title="doQuiver">
<polygon fill="#d9534f" stroke="#d9534f" points="257,-24 201,-24 201,-0 257,-0 257,-24"/>
<text text-anchor="middle" x="229" y="-9.6" font-family="Helvetica,sans-Serif" font-size="10.50" fill="white">doQuiver</text>
</a>
</g>
</g>
<!-- proc~doquiver&#45;&gt;proc~quiver -->
<g id="edge3" class="edge"><title>proc~doquiver&#45;&gt;proc~quiver</title>
<path fill="none" stroke="black" d="M257.187,-12C265.255,-12 274.222,-12 282.768,-12"/>
<polygon fill="black" stroke="black" points="282.895,-15.5001 292.895,-12 282.895,-8.5001 282.895,-15.5001"/>
</g>
<!-- proc~doexamples -->
<g id="node3" class="node"><title>proc~doexamples</title>
<g id="a_node3"><a xlink:href="../proc/doexamples.html" xlink:title="doExamples">
<polygon fill="#d9534f" stroke="#d9534f" points="165,-24 94,-24 94,-0 165,-0 165,-24"/>
<text text-anchor="middle" x="129.5" y="-9.6" font-family="Helvetica,sans-Serif" font-size="10.50" fill="white">doExamples</text>
</a>
</g>
</g>
<!-- proc~doexamples&#45;&gt;proc~doquiver -->
<g id="edge2" class="edge"><title>proc~doexamples&#45;&gt;proc~doquiver</title>
<path fill="none" stroke="black" d="M165.149,-12C173.385,-12 182.209,-12 190.563,-12"/>
<polygon fill="black" stroke="black" points="190.815,-15.5001 200.814,-12 190.814,-8.5001 190.815,-15.5001"/>
</g>
<!-- program~main_prg -->
<g id="node4" class="node"><title>program~main_prg</title>
<g id="a_node4"><a xlink:href="../program/main_prg.html" xlink:title="main_prg">
<polygon fill="#f0ad4e" stroke="#f0ad4e" points="58,-24 3.55271e-15,-24 3.55271e-15,-0 58,-0 58,-24"/>
<text text-anchor="middle" x="29" y="-9.6" font-family="Helvetica,sans-Serif" font-size="10.50" fill="white">main_prg</text>
</a>
</g>
</g>
<!-- program~main_prg&#45;&gt;proc~doexamples -->
<g id="edge1" class="edge"><title>program~main_prg&#45;&gt;proc~doexamples</title>
<path fill="none" stroke="black" d="M58.2261,-12C66.2347,-12 75.1563,-12 83.8823,-12"/>
<polygon fill="black" stroke="black" points="83.9695,-15.5001 93.9695,-12 83.9695,-8.5001 83.9695,-15.5001"/>
</g>
</g>
</svg>
