<?xml version="1.0" encoding="UTF-8" standalone="no"?>
<!DOCTYPE svg PUBLIC "-//W3C//DTD SVG 1.1//EN"
 "http://www.w3.org/Graphics/SVG/1.1/DTD/svg11.dtd">
<!-- Generated by graphviz version 2.38.0 (20140413.2041)
 -->
<!-- Title: proc~~subplot~~CalledByGraph Pages: 1 -->
<svg width="378pt" height="494pt"
 viewBox="0.00 0.00 378.00 494.00" xmlns="http://www.w3.org/2000/svg" xmlns:xlink="http://www.w3.org/1999/xlink">
<g id="graph0" class="graph" transform="scale(1 1) rotate(0) translate(4 490)">
<title>proc~~subplot~~CalledByGraph</title>
<polygon fill="white" stroke="none" points="-4,4 -4,-490 374,-490 374,4 -4,4"/>
<!-- proc~subplot -->
<g id="node1" class="node"><title>proc~subplot</title>
<polygon fill="none" stroke="black" points="370,-255 316,-255 316,-231 370,-231 370,-255"/>
<text text-anchor="middle" x="343" y="-240.6" font-family="Helvetica,sans-Serif" font-size="10.50">subplot</text>
</g>
<!-- proc~dosurface -->
<g id="node2" class="node"><title>proc~dosurface</title>
<g id="a_node2"><a xlink:href="../proc/dosurface.html" xlink:title="doSurface">
<polygon fill="#d9534f" stroke="#d9534f" points="271,-486 210,-486 210,-462 271,-462 271,-486"/>
<text text-anchor="middle" x="240.5" y="-471.6" font-family="Helvetica,sans-Serif" font-size="10.50" fill="white">doSurface</text>
</a>
</g>
</g>
<!-- proc~dosurface&#45;&gt;proc~subplot -->
<g id="edge12" class="edge"><title>proc~dosurface&#45;&gt;proc~subplot</title>
<path fill="none" stroke="black" d="M269.988,-461.911C273.732,-459.393 277.226,-456.436 280,-453 325.72,-396.377 337.732,-306.998 340.883,-265.523"/>
<polygon fill="black" stroke="black" points="344.386,-265.592 341.545,-255.385 337.4,-265.136 344.386,-265.592"/>
</g>
<!-- proc~dobar -->
<g id="node3" class="node"><title>proc~dobar</title>
<g id="a_node3"><a xlink:href="../proc/dobar.html" xlink:title="doBar">
<polygon fill="#d9534f" stroke="#d9534f" points="267.5,-444 213.5,-444 213.5,-420 267.5,-420 267.5,-444"/>
<text text-anchor="middle" x="240.5" y="-429.6" font-family="Helvetica,sans-Serif" font-size="10.50" fill="white">doBar</text>
</a>
</g>
</g>
<!-- proc~dobar&#45;&gt;proc~subplot -->
<g id="edge13" class="edge"><title>proc~dobar&#45;&gt;proc~subplot</title>
<path fill="none" stroke="black" d="M267.818,-420.997C272.313,-418.236 276.615,-414.918 280,-411 317.412,-367.693 333.078,-299.803 338.927,-265.075"/>
<polygon fill="black" stroke="black" points="342.41,-265.459 340.497,-255.038 335.494,-264.378 342.41,-265.459"/>
</g>
<!-- proc~makelogo -->
<g id="node4" class="node"><title>proc~makelogo</title>
<g id="a_node4"><a xlink:href="../proc/makelogo.html" xlink:title="makeLogo">
<polygon fill="#d9534f" stroke="#d9534f" points="272,-66 209,-66 209,-42 272,-42 272,-66"/>
<text text-anchor="middle" x="240.5" y="-51.6" font-family="Helvetica,sans-Serif" font-size="10.50" fill="white">makeLogo</text>
</a>
</g>
</g>
<!-- proc~makelogo&#45;&gt;proc~subplot -->
<g id="edge14" class="edge"><title>proc~makelogo&#45;&gt;proc~subplot</title>
<path fill="none" stroke="black" d="M269.395,-66.0009C273.312,-68.553 277.014,-71.5431 280,-75 317.412,-118.307 333.078,-186.197 338.927,-220.925"/>
<polygon fill="black" stroke="black" points="335.494,-221.622 340.497,-230.962 342.41,-220.541 335.494,-221.622"/>
</g>
<!-- program~basic_prg -->
<g id="node5" class="node"><title>program~basic_prg</title>
<g id="a_node5"><a xlink:href="../program/basic_prg.html" xlink:title="basic_prg">
<polygon fill="#f0ad4e" stroke="#f0ad4e" points="270,-24 211,-24 211,-0 270,-0 270,-24"/>
<text text-anchor="middle" x="240.5" y="-9.6" font-family="Helvetica,sans-Serif" font-size="10.50" fill="white">basic_prg</text>
</a>
</g>
</g>
<!-- program~basic_prg&#45;&gt;proc~subplot -->
<g id="edge15" class="edge"><title>program~basic_prg&#45;&gt;proc~subplot</title>
<path fill="none" stroke="black" d="M269.988,-24.0888C273.732,-26.6074 277.226,-29.5642 280,-33 325.72,-89.6229 337.732,-179.002 340.883,-220.477"/>
<polygon fill="black" stroke="black" points="337.4,-220.864 341.545,-230.615 344.386,-220.408 337.4,-220.864"/>
</g>
<!-- proc~dohist -->
<g id="node6" class="node"><title>proc~dohist</title>
<g id="a_node6"><a xlink:href="../proc/dohist.html" xlink:title="doHist">
<polygon fill="#d9534f" stroke="#d9534f" points="267.5,-402 213.5,-402 213.5,-378 267.5,-378 267.5,-402"/>
<text text-anchor="middle" x="240.5" y="-387.6" font-family="Helvetica,sans-Serif" font-size="10.50" fill="white">doHist</text>
</a>
</g>
</g>
<!-- proc~dohist&#45;&gt;proc~subplot -->
<g id="edge16" class="edge"><title>proc~dohist&#45;&gt;proc~subplot</title>
<path fill="none" stroke="black" d="M267.895,-378.462C272.279,-375.78 276.522,-372.627 280,-369 309.046,-338.705 327.064,-292.178 335.751,-264.948"/>
<polygon fill="black" stroke="black" points="339.152,-265.794 338.721,-255.208 332.457,-263.752 339.152,-265.794"/>
</g>
<!-- proc~dolegend -->
<g id="node7" class="node"><title>proc~dolegend</title>
<g id="a_node7"><a xlink:href="../proc/dolegend.html" xlink:title="doLegend">
<polygon fill="#d9534f" stroke="#d9534f" points="271,-360 210,-360 210,-336 271,-336 271,-360"/>
<text text-anchor="middle" x="240.5" y="-345.6" font-family="Helvetica,sans-Serif" font-size="10.50" fill="white">doLegend</text>
</a>
</g>
</g>
<!-- proc~dolegend&#45;&gt;proc~subplot -->
<g id="edge17" class="edge"><title>proc~dolegend&#45;&gt;proc~subplot</title>
<path fill="none" stroke="black" d="M267.384,-335.925C271.819,-333.298 276.213,-330.303 280,-327 300.94,-308.74 319.031,-282.232 330.178,-263.899"/>
<polygon fill="black" stroke="black" points="333.278,-265.534 335.353,-255.145 327.252,-261.972 333.278,-265.534"/>
</g>
<!-- proc~dofillbetween -->
<g id="node8" class="node"><title>proc~dofillbetween</title>
<g id="a_node8"><a xlink:href="../proc/dofillbetween.html" xlink:title="doFillBetween">
<polygon fill="#d9534f" stroke="#d9534f" points="280,-318 201,-318 201,-294 280,-294 280,-318"/>
<text text-anchor="middle" x="240.5" y="-303.6" font-family="Helvetica,sans-Serif" font-size="10.50" fill="white">doFillBetween</text>
</a>
</g>
</g>
<!-- proc~dofillbetween&#45;&gt;proc~subplot -->
<g id="edge18" class="edge"><title>proc~dofillbetween&#45;&gt;proc~subplot</title>
<path fill="none" stroke="black" d="M264.507,-293.92C269.659,-291.086 275.059,-288.012 280,-285 292.351,-277.472 305.677,-268.554 316.798,-260.877"/>
<polygon fill="black" stroke="black" points="318.978,-263.624 325.183,-255.036 314.977,-257.88 318.978,-263.624"/>
</g>
<!-- proc~doplot -->
<g id="node9" class="node"><title>proc~doplot</title>
<g id="a_node9"><a xlink:href="../proc/doplot.html" xlink:title="doPlot">
<polygon fill="#d9534f" stroke="#d9534f" points="267.5,-276 213.5,-276 213.5,-252 267.5,-252 267.5,-276"/>
<text text-anchor="middle" x="240.5" y="-261.6" font-family="Helvetica,sans-Serif" font-size="10.50" fill="white">doPlot</text>
</a>
</g>
</g>
<!-- proc~doplot&#45;&gt;proc~subplot -->
<g id="edge19" class="edge"><title>proc~doplot&#45;&gt;proc~subplot</title>
<path fill="none" stroke="black" d="M267.643,-258.537C279.391,-256.082 293.443,-253.146 306.153,-250.49"/>
<polygon fill="black" stroke="black" points="306.915,-253.907 315.988,-248.435 305.484,-247.055 306.915,-253.907"/>
</g>
<!-- proc~docontour -->
<g id="node10" class="node"><title>proc~docontour</title>
<g id="a_node10"><a xlink:href="../proc/docontour.html" xlink:title="doContour">
<polygon fill="#d9534f" stroke="#d9534f" points="272,-234 209,-234 209,-210 272,-210 272,-234"/>
<text text-anchor="middle" x="240.5" y="-219.6" font-family="Helvetica,sans-Serif" font-size="10.50" fill="white">doContour</text>
</a>
</g>
</g>
<!-- proc~docontour&#45;&gt;proc~subplot -->
<g id="edge20" class="edge"><title>proc~docontour&#45;&gt;proc~subplot</title>
<path fill="none" stroke="black" d="M272.199,-228.415C282.895,-230.65 294.99,-233.177 306.071,-235.493"/>
<polygon fill="black" stroke="black" points="305.389,-238.926 315.894,-237.545 306.821,-232.074 305.389,-238.926"/>
</g>
<!-- proc~doquiver -->
<g id="node11" class="node"><title>proc~doquiver</title>
<g id="a_node11"><a xlink:href="../proc/doquiver.html" xlink:title="doQuiver">
<polygon fill="#d9534f" stroke="#d9534f" points="268.5,-192 212.5,-192 212.5,-168 268.5,-168 268.5,-192"/>
<text text-anchor="middle" x="240.5" y="-177.6" font-family="Helvetica,sans-Serif" font-size="10.50" fill="white">doQuiver</text>
</a>
</g>
</g>
<!-- proc~doquiver&#45;&gt;proc~subplot -->
<g id="edge21" class="edge"><title>proc~doquiver&#45;&gt;proc~subplot</title>
<path fill="none" stroke="black" d="M264.507,-192.08C269.659,-194.914 275.059,-197.988 280,-201 292.351,-208.528 305.677,-217.446 316.798,-225.123"/>
<polygon fill="black" stroke="black" points="314.977,-228.12 325.183,-230.964 318.978,-222.376 314.977,-228.12"/>
</g>
<!-- proc~doscatter -->
<g id="node12" class="node"><title>proc~doscatter</title>
<g id="a_node12"><a xlink:href="../proc/doscatter.html" xlink:title="doScatter">
<polygon fill="#d9534f" stroke="#d9534f" points="269.5,-150 211.5,-150 211.5,-126 269.5,-126 269.5,-150"/>
<text text-anchor="middle" x="240.5" y="-135.6" font-family="Helvetica,sans-Serif" font-size="10.50" fill="white">doScatter</text>
</a>
</g>
</g>
<!-- proc~doscatter&#45;&gt;proc~subplot -->
<g id="edge22" class="edge"><title>proc~doscatter&#45;&gt;proc~subplot</title>
<path fill="none" stroke="black" d="M267.384,-150.075C271.819,-152.702 276.213,-155.697 280,-159 300.94,-177.26 319.031,-203.768 330.178,-222.101"/>
<polygon fill="black" stroke="black" points="327.252,-224.028 335.353,-230.855 333.278,-220.466 327.252,-224.028"/>
</g>
<!-- proc~doerror -->
<g id="node13" class="node"><title>proc~doerror</title>
<g id="a_node13"><a xlink:href="../proc/doerror.html" xlink:title="doError">
<polygon fill="#d9534f" stroke="#d9534f" points="267.5,-108 213.5,-108 213.5,-84 267.5,-84 267.5,-108"/>
<text text-anchor="middle" x="240.5" y="-93.6" font-family="Helvetica,sans-Serif" font-size="10.50" fill="white">doError</text>
</a>
</g>
</g>
<!-- proc~doerror&#45;&gt;proc~subplot -->
<g id="edge23" class="edge"><title>proc~doerror&#45;&gt;proc~subplot</title>
<path fill="none" stroke="black" d="M267.895,-107.538C272.279,-110.22 276.522,-113.373 280,-117 309.046,-147.295 327.064,-193.822 335.751,-221.052"/>
<polygon fill="black" stroke="black" points="332.457,-222.248 338.721,-230.792 339.152,-220.206 332.457,-222.248"/>
</g>
<!-- proc~doexamples -->
<g id="node14" class="node"><title>proc~doexamples</title>
<g id="a_node14"><a xlink:href="../proc/doexamples.html" xlink:title="doExamples">
<polygon fill="#d9534f" stroke="#d9534f" points="165,-297 94,-297 94,-273 165,-273 165,-297"/>
<text text-anchor="middle" x="129.5" y="-282.6" font-family="Helvetica,sans-Serif" font-size="10.50" fill="white">doExamples</text>
</a>
</g>
</g>
<!-- proc~doexamples&#45;&gt;proc~dosurface -->
<g id="edge2" class="edge"><title>proc~doexamples&#45;&gt;proc~dosurface</title>
<path fill="none" stroke="black" d="M132.692,-297.051C138.665,-326.861 157.759,-405.106 201,-453 201.861,-453.954 202.776,-454.873 203.733,-455.758"/>
<polygon fill="black" stroke="black" points="201.668,-458.585 211.737,-461.883 205.922,-453.026 201.668,-458.585"/>
</g>
<!-- proc~doexamples&#45;&gt;proc~dobar -->
<g id="edge3" class="edge"><title>proc~doexamples&#45;&gt;proc~dobar</title>
<path fill="none" stroke="black" d="M134.682,-297.197C143.535,-321.51 166.251,-376.624 201,-411 202.228,-412.215 203.541,-413.379 204.913,-414.493"/>
<polygon fill="black" stroke="black" points="203.055,-417.464 213.261,-420.308 207.056,-411.72 203.055,-417.464"/>
</g>
<!-- proc~doexamples&#45;&gt;proc~dohist -->
<g id="edge4" class="edge"><title>proc~doexamples&#45;&gt;proc~dohist</title>
<path fill="none" stroke="black" d="M138.44,-297.075C150.4,-314.583 174.481,-347.293 201,-369 202.502,-370.23 204.087,-371.423 205.724,-372.574"/>
<polygon fill="black" stroke="black" points="203.873,-375.545 214.188,-377.964 207.632,-369.64 203.873,-375.545"/>
</g>
<!-- proc~doexamples&#45;&gt;proc~dolegend -->
<g id="edge5" class="edge"><title>proc~doexamples&#45;&gt;proc~dolegend</title>
<path fill="none" stroke="black" d="M150.438,-297.152C164.492,-305.65 183.798,-317.189 201,-327 203.338,-328.333 205.763,-329.698 208.209,-331.062"/>
<polygon fill="black" stroke="black" points="206.58,-334.16 217.026,-335.928 209.962,-328.032 206.58,-334.16"/>
</g>
<!-- proc~doexamples&#45;&gt;proc~dofillbetween -->
<g id="edge6" class="edge"><title>proc~doexamples&#45;&gt;proc~dofillbetween</title>
<path fill="none" stroke="black" d="M165.288,-291.702C173.438,-293.272 182.268,-294.974 190.898,-296.636"/>
<polygon fill="black" stroke="black" points="190.403,-300.105 200.885,-298.56 191.728,-293.232 190.403,-300.105"/>
</g>
<!-- proc~doexamples&#45;&gt;proc~doplot -->
<g id="edge7" class="edge"><title>proc~doexamples&#45;&gt;proc~doplot</title>
<path fill="none" stroke="black" d="M165.288,-278.298C177.457,-275.953 191.141,-273.317 203.413,-270.953"/>
<polygon fill="black" stroke="black" points="204.168,-274.371 213.326,-269.043 202.844,-267.498 204.168,-274.371"/>
</g>
<!-- proc~doexamples&#45;&gt;proc~docontour -->
<g id="edge8" class="edge"><title>proc~doexamples&#45;&gt;proc~docontour</title>
<path fill="none" stroke="black" d="M150.438,-272.848C164.492,-264.35 183.798,-252.811 201,-243 203.338,-241.667 205.763,-240.302 208.209,-238.938"/>
<polygon fill="black" stroke="black" points="209.962,-241.968 217.026,-234.072 206.58,-235.84 209.962,-241.968"/>
</g>
<!-- proc~doexamples&#45;&gt;proc~doquiver -->
<g id="edge9" class="edge"><title>proc~doexamples&#45;&gt;proc~doquiver</title>
<path fill="none" stroke="black" d="M138.44,-272.925C150.4,-255.417 174.481,-222.707 201,-201 202.502,-199.77 204.087,-198.577 205.724,-197.426"/>
<polygon fill="black" stroke="black" points="207.632,-200.36 214.188,-192.036 203.873,-194.455 207.632,-200.36"/>
</g>
<!-- proc~doexamples&#45;&gt;proc~doscatter -->
<g id="edge10" class="edge"><title>proc~doexamples&#45;&gt;proc~doscatter</title>
<path fill="none" stroke="black" d="M134.682,-272.803C143.535,-248.49 166.251,-193.376 201,-159 202.049,-157.963 203.159,-156.962 204.316,-155.998"/>
<polygon fill="black" stroke="black" points="206.358,-158.841 212.462,-150.182 202.29,-153.144 206.358,-158.841"/>
</g>
<!-- proc~doexamples&#45;&gt;proc~doerror -->
<g id="edge11" class="edge"><title>proc~doexamples&#45;&gt;proc~doerror</title>
<path fill="none" stroke="black" d="M132.692,-272.949C138.665,-243.139 157.759,-164.894 201,-117 202.193,-115.679 203.488,-114.424 204.859,-113.234"/>
<polygon fill="black" stroke="black" points="207.261,-115.817 213.32,-107.125 203.163,-110.142 207.261,-115.817"/>
</g>
<!-- program~main_prg -->
<g id="node15" class="node"><title>program~main_prg</title>
<g id="a_node15"><a xlink:href="../program/main_prg.html" xlink:title="main_prg">
<polygon fill="#f0ad4e" stroke="#f0ad4e" points="58,-297 3.55271e-15,-297 3.55271e-15,-273 58,-273 58,-297"/>
<text text-anchor="middle" x="29" y="-282.6" font-family="Helvetica,sans-Serif" font-size="10.50" fill="white">main_prg</text>
</a>
</g>
</g>
<!-- program~main_prg&#45;&gt;proc~doexamples -->
<g id="edge1" class="edge"><title>program~main_prg&#45;&gt;proc~doexamples</title>
<path fill="none" stroke="black" d="M58.2261,-285C66.2347,-285 75.1563,-285 83.8823,-285"/>
<polygon fill="black" stroke="black" points="83.9695,-288.5 93.9695,-285 83.9695,-281.5 83.9695,-288.5"/>
</g>
</g>
</svg>
