<?xml version="1.0" encoding="UTF-8" standalone="no"?>
<!DOCTYPE svg PUBLIC "-//W3C//DTD SVG 1.1//EN"
 "http://www.w3.org/Graphics/SVG/1.1/DTD/svg11.dtd">
<!-- Generated by graphviz version 2.38.0 (20140413.2041)
 -->
<!-- Title: proc~~figure~~CallsGraph Pages: 1 -->
<svg width="242pt" height="263pt"
 viewBox="0.00 0.00 242.00 263.00" xmlns="http://www.w3.org/2000/svg" xmlns:xlink="http://www.w3.org/1999/xlink">
<g id="graph0" class="graph" transform="scale(1 1) rotate(0) translate(4 259)">
<title>proc~~figure~~CallsGraph</title>
<polygon fill="white" stroke="none" points="-4,4 -4,-259 238,-259 238,4 -4,4"/>
<!-- proc~figure -->
<g id="node1" class="node"><title>proc~figure</title>
<polygon fill="none" stroke="black" points="54,-171 0,-171 0,-147 54,-147 54,-171"/>
<text text-anchor="middle" x="27" y="-156.6" font-family="Helvetica,sans-Serif" font-size="10.50">figure</text>
</g>
<!-- pladv -->
<g id="node2" class="node"><title>pladv</title>
<polygon fill="#777777" stroke="#777777" points="144,-255 90,-255 90,-231 144,-231 144,-255"/>
<text text-anchor="middle" x="117" y="-240.6" font-family="Helvetica,sans-Serif" font-size="10.50" fill="white">pladv</text>
</g>
<!-- proc~figure&#45;&gt;pladv -->
<g id="edge7" class="edge"><title>proc~figure&#45;&gt;pladv</title>
<path fill="none" stroke="black" d="M39.0423,-171.012C51.1535,-183.996 71.3541,-205.097 90,-222 90.8168,-222.74 91.6556,-223.487 92.5085,-224.234"/>
<polygon fill="black" stroke="black" points="90.4563,-227.081 100.36,-230.846 94.9658,-221.727 90.4563,-227.081"/>
</g>
<!-- pleop -->
<g id="node3" class="node"><title>pleop</title>
<polygon fill="#777777" stroke="#777777" points="144,-213 90,-213 90,-189 144,-189 144,-213"/>
<text text-anchor="middle" x="117" y="-198.6" font-family="Helvetica,sans-Serif" font-size="10.50" fill="white">pleop</text>
</g>
<!-- proc~figure&#45;&gt;pleop -->
<g id="edge8" class="edge"><title>proc~figure&#45;&gt;pleop</title>
<path fill="none" stroke="black" d="M53.4532,-171.148C62.2096,-175.327 72.1654,-180.079 81.5185,-184.543"/>
<polygon fill="black" stroke="black" points="80.0716,-187.73 90.604,-188.879 83.0867,-181.413 80.0716,-187.73"/>
</g>
<!-- plssub -->
<g id="node4" class="node"><title>plssub</title>
<polygon fill="#777777" stroke="#777777" points="144,-171 90,-171 90,-147 144,-147 144,-171"/>
<text text-anchor="middle" x="117" y="-156.6" font-family="Helvetica,sans-Serif" font-size="10.50" fill="white">plssub</text>
</g>
<!-- proc~figure&#45;&gt;plssub -->
<g id="edge9" class="edge"><title>proc~figure&#45;&gt;plssub</title>
<path fill="none" stroke="black" d="M54.4029,-159C62.3932,-159 71.3106,-159 79.8241,-159"/>
<polygon fill="black" stroke="black" points="79.919,-162.5 89.919,-159 79.919,-155.5 79.919,-162.5"/>
</g>
<!-- proc~setup -->
<g id="node5" class="node"><title>proc~setup</title>
<g id="a_node5"><a xlink:href="../proc/setup.html" xlink:title="setup">
<polygon fill="#d9534f" stroke="#d9534f" points="144,-129 90,-129 90,-105 144,-105 144,-129"/>
<text text-anchor="middle" x="117" y="-114.6" font-family="Helvetica,sans-Serif" font-size="10.50" fill="white">setup</text>
</a>
</g>
</g>
<!-- proc~figure&#45;&gt;proc~setup -->
<g id="edge10" class="edge"><title>proc~figure&#45;&gt;proc~setup</title>
<path fill="none" stroke="black" d="M53.4532,-146.852C62.2096,-142.673 72.1654,-137.921 81.5185,-133.457"/>
<polygon fill="black" stroke="black" points="83.0867,-136.587 90.604,-129.121 80.0716,-130.27 83.0867,-136.587"/>
</g>
<!-- plbop -->
<g id="node6" class="node"><title>plbop</title>
<polygon fill="#777777" stroke="#777777" points="144,-87 90,-87 90,-63 144,-63 144,-87"/>
<text text-anchor="middle" x="117" y="-72.6" font-family="Helvetica,sans-Serif" font-size="10.50" fill="white">plbop</text>
</g>
<!-- proc~figure&#45;&gt;plbop -->
<g id="edge11" class="edge"><title>proc~figure&#45;&gt;plbop</title>
<path fill="none" stroke="black" d="M39.0423,-146.988C51.1535,-134.004 71.3541,-112.903 90,-96 90.8168,-95.2596 91.6556,-94.5134 92.5085,-93.7663"/>
<polygon fill="black" stroke="black" points="94.9658,-96.2728 100.36,-87.1537 90.4563,-90.9188 94.9658,-96.2728"/>
</g>
<!-- figsize -->
<g id="node7" class="node"><title>figsize</title>
<polygon fill="#777777" stroke="#777777" points="234,-234 180,-234 180,-210 234,-210 234,-234"/>
<text text-anchor="middle" x="207" y="-219.6" font-family="Helvetica,sans-Serif" font-size="10.50" fill="white">figsize</text>
</g>
<!-- proc~setup&#45;&gt;figsize -->
<g id="edge1" class="edge"><title>proc~setup&#45;&gt;figsize</title>
<path fill="none" stroke="black" d="M134.79,-129.021C138.05,-131.766 141.292,-134.819 144,-138 164.905,-162.556 159.095,-176.444 180,-201 180.592,-201.696 181.21,-202.386 181.848,-203.067"/>
<polygon fill="black" stroke="black" points="179.524,-205.686 189.21,-209.979 184.315,-200.583 179.524,-205.686"/>
</g>
<!-- plsdev -->
<g id="node8" class="node"><title>plsdev</title>
<polygon fill="#777777" stroke="#777777" points="234,-192 180,-192 180,-168 234,-168 234,-192"/>
<text text-anchor="middle" x="207" y="-177.6" font-family="Helvetica,sans-Serif" font-size="10.50" fill="white">plsdev</text>
</g>
<!-- proc~setup&#45;&gt;plsdev -->
<g id="edge2" class="edge"><title>proc~setup&#45;&gt;plsdev</title>
<path fill="none" stroke="black" d="M134.967,-129.147C147.994,-138.473 166.181,-151.493 180.891,-162.024"/>
<polygon fill="black" stroke="black" points="178.916,-164.915 189.085,-167.89 182.991,-159.223 178.916,-164.915"/>
</g>
<!-- plfontld -->
<g id="node9" class="node"><title>plfontld</title>
<polygon fill="#777777" stroke="#777777" points="234,-150 180,-150 180,-126 234,-126 234,-150"/>
<text text-anchor="middle" x="207" y="-135.6" font-family="Helvetica,sans-Serif" font-size="10.50" fill="white">plfontld</text>
</g>
<!-- proc~setup&#45;&gt;plfontld -->
<g id="edge3" class="edge"><title>proc~setup&#45;&gt;plfontld</title>
<path fill="none" stroke="black" d="M144.403,-123.301C152.481,-125.228 161.507,-127.382 170.105,-129.434"/>
<polygon fill="black" stroke="black" points="169.38,-132.859 179.919,-131.776 171.005,-126.05 169.38,-132.859"/>
</g>
<!-- plsfnam -->
<g id="node10" class="node"><title>plsfnam</title>
<polygon fill="#777777" stroke="#777777" points="234,-108 180,-108 180,-84 234,-84 234,-108"/>
<text text-anchor="middle" x="207" y="-93.6" font-family="Helvetica,sans-Serif" font-size="10.50" fill="white">plsfnam</text>
</g>
<!-- proc~setup&#45;&gt;plsfnam -->
<g id="edge4" class="edge"><title>proc~setup&#45;&gt;plsfnam</title>
<path fill="none" stroke="black" d="M144.403,-110.699C152.481,-108.772 161.507,-106.618 170.105,-104.566"/>
<polygon fill="black" stroke="black" points="171.005,-107.95 179.919,-102.224 169.38,-101.141 171.005,-107.95"/>
</g>
<!-- plsfam -->
<g id="node11" class="node"><title>plsfam</title>
<polygon fill="#777777" stroke="#777777" points="234,-66 180,-66 180,-42 234,-42 234,-66"/>
<text text-anchor="middle" x="207" y="-51.6" font-family="Helvetica,sans-Serif" font-size="10.50" fill="white">plsfam</text>
</g>
<!-- proc~setup&#45;&gt;plsfam -->
<g id="edge5" class="edge"><title>proc~setup&#45;&gt;plsfam</title>
<path fill="none" stroke="black" d="M134.967,-104.853C147.994,-95.5274 166.181,-82.5069 180.891,-71.9759"/>
<polygon fill="black" stroke="black" points="182.991,-74.7768 189.085,-66.1097 178.916,-69.085 182.991,-74.7768"/>
</g>
<!-- plsetopt -->
<g id="node12" class="node"><title>plsetopt</title>
<polygon fill="#777777" stroke="#777777" points="234,-24 180,-24 180,-0 234,-0 234,-24"/>
<text text-anchor="middle" x="207" y="-9.6" font-family="Helvetica,sans-Serif" font-size="10.50" fill="white">plsetopt</text>
</g>
<!-- proc~setup&#45;&gt;plsetopt -->
<g id="edge6" class="edge"><title>proc~setup&#45;&gt;plsetopt</title>
<path fill="none" stroke="black" d="M134.79,-104.979C138.05,-102.234 141.292,-99.1811 144,-96 164.905,-71.4443 159.095,-57.5557 180,-33 180.592,-32.3041 181.21,-31.6144 181.848,-30.9327"/>
<polygon fill="black" stroke="black" points="184.315,-33.4174 189.21,-24.021 179.524,-28.3141 184.315,-33.4174"/>
</g>
</g>
</svg>
