<?xml version="1.0" encoding="UTF-8" standalone="no"?>
<!DOCTYPE svg PUBLIC "-//W3C//DTD SVG 1.1//EN"
 "http://www.w3.org/Graphics/SVG/1.1/DTD/svg11.dtd">
<!-- Generated by graphviz version 2.38.0 (20140413.2041)
 -->
<!-- Title: proc~~makelogo~~CallsGraph Pages: 1 -->
<svg width="341pt" height="578pt"
 viewBox="0.00 0.00 341.00 578.00" xmlns="http://www.w3.org/2000/svg" xmlns:xlink="http://www.w3.org/1999/xlink">
<g id="graph0" class="graph" transform="scale(1 1) rotate(0) translate(4 574)">
<title>proc~~makelogo~~CallsGraph</title>
<polygon fill="white" stroke="none" points="-4,4 -4,-574 337,-574 337,4 -4,4"/>
<!-- proc~makelogo -->
<g id="node1" class="node"><title>proc~makelogo</title>
<polygon fill="none" stroke="black" points="63,-213 0,-213 0,-189 63,-189 63,-213"/>
<text text-anchor="middle" x="31.5" y="-198.6" font-family="Helvetica,sans-Serif" font-size="10.50">makeLogo</text>
</g>
<!-- proc~labels -->
<g id="node2" class="node"><title>proc~labels</title>
<g id="a_node2"><a xlink:href="../proc/labels.html" xlink:title="labels">
<polygon fill="#d9534f" stroke="#d9534f" points="153,-554 99,-554 99,-530 153,-530 153,-554"/>
<text text-anchor="middle" x="126" y="-539.6" font-family="Helvetica,sans-Serif" font-size="10.50" fill="white">labels</text>
</a>
</g>
</g>
<!-- proc~makelogo&#45;&gt;proc~labels -->
<g id="edge23" class="edge"><title>proc~makelogo&#45;&gt;proc~labels</title>
<path fill="none" stroke="black" d="M34.2324,-213.128C40.2069,-253.408 61.6609,-386.069 99,-490 102.799,-500.575 108.211,-511.786 113.115,-521.081"/>
<polygon fill="black" stroke="black" points="110.096,-522.856 117.951,-529.966 116.244,-519.509 110.096,-522.856"/>
</g>
<!-- proc~ticks -->
<g id="node3" class="node"><title>proc~ticks</title>
<g id="a_node3"><a xlink:href="../proc/ticks.html" xlink:title="ticks">
<polygon fill="#d9534f" stroke="#d9534f" points="153,-481 99,-481 99,-457 153,-457 153,-481"/>
<text text-anchor="middle" x="126" y="-466.6" font-family="Helvetica,sans-Serif" font-size="10.50" fill="white">ticks</text>
</a>
</g>
</g>
<!-- proc~makelogo&#45;&gt;proc~ticks -->
<g id="edge24" class="edge"><title>proc~makelogo&#45;&gt;proc~ticks</title>
<path fill="none" stroke="black" d="M36.7149,-213.212C51.1614,-255.068 98.8097,-393.119 117.44,-447.096"/>
<polygon fill="black" stroke="black" points="114.189,-448.406 120.76,-456.716 120.806,-446.122 114.189,-448.406"/>
</g>
<!-- proc~figure -->
<g id="node4" class="node"><title>proc~figure</title>
<g id="a_node4"><a xlink:href="../proc/figure.html" xlink:title="figure">
<polygon fill="#d9534f" stroke="#d9534f" points="153,-255 99,-255 99,-231 153,-231 153,-255"/>
<text text-anchor="middle" x="126" y="-240.6" font-family="Helvetica,sans-Serif" font-size="10.50" fill="white">figure</text>
</a>
</g>
</g>
<!-- proc~makelogo&#45;&gt;proc~figure -->
<g id="edge25" class="edge"><title>proc~makelogo&#45;&gt;proc~figure</title>
<path fill="none" stroke="black" d="M59.2548,-213.148C68.7165,-217.444 79.5106,-222.345 89.5792,-226.917"/>
<polygon fill="black" stroke="black" points="88.3907,-230.221 98.9431,-231.169 91.2848,-223.848 88.3907,-230.221"/>
</g>
<!-- proc~plot -->
<g id="node5" class="node"><title>proc~plot</title>
<g id="a_node5"><a xlink:href="../proc/plot.html" xlink:title="plot">
<polygon fill="#d9534f" stroke="#d9534f" points="153,-171 99,-171 99,-147 153,-147 153,-171"/>
<text text-anchor="middle" x="126" y="-156.6" font-family="Helvetica,sans-Serif" font-size="10.50" fill="white">plot</text>
</a>
</g>
</g>
<!-- proc~makelogo&#45;&gt;proc~plot -->
<g id="edge26" class="edge"><title>proc~makelogo&#45;&gt;proc~plot</title>
<path fill="none" stroke="black" d="M59.2548,-188.852C68.7165,-184.556 79.5106,-179.655 89.5792,-175.083"/>
<polygon fill="black" stroke="black" points="91.2848,-178.152 98.9431,-170.831 88.3907,-171.779 91.2848,-178.152"/>
</g>
<!-- interface~mixval -->
<g id="node6" class="node"><title>interface~mixval</title>
<g id="a_node6"><a xlink:href="../interface/mixval.html" xlink:title="mixval">
<polygon fill="#a7506f" stroke="#a7506f" points="153,-129 99,-129 99,-105 153,-105 153,-129"/>
<text text-anchor="middle" x="126" y="-114.6" font-family="Helvetica,sans-Serif" font-size="10.50" fill="white">mixval</text>
</a>
</g>
</g>
<!-- proc~makelogo&#45;&gt;interface~mixval -->
<g id="edge27" class="edge"><title>proc~makelogo&#45;&gt;interface~mixval</title>
<path fill="none" stroke="black" d="M44.9715,-188.618C58.1319,-175.688 79.6121,-154.967 99,-138 99.9579,-137.162 100.943,-136.313 101.942,-135.462"/>
<polygon fill="black" stroke="black" points="104.249,-138.096 109.71,-129.017 99.7792,-132.708 104.249,-138.096"/>
</g>
<!-- proc~xylim -->
<g id="node7" class="node"><title>proc~xylim</title>
<g id="a_node7"><a xlink:href="../proc/xylim.html" xlink:title="xylim">
<polygon fill="#d9534f" stroke="#d9534f" points="153,-87 99,-87 99,-63 153,-63 153,-87"/>
<text text-anchor="middle" x="126" y="-72.6" font-family="Helvetica,sans-Serif" font-size="10.50" fill="white">xylim</text>
</a>
</g>
</g>
<!-- proc~makelogo&#45;&gt;proc~xylim -->
<g id="edge28" class="edge"><title>proc~makelogo&#45;&gt;proc~xylim</title>
<path fill="none" stroke="black" d="M38.5377,-188.793C49.0442,-168.264 72.1527,-126.122 99,-96 99.6081,-95.3178 100.24,-94.64 100.89,-93.9687"/>
<polygon fill="black" stroke="black" points="103.341,-96.4691 108.321,-87.1175 98.5964,-91.3226 103.341,-96.4691"/>
</g>
<!-- proc~linspace -->
<g id="node8" class="node"><title>proc~linspace</title>
<g id="a_node8"><a xlink:href="../proc/linspace.html" xlink:title="linspace">
<polygon fill="#d94e8f" stroke="#d94e8f" points="153,-45 99,-45 99,-21 153,-21 153,-45"/>
<text text-anchor="middle" x="126" y="-30.6" font-family="Helvetica,sans-Serif" font-size="10.50" fill="white">linspace</text>
</a>
</g>
</g>
<!-- proc~makelogo&#45;&gt;proc~linspace -->
<g id="edge29" class="edge"><title>proc~makelogo&#45;&gt;proc~linspace</title>
<path fill="none" stroke="black" d="M35.8518,-188.941C43.6346,-162.465 64.9074,-98.0999 99,-54 99.4658,-53.3975 99.9522,-52.8016 100.456,-52.2131"/>
<polygon fill="black" stroke="black" points="103.045,-54.5753 107.703,-45.0593 98.1274,-49.5935 103.045,-54.5753"/>
</g>
<!-- proc~subplot -->
<g id="node9" class="node"><title>proc~subplot</title>
<g id="a_node9"><a xlink:href="../proc/subplot.html" xlink:title="subplot">
<polygon fill="#d9534f" stroke="#d9534f" points="153,-376 99,-376 99,-352 153,-352 153,-376"/>
<text text-anchor="middle" x="126" y="-361.6" font-family="Helvetica,sans-Serif" font-size="10.50" fill="white">subplot</text>
</a>
</g>
</g>
<!-- proc~makelogo&#45;&gt;proc~subplot -->
<g id="edge30" class="edge"><title>proc~makelogo&#45;&gt;proc~subplot</title>
<path fill="none" stroke="black" d="M39.4525,-213.251C55.1217,-240.863 93.352,-308.231 112.963,-342.789"/>
<polygon fill="black" stroke="black" points="109.987,-344.637 117.967,-351.606 116.075,-341.182 109.987,-344.637"/>
</g>
<!-- pllab -->
<g id="node10" class="node"><title>pllab</title>
<polygon fill="#777777" stroke="#777777" points="243,-570 189,-570 189,-546 243,-546 243,-570"/>
<text text-anchor="middle" x="216" y="-555.6" font-family="Helvetica,sans-Serif" font-size="10.50" fill="white">pllab</text>
</g>
<!-- proc~labels&#45;&gt;pllab -->
<g id="edge1" class="edge"><title>proc~labels&#45;&gt;pllab</title>
<path fill="none" stroke="black" d="M153.403,-546.801C161.393,-548.253 170.311,-549.875 178.824,-551.423"/>
<polygon fill="black" stroke="black" points="178.454,-554.913 188.919,-553.258 179.706,-548.026 178.454,-554.913"/>
</g>
<!-- plbox -->
<g id="node11" class="node"><title>plbox</title>
<polygon fill="#777777" stroke="#777777" points="243,-528 189,-528 189,-504 243,-504 243,-528"/>
<text text-anchor="middle" x="216" y="-513.6" font-family="Helvetica,sans-Serif" font-size="10.50" fill="white">plbox</text>
</g>
<!-- proc~ticks&#45;&gt;plbox -->
<g id="edge2" class="edge"><title>proc~ticks&#45;&gt;plbox</title>
<path fill="none" stroke="black" d="M149.662,-481.104C159.927,-486.586 172.236,-493.16 183.388,-499.117"/>
<polygon fill="black" stroke="black" points="181.945,-502.313 192.415,-503.937 185.243,-496.139 181.945,-502.313"/>
</g>
<!-- pladv -->
<g id="node12" class="node"><title>pladv</title>
<polygon fill="#777777" stroke="#777777" points="243,-360 189,-360 189,-336 243,-336 243,-360"/>
<text text-anchor="middle" x="216" y="-345.6" font-family="Helvetica,sans-Serif" font-size="10.50" fill="white">pladv</text>
</g>
<!-- proc~figure&#45;&gt;pladv -->
<g id="edge9" class="edge"><title>proc~figure&#45;&gt;pladv</title>
<path fill="none" stroke="black" d="M134.546,-255.152C145.43,-272.188 166.689,-303.695 189,-327 189.65,-327.678 190.321,-328.355 191.009,-329.027"/>
<polygon fill="black" stroke="black" points="188.974,-331.902 198.764,-335.953 193.636,-326.681 188.974,-331.902"/>
</g>
<!-- pleop -->
<g id="node13" class="node"><title>pleop</title>
<polygon fill="#777777" stroke="#777777" points="243,-276 189,-276 189,-252 243,-252 243,-276"/>
<text text-anchor="middle" x="216" y="-261.6" font-family="Helvetica,sans-Serif" font-size="10.50" fill="white">pleop</text>
</g>
<!-- proc~figure&#45;&gt;pleop -->
<g id="edge10" class="edge"><title>proc~figure&#45;&gt;pleop</title>
<path fill="none" stroke="black" d="M153.403,-249.301C161.481,-251.228 170.507,-253.382 179.105,-255.434"/>
<polygon fill="black" stroke="black" points="178.38,-258.859 188.919,-257.776 180.005,-252.05 178.38,-258.859"/>
</g>
<!-- plssub -->
<g id="node14" class="node"><title>plssub</title>
<polygon fill="#777777" stroke="#777777" points="243,-318 189,-318 189,-294 243,-294 243,-318"/>
<text text-anchor="middle" x="216" y="-303.6" font-family="Helvetica,sans-Serif" font-size="10.50" fill="white">plssub</text>
</g>
<!-- proc~figure&#45;&gt;plssub -->
<g id="edge11" class="edge"><title>proc~figure&#45;&gt;plssub</title>
<path fill="none" stroke="black" d="M143.967,-255.147C156.994,-264.473 175.181,-277.493 189.891,-288.024"/>
<polygon fill="black" stroke="black" points="187.916,-290.915 198.085,-293.89 191.991,-285.223 187.916,-290.915"/>
</g>
<!-- proc~setup -->
<g id="node15" class="node"><title>proc~setup</title>
<g id="a_node15"><a xlink:href="../proc/setup.html" xlink:title="setup">
<polygon fill="#d9534f" stroke="#d9534f" points="243,-234 189,-234 189,-210 243,-210 243,-234"/>
<text text-anchor="middle" x="216" y="-219.6" font-family="Helvetica,sans-Serif" font-size="10.50" fill="white">setup</text>
</a>
</g>
</g>
<!-- proc~figure&#45;&gt;proc~setup -->
<g id="edge12" class="edge"><title>proc~figure&#45;&gt;proc~setup</title>
<path fill="none" stroke="black" d="M153.403,-236.699C161.481,-234.772 170.507,-232.618 179.105,-230.566"/>
<polygon fill="black" stroke="black" points="180.005,-233.95 188.919,-228.224 178.38,-227.141 180.005,-233.95"/>
</g>
<!-- plbop -->
<g id="node16" class="node"><title>plbop</title>
<polygon fill="#777777" stroke="#777777" points="243,-192 189,-192 189,-168 243,-168 243,-192"/>
<text text-anchor="middle" x="216" y="-177.6" font-family="Helvetica,sans-Serif" font-size="10.50" fill="white">plbop</text>
</g>
<!-- proc~figure&#45;&gt;plbop -->
<g id="edge13" class="edge"><title>proc~figure&#45;&gt;plbop</title>
<path fill="none" stroke="black" d="M143.967,-230.853C156.994,-221.527 175.181,-208.507 189.891,-197.976"/>
<polygon fill="black" stroke="black" points="191.991,-200.777 198.085,-192.11 187.916,-195.085 191.991,-200.777"/>
</g>
<!-- plssym -->
<g id="node23" class="node"><title>plssym</title>
<polygon fill="#777777" stroke="#777777" points="243,-150 189,-150 189,-126 243,-126 243,-150"/>
<text text-anchor="middle" x="216" y="-135.6" font-family="Helvetica,sans-Serif" font-size="10.50" fill="white">plssym</text>
</g>
<!-- proc~plot&#45;&gt;plssym -->
<g id="edge14" class="edge"><title>proc~plot&#45;&gt;plssym</title>
<path fill="none" stroke="black" d="M153.403,-152.699C161.481,-150.772 170.507,-148.618 179.105,-146.566"/>
<polygon fill="black" stroke="black" points="180.005,-149.95 188.919,-144.224 178.38,-143.141 180.005,-149.95"/>
</g>
<!-- plline -->
<g id="node24" class="node"><title>plline</title>
<polygon fill="#777777" stroke="#777777" points="243,-108 189,-108 189,-84 243,-84 243,-108"/>
<text text-anchor="middle" x="216" y="-93.6" font-family="Helvetica,sans-Serif" font-size="10.50" fill="white">plline</text>
</g>
<!-- proc~plot&#45;&gt;plline -->
<g id="edge15" class="edge"><title>proc~plot&#45;&gt;plline</title>
<path fill="none" stroke="black" d="M143.967,-146.853C156.994,-137.527 175.181,-124.507 189.891,-113.976"/>
<polygon fill="black" stroke="black" points="191.991,-116.777 198.085,-108.11 187.916,-111.085 191.991,-116.777"/>
</g>
<!-- plptex -->
<g id="node25" class="node"><title>plptex</title>
<polygon fill="#777777" stroke="#777777" points="243,-66 189,-66 189,-42 243,-42 243,-66"/>
<text text-anchor="middle" x="216" y="-51.6" font-family="Helvetica,sans-Serif" font-size="10.50" fill="white">plptex</text>
</g>
<!-- proc~plot&#45;&gt;plptex -->
<g id="edge16" class="edge"><title>proc~plot&#45;&gt;plptex</title>
<path fill="none" stroke="black" d="M143.79,-146.979C147.05,-144.234 150.292,-141.181 153,-138 173.905,-113.444 168.095,-99.5557 189,-75 189.592,-74.3041 190.21,-73.6144 190.848,-72.9327"/>
<polygon fill="black" stroke="black" points="193.315,-75.4174 198.21,-66.021 188.524,-70.3141 193.315,-75.4174"/>
</g>
<!-- plwind -->
<g id="node26" class="node"><title>plwind</title>
<polygon fill="#777777" stroke="#777777" points="243,-24 189,-24 189,-0 243,-0 243,-24"/>
<text text-anchor="middle" x="216" y="-9.6" font-family="Helvetica,sans-Serif" font-size="10.50" fill="white">plwind</text>
</g>
<!-- proc~xylim&#45;&gt;plwind -->
<g id="edge17" class="edge"><title>proc~xylim&#45;&gt;plwind</title>
<path fill="none" stroke="black" d="M143.967,-62.853C156.994,-53.5274 175.181,-40.5069 189.891,-29.9759"/>
<polygon fill="black" stroke="black" points="191.991,-32.7768 198.085,-24.1097 187.916,-27.085 191.991,-32.7768"/>
</g>
<!-- proc~subplot&#45;&gt;pladv -->
<g id="edge22" class="edge"><title>proc~subplot&#45;&gt;pladv</title>
<path fill="none" stroke="black" d="M153.403,-359.199C161.393,-357.747 170.311,-356.125 178.824,-354.577"/>
<polygon fill="black" stroke="black" points="179.706,-357.974 188.919,-352.742 178.454,-351.087 179.706,-357.974"/>
</g>
<!-- proc~subplot&#45;&gt;plssub -->
<g id="edge20" class="edge"><title>proc~subplot&#45;&gt;plssub</title>
<path fill="none" stroke="black" d="M145.234,-351.982C157.623,-343.817 174.22,-332.878 188.118,-323.718"/>
<polygon fill="black" stroke="black" points="190.366,-326.428 196.79,-318.002 186.514,-320.583 190.366,-326.428"/>
</g>
<!-- plvasp -->
<g id="node27" class="node"><title>plvasp</title>
<polygon fill="#777777" stroke="#777777" points="243,-486 189,-486 189,-462 243,-462 243,-486"/>
<text text-anchor="middle" x="216" y="-471.6" font-family="Helvetica,sans-Serif" font-size="10.50" fill="white">plvasp</text>
</g>
<!-- proc~subplot&#45;&gt;plvasp -->
<g id="edge18" class="edge"><title>proc~subplot&#45;&gt;plvasp</title>
<path fill="none" stroke="black" d="M133.865,-376.019C144.395,-393.896 165.769,-428.059 189,-453 189.623,-453.669 190.268,-454.335 190.929,-454.996"/>
<polygon fill="black" stroke="black" points="188.665,-457.667 198.426,-461.787 193.364,-452.479 188.665,-457.667"/>
</g>
<!-- plvpor -->
<g id="node28" class="node"><title>plvpor</title>
<polygon fill="#777777" stroke="#777777" points="243,-444 189,-444 189,-420 243,-420 243,-444"/>
<text text-anchor="middle" x="216" y="-429.6" font-family="Helvetica,sans-Serif" font-size="10.50" fill="white">plvpor</text>
</g>
<!-- proc~subplot&#45;&gt;plvpor -->
<g id="edge19" class="edge"><title>proc~subplot&#45;&gt;plvpor</title>
<path fill="none" stroke="black" d="M142.733,-376.157C156.248,-386.6 175.933,-401.812 191.346,-413.722"/>
<polygon fill="black" stroke="black" points="189.351,-416.603 199.404,-419.948 193.631,-411.064 189.351,-416.603"/>
</g>
<!-- plvsta -->
<g id="node29" class="node"><title>plvsta</title>
<polygon fill="#777777" stroke="#777777" points="243,-402 189,-402 189,-378 243,-378 243,-402"/>
<text text-anchor="middle" x="216" y="-387.6" font-family="Helvetica,sans-Serif" font-size="10.50" fill="white">plvsta</text>
</g>
<!-- proc~subplot&#45;&gt;plvsta -->
<g id="edge21" class="edge"><title>proc~subplot&#45;&gt;plvsta</title>
<path fill="none" stroke="black" d="M153.403,-371.801C161.481,-374.188 170.507,-376.854 179.105,-379.395"/>
<polygon fill="black" stroke="black" points="178.337,-382.817 188.919,-382.294 180.321,-376.104 178.337,-382.817"/>
</g>
<!-- figsize -->
<g id="node17" class="node"><title>figsize</title>
<polygon fill="#777777" stroke="#777777" points="333,-339 279,-339 279,-315 333,-315 333,-339"/>
<text text-anchor="middle" x="306" y="-324.6" font-family="Helvetica,sans-Serif" font-size="10.50" fill="white">figsize</text>
</g>
<!-- proc~setup&#45;&gt;figsize -->
<g id="edge3" class="edge"><title>proc~setup&#45;&gt;figsize</title>
<path fill="none" stroke="black" d="M233.79,-234.021C237.05,-236.766 240.292,-239.819 243,-243 263.905,-267.556 258.095,-281.444 279,-306 279.592,-306.696 280.21,-307.386 280.848,-308.067"/>
<polygon fill="black" stroke="black" points="278.524,-310.686 288.21,-314.979 283.315,-305.583 278.524,-310.686"/>
</g>
<!-- plsdev -->
<g id="node18" class="node"><title>plsdev</title>
<polygon fill="#777777" stroke="#777777" points="333,-297 279,-297 279,-273 333,-273 333,-297"/>
<text text-anchor="middle" x="306" y="-282.6" font-family="Helvetica,sans-Serif" font-size="10.50" fill="white">plsdev</text>
</g>
<!-- proc~setup&#45;&gt;plsdev -->
<g id="edge4" class="edge"><title>proc~setup&#45;&gt;plsdev</title>
<path fill="none" stroke="black" d="M233.967,-234.147C246.994,-243.473 265.181,-256.493 279.891,-267.024"/>
<polygon fill="black" stroke="black" points="277.916,-269.915 288.085,-272.89 281.991,-264.223 277.916,-269.915"/>
</g>
<!-- plfontld -->
<g id="node19" class="node"><title>plfontld</title>
<polygon fill="#777777" stroke="#777777" points="333,-255 279,-255 279,-231 333,-231 333,-255"/>
<text text-anchor="middle" x="306" y="-240.6" font-family="Helvetica,sans-Serif" font-size="10.50" fill="white">plfontld</text>
</g>
<!-- proc~setup&#45;&gt;plfontld -->
<g id="edge5" class="edge"><title>proc~setup&#45;&gt;plfontld</title>
<path fill="none" stroke="black" d="M243.403,-228.301C251.481,-230.228 260.507,-232.382 269.105,-234.434"/>
<polygon fill="black" stroke="black" points="268.38,-237.859 278.919,-236.776 270.005,-231.05 268.38,-237.859"/>
</g>
<!-- plsfnam -->
<g id="node20" class="node"><title>plsfnam</title>
<polygon fill="#777777" stroke="#777777" points="333,-213 279,-213 279,-189 333,-189 333,-213"/>
<text text-anchor="middle" x="306" y="-198.6" font-family="Helvetica,sans-Serif" font-size="10.50" fill="white">plsfnam</text>
</g>
<!-- proc~setup&#45;&gt;plsfnam -->
<g id="edge6" class="edge"><title>proc~setup&#45;&gt;plsfnam</title>
<path fill="none" stroke="black" d="M243.403,-215.699C251.481,-213.772 260.507,-211.618 269.105,-209.566"/>
<polygon fill="black" stroke="black" points="270.005,-212.95 278.919,-207.224 268.38,-206.141 270.005,-212.95"/>
</g>
<!-- plsfam -->
<g id="node21" class="node"><title>plsfam</title>
<polygon fill="#777777" stroke="#777777" points="333,-171 279,-171 279,-147 333,-147 333,-171"/>
<text text-anchor="middle" x="306" y="-156.6" font-family="Helvetica,sans-Serif" font-size="10.50" fill="white">plsfam</text>
</g>
<!-- proc~setup&#45;&gt;plsfam -->
<g id="edge7" class="edge"><title>proc~setup&#45;&gt;plsfam</title>
<path fill="none" stroke="black" d="M233.967,-209.853C246.994,-200.527 265.181,-187.507 279.891,-176.976"/>
<polygon fill="black" stroke="black" points="281.991,-179.777 288.085,-171.11 277.916,-174.085 281.991,-179.777"/>
</g>
<!-- plsetopt -->
<g id="node22" class="node"><title>plsetopt</title>
<polygon fill="#777777" stroke="#777777" points="333,-129 279,-129 279,-105 333,-105 333,-129"/>
<text text-anchor="middle" x="306" y="-114.6" font-family="Helvetica,sans-Serif" font-size="10.50" fill="white">plsetopt</text>
</g>
<!-- proc~setup&#45;&gt;plsetopt -->
<g id="edge8" class="edge"><title>proc~setup&#45;&gt;plsetopt</title>
<path fill="none" stroke="black" d="M233.79,-209.979C237.05,-207.234 240.292,-204.181 243,-201 263.905,-176.444 258.095,-162.556 279,-138 279.592,-137.304 280.21,-136.614 280.848,-135.933"/>
<polygon fill="black" stroke="black" points="283.315,-138.417 288.21,-129.021 278.524,-133.314 283.315,-138.417"/>
</g>
</g>
</svg>
