<?xml version="1.0" encoding="UTF-8" standalone="no"?>
<!DOCTYPE svg PUBLIC "-//W3C//DTD SVG 1.1//EN"
 "http://www.w3.org/Graphics/SVG/1.1/DTD/svg11.dtd">
<!-- Generated by graphviz version 2.38.0 (20140413.2041)
 -->
<!-- Title: program~~basic_prg~~CallsGraph Pages: 1 -->
<svg width="337pt" height="725pt"
 viewBox="0.00 0.00 337.00 725.00" xmlns="http://www.w3.org/2000/svg" xmlns:xlink="http://www.w3.org/1999/xlink">
<g id="graph0" class="graph" transform="scale(1 1) rotate(0) translate(4 721)">
<title>program~~basic_prg~~CallsGraph</title>
<polygon fill="white" stroke="none" points="-4,4 -4,-721 333,-721 333,4 -4,4"/>
<!-- program~basic_prg -->
<g id="node1" class="node"><title>program~basic_prg</title>
<polygon fill="none" stroke="black" points="59,-213 0,-213 0,-189 59,-189 59,-213"/>
<text text-anchor="middle" x="29.5" y="-198.6" font-family="Helvetica,sans-Serif" font-size="10.50">basic_prg</text>
</g>
<!-- proc~figure -->
<g id="node2" class="node"><title>proc~figure</title>
<g id="a_node2"><a xlink:href="../proc/figure.html" xlink:title="figure">
<polygon fill="#d9534f" stroke="#d9534f" points="149,-507 95,-507 95,-483 149,-483 149,-507"/>
<text text-anchor="middle" x="122" y="-492.6" font-family="Helvetica,sans-Serif" font-size="10.50" fill="white">figure</text>
</a>
</g>
</g>
<!-- program~basic_prg&#45;&gt;proc~figure -->
<g id="edge23" class="edge"><title>program~basic_prg&#45;&gt;proc~figure</title>
<path fill="none" stroke="black" d="M34.2735,-213.259C48.1302,-258.274 96.33,-414.857 114.235,-473.023"/>
<polygon fill="black" stroke="black" points="110.923,-474.161 117.21,-482.689 117.613,-472.102 110.923,-474.161"/>
</g>
<!-- proc~ticks -->
<g id="node3" class="node"><title>proc~ticks</title>
<g id="a_node3"><a xlink:href="../proc/ticks.html" xlink:title="ticks">
<polygon fill="#d9534f" stroke="#d9534f" points="149,-276 95,-276 95,-252 149,-252 149,-276"/>
<text text-anchor="middle" x="122" y="-261.6" font-family="Helvetica,sans-Serif" font-size="10.50" fill="white">ticks</text>
</a>
</g>
</g>
<!-- program~basic_prg&#45;&gt;proc~ticks -->
<g id="edge24" class="edge"><title>program~basic_prg&#45;&gt;proc~ticks</title>
<path fill="none" stroke="black" d="M47.9493,-213.147C61.3456,-222.473 80.0495,-235.493 95.1775,-246.024"/>
<polygon fill="black" stroke="black" points="93.3974,-249.049 103.604,-251.89 97.3967,-243.304 93.3974,-249.049"/>
</g>
<!-- proc~subplot -->
<g id="node4" class="node"><title>proc~subplot</title>
<g id="a_node4"><a xlink:href="../proc/subplot.html" xlink:title="subplot">
<polygon fill="#d9534f" stroke="#d9534f" points="149,-381 95,-381 95,-357 149,-357 149,-381"/>
<text text-anchor="middle" x="122" y="-366.6" font-family="Helvetica,sans-Serif" font-size="10.50" fill="white">subplot</text>
</a>
</g>
</g>
<!-- program~basic_prg&#45;&gt;proc~subplot -->
<g id="edge25" class="edge"><title>program~basic_prg&#45;&gt;proc~subplot</title>
<path fill="none" stroke="black" d="M37.0085,-213.082C52.1974,-241.278 90.1511,-311.734 109.406,-347.477"/>
<polygon fill="black" stroke="black" points="106.482,-349.43 114.306,-356.574 112.645,-346.11 106.482,-349.43"/>
</g>
<!-- proc~show -->
<g id="node5" class="node"><title>proc~show</title>
<g id="a_node5"><a xlink:href="../proc/show.html" xlink:title="show">
<polygon fill="#d9534f" stroke="#d9534f" points="149,-234 95,-234 95,-210 149,-210 149,-234"/>
<text text-anchor="middle" x="122" y="-219.6" font-family="Helvetica,sans-Serif" font-size="10.50" fill="white">show</text>
</a>
</g>
</g>
<!-- program~basic_prg&#45;&gt;proc~show -->
<g id="edge26" class="edge"><title>program~basic_prg&#45;&gt;proc~show</title>
<path fill="none" stroke="black" d="M59.1348,-207.645C67.3232,-209.545 76.3546,-211.64 84.9272,-213.63"/>
<polygon fill="black" stroke="black" points="84.1697,-217.047 94.7021,-215.898 85.7521,-210.228 84.1697,-217.047"/>
</g>
<!-- proc~plot -->
<g id="node6" class="node"><title>proc~plot</title>
<g id="a_node6"><a xlink:href="../proc/plot.html" xlink:title="plot">
<polygon fill="#d9534f" stroke="#d9534f" points="149,-192 95,-192 95,-168 149,-168 149,-192"/>
<text text-anchor="middle" x="122" y="-177.6" font-family="Helvetica,sans-Serif" font-size="10.50" fill="white">plot</text>
</a>
</g>
</g>
<!-- program~basic_prg&#45;&gt;proc~plot -->
<g id="edge27" class="edge"><title>program~basic_prg&#45;&gt;proc~plot</title>
<path fill="none" stroke="black" d="M59.1348,-194.355C67.3232,-192.455 76.3546,-190.36 84.9272,-188.37"/>
<polygon fill="black" stroke="black" points="85.7521,-191.772 94.7021,-186.102 84.1697,-184.953 85.7521,-191.772"/>
</g>
<!-- interface~mixval -->
<g id="node7" class="node"><title>interface~mixval</title>
<g id="a_node7"><a xlink:href="../interface/mixval.html" xlink:title="mixval">
<polygon fill="#a7506f" stroke="#a7506f" points="149,-150 95,-150 95,-126 149,-126 149,-150"/>
<text text-anchor="middle" x="122" y="-135.6" font-family="Helvetica,sans-Serif" font-size="10.50" fill="white">mixval</text>
</a>
</g>
</g>
<!-- program~basic_prg&#45;&gt;interface~mixval -->
<g id="edge28" class="edge"><title>program~basic_prg&#45;&gt;interface~mixval</title>
<path fill="none" stroke="black" d="M47.9493,-188.853C61.3456,-179.527 80.0495,-166.507 95.1775,-155.976"/>
<polygon fill="black" stroke="black" points="97.3967,-158.696 103.604,-150.11 93.3974,-152.951 97.3967,-158.696"/>
</g>
<!-- proc~labels -->
<g id="node8" class="node"><title>proc~labels</title>
<g id="a_node8"><a xlink:href="../proc/labels.html" xlink:title="labels">
<polygon fill="#d9534f" stroke="#d9534f" points="149,-108 95,-108 95,-84 149,-84 149,-108"/>
<text text-anchor="middle" x="122" y="-93.6" font-family="Helvetica,sans-Serif" font-size="10.50" fill="white">labels</text>
</a>
</g>
</g>
<!-- program~basic_prg&#45;&gt;proc~labels -->
<g id="edge29" class="edge"><title>program~basic_prg&#45;&gt;proc~labels</title>
<path fill="none" stroke="black" d="M38.4491,-188.882C49.8889,-171.885 72.1439,-140.425 95,-117 95.6559,-116.328 96.3329,-115.657 97.0256,-114.989"/>
<polygon fill="black" stroke="black" points="99.6465,-117.343 104.808,-108.09 95.0032,-112.104 99.6465,-117.343"/>
</g>
<!-- proc~xylim -->
<g id="node9" class="node"><title>proc~xylim</title>
<g id="a_node9"><a xlink:href="../proc/xylim.html" xlink:title="xylim">
<polygon fill="#d9534f" stroke="#d9534f" points="149,-66 95,-66 95,-42 149,-42 149,-66"/>
<text text-anchor="middle" x="122" y="-51.6" font-family="Helvetica,sans-Serif" font-size="10.50" fill="white">xylim</text>
</a>
</g>
</g>
<!-- program~basic_prg&#45;&gt;proc~xylim -->
<g id="edge30" class="edge"><title>program~basic_prg&#45;&gt;proc~xylim</title>
<path fill="none" stroke="black" d="M34.7275,-188.919C43.3982,-165.282 64.939,-112.003 95,-75 95.4802,-74.4089 95.9795,-73.8232 96.4947,-73.244"/>
<polygon fill="black" stroke="black" points="99.069,-75.6234 103.825,-66.1558 94.203,-70.5913 99.069,-75.6234"/>
</g>
<!-- proc~linspace -->
<g id="node10" class="node"><title>proc~linspace</title>
<g id="a_node10"><a xlink:href="../proc/linspace.html" xlink:title="linspace">
<polygon fill="#d94e8f" stroke="#d94e8f" points="149,-24 95,-24 95,-0 149,-0 149,-24"/>
<text text-anchor="middle" x="122" y="-9.6" font-family="Helvetica,sans-Serif" font-size="10.50" fill="white">linspace</text>
</a>
</g>
</g>
<!-- program~basic_prg&#45;&gt;proc~linspace -->
<g id="edge31" class="edge"><title>program~basic_prg&#45;&gt;proc~linspace</title>
<path fill="none" stroke="black" d="M32.8512,-188.974C38.9928,-159.873 57.6876,-84.2849 95,-33 95.3627,-32.5015 95.7401,-32.0082 96.1303,-31.5205"/>
<polygon fill="black" stroke="black" points="98.8113,-33.7843 103.284,-24.1801 93.7983,-28.8985 98.8113,-33.7843"/>
</g>
<!-- proc~setup -->
<g id="node11" class="node"><title>proc~setup</title>
<g id="a_node11"><a xlink:href="../proc/setup.html" xlink:title="setup">
<polygon fill="#d9534f" stroke="#d9534f" points="239,-612 185,-612 185,-588 239,-588 239,-612"/>
<text text-anchor="middle" x="212" y="-597.6" font-family="Helvetica,sans-Serif" font-size="10.50" fill="white">setup</text>
</a>
</g>
</g>
<!-- program~basic_prg&#45;&gt;proc~setup -->
<g id="edge32" class="edge"><title>program~basic_prg&#45;&gt;proc~setup</title>
<path fill="none" stroke="black" d="M29.9804,-213.002C28.6402,-257.218 29.0226,-413.745 95,-516 114.656,-546.464 149.552,-569.475 175.951,-583.641"/>
<polygon fill="black" stroke="black" points="174.407,-586.783 184.896,-588.281 177.631,-580.569 174.407,-586.783"/>
</g>
<!-- proc~figure&#45;&gt;proc~setup -->
<g id="edge4" class="edge"><title>proc~figure&#45;&gt;proc~setup</title>
<path fill="none" stroke="black" d="M130.546,-507.152C141.43,-524.188 162.689,-555.695 185,-579 185.65,-579.678 186.321,-580.355 187.009,-581.027"/>
<polygon fill="black" stroke="black" points="184.974,-583.902 194.764,-587.953 189.636,-578.681 184.974,-583.902"/>
</g>
<!-- pladv -->
<g id="node12" class="node"><title>pladv</title>
<polygon fill="#777777" stroke="#777777" points="239,-486 185,-486 185,-462 239,-462 239,-486"/>
<text text-anchor="middle" x="212" y="-471.6" font-family="Helvetica,sans-Serif" font-size="10.50" fill="white">pladv</text>
</g>
<!-- proc~figure&#45;&gt;pladv -->
<g id="edge1" class="edge"><title>proc~figure&#45;&gt;pladv</title>
<path fill="none" stroke="black" d="M149.403,-488.699C157.481,-486.772 166.507,-484.618 175.105,-482.566"/>
<polygon fill="black" stroke="black" points="176.005,-485.95 184.919,-480.224 174.38,-479.141 176.005,-485.95"/>
</g>
<!-- pleop -->
<g id="node13" class="node"><title>pleop</title>
<polygon fill="#777777" stroke="#777777" points="239,-570 185,-570 185,-546 239,-546 239,-570"/>
<text text-anchor="middle" x="212" y="-555.6" font-family="Helvetica,sans-Serif" font-size="10.50" fill="white">pleop</text>
</g>
<!-- proc~figure&#45;&gt;pleop -->
<g id="edge2" class="edge"><title>proc~figure&#45;&gt;pleop</title>
<path fill="none" stroke="black" d="M139.967,-507.147C152.994,-516.473 171.181,-529.493 185.891,-540.024"/>
<polygon fill="black" stroke="black" points="183.916,-542.915 194.085,-545.89 187.991,-537.223 183.916,-542.915"/>
</g>
<!-- plssub -->
<g id="node14" class="node"><title>plssub</title>
<polygon fill="#777777" stroke="#777777" points="239,-444 185,-444 185,-420 239,-420 239,-444"/>
<text text-anchor="middle" x="212" y="-429.6" font-family="Helvetica,sans-Serif" font-size="10.50" fill="white">plssub</text>
</g>
<!-- proc~figure&#45;&gt;plssub -->
<g id="edge3" class="edge"><title>proc~figure&#45;&gt;plssub</title>
<path fill="none" stroke="black" d="M139.967,-482.853C152.994,-473.527 171.181,-460.507 185.891,-449.976"/>
<polygon fill="black" stroke="black" points="187.991,-452.777 194.085,-444.11 183.916,-447.085 187.991,-452.777"/>
</g>
<!-- plbop -->
<g id="node15" class="node"><title>plbop</title>
<polygon fill="#777777" stroke="#777777" points="239,-528 185,-528 185,-504 239,-504 239,-528"/>
<text text-anchor="middle" x="212" y="-513.6" font-family="Helvetica,sans-Serif" font-size="10.50" fill="white">plbop</text>
</g>
<!-- proc~figure&#45;&gt;plbop -->
<g id="edge5" class="edge"><title>proc~figure&#45;&gt;plbop</title>
<path fill="none" stroke="black" d="M149.403,-501.301C157.481,-503.228 166.507,-505.382 175.105,-507.434"/>
<polygon fill="black" stroke="black" points="174.38,-510.859 184.919,-509.776 176.005,-504.05 174.38,-510.859"/>
</g>
<!-- plbox -->
<g id="node16" class="node"><title>plbox</title>
<polygon fill="#777777" stroke="#777777" points="239,-276 185,-276 185,-252 239,-252 239,-276"/>
<text text-anchor="middle" x="212" y="-261.6" font-family="Helvetica,sans-Serif" font-size="10.50" fill="white">plbox</text>
</g>
<!-- proc~ticks&#45;&gt;plbox -->
<g id="edge6" class="edge"><title>proc~ticks&#45;&gt;plbox</title>
<path fill="none" stroke="black" d="M149.403,-264C157.393,-264 166.311,-264 174.824,-264"/>
<polygon fill="black" stroke="black" points="174.919,-267.5 184.919,-264 174.919,-260.5 174.919,-267.5"/>
</g>
<!-- proc~subplot&#45;&gt;pladv -->
<g id="edge11" class="edge"><title>proc~subplot&#45;&gt;pladv</title>
<path fill="none" stroke="black" d="M130.546,-381.152C141.43,-398.188 162.689,-429.695 185,-453 185.65,-453.678 186.321,-454.355 187.009,-455.027"/>
<polygon fill="black" stroke="black" points="184.974,-457.902 194.764,-461.953 189.636,-452.681 184.974,-457.902"/>
</g>
<!-- proc~subplot&#45;&gt;plssub -->
<g id="edge9" class="edge"><title>proc~subplot&#45;&gt;plssub</title>
<path fill="none" stroke="black" d="M139.967,-381.147C152.994,-390.473 171.181,-403.493 185.891,-414.024"/>
<polygon fill="black" stroke="black" points="183.916,-416.915 194.085,-419.89 187.991,-411.223 183.916,-416.915"/>
</g>
<!-- plvasp -->
<g id="node17" class="node"><title>plvasp</title>
<polygon fill="#777777" stroke="#777777" points="239,-402 185,-402 185,-378 239,-378 239,-402"/>
<text text-anchor="middle" x="212" y="-387.6" font-family="Helvetica,sans-Serif" font-size="10.50" fill="white">plvasp</text>
</g>
<!-- proc~subplot&#45;&gt;plvasp -->
<g id="edge7" class="edge"><title>proc~subplot&#45;&gt;plvasp</title>
<path fill="none" stroke="black" d="M149.403,-375.301C157.481,-377.228 166.507,-379.382 175.105,-381.434"/>
<polygon fill="black" stroke="black" points="174.38,-384.859 184.919,-383.776 176.005,-378.05 174.38,-384.859"/>
</g>
<!-- plvpor -->
<g id="node18" class="node"><title>plvpor</title>
<polygon fill="#777777" stroke="#777777" points="239,-360 185,-360 185,-336 239,-336 239,-360"/>
<text text-anchor="middle" x="212" y="-345.6" font-family="Helvetica,sans-Serif" font-size="10.50" fill="white">plvpor</text>
</g>
<!-- proc~subplot&#45;&gt;plvpor -->
<g id="edge8" class="edge"><title>proc~subplot&#45;&gt;plvpor</title>
<path fill="none" stroke="black" d="M149.403,-362.699C157.481,-360.772 166.507,-358.618 175.105,-356.566"/>
<polygon fill="black" stroke="black" points="176.005,-359.95 184.919,-354.224 174.38,-353.141 176.005,-359.95"/>
</g>
<!-- plvsta -->
<g id="node19" class="node"><title>plvsta</title>
<polygon fill="#777777" stroke="#777777" points="239,-318 185,-318 185,-294 239,-294 239,-318"/>
<text text-anchor="middle" x="212" y="-303.6" font-family="Helvetica,sans-Serif" font-size="10.50" fill="white">plvsta</text>
</g>
<!-- proc~subplot&#45;&gt;plvsta -->
<g id="edge10" class="edge"><title>proc~subplot&#45;&gt;plvsta</title>
<path fill="none" stroke="black" d="M139.967,-356.853C152.994,-347.527 171.181,-334.507 185.891,-323.976"/>
<polygon fill="black" stroke="black" points="187.991,-326.777 194.085,-318.11 183.916,-321.085 187.991,-326.777"/>
</g>
<!-- plssym -->
<g id="node20" class="node"><title>plssym</title>
<polygon fill="#777777" stroke="#777777" points="239,-234 185,-234 185,-210 239,-210 239,-234"/>
<text text-anchor="middle" x="212" y="-219.6" font-family="Helvetica,sans-Serif" font-size="10.50" fill="white">plssym</text>
</g>
<!-- proc~plot&#45;&gt;plssym -->
<g id="edge12" class="edge"><title>proc~plot&#45;&gt;plssym</title>
<path fill="none" stroke="black" d="M148.453,-192.148C157.21,-196.327 167.165,-201.079 176.518,-205.543"/>
<polygon fill="black" stroke="black" points="175.072,-208.73 185.604,-209.879 178.087,-202.413 175.072,-208.73"/>
</g>
<!-- plline -->
<g id="node21" class="node"><title>plline</title>
<polygon fill="#777777" stroke="#777777" points="239,-192 185,-192 185,-168 239,-168 239,-192"/>
<text text-anchor="middle" x="212" y="-177.6" font-family="Helvetica,sans-Serif" font-size="10.50" fill="white">plline</text>
</g>
<!-- proc~plot&#45;&gt;plline -->
<g id="edge13" class="edge"><title>proc~plot&#45;&gt;plline</title>
<path fill="none" stroke="black" d="M149.403,-180C157.393,-180 166.311,-180 174.824,-180"/>
<polygon fill="black" stroke="black" points="174.919,-183.5 184.919,-180 174.919,-176.5 174.919,-183.5"/>
</g>
<!-- plptex -->
<g id="node22" class="node"><title>plptex</title>
<polygon fill="#777777" stroke="#777777" points="239,-150 185,-150 185,-126 239,-126 239,-150"/>
<text text-anchor="middle" x="212" y="-135.6" font-family="Helvetica,sans-Serif" font-size="10.50" fill="white">plptex</text>
</g>
<!-- proc~plot&#45;&gt;plptex -->
<g id="edge14" class="edge"><title>proc~plot&#45;&gt;plptex</title>
<path fill="none" stroke="black" d="M148.453,-167.852C157.21,-163.673 167.165,-158.921 176.518,-154.457"/>
<polygon fill="black" stroke="black" points="178.087,-157.587 185.604,-150.121 175.072,-151.27 178.087,-157.587"/>
</g>
<!-- pllab -->
<g id="node23" class="node"><title>pllab</title>
<polygon fill="#777777" stroke="#777777" points="239,-108 185,-108 185,-84 239,-84 239,-108"/>
<text text-anchor="middle" x="212" y="-93.6" font-family="Helvetica,sans-Serif" font-size="10.50" fill="white">pllab</text>
</g>
<!-- proc~labels&#45;&gt;pllab -->
<g id="edge15" class="edge"><title>proc~labels&#45;&gt;pllab</title>
<path fill="none" stroke="black" d="M149.403,-96C157.393,-96 166.311,-96 174.824,-96"/>
<polygon fill="black" stroke="black" points="174.919,-99.5001 184.919,-96 174.919,-92.5001 174.919,-99.5001"/>
</g>
<!-- plwind -->
<g id="node24" class="node"><title>plwind</title>
<polygon fill="#777777" stroke="#777777" points="239,-66 185,-66 185,-42 239,-42 239,-66"/>
<text text-anchor="middle" x="212" y="-51.6" font-family="Helvetica,sans-Serif" font-size="10.50" fill="white">plwind</text>
</g>
<!-- proc~xylim&#45;&gt;plwind -->
<g id="edge16" class="edge"><title>proc~xylim&#45;&gt;plwind</title>
<path fill="none" stroke="black" d="M149.403,-54C157.393,-54 166.311,-54 174.824,-54"/>
<polygon fill="black" stroke="black" points="174.919,-57.5001 184.919,-54 174.919,-50.5001 174.919,-57.5001"/>
</g>
<!-- figsize -->
<g id="node25" class="node"><title>figsize</title>
<polygon fill="#777777" stroke="#777777" points="329,-717 275,-717 275,-693 329,-693 329,-717"/>
<text text-anchor="middle" x="302" y="-702.6" font-family="Helvetica,sans-Serif" font-size="10.50" fill="white">figsize</text>
</g>
<!-- proc~setup&#45;&gt;figsize -->
<g id="edge17" class="edge"><title>proc~setup&#45;&gt;figsize</title>
<path fill="none" stroke="black" d="M220.546,-612.152C231.43,-629.188 252.689,-660.695 275,-684 275.65,-684.678 276.321,-685.355 277.009,-686.027"/>
<polygon fill="black" stroke="black" points="274.974,-688.902 284.764,-692.953 279.636,-683.681 274.974,-688.902"/>
</g>
<!-- plsdev -->
<g id="node26" class="node"><title>plsdev</title>
<polygon fill="#777777" stroke="#777777" points="329,-675 275,-675 275,-651 329,-651 329,-675"/>
<text text-anchor="middle" x="302" y="-660.6" font-family="Helvetica,sans-Serif" font-size="10.50" fill="white">plsdev</text>
</g>
<!-- proc~setup&#45;&gt;plsdev -->
<g id="edge18" class="edge"><title>proc~setup&#45;&gt;plsdev</title>
<path fill="none" stroke="black" d="M229.967,-612.147C242.994,-621.473 261.181,-634.493 275.891,-645.024"/>
<polygon fill="black" stroke="black" points="273.916,-647.915 284.085,-650.89 277.991,-642.223 273.916,-647.915"/>
</g>
<!-- plfontld -->
<g id="node27" class="node"><title>plfontld</title>
<polygon fill="#777777" stroke="#777777" points="329,-633 275,-633 275,-609 329,-609 329,-633"/>
<text text-anchor="middle" x="302" y="-618.6" font-family="Helvetica,sans-Serif" font-size="10.50" fill="white">plfontld</text>
</g>
<!-- proc~setup&#45;&gt;plfontld -->
<g id="edge19" class="edge"><title>proc~setup&#45;&gt;plfontld</title>
<path fill="none" stroke="black" d="M239.403,-606.301C247.481,-608.228 256.507,-610.382 265.105,-612.434"/>
<polygon fill="black" stroke="black" points="264.38,-615.859 274.919,-614.776 266.005,-609.05 264.38,-615.859"/>
</g>
<!-- plsfnam -->
<g id="node28" class="node"><title>plsfnam</title>
<polygon fill="#777777" stroke="#777777" points="329,-591 275,-591 275,-567 329,-567 329,-591"/>
<text text-anchor="middle" x="302" y="-576.6" font-family="Helvetica,sans-Serif" font-size="10.50" fill="white">plsfnam</text>
</g>
<!-- proc~setup&#45;&gt;plsfnam -->
<g id="edge20" class="edge"><title>proc~setup&#45;&gt;plsfnam</title>
<path fill="none" stroke="black" d="M239.403,-593.699C247.481,-591.772 256.507,-589.618 265.105,-587.566"/>
<polygon fill="black" stroke="black" points="266.005,-590.95 274.919,-585.224 264.38,-584.141 266.005,-590.95"/>
</g>
<!-- plsfam -->
<g id="node29" class="node"><title>plsfam</title>
<polygon fill="#777777" stroke="#777777" points="329,-549 275,-549 275,-525 329,-525 329,-549"/>
<text text-anchor="middle" x="302" y="-534.6" font-family="Helvetica,sans-Serif" font-size="10.50" fill="white">plsfam</text>
</g>
<!-- proc~setup&#45;&gt;plsfam -->
<g id="edge21" class="edge"><title>proc~setup&#45;&gt;plsfam</title>
<path fill="none" stroke="black" d="M229.967,-587.853C242.994,-578.527 261.181,-565.507 275.891,-554.976"/>
<polygon fill="black" stroke="black" points="277.991,-557.777 284.085,-549.11 273.916,-552.085 277.991,-557.777"/>
</g>
<!-- plsetopt -->
<g id="node30" class="node"><title>plsetopt</title>
<polygon fill="#777777" stroke="#777777" points="329,-507 275,-507 275,-483 329,-483 329,-507"/>
<text text-anchor="middle" x="302" y="-492.6" font-family="Helvetica,sans-Serif" font-size="10.50" fill="white">plsetopt</text>
</g>
<!-- proc~setup&#45;&gt;plsetopt -->
<g id="edge22" class="edge"><title>proc~setup&#45;&gt;plsetopt</title>
<path fill="none" stroke="black" d="M229.79,-587.979C233.05,-585.234 236.292,-582.181 239,-579 259.905,-554.444 254.095,-540.556 275,-516 275.592,-515.304 276.21,-514.614 276.848,-513.933"/>
<polygon fill="black" stroke="black" points="279.315,-516.417 284.21,-507.021 274.524,-511.314 279.315,-516.417"/>
</g>
</g>
</svg>
