<?xml version="1.0" encoding="UTF-8" standalone="no"?>
<!DOCTYPE svg PUBLIC "-//W3C//DTD SVG 1.1//EN"
 "http://www.w3.org/Graphics/SVG/1.1/DTD/svg11.dtd">
<!-- Generated by graphviz version 2.38.0 (20140413.2041)
 -->
<!-- Title: program~~basic_prg~~UsesGraph Pages: 1 -->
<svg width="279pt" height="74pt"
 viewBox="0.00 0.00 279.00 74.00" xmlns="http://www.w3.org/2000/svg" xmlns:xlink="http://www.w3.org/1999/xlink">
<g id="graph0" class="graph" transform="scale(1 1) rotate(0) translate(4 70)">
<title>program~~basic_prg~~UsesGraph</title>
<polygon fill="white" stroke="none" points="-4,4 -4,-70 275,-70 275,4 -4,4"/>
<!-- program~basic_prg -->
<g id="node1" class="node"><title>program~basic_prg</title>
<polygon fill="none" stroke="black" points="271,-46 212,-46 212,-22 271,-22 271,-46"/>
<text text-anchor="middle" x="241.5" y="-31.6" font-family="Helvetica,sans-Serif" font-size="10.50">basic_prg</text>
</g>
<!-- module~kinds_mod -->
<g id="node2" class="node"><title>module~kinds_mod</title>
<g id="a_node2"><a xlink:href="../module/kinds_mod.html" xlink:title="kinds_mod">
<polygon fill="#337ab7" stroke="#337ab7" points="64,-66 0,-66 0,-42 64,-42 64,-66"/>
<text text-anchor="middle" x="32" y="-51.6" font-family="Helvetica,sans-Serif" font-size="10.50" fill="white">kinds_mod</text>
</a>
</g>
</g>
<!-- module~kinds_mod&#45;&gt;program~basic_prg -->
<g id="edge3" class="edge"><title>module~kinds_mod&#45;&gt;program~basic_prg</title>
<path fill="none" stroke="black" stroke-dasharray="5,2" d="M64.0648,-51.0058C100.804,-47.4647 161.981,-41.5681 201.775,-37.7325"/>
<polygon fill="black" stroke="black" points="202.28,-41.2002 211.898,-36.7568 201.608,-34.2324 202.28,-41.2002"/>
</g>
<!-- module~plplotlib_mod -->
<g id="node3" class="node"><title>module~plplotlib_mod</title>
<g id="a_node3"><a xlink:href="../module/plplotlib_mod.html" xlink:title="plplotlib_mod">
<polygon fill="#337ab7" stroke="#337ab7" points="176,-26 100,-26 100,-2 176,-2 176,-26"/>
<text text-anchor="middle" x="138" y="-11.6" font-family="Helvetica,sans-Serif" font-size="10.50" fill="white">plplotlib_mod</text>
</a>
</g>
</g>
<!-- module~kinds_mod&#45;&gt;module~plplotlib_mod -->
<g id="edge2" class="edge"><title>module~kinds_mod&#45;&gt;module~plplotlib_mod</title>
<path fill="none" stroke="black" stroke-dasharray="5,2" d="M64.2034,-41.9987C74.1897,-38.1578 85.4012,-33.8457 95.9778,-29.7778"/>
<polygon fill="black" stroke="black" points="97.3821,-32.9877 105.459,-26.1311 94.8692,-26.4542 97.3821,-32.9877"/>
</g>
<!-- module~plplotlib_mod&#45;&gt;program~basic_prg -->
<g id="edge4" class="edge"><title>module~plplotlib_mod&#45;&gt;program~basic_prg</title>
<path fill="none" stroke="black" stroke-dasharray="5,2" d="M176.219,-21.3337C184.585,-22.9823 193.481,-24.7351 201.902,-26.3945"/>
<polygon fill="black" stroke="black" points="201.384,-29.8596 211.872,-28.359 202.737,-22.9917 201.384,-29.8596"/>
</g>
<!-- plplot -->
<g id="node4" class="node"><title>plplot</title>
<polygon fill="#337ab7" stroke="#337ab7" points="59,-24 5,-24 5,-0 59,-0 59,-24"/>
<text text-anchor="middle" x="32" y="-9.6" font-family="Helvetica,sans-Serif" font-size="10.50" fill="white">plplot</text>
</g>
<!-- plplot&#45;&gt;module~plplotlib_mod -->
<g id="edge1" class="edge"><title>plplot&#45;&gt;module~plplotlib_mod</title>
<path fill="none" stroke="black" stroke-dasharray="5,2" d="M59.2436,-12.5047C68.4502,-12.6817 79.098,-12.8865 89.5034,-13.0866"/>
<polygon fill="black" stroke="black" points="89.7002,-16.5909 99.7657,-13.284 89.8349,-9.59224 89.7002,-16.5909"/>
</g>
</g>
</svg>
