<?xml version="1.0" encoding="UTF-8" standalone="no"?>
<!DOCTYPE svg PUBLIC "-//W3C//DTD SVG 1.1//EN"
 "http://www.w3.org/Graphics/SVG/1.1/DTD/svg11.dtd">
<!-- Generated by graphviz version 2.38.0 (20140413.2041)
 -->
<!-- Title: program~~main_prg~~UsesGraph Pages: 1 -->
<svg width="399pt" height="85pt"
 viewBox="0.00 0.00 399.00 85.24" xmlns="http://www.w3.org/2000/svg" xmlns:xlink="http://www.w3.org/1999/xlink">
<g id="graph0" class="graph" transform="scale(1 1) rotate(0) translate(4 81.2409)">
<title>program~~main_prg~~UsesGraph</title>
<polygon fill="white" stroke="none" points="-4,4 -4,-81.2409 395,-81.2409 395,4 -4,4"/>
<!-- program~main_prg -->
<g id="node1" class="node"><title>program~main_prg</title>
<polygon fill="none" stroke="black" points="391,-37.2409 333,-37.2409 333,-13.2409 391,-13.2409 391,-37.2409"/>
<text text-anchor="middle" x="362" y="-22.8409" font-family="Helvetica,sans-Serif" font-size="10.50">main_prg</text>
</g>
<!-- module~examples_mod -->
<g id="node2" class="node"><title>module~examples_mod</title>
<g id="a_node2"><a xlink:href="../module/examples_mod.html" xlink:title="examples_mod">
<polygon fill="#337ab7" stroke="#337ab7" points="297,-37.2409 212,-37.2409 212,-13.2409 297,-13.2409 297,-37.2409"/>
<text text-anchor="middle" x="254.5" y="-22.8409" font-family="Helvetica,sans-Serif" font-size="10.50" fill="white">examples_mod</text>
</a>
</g>
</g>
<!-- module~examples_mod&#45;&gt;program~main_prg -->
<g id="edge5" class="edge"><title>module~examples_mod&#45;&gt;program~main_prg</title>
<path fill="none" stroke="black" stroke-dasharray="5,2" d="M297.196,-25.2409C305.62,-25.2409 314.437,-25.2409 322.736,-25.2409"/>
<polygon fill="black" stroke="black" points="322.901,-28.741 332.901,-25.2409 322.901,-21.741 322.901,-28.741"/>
</g>
<!-- module~kinds_mod -->
<g id="node3" class="node"><title>module~kinds_mod</title>
<g id="a_node3"><a xlink:href="../module/kinds_mod.html" xlink:title="kinds_mod">
<polygon fill="#337ab7" stroke="#337ab7" points="64,-77.2409 0,-77.2409 0,-53.2409 64,-53.2409 64,-77.2409"/>
<text text-anchor="middle" x="32" y="-62.8409" font-family="Helvetica,sans-Serif" font-size="10.50" fill="white">kinds_mod</text>
</a>
</g>
</g>
<!-- module~kinds_mod&#45;&gt;program~main_prg -->
<g id="edge6" class="edge"><title>module~kinds_mod&#45;&gt;program~main_prg</title>
<path fill="none" stroke="black" stroke-dasharray="5,2" d="M139,-65.2409C209.473,-59.2357 227.951,-61.5632 297,-46.2409 305.616,-44.329 314.714,-41.7193 323.261,-38.9894"/>
<polygon fill="black" stroke="black" points="324.591,-42.2358 332.979,-35.7642 322.386,-35.5921 324.591,-42.2358"/>
</g>
<!-- module~kinds_mod&#45;&gt;module~examples_mod -->
<g id="edge1" class="edge"><title>module~kinds_mod&#45;&gt;module~examples_mod</title>
<path fill="none" stroke="black" stroke-dasharray="5,2" d="M64.0033,-66.6152C84.7107,-67.1955 112.533,-67.3258 137,-65.2409"/>
<path fill="none" stroke="black" stroke-dasharray="5,2" d="M139,-65.2409C167.693,-62.7958 198.407,-51.5473 220.794,-41.5992"/>
<polygon fill="black" stroke="black" points="222.525,-44.6556 230.152,-37.301 219.603,-38.2945 222.525,-44.6556"/>
</g>
<!-- module~plplotlib_mod -->
<g id="node4" class="node"><title>module~plplotlib_mod</title>
<g id="a_node4"><a xlink:href="../module/plplotlib_mod.html" xlink:title="plplotlib_mod">
<polygon fill="#337ab7" stroke="#337ab7" points="176,-36.2409 100,-36.2409 100,-12.2409 176,-12.2409 176,-36.2409"/>
<text text-anchor="middle" x="138" y="-21.8409" font-family="Helvetica,sans-Serif" font-size="10.50" fill="white">plplotlib_mod</text>
</a>
</g>
</g>
<!-- module~kinds_mod&#45;&gt;module~plplotlib_mod -->
<g id="edge4" class="edge"><title>module~kinds_mod&#45;&gt;module~plplotlib_mod</title>
<path fill="none" stroke="black" stroke-dasharray="5,2" d="M63.6409,-53.1613C74.0215,-49.069 85.7766,-44.4347 96.7874,-40.0939"/>
<polygon fill="black" stroke="black" points="98.1992,-43.2996 106.219,-36.3758 95.6318,-36.7874 98.1992,-43.2996"/>
</g>
<!-- module~plplotlib_mod&#45;&gt;program~main_prg -->
<g id="edge7" class="edge"><title>module~plplotlib_mod&#45;&gt;program~main_prg</title>
<path fill="none" stroke="black" stroke-dasharray="5,2" d="M175.367,-12.223C186.942,-8.95496 199.888,-5.87003 212,-4.2409 249.441,0.795153 259.696,1.72287 297,-4.2409 305.632,-5.62084 314.679,-7.98536 323.164,-10.6418"/>
<polygon fill="black" stroke="black" points="322.213,-14.0142 332.807,-13.8529 324.425,-7.3727 322.213,-14.0142"/>
</g>
<!-- module~plplotlib_mod&#45;&gt;module~examples_mod -->
<g id="edge2" class="edge"><title>module~plplotlib_mod&#45;&gt;module~examples_mod</title>
<path fill="none" stroke="black" stroke-dasharray="5,2" d="M176.175,-24.5656C184.253,-24.6361 192.941,-24.712 201.473,-24.7865"/>
<polygon fill="black" stroke="black" points="201.721,-28.2887 211.752,-24.8763 201.783,-21.289 201.721,-28.2887"/>
</g>
<!-- plplot -->
<g id="node5" class="node"><title>plplot</title>
<polygon fill="#337ab7" stroke="#337ab7" points="59,-35.2409 5,-35.2409 5,-11.2409 59,-11.2409 59,-35.2409"/>
<text text-anchor="middle" x="32" y="-20.8409" font-family="Helvetica,sans-Serif" font-size="10.50" fill="white">plplot</text>
</g>
<!-- plplot&#45;&gt;module~plplotlib_mod -->
<g id="edge3" class="edge"><title>plplot&#45;&gt;module~plplotlib_mod</title>
<path fill="none" stroke="black" stroke-dasharray="5,2" d="M59.2436,-23.4932C68.4502,-23.5818 79.098,-23.6842 89.5034,-23.7842"/>
<polygon fill="black" stroke="black" points="89.7325,-27.2865 99.7657,-23.8829 89.7999,-20.2868 89.7325,-27.2865"/>
</g>
</g>
</svg>
